<?xml version="1.0" encoding="utf-8"?>
<!-- Generator: Adobe Illustrator 17.1.0, SVG Export Plug-In . SVG Version: 6.00 Build 0)  -->
<!DOCTYPE svg PUBLIC "-//W3C//DTD SVG 1.1//EN" "http://www.w3.org/Graphics/SVG/1.1/DTD/svg11.dtd">
<svg version="1.1"
	 id="Layer_1" inkscape:version="0.48.4 r9939" sodipodi:version="0.32" sodipodi:docname="Flag_of_the_U.S._National_Security_Agency.svg" inkscape:output_extension="org.inkscape.output.svg.inkscape" xmlns:inkscape="http://www.inkscape.org/namespaces/inkscape" xmlns:dc="http://purl.org/dc/elements/1.1/" xmlns:svg="http://www.w3.org/2000/svg" xmlns:rdf="http://www.w3.org/1999/02/22-rdf-syntax-ns#" xmlns:cc="http://creativecommons.org/ns#" xmlns:sodipodi="http://sodipodi.sourceforge.net/DTD/sodipodi-0.dtd"
	 xmlns="http://www.w3.org/2000/svg" xmlns:xlink="http://www.w3.org/1999/xlink" x="0px" y="0px" viewBox="0 0 400 200"
	 enable-background="new 0 0 400 200" xml:space="preserve">
<sodipodi:namedview  width="720px" height="720px" id="base" inkscape:current-layer="g3" inkscape:window-maximized="1" fit-margin-bottom="0" inkscape:pageshadow="2" inkscape:window-width="1920" inkscape:window-x="-8" fit-margin-right="0" inkscape:showpageshadow="false" inkscape:window-y="-8" inkscape:pageopacity="0.0" inkscape:window-height="1096" inkscape:cy="196.95099" fit-margin-top="0" inkscape:cx="-36.276932" pagecolor="#ffffff" inkscape:zoom="0.95904189" fit-margin-left="0" bordercolor="#666666" showgrid="false" borderopacity="1.0" objecttolerance="10.0" gridtolerance="10.0" guidetolerance="10.0">
	</sodipodi:namedview>
<g id="path5">
	<path inkscape:connector-curvature="0" fill="#E0AF35" d="M200,200c55.2,0,100-44.8,100-100S255.2,0,200,0
		c-55.2,0-100,44.8-100,100C100,155.2,144.8,200,200,200z"/>
</g>
<g id="path7">
	<path inkscape:connector-curvature="0" fill="#FFFFFF" d="M200,197c53.6,0,97.1-43.4,97.1-97.1S253.6,2.9,200,2.9
		s-97.1,43.4-97.1,97.1C103,153.5,146.4,197,200,197z"/>
</g>
<g id="path9">
	<path inkscape:connector-curvature="0" fill="#E0AF35" d="M200,176.8c42.4,0,76.8-34.4,76.8-76.8c0-42.5-34.4-76.9-76.8-76.9
		s-76.8,34.4-76.8,76.8S157.5,176.8,200,176.8L200,176.8z"/>
</g>
<g id="path11">
	<path inkscape:connector-curvature="0" fill="#124471" d="M200,174.9c41.4,0,74.9-33.6,74.9-74.9S241.4,25,200,25S125,58.6,125,100
		C125,141.3,158.6,174.9,200,174.9L200,174.9z"/>
</g>
<g id="polyline13">
	<polyline fill="#FFFFFF" points="205.3,110.5 198.1,110.5 205.3,109.8 	"/>
	<path d="M205.3,110.6l-7.2-0.1c0,0,0,0,0,0c0,0,0,0,0,0l7.2-0.7l0,0.1l-6.5,0.6L205.3,110.6L205.3,110.6z"/>
</g>
<g id="path15">
	<path inkscape:connector-curvature="0" fill="#FFFFFF" d="M194.9,150.4l3.2,1.7l3.3-1.7l-3.3-36.2L194.9,150.4L194.9,150.4z
		 M198.1,113.5l11.5,35.1l2.6,1l1.5-2L198.1,113.5z M209.7,148.8l-1.7,2.1l-2.5-1l-7.4-36.2L209.7,148.8z M205.6,150l-1.8,1.4
		l-2.3-0.9l-3.3-36.3L205.6,150L205.6,150z M198.1,113.5l-11.5,35.1l-2.6,1l-1.5-2L198.1,113.5z M186.6,148.8l1.7,2.1l2.5-1
		l7.4-36.2L186.6,148.8L186.6,148.8z M190.7,150l1.8,1.4l2.3-0.9l3.3-36.3L190.7,150L190.7,150z"/>
	<path fill="#FFFFFF" d="M198.1,152.3C198.1,152.3,198.1,152.3,198.1,152.3l-3.2-1.7c0,0,0,0,0,0l-2.3,0.9c0,0-0.1,0-0.1,0l-1.8-1.4
		c0,0,0,0,0,0l-2.3,1c0,0-0.1,0-0.1,0l-1.7-2.1c0,0,0,0,0,0l-2.4,0.9c0,0-0.1,0-0.1,0l-1.5-2c0,0,0-0.1,0-0.1l15.5-34.1c0,0,0,0,0,0
		c0,0,0,0,0,0l0,0c0,0,0,0,0,0c0,0,0,0,0,0s0,0,0,0c0,0,0,0,0,0h0l0,0c0,0,0,0,0,0l0,0c0,0,0,0,0,0l0,0l0,0c0,0,0,0,0,0l0,0h0h0
		c0,0,0,0,0,0h0c0,0,0,0,0,0h0l0,0c0,0,0,0,0,0l0,0c0,0,0,0,0,0c0,0,0,0,0,0c0,0,0,0,0,0v0c0,0,0,0,0,0v0c0,0,0,0,0,0s0,0,0,0
		c0,0,0,0,0,0c0,0,0,0,0,0l0,0l15.5,34.1c0,0,0,0.1,0,0.1l-1.5,2c0,0-0.1,0.1-0.1,0l-2.4-0.9c0,0,0,0,0,0l-1.7,2.1
		c0,0-0.1,0.1-0.1,0l-2.3-1c0,0,0,0,0,0l-1.8,1.4c0,0-0.1,0-0.1,0l-2.3-0.9L198.1,152.3C198.2,152.3,198.2,152.3,198.1,152.3z
		 M195,150.4l3.1,1.7l3.2-1.6l-3.2-34.8l-0.5,5.2L195,150.4z M201.6,150.4l2.2,0.8l1.7-1.3l-7-33.8l0.7,7.1L201.6,150.4z
		 M190.9,149.9l1.7,1.3l2.2-0.8l3.1-34.2L190.9,149.9z M205.7,149.8l2.3,1l1.6-2l0,0c0,0,0,0,0,0l-1.3-4.1l-9.6-29L205.7,149.8z
		 M186.7,148.7l1.6,2l2.3-1l7-34.2l-8.8,26.9h0l0,0L186.7,148.7C186.7,148.7,186.7,148.7,186.7,148.7L186.7,148.7z M182.7,147.6
		l1.4,1.9l2.4-0.9l2-6.2l8.8-27L182.7,147.6z M209.8,148.5l2.4,0.9l1.4-1.9l-14.7-32.3L209.8,148.5z"/>
</g>
<g id="polygon17">
	<polygon fill="#FFFFFF" points="201.5,150.4 198.1,114.3 194.9,150.4 194.9,150.4 198.1,152.2 	"/>
	<path d="M198.1,152.2C198.1,152.2,198.1,152.2,198.1,152.2l-3.2-1.8c0,0,0,0,0,0l3.2-36.2c0,0,0,0,0,0l0,0c0,0,0,0,0,0l3.3,36.2
		c0,0,0,0,0,0L198.1,152.2C198.2,152.2,198.2,152.2,198.1,152.2z M195,150.4l3.2,1.7l3.3-1.7l-3.3-35.7L195,150.4z"/>
</g>
<g id="path19">
	<path d="M198.2,150.7L198.2,150.7l-0.1-36.3h0.1V150.7z M198.1,110.5L198.1,110.5l7-0.4l0,0.1L198.1,110.5z"/>
</g>
<g id="polyline21">
	<polyline fill="#FFFFFF" points="205.1,111.3 198.1,110.6 205,110.5 	"/>
	<path d="M205.1,111.3l-7-0.6c0,0,0,0,0,0c0,0,0,0,0,0l6.9-0.1l0,0.1l-6.2,0.1L205.1,111.3L205.1,111.3z"/>
</g>
<g id="line23">
	
		<rect x="198.1" y="110.7" transform="matrix(0.9993 3.675249e-002 -3.675249e-002 0.9993 4.2065 -7.333)" width="6.8" height="0.1"/>
</g>
<g id="polyline25">
	<polyline fill="#FFFFFF" points="205.1,112 198.1,110.8 205.1,111.3 	"/>
	<path d="M205.1,112.1l-7-1.2c0,0,0,0,0,0c0,0,0,0,0,0l7,0.4l0,0.1l-6.3-0.4L205.1,112.1L205.1,112.1z"/>
</g>
<g id="line27">
	<rect x="198.1" y="111.2" transform="matrix(0.9934 0.1148 -0.1148 0.9934 14.0957 -22.405)" width="7" height="0.1"/>
</g>
<g id="polyline29">
	<polyline fill="#FFFFFF" points="205,112.8 198.1,111 205.1,112 	"/>
	<path d="M205,112.8l-6.9-1.7c0,0,0,0,0,0c0,0,0,0,0,0c0,0,0,0,0,0l7,0.9l0,0.1l-6.3-0.9L205,112.8L205,112.8z"/>
</g>
<g id="line31">
	<rect x="198.1" y="111.7" transform="matrix(0.9812 0.1931 -0.1931 0.9812 25.3797 -36.8506)" width="7.2" height="0.1"/>
</g>
<g id="polyline33">
	<polyline fill="#FFFFFF" points="205,113.6 198.1,111.2 205.1,112.8 	"/>
	<path d="M205,113.6l-6.9-2.4c0,0,0,0,0,0c0,0,0,0,0,0c0,0,0,0,0,0l7,1.6l0,0.1l-6.4-1.4L205,113.6L205,113.6z"/>
</g>
<g id="line35">
	<rect x="198" y="112.3" transform="matrix(0.9596 0.2815 -0.2815 0.9596 39.7746 -52.2572)" width="7.5" height="0.1"/>
</g>
<g id="polyline37">
	<polyline fill="#FFFFFF" points="205.2,114.7 198.1,111.5 205.3,113.8 	"/>
	<path d="M205.2,114.7l-7.1-3.2c0,0,0,0,0,0c0,0,0,0,0,0l7.2,2.3l0,0.1l-6.5-2.1L205.2,114.7L205.2,114.7z"/>
</g>
<g id="line39">
	<rect x="197.9" y="112.8" transform="matrix(0.9356 0.3531 -0.3531 0.9356 52.819 -63.9557)" width="7.7" height="0.1"/>
</g>
<g id="polyline41">
	<polyline fill="#FFFFFF" points="205.6,116 198.1,111.7 205.2,114.7 	"/>
	<path d="M205.6,116.1l-7.5-4.4c0,0,0,0,0,0c0,0,0,0,0,0l7.1,3l0,0.1l-6.6-2.8L205.6,116.1L205.6,116.1z"/>
</g>
<g id="line43">
	<rect x="197.7" y="113.5" transform="matrix(0.8917 0.4526 -0.4526 0.8917 73.2531 -79.0798)" width="8.4" height="0.1"/>
</g>
<g id="polyline45">
	<polyline fill="#FFFFFF" points="205.9,117.7 198.1,111.9 205.6,116 	"/>
	<path d="M205.9,117.7l-7.8-5.8c0,0,0,0,0,0c0,0,0,0,0,0l7.4,4.1l0,0.1l-6.9-3.9L205.9,117.7L205.9,117.7z"/>
</g>
<g id="line47">
	<rect x="197.4" y="114.4" transform="matrix(0.8371 0.5471 -0.5471 0.8371 95.5245 -91.8966)" width="9.3" height="0.1"/>
</g>
<g id="polyline49">
	<polyline fill="#FFFFFF" points="206.1,119.6 198.1,112.1 206,117.7 	"/>
	<path d="M206.1,119.6l-8-7.5c0,0,0,0,0-0.1c0,0,0,0,0.1,0l7.9,5.6l0,0.1l-7.4-5.3L206.1,119.6L206.1,119.6z"/>
</g>
<g id="line51">
	<rect x="197" y="115.3" transform="matrix(0.7732 0.6342 -0.6342 0.7732 118.943 -101.9633)" width="10" height="0.1"/>
</g>
<g id="polyline53">
	<polyline fill="#FFFFFF" points="206.3,122.1 198.1,112.4 206.1,119.5 	"/>
	<path d="M206.3,122.2l-8.2-9.7c0,0,0,0,0,0c0,0,0,0,0.1,0l7.9,7.1l0,0.1l-7.5-6.8L206.3,122.2L206.3,122.2z"/>
</g>
<g id="line55">
	<rect x="196.4" y="116.6" transform="matrix(0.6927 0.7212 -0.7212 0.6927 146.2416 -109.9882)" width="11.7" height="0.1"/>
</g>
<g id="polyline57">
	<polyline fill="#FFFFFF" points="206.6,125.7 198.1,112.7 206.4,122.2 	"/>
	<path d="M206.5,125.7l-8.4-13c0,0,0,0,0,0c0,0,0,0,0,0l8.2,9.4l-0.1,0l-7.9-9.1L206.5,125.7L206.5,125.7z"/>
</g>
<g id="line59">
	<rect x="195.6" y="117.8" transform="matrix(0.6061 0.7954 -0.7954 0.6061 173.3342 -114.2988)" width="13" height="0.1"/>
</g>
<g id="polyline61">
	<polyline fill="#FFFFFF" points="207.8,134.6 198.1,113.1 206.6,125.7 	"/>
	<path d="M207.8,134.6l-9.6-21.5c0,0,0,0,0,0s0,0,0,0l8.5,12.6l-0.1,0l-8.2-12.2L207.8,134.6L207.8,134.6z"/>
</g>
<g id="line63">
	<rect x="193.5" y="121" transform="matrix(0.4845 0.8748 -0.8748 0.4845 210.2819 -114.7733)" width="18.1" height="0.1"/>
</g>
<g id="polygon65">
	<polygon fill="#FFFFFF" points="212.2,149.6 213.7,147.6 198.1,113.5 198.1,113.5 209.7,148.6 	"/>
	<path d="M212.2,149.7C212.2,149.7,212.2,149.7,212.2,149.7l-2.6-1c0,0,0,0,0,0l-11.5-35.1c0,0,0,0,0,0c0,0,0,0,0,0l15.5,34.1
		c0,0,0,0,0,0L212.2,149.7C212.2,149.6,212.2,149.7,212.2,149.7z M209.7,148.6l2.5,1l1.4-2l-15.3-33.5L209.7,148.6z"/>
</g>
<g id="line67">
	<rect x="186.2" y="131" transform="matrix(0.364 0.9314 -0.9314 0.364 252.399 -107.6195)" width="37.6" height="0.1"/>
</g>
<g id="polygon69">
	<polygon fill="#FFFFFF" points="205.6,149.9 198.1,113.7 209.7,148.8 209.7,148.8 208,150.9 	"/>
	<path d="M208,150.9C208,150.9,208,150.9,208,150.9l-2.5-1c0,0,0,0,0,0l-7.4-36.2c0,0,0,0,0,0c0,0,0,0,0,0l11.6,35.1c0,0,0,0,0,0
		L208,150.9C208.1,150.9,208,150.9,208,150.9z M205.6,149.8l2.4,1l1.6-2.1l-11.4-34.4L205.6,149.8z"/>
</g>
<g id="line71">
	<rect x="184.2" y="131.8" transform="matrix(0.2551 0.9669 -0.9669 0.2551 278.5883 -98.0392)" width="37.4" height="0.1"/>
</g>
<g id="polygon73">
	<polygon fill="#FFFFFF" points="201.5,150.5 198.1,114.2 205.6,150 205.6,150 203.8,151.3 	"/>
	<path d="M203.8,151.4C203.8,151.4,203.8,151.4,203.8,151.4l-2.4-0.9c0,0,0,0,0,0l-3.3-36.3c0,0,0,0,0,0c0,0,0,0,0,0c0,0,0,0,0,0
		l7.4,35.8c0,0,0,0,0,0L203.8,151.4C203.8,151.4,203.8,151.4,203.8,151.4z M201.5,150.4l2.3,0.9l1.7-1.4l-7.3-35.1L201.5,150.4z"/>
</g>
<g id="line75">
	<rect x="182.4" y="132.4" transform="matrix(0.1474 0.9891 -0.9891 0.1474 302.2109 -85.7887)" width="36.9" height="0.1"/>
</g>
<g id="polyline77">
	<polyline fill="#FFFFFF" points="191,110.5 198.1,110.5 191,109.8 	"/>
	<path d="M191,110.6L191,110.6l6.5-0.1l-6.5-0.6l0-0.1l7.2,0.7c0,0,0,0,0,0c0,0,0,0,0,0L191,110.6z"/>
</g>
<g id="line79">
	
		<rect x="191.1" y="110.3" transform="matrix(0.9991 4.347628e-002 -4.347628e-002 0.9991 4.9797 -8.3573)" width="7.1" height="0.1"/>
</g>
<g id="polyline81">
	<polyline fill="#FFFFFF" points="191.2,111.3 198.1,110.6 191.3,110.5 	"/>
	<path d="M191.2,111.3L191.2,111.3l6.3-0.7l-6.2-0.1l0-0.1l6.9,0.1c0,0,0,0,0,0c0,0,0,0,0,0L191.2,111.3z"/>
</g>
<g id="line83">
	<rect x="191.3" y="110.7" width="6.8" height="0.1"/>
</g>
<g id="polyline85">
	<polyline fill="#FFFFFF" points="191.2,112 198.1,110.8 191.2,111.3 	"/>
	<path d="M191.2,112.1L191.2,112.1l6.3-1.2l-6.3,0.4l0-0.1l7-0.4c0,0,0,0,0,0c0,0,0,0,0,0L191.2,112.1z"/>
</g>
<g id="line87">
	<rect x="194.6" y="107.7" transform="matrix(0.1176 0.9931 -0.9931 0.1176 282.2139 -95.1577)" width="0.1" height="7"/>
</g>
<g id="polyline89">
	<polyline fill="#FFFFFF" points="191.3,112.8 198.1,111 191.2,112 	"/>
	<path d="M191.3,112.8L191.3,112.8l6.2-1.6l-6.3,0.9l0-0.1l7-0.9c0,0,0,0,0,0c0,0,0,0,0,0c0,0,0,0,0,0L191.3,112.8z"/>
</g>
<g id="line91">
	<rect x="194.6" y="108.1" transform="matrix(0.1987 0.9801 -0.9801 0.1987 265.461 -101.191)" width="0.1" height="7.2"/>
</g>
<g id="polyline93">
	<polyline fill="#FFFFFF" points="191.3,113.6 198.1,111.2 191.2,112.8 	"/>
	<path d="M191.3,113.6L191.3,113.6l6.2-2.2l-6.4,1.4l0-0.1l7-1.6c0,0,0,0,0,0c0,0,0,0,0,0L191.3,113.6z"/>
</g>
<g id="line95">
	<rect x="194.5" y="108.5" transform="matrix(0.28 0.96 -0.96 0.28 247.8742 -105.9062)" width="0.1" height="7.5"/>
</g>
<g id="polyline97">
	<polyline fill="#FFFFFF" points="191,114.7 198.1,111.5 191,113.8 	"/>
	<path d="M191.1,114.7L191.1,114.7l6.4-3l-6.5,2.1l0-0.1l7.2-2.3c0,0,0,0,0,0s0,0,0,0L191.1,114.7z"/>
</g>
<g id="line99">
	<rect x="194.5" y="109" transform="matrix(0.3599 0.933 -0.933 0.3599 229.8024 -109.3195)" width="0.1" height="7.7"/>
</g>
<g id="polyline101">
	<polyline fill="#FFFFFF" points="190.7,116 198.1,111.7 191,114.7 	"/>
	<path d="M190.7,116.1L190.7,116.1l6.9-4.1l-6.6,2.8l0-0.1l7.1-3c0,0,0,0,0,0c0,0,0,0,0,0L190.7,116.1z"/>
</g>
<g id="line103">
	<rect x="194.4" y="109.3" transform="matrix(0.4472 0.8944 -0.8944 0.4472 209.0293 -111.0895)" width="0.1" height="8.4"/>
</g>
<g id="polyline105">
	<polyline fill="#FFFFFF" points="190.4,117.7 198.1,111.9 190.7,116 	"/>
	<path d="M190.4,117.7L190.4,117.7l7.3-5.6l-6.9,3.9l0-0.1l7.4-4.1c0,0,0,0,0,0c0,0,0,0,0,0L190.4,117.7z"/>
</g>
<g id="line107">
	<rect x="194.2" y="109.8" transform="matrix(0.5394 0.842 -0.842 0.5394 185.8172 -110.8617)" width="0.1" height="9.3"/>
</g>
<g id="polyline109">
	<polyline fill="#FFFFFF" points="190.2,119.6 198.1,112.1 190.3,117.7 	"/>
	<path d="M190.2,119.6L190.2,119.6l7.5-7.1l-7.4,5.3l0-0.1l7.9-5.6c0,0,0,0,0.1,0s0,0,0,0.1L190.2,119.6z"/>
</g>
<g id="line111">
	<rect x="194.2" y="110.3" transform="matrix(0.6376 0.7704 -0.7704 0.6376 159.2418 -107.8796)" width="0.1" height="10"/>
</g>
<g id="polyline113">
	<polyline fill="#FFFFFF" points="190,122.1 198.1,112.4 190.2,119.5 	"/>
	<path d="M190,122.2L190,122.2l7.8-9.4l-7.5,6.8l0-0.1l7.9-7.1c0,0,0,0,0.1,0s0,0,0,0L190,122.2z"/>
</g>
<g id="line115">
	<rect x="194.1" y="110.8" transform="matrix(0.7266 0.687 -0.687 0.7266 133.1751 -101.4787)" width="0.1" height="11.7"/>
</g>
<g id="polyline117">
	<polyline fill="#FFFFFF" points="189.7,125.7 198.1,112.7 189.9,122.2 	"/>
	<path d="M189.8,125.7L189.8,125.7l8.1-12.6l-7.9,9.1l-0.1,0l8.2-9.4c0,0,0,0,0,0s0,0,0,0L189.8,125.7z"/>
</g>
<g id="line119">
	<rect x="194.2" y="111.4" transform="matrix(0.7936 0.6084 -0.6084 0.7936 111.7998 -93.8432)" width="0.1" height="13"/>
</g>
<g id="polyline121">
	<polyline fill="#FFFFFF" points="188.5,134.6 198.1,113.1 189.7,125.7 	"/>
	<path d="M188.5,134.6L188.5,134.6l9.4-21.1l-8.2,12.2l-0.1,0l8.5-12.6c0,0,0,0,0,0c0,0,0,0,0,0L188.5,134.6z"/>
</g>
<g id="line123">
	<rect x="193.7" y="112" transform="matrix(0.8779 0.4789 -0.4789 0.8779 81.6153 -78.0117)" width="0.1" height="18.1"/>
</g>
<g id="polygon125">
	<polygon fill="#FFFFFF" points="184.1,149.6 182.6,147.6 198.1,113.5 198.1,113.5 186.6,148.6 	"/>
	<path d="M184.1,149.7C184.1,149.7,184.1,149.6,184.1,149.7l-1.5-2c0,0,0,0,0,0l15.5-34.1c0,0,0,0,0,0c0,0,0,0,0,0l-11.5,35.1
		c0,0,0,0,0,0L184.1,149.7C184.1,149.7,184.1,149.7,184.1,149.7z M182.6,147.6l1.4,2l2.5-1l11.3-34.5L182.6,147.6z"/>
</g>
<g id="line127">
	<rect x="191.3" y="112.2" transform="matrix(0.9285 0.3714 -0.3714 0.9285 62.3338 -61.6762)" width="0.1" height="37.6"/>
</g>
<g id="polygon129">
	<polygon fill="#FFFFFF" points="190.7,149.9 198.1,113.7 186.6,148.8 186.6,148.8 188.3,150.9 	"/>
	<path d="M188.3,150.9C188.2,150.9,188.2,150.9,188.3,150.9l-1.7-2.2c0,0,0,0,0,0l11.6-35.1c0,0,0,0,0,0c0,0,0,0,0,0l-7.4,36.2
		c0,0,0,0,0,0L188.3,150.9C188.3,150.9,188.3,150.9,188.3,150.9z M186.6,148.7l1.6,2.1l2.4-1l7.3-35.5L186.6,148.7z"/>
</g>
<g id="line131">
	<rect x="193.3" y="113.1" transform="matrix(0.9645 0.2642 -0.2642 0.9645 41.6968 -46.4114)" width="0.1" height="37.4"/>
</g>
<g id="polygon133">
	<polygon fill="#FFFFFF" points="194.8,150.5 198.1,114.2 190.7,150 190.7,150 192.5,151.3 	"/>
	<path d="M192.5,151.4C192.5,151.4,192.5,151.4,192.5,151.4l-1.8-1.4c0,0,0,0,0,0l7.4-35.8c0,0,0,0,0,0c0,0,0,0,0,0c0,0,0,0,0,0
		l-3.3,36.3c0,0,0,0,0,0L192.5,151.4C192.5,151.4,192.5,151.4,192.5,151.4z M190.8,149.9l1.7,1.4l2.3-0.9l3.3-35.6L190.8,149.9z"/>
</g>
<g id="line135">
	<rect x="195.4" y="114" transform="matrix(0.9874 0.158 -0.158 0.9874 23.371 -29.2137)" width="0.1" height="36.9"/>
</g>
<g id="path137">
	<path inkscape:connector-curvature="0" fill="#B2B2B2" d="M254.7,143.9c0,0-1.7-0.2-2.8-1.3c-0.7-0.8-1.9-3.3-1.9-3.3
		c-1.6-3.5-3.7-6.8-7.5-6.8c-3.7,0-8,4.3-9.6,7.8c0,0-0.3,0.5-0.6,0.8c-0.3,0.2-0.9,0.2-0.9,0.2h-77c-1.5,0-2.7,1.2-2.8,2.6l0,0
		c0.1,1.5,1.3,2.7,2.8,2.7h77c0,0,0.6-0.1,0.9,0.2c0.3,0.2,0.6,0.8,0.6,0.8c1.6,3.5,5.8,7.8,9.6,7.8c3.8,0,5.9-3.3,7.5-6.8
		c0,0,1.1-2.6,1.9-3.3C253,144.1,254.7,143.9,254.7,143.9L254.7,143.9z"/>
	<path d="M242.6,155.3c-3.6,0-8-4.1-9.6-7.8c0,0-0.3-0.5-0.6-0.7c-0.2-0.1-0.5-0.2-0.7-0.2c-0.1,0-0.2,0-0.2,0h-77
		c-1.5,0-2.8-1.2-2.8-2.7c0.1-1.5,1.3-2.7,2.8-2.7h77c0,0,0.1,0,0.2,0c0.2,0,0.5,0,0.7-0.2c0.3-0.2,0.6-0.7,0.6-0.7
		c1.6-3.7,6-7.8,9.6-7.8c4,0,6.1,3.6,7.5,6.8c0,0,1.1,2.6,1.9,3.3c1,1,2.7,1.3,2.7,1.3v0.1c0,0-1.7,0.2-2.7,1.3
		c-0.7,0.7-1.8,3.3-1.9,3.3C248.7,151.7,246.6,155.3,242.6,155.3z M231.7,146.5c0.2,0,0.6,0,0.8,0.2c0.3,0.2,0.6,0.7,0.6,0.8
		c1.6,3.7,6,7.8,9.5,7.8c3.9,0,6.1-3.6,7.5-6.8c0-0.1,1.1-2.6,1.9-3.4c0.8-0.8,2-1.2,2.5-1.3c-0.5-0.1-1.8-0.4-2.6-1.3
		c-0.7-0.7-1.8-3.2-1.9-3.4c-1.4-3.1-3.5-6.7-7.5-6.7c-3.6,0-7.9,4.1-9.5,7.8c0,0-0.3,0.5-0.6,0.8c-0.2,0.1-0.5,0.2-0.8,0.2
		c-0.1,0-0.2,0-0.2,0h-77c-1.5,0-2.7,1.1-2.8,2.6c0.1,1.5,1.3,2.6,2.8,2.6h77C231.5,146.5,231.6,146.5,231.7,146.5z"/>
</g>
<g id="path139">
	<path d="M242.6,154.7c-1.5,0-3.4-1-5.2-2.8c-1.5-1.5-2.9-3.5-3.7-5.2l-0.7-1c0,0,0,0,0-0.1c0,0,0,0,0.1,0l0.7,1
		C235,149.5,239.1,154.6,242.6,154.7c2.8-0.1,5-2.1,6.9-6.3c0,0,0.9-2.2,1.6-3.3c0.7-1.1,1.7-1.3,1.7-1.3v0v0h0.6l0,0.1
		c-1,0.3-1.7,0.8-1.7,0.8c0,0,0,0-0.1,0c0,0,0,0,0-0.1c0,0,0.7-0.4,1.5-0.7h-0.4c-0.1,0-1,0.2-1.6,1.3c-0.7,1.1-1.6,3.3-1.6,3.3
		C247.7,152.7,245.4,154.7,242.6,154.7z M153.2,141.9C153.2,141.9,153.1,141.9,153.2,141.9C153.1,141.9,153.1,141.9,153.2,141.9
		c0.5-0.5,1.1-0.5,1.5-0.5h77.5c0.2,0,0.7-0.1,0.9-0.2c0.3-0.3,0.4-0.5,0.4-0.5c1.4-3.1,5.9-7.7,9.3-7.7c2.8,0,5.1,2,6.9,6.2
		c0,0,0.4,1.1,0.9,2.1c0,0,0,0,0,0c0,0,0,0,0,0c-0.5-1-0.9-2.1-0.9-2.1c-1.8-4.2-4.1-6.2-6.9-6.2c-3.4,0-7.8,4.6-9.2,7.7
		c0,0-0.1,0.3-0.5,0.5c-0.2,0.1-0.9,0.2-0.9,0.2h-77.5c0,0,0,0-0.1,0C154.2,141.5,153.6,141.5,153.2,141.9
		C153.2,141.9,153.2,141.9,153.2,141.9z"/>
</g>
<g id="path141">
	<path inkscape:connector-curvature="0" d="M252,143.9c0,0-0.8,0.3-1,1c-0.9,2.2-2.5,2.6-3.3,3.6c-0.9,1-1.4,2.1-2.3,2.9
		c-0.9,0.9-2.7,0.7-2.7,0.7s1.6-0.8,2.1-1c0.5-0.3,1.3-1.3,1.4-1.9c0.1-0.6,0-1.7,0-1.7s2.8-0.2,3.3-0.9c0.5-0.7,1-2.6,1-2.6
		L252,143.9 M234.6,143.9h-1.1c0,0,1.4-2.3,2.2-3.1c0.8-0.9,1.7-2.3,2.1-2.8c0.4-0.6,1-1.7,1-1.7l0.8,0.9l-0.9,3.3l-2.8,0.9
		L234.6,143.9"/>
</g>
<g id="path143">
	<path inkscape:connector-curvature="0" fill="#B2B2B2" d="M238.5,140.1c-0.1-0.2,0-0.1,0-0.3c-0.1-2.1,1.5-3.9,3.6-4
		c2.1-0.1,3.9,1.5,4,3.6c0,0.2,0,0.4,0,0.6c0.2-0.1,0.4-0.1,0.6-0.1c2.1-0.1,3.9,1.5,4,3.6c0.1,2.1-1.5,3.9-3.6,4
		c-0.2,0-0.6,0-0.8,0c0,0.2,0.1,0.5,0.1,0.7c0,2.1-1.7,3.8-3.8,3.8c-2.1,0-3.8-1.7-3.8-3.8c0-0.2,0-0.4,0.1-0.6c-0.2,0-0.4,0-0.6,0
		c-2.1,0-3.8-1.7-3.8-3.8c0-2.1,1.7-3.8,3.8-3.8C238.4,140,238.3,140.1,238.5,140.1L238.5,140.1z"/>
	<path d="M242.6,152c-2.1,0-3.9-1.7-3.9-3.8c0-0.2,0-0.4,0-0.6c-0.2,0-0.4,0-0.6,0c-2.1,0-3.9-1.7-3.9-3.8c0-2.1,1.7-3.9,3.9-3.9
		c0.1,0,0.1,0,0.2,0c0,0,0,0,0.1,0c0-0.1,0-0.1,0-0.1c0,0,0,0,0-0.1c-0.1-1,0.3-2,1-2.8c0.7-0.8,1.6-1.2,2.7-1.3c0.1,0,0.1,0,0.2,0
		c2,0,3.7,1.6,3.8,3.7c0,0.1,0,0.2,0,0.2c0,0.1,0,0.3,0,0.4c0.1,0,0.2,0,0.4,0c0.1,0,0.1,0,0.2,0c0.1,0,0.1,0,0.2,0
		c2,0,3.7,1.6,3.8,3.6c0.1,2.1-1.5,3.9-3.6,4c0,0,0,0,0,0c-0.2,0-0.5,0-0.7,0c0,0.1,0,0.1,0,0.2c0,0.2,0.1,0.3,0.1,0.5
		C246.5,150.3,244.8,152,242.6,152z M238.9,147.6L238.9,147.6c0,0.3-0.1,0.5-0.1,0.7c0,2.1,1.7,3.8,3.8,3.8c2.1,0,3.8-1.7,3.8-3.8
		c0-0.1,0-0.3-0.1-0.5c0-0.1,0-0.2,0-0.2l0,0l0,0c0.2,0,0.5,0,0.7,0c2.1-0.1,3.7-1.9,3.6-3.9c-0.1-2-1.8-3.6-3.7-3.6
		c-0.1,0-0.1,0-0.2,0c-0.1,0-0.1,0-0.2,0c-0.1,0-0.3,0-0.4,0.1l-0.1,0l0-0.1c0-0.1,0-0.3,0-0.4c0-0.1,0-0.2,0-0.2
		c-0.1-2-1.7-3.6-3.7-3.6c-0.1,0-0.1,0-0.2,0c-1,0.1-1.9,0.5-2.6,1.3c-0.7,0.8-1,1.7-1,2.7c0,0.1,0,0.1,0,0.1c0,0,0,0,0,0.1l0,0.1
		l-0.1,0c-0.1,0-0.1,0-0.2,0c0,0,0,0-0.1,0c-2.1,0-3.8,1.7-3.8,3.8c0,2.1,1.7,3.8,3.8,3.8C238.4,147.6,238.6,147.6,238.9,147.6
		L238.9,147.6z"/>
</g>
<g id="path145">
	<path inkscape:connector-curvature="0" fill="#124471" d="M245.3,146.6c0.5,0.3,1.1,0.4,1.7,0.4c1.8-0.1,3.1-1.6,3-3.3
		c-0.1-1.8-1.6-3.1-3.3-3c-0.6,0-1.2,0.3-1.7,0.6c0.3-0.5,0.4-1.1,0.4-1.7c-0.1-1.8-1.6-3.1-3.3-3c-1.8,0.1-3.1,1.6-3,3.3
		c0,0.4,0.1,0.8,0.3,1.1c-0.3-0.1-0.7-0.2-1.1-0.2c-1.8,0-3.2,1.4-3.2,3.2c0,1.8,1.4,3.2,3.2,3.2c0.6,0,1.2-0.2,1.7-0.5
		c-0.3,0.5-0.5,1.1-0.5,1.7c0,1.8,1.4,3.2,3.2,3.2c1.8,0,3.2-1.4,3.2-3.2C245.8,147.6,245.6,147.1,245.3,146.6L245.3,146.6z"/>
	<path d="M242.6,151.5c-1.8,0-3.2-1.4-3.2-3.2c0-0.6,0.1-1.1,0.4-1.6c-0.5,0.3-1,0.4-1.6,0.4c-1.8,0-3.2-1.4-3.2-3.2
		c0-1.8,1.4-3.2,3.2-3.2c0.4,0,0.7,0.1,1,0.2c-0.1-0.3-0.2-0.7-0.2-1c-0.1-0.9,0.2-1.7,0.8-2.3c0.6-0.6,1.4-1,2.2-1.1
		c0.1,0,0.1,0,0.2,0c1.7,0,3.1,1.3,3.2,3c0,0.6-0.1,1.1-0.3,1.6c0.5-0.3,1-0.5,1.6-0.5c0.1,0,0.1,0,0.2,0c1.7,0,3.1,1.3,3.2,3
		c0.1,0.9-0.2,1.7-0.8,2.3c-0.6,0.6-1.4,1-2.2,1.1c-0.5,0-1.1-0.1-1.6-0.3c0.3,0.5,0.4,1.1,0.4,1.6
		C245.8,150,244.4,151.5,242.6,151.5z M239.9,146.5L239.9,146.5c-0.2,0.5-0.4,1.1-0.4,1.7c0,1.7,1.4,3.1,3.1,3.1s3.1-1.4,3.1-3.1
		c0-0.6-0.1-1.1-0.4-1.7l-0.1-0.1l0.1,0.1c0.5,0.3,1.1,0.4,1.7,0.4c0.8,0,1.6-0.4,2.2-1c0.6-0.6,0.8-1.4,0.8-2.3
		c-0.1-1.7-1.4-3-3.1-3c-0.1,0-0.1,0-0.2,0c-0.6,0-1.2,0.2-1.7,0.6l-0.1,0c0.3-0.5,0.4-1.1,0.4-1.7c-0.1-1.7-1.4-3-3.1-3
		c-0.1,0-0.1,0-0.2,0c-0.8,0-1.6,0.4-2.2,1c-0.6,0.6-0.8,1.4-0.8,2.3c0,0.4,0.1,0.7,0.2,1.1l0,0.1l-0.1,0c-0.3-0.1-0.7-0.2-1.1-0.2
		c-1.7,0-3.1,1.4-3.1,3.1s1.4,3.1,3.1,3.1C238.8,147,239.4,146.8,239.9,146.5z"/>
</g>
<g id="path147">
	<path d="M233.4,147C233.4,147,233.4,147,233.4,147c0,0-0.1-0.3-0.5-0.5c-0.1-0.1-0.7-0.2-0.9-0.2h-77.4c-0.3,0-1,0-1.5-0.5
		c0,0,0,0,0-0.1c0,0,0,0,0.1,0c0.5,0.4,1.1,0.4,1.4,0.4h77.5c0,0,0.7,0.1,0.9,0.2C233.3,146.7,233.4,146.9,233.4,147
		C233.4,147,233.4,147,233.4,147C233.4,147,233.4,147,233.4,147z"/>
</g>
<g id="path149">
	<path inkscape:connector-curvature="0" d="M234,147.4c0,0-0.6-1.4-1.3-1.6c-0.6-0.3-1.9-0.2-1.9-0.2h-77c-0.5,0-1.6-0.6-1.6-1.5
		c0,0,0.6,0.9,1.6,1h77c0,0,1.6-0.1,2.1,0.2C233.4,145.7,234,147.4,234,147.4"/>
</g>
<g id="path151">
	<path inkscape:connector-curvature="0" fill="#B2B2B2" d="M229.3,148.2c0.6,0,1-0.5,1-1.1v-7.9c0-0.6-0.5-1-1-1c-0.6,0-1,0.5-1,1
		v7.9C228.3,147.7,228.7,148.2,229.3,148.2z"/>
	<path d="M229.3,148.2c-0.6,0-1.1-0.5-1.1-1.1v-7.9c0-0.6,0.5-1.1,1.1-1.1s1.1,0.5,1.1,1.1v7.9C230.4,147.8,229.9,148.2,229.3,148.2
		z M229.3,138.2c-0.5,0-1,0.4-1,1v7.9c0,0.6,0.5,1,1,1c0.6,0,1-0.4,1-1v-7.9C230.3,138.7,229.8,138.2,229.3,138.2z"/>
</g>
<g id="path153">
	<path d="M229.3,147.9c-0.6,0-1.1-0.5-1.1-1.1h0.1C228.3,147.4,228.7,147.8,229.3,147.9c0.5-0.1,1-0.5,1-1.1h0.1
		C230.4,147.4,229.9,147.9,229.3,147.9z M230.4,139.7L230.4,139.7c-0.1-0.6-0.5-1-1.1-1c-0.5,0-1,0.5-1,1h-0.1
		c0-0.6,0.5-1.1,1.1-1.1C229.9,138.6,230.4,139.1,230.4,139.7z"/>
</g>
<g id="path155">
	<path inkscape:connector-curvature="0" d="M230.3,146.1c0,0.6-0.5,1-1,1c-0.6,0-1-0.5-1-1v0.2c0,0.6,0.5,1,1,1c0.6,0,1-0.5,1-1
		V146.1z"/>
	<path d="M229.3,147.3c-0.6,0-1.1-0.5-1.1-1.1v-0.2h0.1c0,0.5,0.4,1,1,1s1-0.4,1-1h0.1v0.2C230.4,146.8,229.9,147.3,229.3,147.3z
		 M228.3,146.5c0.1,0.4,0.5,0.7,1,0.7c0.4,0,0.8-0.3,1-0.7c-0.2,0.3-0.5,0.6-1,0.6C228.9,147.1,228.5,146.9,228.3,146.5z"/>
</g>
<g id="path157">
	<path inkscape:connector-curvature="0" fill="#94693C" d="M162.4,141c0.1-0.2,0.2-0.4,0.3-0.6"/>
</g>
<g id="path159">
	<path inkscape:connector-curvature="0" fill="#94693C" d="M152,137.8c1.8,0.6,3.6-0.7,5.1-1.8l0.2,0.3c-0.6,2.5-0.5,5.5-1.4,7.9
		l1.2,0.1l0.1-0.5c0.9-0.5,1.9-1.2,2.8-1.9c0,0,2.8-1.2,2.6-1.2l1-2.2c2.6-1.9,4-4.7,5.4-7.4c2.7-6.9,4.3-14.4,4.7-22.2
		c0,0,0.8-0.3,0.9-0.1c0.2,0.1,2-0.2,2.3-0.8l1.4,0.3l1.9-0.1c1.3-0.3,1.8-1.2,2.1-2.2l1.1-0.1l2.5-2.1c-0.6-0.8-1-1.3-1.7-2.3
		c0,0-3.8-4.9-5-14.3C178.7,82,180,73,180,73h1.7c-2-0.9-4.3-2.1-5.7-4c-1-5.1,3.2-9.7,1.1-14.6c-3.8-6.1-12-6.5-18-4.3
		c-10.1,6-10.6,17.9-12.4,28.3l-1.7,23.6c-0.4,5.8,0.3,11.6-0.2,17.3c1.4-0.4,2.8-1.3,3.7-2.5c0.8,3.9,0.4,8.3,0,12.2
		c1.9,0,3.6-1.5,4.6-3l0.2,0.2c-0.1,3.9-0.6,7.6-1.6,11.1L152,137.8L152,137.8z M253.9,115.1c-4.3-13.3-2.2-28.3-4.9-42.2l0.2-1
		c-0.8-5.1-3.3-9.6-5-14.4c-1.9-4-3.8-8.7-8.3-11.1c-3-2.5-7.5-1.3-10.9-0.6c-3.4,1.4-8.2,3.9-8.1,8.4c-0.1,3.6,1.8,6.4,2.2,9.9
		c-0.1,4.2-5.1,7.2-8,8.9h5.2c0,0,1.1,4.5,0.9,10.3c-0.2,5.5-1,11.6-4.8,17.7c-0.1,0.2-1.7,2.6-4.4,5.6l5.5,1.9l0.4-1.5
		c0.1,0.2,0.3,0.2,0.6,0.4c0.5,0.3,1.3,0.1,1.9,0.2l1.2-0.1c0.7-0.2,1.3-0.8,1.5-1.6l0.7,0.2l0.3,0.2c0.6,0.1,1.7,0.4,2.1-0.2
		l0.9,1.4l0.6,2.5c3,7.7,3.2,17,10.9,22.2l0.6,0.3l1.3,0.6l3.6,5.2c1,1.3,2.3,2,3.6,2.8c0.5,0.1,1.3,1.6,1.7,1.2l0.6-1.5l-1-5.3
		c0.8,0.3,1.7,0.3,2.4,0.5l1.2-1c-1-3.2-1.6-6.7-2.1-10.2v-0.7c2.8,1.8,3.9,0.4,3.9,0.4c-0.9-3.5-1.4-7.8-1.7-11.9l0.5-0.1
		c0.3,0.8,0.8,1.5,1.3,2.2c0.6,0.6,1.4,1.1,2.2,0.9L253.9,115.1L253.9,115.1z"/>
	<path d="M157.1,144.4L157.1,144.4l-1.3-0.1l0,0c0.5-1.4,0.7-3,0.9-4.5c0.1-1.1,0.3-2.3,0.5-3.3l-0.2-0.3c-1.3,1-2.8,1.9-4.2,1.9h0
		c-0.3,0-0.6,0-0.9-0.1l0,0l0,0l-0.2-0.5l0,0c0.9-3.4,1.4-7.1,1.6-11.1l-0.2-0.2c-0.6,0.9-2.2,3-4.6,3h0l0.1-0.6
		c0.3-3.7,0.7-7.9,0-11.5c-0.9,1.1-2.2,2-3.7,2.5l-0.1,0l0-0.1c0.3-3,0.2-6.1,0.2-9.1c-0.1-2.7-0.1-5.5,0.1-8.2l1.7-23.6
		c0.2-1.4,0.5-2.8,0.7-4.2c1.4-9.3,2.9-19,11.7-24.2c2.2-0.8,4.6-1.2,6.8-1.2c5,0,9,2,11.2,5.5c1.2,2.7,0.4,5.4-0.3,8
		c-0.6,2.1-1.2,4.4-0.8,6.7c1.4,2,3.9,3.2,5.7,4l0,0.1H180c-0.1,0.6-1.2,9.2-0.6,14.2c1.1,9.2,4.9,14.2,5,14.2
		c0.7,1,1.1,1.5,1.7,2.3l0,0l0,0l-2.5,2.2l0,0l-1.1,0.1c-0.3,1.2-1,1.9-2.1,2.2l-1.9,0.1l0,0L177,108c-0.3,0.6-1.7,0.8-2.2,0.8
		c-0.1,0-0.1,0-0.2,0l0,0l0,0c0,0-0.1-0.1-0.2-0.1c-0.2,0-0.6,0.1-0.6,0.2c-0.4,7.9-2,15.4-4.7,22.2l-0.2,0.4
		c-1.3,2.5-2.7,5.1-5.2,7l-1,2.2c0,0,0,0,0,0c0,0,0,0.1-2.6,1.3c-0.7,0.7-1.7,1.3-2.8,1.9L157.1,144.4z M156,144.2l1.1,0.1l0.1-0.5
		l0,0c1.1-0.6,2-1.3,2.8-1.9l0,0c0.9-0.4,2.4-1,2.6-1.2l0,0l1-2.2l0,0c2.5-1.9,3.9-4.4,5.2-7l0.2-0.4c2.7-6.8,4.3-14.3,4.7-22.2l0,0
		l0,0c0,0,0.4-0.2,0.7-0.2c0.1,0,0.2,0,0.2,0.1c0,0,0,0,0.1,0c0.5,0,1.9-0.3,2.2-0.8l0,0l0,0l1.4,0.3l1.9-0.1c1.1-0.3,1.8-1,2.1-2.2
		l0,0l0,0l1.1-0.1l2.4-2.1c-0.6-0.8-1-1.3-1.7-2.3c0,0-3.8-5-5-14.3c-0.6-5.1,0.6-14.1,0.6-14.2l0,0h1.5c-1.8-0.8-4.2-2-5.5-4l0,0
		c-0.4-2.3,0.2-4.6,0.8-6.7c0.8-2.7,1.5-5.2,0.3-7.9c-2.2-3.5-6.1-5.5-11.1-5.5c-2.3,0-4.6,0.4-6.8,1.2
		c-8.8,5.2-10.3,14.8-11.7,24.1c-0.2,1.4-0.4,2.8-0.7,4.1l-1.7,23.6c-0.2,2.7-0.1,5.5-0.1,8.2c0.1,3,0.1,6.1-0.1,9
		c1.5-0.5,2.8-1.4,3.7-2.5l0-0.1l0,0.1c0.8,3.7,0.4,7.9,0.1,11.6l-0.1,0.6c2.3-0.1,3.9-2.1,4.5-3l0,0l0.3,0.3l0,0
		c-0.1,3.9-0.7,7.7-1.6,11.1l0.2,0.5c0.3,0.1,0.6,0.1,0.9,0.1c1.4,0,2.8-0.9,4.2-1.9l0,0l0.3,0.4l0,0c-0.3,1.1-0.4,2.2-0.5,3.3
		C156.7,141.2,156.5,142.8,156,144.2z M245.1,142.4c-0.2,0-0.5-0.3-0.8-0.6c-0.3-0.3-0.5-0.6-0.7-0.6l0,0c-0.2-0.1-0.4-0.3-0.7-0.4
		c-1-0.6-2.1-1.3-2.9-2.4l-3.6-5.2l-1.3-0.6l-0.6-0.3c-5.6-3.8-7.3-9.9-8.9-15.8c-0.6-2.1-1.2-4.4-2-6.4l-0.6-2.4l-0.9-1.4
		c-0.2,0.2-0.5,0.3-0.9,0.3c-0.3,0-0.6-0.1-0.9-0.1c-0.1,0-0.2,0-0.3,0l0,0l-0.3-0.2l-0.7-0.2c-0.2,0.7-0.8,1.3-1.5,1.5l-1.2,0.1
		c-0.2,0-0.3,0-0.4,0c-0.1,0-0.3,0-0.4,0c-0.4,0-0.8,0-1.1-0.2c-0.1,0-0.1-0.1-0.2-0.1c-0.1,0-0.2-0.1-0.3-0.2l-0.4,1.4l0,0
		l-5.5-1.9l0,0c2.7-2.9,4.3-5.4,4.4-5.6c4-6.4,4.7-12.8,4.8-17.7c0.2-5.5-0.8-9.9-0.9-10.3h-5.3L211,73c2.4-1.3,7.9-4.5,7.9-8.9
		c-0.2-1.5-0.6-2.9-1.1-4.2c-0.6-1.8-1.2-3.6-1.1-5.7c-0.1-4.5,4.6-7,8.2-8.4c0.3-0.1,0.6-0.1,0.9-0.2c1.6-0.3,3.5-0.7,5.3-0.7
		c2,0,3.6,0.5,4.8,1.5c4.1,2.2,6,6.3,7.8,10c0.2,0.4,0.4,0.8,0.5,1.1c0.6,1.6,1.2,3.2,1.8,4.7c1.3,3.1,2.6,6.3,3.1,9.7l0,0l0,0
		l-0.2,1c1.1,5.9,1.4,12.2,1.7,18.2c0.4,8.1,0.8,16.4,3.2,24l0,0l0,0l-1.4,0.4c-0.1,0-0.2,0-0.4,0c-0.8,0-1.5-0.5-1.9-0.9
		c-0.5-0.6-0.9-1.3-1.3-2.2l-0.4,0.1c0.3,4.4,0.9,8.6,1.7,11.9l0,0l0,0c0,0-0.4,0.5-1.4,0.5c-0.7,0-1.6-0.3-2.5-0.9v0.7l0.1,0.6
		c0.5,3.2,1.1,6.6,2,9.6l0,0l0,0l-1.2,1l0,0c-0.3-0.1-0.6-0.1-1-0.2c-0.4-0.1-0.9-0.1-1.3-0.3l1,5.3l0,0l-0.6,1.5
		C245.2,142.4,245.2,142.4,245.1,142.4z M243.6,141.1c0.2,0,0.5,0.4,0.8,0.7c0.3,0.3,0.5,0.6,0.7,0.6c0,0,0.1,0,0.1-0.1l0.6-1.5
		l-1-5.4l0.1,0c0.4,0.2,0.9,0.3,1.4,0.3c0.3,0,0.7,0.1,1,0.2l1.1-0.9c-1-3-1.5-6.4-2-9.6l-0.1-0.6l0-0.8l0.1,0
		c0.9,0.6,1.8,0.9,2.5,0.9c0.8,0,1.2-0.4,1.3-0.5c-0.8-3.3-1.4-7.5-1.7-11.9l0,0l0,0l0.5-0.1l0,0c0.4,0.8,0.8,1.5,1.3,2.2
		c0.4,0.4,1.1,0.9,1.8,0.9c0.1,0,0.2,0,0.4,0l1.4-0.4c-2.4-7.6-2.8-15.9-3.2-23.9c-0.3-6-0.6-12.3-1.7-18.2l0,0l0,0l0.2-1
		c-0.6-3.4-1.9-6.6-3.1-9.7c-0.6-1.5-1.3-3.1-1.8-4.7c-0.2-0.4-0.4-0.7-0.5-1.1c-1.7-3.6-3.7-7.8-7.8-9.9c-1.2-1-2.8-1.5-4.8-1.5
		c-1.8,0-3.6,0.4-5.3,0.7c-0.3,0.1-0.6,0.1-0.9,0.2c-3.5,1.5-8.2,4-8.1,8.4c-0.1,2.1,0.5,3.9,1.1,5.7c0.5,1.3,0.9,2.7,1.1,4.2
		c-0.1,4.3-5.4,7.5-7.9,8.9h5.1l0,0c0,0,1.1,4.6,0.9,10.3c-0.1,4.9-0.8,11.3-4.9,17.7c-0.1,0.2-1.7,2.6-4.4,5.6l5.4,1.9l0.5-1.5
		l0,0.1c0.1,0.1,0.2,0.2,0.3,0.2c0.1,0,0.1,0.1,0.2,0.1c0.3,0.2,0.7,0.2,1.1,0.2c0.1,0,0.3,0,0.4,0c0.1,0,0.3,0,0.4,0l1.2-0.1
		c0.7-0.2,1.3-0.8,1.5-1.5l0,0l0,0l0.7,0.2l0.3,0.2c0.1,0,0.2,0,0.3,0c0.3,0,0.6,0.1,0.9,0.1c0.4,0,0.7-0.1,0.9-0.3l0,0l0.9,1.5
		l0.6,2.5c0.8,2.1,1.4,4.3,2,6.4c1.6,5.9,3.3,11.9,8.9,15.7l0.6,0.3l1.3,0.6l0,0l3.6,5.2c0.8,1.1,1.9,1.7,2.9,2.4
		C243.2,140.8,243.4,140.9,243.6,141.1z"/>
</g>
<g id="path161">
	<path inkscape:connector-curvature="0" fill="#FFFFFF" d="M207.6,73c-0.1-0.9-0.7-2.6-1-3.7c0.4-1.6-1.1-3.1-0.6-4.6
		c-1-2.8-1.3-5.5-1.3-8.6c-0.4-1.8-0.5-3.8-1.3-5.5c-0.9-2-3.5-2.7-5.1-3c-1.6-0.3-4.1-0.5-4.1-0.5c-0.7-0.1-2,0.4-1.9,0.9
		c0.9,1.4,0.8,2.7,0.6,3.9l-2.2,0.6c1.8,0.5,3.7,1.9,3.5,2.8c-0.3,0.8-1.7,1-1.8,0.8c0,0-2.5-2.3-2.9-2.4c-0.3-0.1-1.3-0.8-1.1-0.6
		c0.1,0.1,0.9,1.2,1.6,1.8c0.6,0.6,0.9,1.5,0.9,1.5c0.6,0.6,0.9,1.1,0.8,2.3l-0.8,2.2l-0.6,2.1c0,1.1-1.3,2.1-1.1,3.3
		c-0.4,0.9-1,1.9-0.8,2.8l-1.6,3.8L207.6,73L207.6,73L207.6,73z"/>
	<path d="M207.6,73L207.6,73l-20.8,0l1.6-3.9c-0.2-0.8,0.2-1.6,0.6-2.4c0.1-0.1,0.1-0.3,0.2-0.4c-0.1-0.6,0.3-1.2,0.6-1.8
		c0.3-0.5,0.5-1,0.5-1.5l0,0l0.6-2.1l0.8-2.2c0.1-1.2-0.2-1.7-0.8-2.3l0,0c0,0-0.3-0.9-0.9-1.5c-0.5-0.5-1-1.2-1.4-1.6
		c-0.1-0.1-0.2-0.2-0.2-0.2c0,0,0,0,0-0.1l0,0l0,0c0,0,0.1,0.1,0.4,0.2c0.2,0.2,0.6,0.4,0.8,0.4c0.3,0.1,2.8,2.3,2.9,2.4
		c0,0,0.1,0.1,0.3,0.1c0.5,0,1.3-0.2,1.5-0.8c0.2-0.9-1.6-2.3-3.5-2.8v-0.1l2.2-0.6c0.2-1.1,0.3-2.5-0.6-3.8l0,0
		c0-0.1,0-0.3,0.1-0.4c0.3-0.4,1.1-0.6,1.7-0.6c0,0,0.1,0,0.1,0c0,0,2.6,0.1,4.1,0.5c1.8,0.4,4.3,1.1,5.1,3c0.5,1.1,0.7,2.4,0.9,3.7
		c0.1,0.6,0.2,1.3,0.3,1.9c0.1,3.2,0.3,5.9,1.3,8.5l0,0l0,0c-0.3,0.8,0,1.5,0.2,2.3c0.2,0.7,0.5,1.5,0.3,2.3c0,0.1,0.1,0.3,0.1,0.5
		C207.1,70.8,207.5,72.1,207.6,73L207.6,73L207.6,73L207.6,73L207.6,73z M186.9,72.9h20.7c-0.1-0.8-0.5-2.1-0.8-3.1
		c-0.1-0.2-0.1-0.3-0.1-0.5l0,0l0,0c0.2-0.8-0.1-1.5-0.3-2.2c-0.3-0.8-0.5-1.6-0.2-2.4c-1-2.7-1.2-5.3-1.3-8.5
		c-0.1-0.6-0.2-1.3-0.3-1.9c-0.2-1.2-0.4-2.5-0.9-3.6c-0.8-1.9-3.3-2.6-5.1-3c-1.6-0.3-4.1-0.5-4.1-0.5c0,0-0.1,0-0.1,0
		c-0.5,0-1.3,0.2-1.6,0.6c-0.1,0.1-0.1,0.2-0.1,0.3c0.9,1.4,0.8,2.7,0.6,3.9l0,0l0,0l-2.1,0.5c1.7,0.5,3.6,1.8,3.4,2.8
		c-0.2,0.7-1.1,0.9-1.6,0.9c-0.1,0-0.3,0-0.3-0.1c-0.9-0.8-2.6-2.3-2.9-2.4c-0.2,0-0.5-0.3-0.8-0.4c-0.1-0.1-0.2-0.1-0.2-0.1
		c0,0,0.1,0.1,0.1,0.2c0.3,0.4,0.9,1.1,1.3,1.6c0.6,0.6,0.9,1.4,0.9,1.5c0.6,0.6,0.9,1.1,0.8,2.3l0,0l-0.8,2.2l-0.6,2.1
		c0,0.5-0.3,1-0.6,1.5c-0.3,0.6-0.6,1.1-0.6,1.8l0,0l0,0c-0.1,0.1-0.1,0.3-0.2,0.4c-0.4,0.8-0.8,1.6-0.6,2.4l0,0l0,0L186.9,72.9z"/>
</g>
<g id="path163">
	<path inkscape:connector-curvature="0" fill="#E0AF35" d="M192.4,48.1c0.9,1.4,0.8,2.7,0.6,3.9l-2.2,0.6c1.8,0.5,3.7,1.9,3.5,2.8
		c-0.3,0.8-1.7,1-1.8,0.8c0,0-2.5-2.3-2.9-2.4c-0.3-0.1-1.3-0.8-1.1-0.6c0.1,0.1,0.9,1.2,1.6,1.8c0.6,0.6,0.9,1.5,0.9,1.5
		c-3.8-2.1-5.2-2.4-5.2-2.4l-0.5,0.6c-0.2-2.2-0.8-4.3,0.5-6.1C186.8,47.3,190.1,47.7,192.4,48.1L192.4,48.1z"/>
	<path fill="#E0AF35" d="M190.9,56.5c-3.5-1.9-5-2.3-5.2-2.4l-0.5,0.6l-0.1,0c0-0.4-0.1-0.7-0.1-1.1c-0.2-1.8-0.4-3.5,0.6-5.1
		c0.5-0.6,1.6-0.9,3.1-0.9c1.3,0,2.6,0.2,3.7,0.4l0,0l0,0c0.9,1.5,0.8,2.9,0.6,3.9l0,0l0,0l-2.1,0.5c1.7,0.5,3.6,1.8,3.4,2.8
		c-0.2,0.7-1.1,0.9-1.6,0.9c-0.1,0-0.3,0-0.3-0.1c-0.9-0.8-2.6-2.3-2.9-2.4c-0.2,0-0.5-0.3-0.8-0.4c-0.1-0.1-0.2-0.1-0.2-0.1
		c0,0,0.1,0.1,0.1,0.2c0.3,0.4,0.9,1.1,1.3,1.6C190.6,55.5,190.9,56.4,190.9,56.5L190.9,56.5z M185.7,54L185.7,54
		c0,0,1.5,0.3,5.2,2.3c-0.1-0.2-0.4-0.9-0.9-1.4c-0.5-0.5-1-1.2-1.4-1.6c-0.1-0.1-0.2-0.2-0.2-0.2c0,0,0,0,0-0.1l0,0l0,0
		c0,0,0.1,0.1,0.4,0.2c0.2,0.2,0.6,0.4,0.8,0.4c0.3,0.1,2.8,2.3,2.9,2.4c0,0,0.1,0.1,0.3,0.1c0.5,0,1.3-0.2,1.5-0.8
		c0.2-0.9-1.6-2.3-3.5-2.8v-0.1l2.2-0.6c0.2-1,0.3-2.4-0.5-3.8c-1.1-0.2-2.5-0.4-3.7-0.4c-1.5,0-2.5,0.3-3,0.9c-1,1.5-0.8,3.2-0.6,5
		c0,0.3,0.1,0.7,0.1,1L185.7,54z"/>
</g>
<g id="path165">
	<path d="M190.9,56.5L190.9,56.5c-3.5-1.8-5-2.3-5.2-2.4l-0.5,0.6l-0.1,0c0-0.4-0.1-0.7-0.1-1.1c-0.2-1.8-0.4-3.5,0.6-5.1
		c1.3-1.4,4.8-0.9,6.8-0.6l0,0l0,0.1l0,0c-2.1-0.3-5.5-0.8-6.8,0.5c-1,1.5-0.8,3.2-0.6,5c0,0.3,0.1,0.7,0.1,1l0.5-0.6l0,0
		C185.7,54.1,187.1,54.5,190.9,56.5L190.9,56.5L190.9,56.5z"/>
</g>
<g id="path167">
	<path inkscape:connector-curvature="0" d="M190.9,61.1c0.8-1,1.4-2,1.8-3.6c-0.2-0.1-0.2-0.3-0.4-0.5c-0.3,0.1-0.4,1.3-0.5,1.9
		L190.9,61.1 M189.2,53.8c0,0,2.1,1.6,3.1,2.5c0.9,0.2,1.8-0.2,2-1.1c0-0.5-0.7-1.3-1.6-1.9c-0.4-0.2-0.8-0.4-1.2-0.6
		c0.8,0.7,2.4,1.4,2,2.9c-0.7,0.7-1.1,0.4-1.5,0.1L189.2,53.8 M190.3,53.6l2.6,1.2c0,0,0.5,0,0-0.2c-2.1-0.9-3.8-3.3-6.3-2.3
		c-0.8,0.5-1.2,1.7-1.6,2.5l0.5-0.6c0,0,0.6-1.1,1-1.2c1.7-0.6,2.7,0.1,2.7,0.1L190.3,53.6 M192.2,51.8c-0.1,0.1,0.2,0.5,0.1,0.6
		c-0.4,0.2-1.5,0.1-2.1,0C190.5,52.3,191.6,51.4,192.2,51.8 M187.2,48.5c-1.3,0.9-1.4,1.9-1.9,3.4C185.2,50.2,185.7,48.3,187.2,48.5
		 M190.2,55.9c-1.9-1.4-2.1-1.5-4.3-2.3c0,0,0.1-0.2,0.2-0.3c2.2,0.9,3,1.7,3,1.7L190.2,55.9 M192.9,51l0.1,0.4
		c0.9-1,0.5-2.2-0.7-3.4l0.4,1.1C193.2,50.5,192.9,50.7,192.9,51"/>
</g>
<g id="path169">
	<path inkscape:connector-curvature="0" d="M193.2,52c1-0.1,1,1.6,2.2,1.4c1,0.1,1.8-0.6,2.3-1.6c0.8,0.1,1.4,0.2,2.1-0.2l0.1-0.1
		c-0.7,0.3-1.4,0.1-2.2-0.1c-0.9-0.3-1.9-1-2.7-1c-0.8-0.1-1.1,0.5-1.5,1.3L193.2,52L193.2,52z"/>
	<path d="M195.3,53.5c-0.6,0-0.9-0.4-1.2-0.8c-0.2-0.3-0.5-0.7-0.9-0.7c0,0-0.1,0-0.1,0l0-0.1l0.4-0.3c0.4-0.8,0.7-1.3,1.5-1.3
		c0,0,0.1,0,0.1,0c0.5,0,1.1,0.3,1.7,0.5c0.4,0.2,0.7,0.3,1.1,0.5c0.6,0.2,1,0.3,1.4,0.3c0.3,0,0.5,0,0.8-0.1l0,0.1l-0.1,0.1
		c-0.3,0.2-0.7,0.3-1.1,0.3c-0.3,0-0.6,0-0.9-0.1l-0.2,0c-0.5,1-1.3,1.6-2.2,1.6c0,0-0.1,0-0.1,0C195.4,53.5,195.3,53.5,195.3,53.5z
		 M193.3,51.9c0.4,0,0.7,0.3,0.9,0.7c0.3,0.4,0.6,0.8,1.2,0.8c0,0,0.1,0,0.1,0c0.9,0,1.7-0.6,2.2-1.6l0,0l0.2,0
		c0.3,0,0.6,0.1,0.8,0.1c0.4,0,0.8-0.1,1.1-0.2l0,0c-0.2,0.1-0.4,0.1-0.7,0.1c-0.4,0-0.9-0.1-1.4-0.3c-0.4-0.1-0.7-0.3-1.1-0.5
		c-0.6-0.3-1.1-0.5-1.6-0.5c0,0-0.1,0-0.1,0c-0.7,0-1,0.5-1.4,1.3l0,0L193.3,51.9z"/>
</g>
<g id="path171">
	<path inkscape:connector-curvature="0" fill="#FFFFFF" d="M194.8,51.2c-0.1,0.5-0.2,1,0.5,1.3c0.8,0.2,0.9-0.3,1.1-0.9
		c0.1-0.1,0.7,0.2,0.7,0.2c-0.1,0.4-0.4,1-0.9,1.3c-0.4,0.1-0.7,0.1-1.1,0c-0.6-0.2-1-1-1-1.4C193.9,51.3,194.5,51.1,194.8,51.2"/>
</g>
<g id="path173">
	<path inkscape:connector-curvature="0" d="M187.6,73c0.6-0.1,1-0.7,1.6-0.8c0.2,0.3-0.9,0.5-0.7,0.8H187.6 M192.1,73
		c0.6-0.2,1.3-1.1,1.9-1.1c0.4,0.3-0.6,0.7-0.4,1.1H192.1 M198.8,73c0.5-0.2,1.1-1.2,1.6-1c0.6,0.2,0,0.6-0.2,1H198.8 M205.3,73
		l-0.4-0.6c-0.1-0.2-0.5-0.6-0.3-0.7c0.5,0.3,0.5,0.7,1.4,1.4H205.3 M194.8,64.5c-0.5,0.5-1.1,0.7-1.8,0.8c-0.4,0.1-0.7-0.1-1-0.3
		v-0.2c0.8,0.2,1.4,0.4,2.1,0C194.4,64.7,194.6,64.4,194.8,64.5 M199.2,64.2c-1,1.8-1.6,1.4-2.8,0.5c-0.2-0.1,1.2,0.4,1.6,0.3
		L199.2,64.2 M201.7,70.4c-0.7,0.1-1.3,1.2-2,0.5c-0.5-0.4-0.8-0.8-0.7-1.4c0.7,0.5,1.4,0.6,2.1,0.2c0.7-1.1,1.9-1.4,1.9-2.8
		C203.4,68.1,202.4,69.4,201.7,70.4 M195.8,71c-0.5-0.1-1.2,0.3-1.8,0c-0.6-0.4-0.5-1.1-0.8-1.8c0.8,0.8,1.3,1,2.2,0.9
		c0.8-0.8,1.9-1.7,2.4-2.8C197.5,68.7,196.7,69.9,195.8,71 M190.5,71c-0.4-0.4-0.8,0.3-1.3-0.1c-0.2-0.7-0.5-1.6-0.2-2.5
		c0.3,0.6,0.1,1.4,0.9,1.7c1.3,0.1,1.3-1.4,2.3-1.8C192.1,69.4,191,70,190.5,71 M148.5,75c2.4-4.8,3.9-9.9,5-15.2
		C152.2,65,151.4,70.4,148.5,75"/>
</g>
<g id="path175">
	<path inkscape:connector-curvature="0" fill="#94693C" d="M178.7,83.3c-0.4-0.4-0.2-1.3,0.2-1.7L178.7,83.3"/>
</g>
<g id="path177">
	<path inkscape:connector-curvature="0" d="M147.8,99.9c-0.4,5.1-0.8,10.1-0.9,15.3c1.2-4.8,1.5-10.1,1.8-15.3H147.8 M152.9,99.9
		c0,0.6,0,1.2,0,1.8c-0.4,1.4-1.5,2.5-2.1,3.9c-1.9,4.1-1.1,9.6-5.4,12.7c0.4,0.6,0.8-0.1,1.2-0.2c3.1-1.8,2.6-5.7,4.2-8.3
		c0.2,4.1,0.1,8.6,0.6,12.5c1.3-4.6,0.4-10,0.4-14.8c0.5-1.7,1.4-3.1,2.4-4.6c0-1,0.1-1.9,0.1-2.9L152.9,99.9 M158.4,99.9
		c-0.2,3.3-0.4,6.7-0.8,9.9c-1.7,1.9-2.2,4.4-2.5,6.9c-1.7,3.9-1.3,8.9-5.8,11.3l-0.1,0.3c1.9-0.1,3.6-2.4,4.4-3.9
		c0.9-2.4,1.7-4.8,2.6-7.2c0.2,4.8-0.4,9.7-0.8,14.3c1.9-5.3,1.9-11.6,1.7-17.5c0.2-1.3,0.7-2.6,1.9-3.5c0,0,0.2-5,0.4-10.7
		L158.4,99.9 M164.1,99.9c-0.2,5.9-0.6,11.8-1.2,17.6c-3,4.6-4.2,9.8-5.3,15.2c-0.5,2.1-2.6,3.6-4.4,4.5h-1.3l0.2,0.6
		c2.1,0.2,3.7-1,5.3-2.2c-0.3-1.8,1.3-2.8,1.7-4.3c0.8-2.1,1-4.5,2.1-6.5c-0.5,4.3-0.8,8.7-1.5,12.8c1.3-2.2,1.3-5,1.8-7.4
		c0.4-3.3,1-6.5,1.2-9.9l1.6-1.6c0,0,0.4-10.4,0.8-18.8L164.1,99.9 M168.5,99.9c-0.3,8.2-0.8,16.7-1.3,24.9
		c-3.8,3.9-2.6,9.9-5.4,14.2c-0.2,1.1-0.9,2.1-1.8,2.9l2.6-1.5c1.7-3.9,3-8.5,4.2-12.7l1.9-2.2c0.4-8.9,0.7-17.2,0.8-25.6
		L168.5,99.9 M173.8,99.9c-0.2,3.1-0.6,6.2-0.1,9l0.4-0.1c0.4-2.7,0.5-5.9,0.6-9L173.8,99.9 M176.1,99.9c-0.2,2.3-0.5,4.6-0.7,6.8
		c0,0,0.3,0.2,0.4,0c0.6-2.1,0.7-4.5,0.8-6.8H176.1 M178.3,99.9c-0.1,2.9-0.5,6.5-1.4,8.1l1.4,0.3c0.5-2.8,0.6-5.5,0.7-8.5
		L178.3,99.9 M180.8,99.9c-0.1,2.2-0.5,4.4-0.5,6.5c0.7-1.7,0.9-4.1,1.1-6.5H180.8 M183.2,99.9C183.2,99.9,183.2,100,183.2,99.9
		c-0.3,1.3-0.5,4.8-0.8,6.2l1.8,1.6c0-1.1,4.7-0.6,4.7-0.6c-2.4-2.5-4.2-4.8-5.6-7.2L183.2,99.9 M183.3,99.9
		c-3.2-5.5-3.9-10.6-4.1-14.8c-0.1-3.4,0.1-6,0.1-6l-1,2.6c-1.2,0.8-2.2,0.1-3.3-0.3c-0.6-0.8-1.6-1.7-1-2.9
		c0.4-0.6,0.8-0.9,1.2-1.3c-1.1,0.4-2.5,1.8-3.7,0.6c-0.6-1.3-1.8-2.5-1.1-4.2c0.4-0.5,0.5-1.2,1.1-1.6c-0.6-0.1-1.3,0.4-1.9-0.2
		c-0.8-1.3-0.7-2.7-0.6-4.3c0.5-0.6,0.8-1.1,1.4-1.4c-0.8-0.3-1.8-1-1.7-2.1c0.1-2.3,0.8-4.4,2.5-6.1l-0.1-0.1
		c-1.9,1.8-4.4,3.1-7,2.2c-0.9-0.4-1-1.3-1.2-2.1c-1.3,2.1-3.7,2.6-6.1,2.8c-1.3-0.1-2-1.6-3.2-1.9c0.6,0.9,1.5,2.1,2.6,2.8
		c-0.5,4.9-2.3,9.3-4.4,13.5c-1.1,1.3-2.9,1.1-4.4,1.4c0.6,0.8,1.8,0.6,2.4,1.4c-0.5,7.3-1.3,14.5-1.9,21.8h0.9
		c0.2-3.6,0.4-7.3,0.8-10.8l0.6-11l2.2-1.2l2,2.1c-0.7,7-1.2,13.8-1.3,20.9h1.3c0.2-6.7,0.3-13.2,0.7-20.1c0.6-0.4,1.6-0.1,2.1-0.2
		c0.6,1.4,1.2,2.8,2.3,3.8c-0.5,5.3-0.6,11-0.9,16.6h0.9c0.3-7.4,0.7-16,0.7-16c0.1-0.3,0.4-0.2,0.6-0.2c0.7,1.8,1,4.6,3.4,5
		c0.1,3.7,0.1,7.5,0,11.3h0.9c0.2-5.7,0.4-10.4,0.4-10.4c0.6,1.1,1.5,2.8,3,2.7h0.3c-0.1,2.5-0.1,5.1-0.2,7.7h1.1
		c0-2.2,0.1-4.4,0-6.6c1.3,0.6,2.3,2.2,4,1.8l0.2,0.3c0.1,1.5,0.1,3-0.1,4.5h0.9c0.1-1.5,0.1-3,0.2-4.3c0.3,0.1,1,0.5,1.2,1
		c0,1.1,0,2.2-0.1,3.3h0.4c0-1,0.1-2,0.1-3l1.7,0.3c0,0.7,0.1,1.6,0,2.6h0.8c0-0.7,0-1.4,0.1-2.2l1.7-1.3c0.1,1.1,0.1,2.3,0,3.4h0.6
		c0.1-1.2,0.1-2.5,0.2-3.5c0,0,1.4,3,1.6,3.5L183.3,99.9"/>
</g>
<g id="path179">
	<path inkscape:connector-curvature="0" fill="#94693C" d="M178.4,138.4c-0.6-0.1-1.3-0.2-1.9-0.4c2.5-9.7,3-20.3,5.7-29.8
		c1-0.8,0.7-2.6,4.7-3.1c0.3,0.6-2.5,0.5-3,1.9c2.7-1.8,4.3-1.1,5.9,0.1c5,3.7,1.8,10.9,1.9,16.1l-0.4,0.8l-0.3,10.9
		c-0.6,1.1-0.2,2.6-0.3,4c-1.2-0.4-2.6-1.8-4.1-0.8h-0.4L178.4,138.4L178.4,138.4z M183.7,100.5l-0.8,5.7c0,0,1.8-1.1,2.4-1.3
		c0.5-0.2,1.6-0.1,1.6-0.1s-1.2-1.5-1.6-2.1C184.8,102.2,183.7,100.5,183.7,100.5L183.7,100.5z"/>
	<path d="M190.6,138.9L190.6,138.9c-0.4-0.1-0.7-0.3-1.1-0.5c-0.6-0.3-1.3-0.7-1.9-0.7c-0.4,0-0.8,0.1-1.1,0.4l0,0h-0.4l-7.7,0.3
		l0,0c-0.3-0.1-0.6-0.1-0.9-0.2s-0.6-0.1-0.9-0.2l0,0l0,0c1.2-4.6,1.9-9.5,2.7-14.3c0.8-5.2,1.6-10.6,3-15.5l0,0l0,0
		c0.3-0.2,0.4-0.5,0.6-0.8c0.5-0.9,1.2-2,4.1-2.3l0,0l0,0c0,0.1,0,0.1,0,0.2c-0.1,0.2-0.4,0.3-0.9,0.4c-0.7,0.2-1.7,0.5-2.1,1.2
		c1.1-0.7,2-1,2.9-1c1.2,0,2.1,0.6,2.9,1.2c3.6,2.7,2.9,7.1,2.3,11.3c-0.2,1.7-0.5,3.3-0.4,4.8l0,0l-0.4,0.8l-0.3,10.9
		c-0.4,0.7-0.4,1.7-0.3,2.6C190.7,138,190.7,138.4,190.6,138.9L190.6,138.9z M187.6,137.7c0.7,0,1.3,0.3,2,0.7
		c0.4,0.2,0.7,0.4,1,0.5c0-0.4,0-0.9,0-1.3c0-0.9-0.1-1.9,0.3-2.6l0.3-10.9l0.4-0.8c0-1.5,0.2-3.1,0.4-4.8c0.6-4.2,1.2-8.6-2.3-11.3
		c-0.8-0.6-1.7-1.2-2.9-1.2c-0.9,0-1.9,0.4-3,1.1l-0.1,0.1l0-0.1c0.3-0.8,1.4-1.2,2.2-1.4c0.4-0.1,0.8-0.2,0.9-0.4c0,0,0-0.1,0-0.1
		c-2.9,0.4-3.5,1.4-4,2.3c-0.2,0.3-0.4,0.6-0.6,0.8c-1.4,5-2.2,10.3-3,15.5c-0.7,4.7-1.4,9.6-2.7,14.2c0.3,0.1,0.6,0.1,0.9,0.2
		c0.3,0.1,0.6,0.1,0.9,0.2l7.7-0.3h0.4C186.8,137.8,187.2,137.7,187.6,137.7z M182.8,106.3L182.8,106.3l0.9-5.9l0.1,0.1
		c0,0,1.1,1.7,1.5,2.2c0.4,0.6,1.6,2,1.6,2.1l0.1,0.1l-0.1,0c0,0-0.1,0-0.2,0c-0.3,0-1,0-1.4,0.1
		C184.7,105.2,182.9,106.2,182.8,106.3L182.8,106.3z M183.7,100.6l-0.8,5.5c0.3-0.2,1.8-1.1,2.3-1.2c0.4-0.1,1.1-0.1,1.4-0.1
		c0,0,0.1,0,0.1,0c-0.2-0.3-1.2-1.5-1.6-2C184.8,102.3,184,101,183.7,100.6z"/>
</g>
<g id="path181">
	<path inkscape:connector-curvature="0" d="M167.1,133.9c-0.8,0.9-1.2,1.9-2.2,2.5c0.6-2,2.4-3.9,3.2-6.1c3-6.7,4.3-14.1,4.8-21.7
		C173.3,117.7,171.2,126.3,167.1,133.9 M175.2,65.9c-0.3,1.8,0,3.5,1,4.9c-2.9-2.5-1.6-6.1-1.1-9.2c0.6-2.2,2.1-4.6,1-7
		C178.5,58.2,175.2,62,175.2,65.9"/>
</g>
<g id="path183">
	<path inkscape:connector-curvature="0" fill="#94693C" d="M164.1,61.7c-1,5.6-3.8,10.5-7.2,15.1c-0.6,0.6-1.7,0.6-2.5,0.3
		c-0.6-0.3-1.1-0.9-1.5-1.4c1.7-4.4,3.4-8.8,4.1-13.5c2.2,0.2,3.9-1.2,5.5-2.4C162.7,60.6,163.5,61.2,164.1,61.7 M168.9,66.6
		c-0.8,1.6-1.6,3.4-1.1,5.2c-2.2,3.2-3.9,7-7.2,9.5c-1.2,0.6-2.1-0.6-2.5-1.4c-1.5-3.1,2.4-5,3.1-7.8c1.6-3.3,3-6.6,3.8-10.2
		c1.5,0.1,2.8-0.5,3.9-1.4C168.4,62.4,166.9,65.1,168.9,66.6"/>
</g>
<g id="path185">
	<path inkscape:connector-curvature="0" d="M159.7,68.1c-0.5-0.4,0-1.1,0.1-1.6c0.6-1.3,1-2.7,1.3-4.2l0.1,0.3L159.7,68.1 M161.7,78
		c-0.8,0.6-1.3,1.9-2.6,1.4c-0.2-0.9,1-0.8,1.5-1.3c2.5-3.8,4.5-7.9,6.3-12.2C165.5,70.1,163.6,74.1,161.7,78 M170.3,69.8l1.8-1.1
		C171.9,69.5,171,69.6,170.3,69.8 M157.9,73c-0.8,1-1,2.8-2.5,3.3c1.6-2.1,2.6-5,3.6-7.6C159.3,70.4,158,71.3,157.9,73"/>
</g>
<g id="path187">
	<path inkscape:connector-curvature="0" fill="#94693C" d="M169.8,77.8c0.4,0.7,1.8,0.7,1.3,1.7c-1.9,2.6-3.2,5.8-5.9,7.8
		c-1.4,0.6-2.4-1-3.2-1.9c-0.4-0.8-0.6-1.5-0.7-2.4c3.3-2.8,4.7-6.6,6.9-10C170.2,73.8,168.4,76.4,169.8,77.8"/>
</g>
<g id="path189">
	<path inkscape:connector-curvature="0" d="M172.6,76.2l1.8-2.3C173.9,74.8,173.5,75.6,172.6,76.2 M177.1,79.8l0.7-1.5l-0.1,1
		L177.1,79.8"/>
</g>
<g id="path191">
	<path inkscape:connector-curvature="0" fill="#94693C" d="M174.9,82.5h0.3v0.6l-5,7.7c-0.5,0.4-1.3,0.6-1.8,0.3
		c-1-0.7-2.2-1.6-2.2-2.9c3-2.2,3.9-5.6,5.7-8.5C172.4,80.9,173.2,82.7,174.9,82.5"/>
</g>
<g id="path193">
	<path inkscape:connector-curvature="0" d="M164.1,85.6h-1c-0.2-0.7,0.9-0.4,1.2-0.9c1.3-1.4,2.3-2.9,3.2-4.4
		C166.7,82.2,165.5,84.4,164.1,85.6"/>
</g>
<g id="path195">
	<path inkscape:connector-curvature="0" fill="#94693C" d="M177.6,83.5c-0.3,1.6,2,2.2,1.3,3.9c-1.7,2-2.3,4.6-4.1,6.7
		c-1.3,1-2.4-0.5-3.5-1c-0.3-0.4-0.5-0.8-0.6-1.2c2.5-2.5,3.6-5.5,5.1-8.3C176.4,84,177,83.5,177.6,83.5"/>
</g>
<g id="path197">
	<path inkscape:connector-curvature="0" d="M169.2,89.6c-0.4,0.3-0.8,0.6-1.3,0.6c1.7-1.3,3-3.6,4.1-5.5L169.2,89.6"/>
</g>
<g id="path199">
	<path inkscape:connector-curvature="0" fill="#94693C" d="M180.2,92c-0.1,0.8-0.9,1.6-1.7,2.1c-0.4-0.1-0.7,0.1-1,0.3
		c-0.1,0.2,0.1,0.3,0.2,0.4c0.8,0,1.4-0.3,2-0.8c0.2-0.3,0.5-0.7,0.7-1c0.1,0.6,0.4,1.2,0.6,1.9c-0.1,0.1-0.8,0.5-1.1,0.6
		c-1.3,1.1-2.9,0-4-0.7l-0.3-0.3l3.8-6.9C179.5,88.9,179.9,90.6,180.2,92"/>
</g>
<g id="path201">
	<path inkscape:connector-curvature="0" d="M172.1,92.7c2-0.8,2.7-3,3.8-4.7C174.9,89.7,174.7,92.8,172.1,92.7 M166.7,58
		c0.4-0.8,0.5-1.7,1.3-2.4C168.2,56.6,167.4,57.3,166.7,58 M170.4,62.4c-0.1-0.8,0.9-1.1,1.3-1.9C171.7,61.1,170.8,61.9,170.4,62.4
		 M217.1,83.3c-0.1,2.4,0.4,13.4-9.3,23.2l5.5,1.9l0.4-1.5c0.1,0.2,0.3,0.2,0.6,0.4c0.5,0.3,0.4,0.2,1,0.3l2.1-0.2
		c0.7-0.2,1.3-0.8,1.5-1.6l0.7,0.2l0.3,0.2c0.6,0.1,1.7,0.4,2.1-0.2l0.9,1.4l0.6,2.5c3,7.7,3.2,17,10.9,22.2l0.6,0.3l1.3,0.6
		l3.6,5.2c1,1.3,2.3,2,3.6,2.8c0.5,0.1,1.3,1.6,1.7,1.2l0.6-1.5l-1-5.3c0.8,0.3,1.7,0.3,2.4,0.5l1.2-1l-0.6,0.1
		c-1.1-0.6-2.6-0.8-3.6-1.8c-4.5-4.9-3.7-12-8.3-16.9c-1.8-9.5-2.4-19.6-3.8-29.3c1.5-1.4,1-4.1,3.3-4.7c1.5,8.4,1.5,17.4,2.5,26
		c0.9,0.4,1.8,1,2.5,1.8c0.5,7,1.3,13.8,4,19.9c-0.3-2.4-1.2-4.8-1.5-7.2l-0.9-8.6c1.1,3.6,1.8,8,4.2,9.6c2.6,1.8,3.9,0.4,3.9,0.4
		c-0.4-0.6-0.8-0.2-1.3-0.4c-7.6-2.8-3.8-12.6-9.6-17.1l-2.1-22.4l-0.5-3.2c0.8-1.5,1.1-3.3,1.4-5l2.4-0.7l0.2,1.4l1.3,24.1l1.1,0.8
		c0.7,5.6,0.7,11.6,2.9,16.5c-1.4-4.7-1.4-10.3-1.7-15.4c3.2,2.4,2.4,6.5,4.2,9.5l0.5-0.1c-1.7-4.1-0.9-9.4-5.6-12.1
		c-0.6-8.6-1.1-17.3-1.7-25.9c0.3-0.5,0.4-1.1,0.8-1.6c0.6,1.4,2.4,1.7,3.7,1.7c1.4,11.6,1.5,23.8,4.3,35
		c-1.5-11.6-2.4-23.7-3.6-35.5c0.7-0.3,1.4-0.8,1.9-1.4c-0.2-0.4,0.3-0.6,0-1c-1.2,1-2.6,1.9-4.1,1.3l-1.3-1.3
		c-2.5-4.4-4.4-9-6.4-13.6c0.6,0.2,1.8,0.1,2.5-0.3c0.8-0.8,1.6-1.7,2-2.7c-1.3,1-3.3,1.9-5,1.3l-0.2-0.2c-2.1,1.6-5,3.1-7.9,2
		c-0.5,1.3-0.9,3.1-2.5,3.6l-1.3,0.1c0.3,0.8,1.1,1.6,1.6,2.5c0.3,1.3,0.5,3.2-0.3,4.4c-0.4,1.3-3,0.6-2,2.5c0.1,1.3,0.3,2.9-0.6,4
		c-1.2,1.3-2.7,2.4-4.2,2.2c-0.2,1.3-2,3.6-2,3.6S217.2,82.1,217.1,83.3 M219.5,65.9c1.6-5-4-9.2-1.1-14.2
		C216.8,56.7,222.5,60.9,219.5,65.9 M231.1,54.7L231.1,54.7c-0.4-0.1-0.8-0.8-0.6-1.1C230.7,53.8,231.1,54.2,231.1,54.7"/>
</g>
<g id="path203">
	<path inkscape:connector-curvature="0" fill="#94693C" d="M235.8,57.3c2.1,4.5,3.8,9.2,6.1,13.5c0.1,1.1-0.5,1.9-1.1,2.7
		c-0.8,0.5-1.7,0.8-2.5,0.6c-3.6-4.4-6.3-9.1-8.7-14C232,60.4,234,59,235.8,57.3L235.8,57.3z"/>
	<path d="M238.9,74.2c-0.2,0-0.5,0-0.7-0.1l0,0l0,0c-4-4.8-6.6-9.8-8.7-14l0-0.1l0.1,0c0.2,0,0.5,0,0.7,0c2.3,0,4.2-1.5,5.5-2.8l0,0
		l0,0c0.8,1.7,1.6,3.5,2.3,5.3c1.2,2.7,2.4,5.6,3.8,8.2l0,0c0.1,1.1-0.5,1.9-1.1,2.7l0,0C240.3,73.9,239.6,74.2,238.9,74.2z
		 M238.2,74.1c0.2,0.1,0.4,0.1,0.6,0.1c0.7,0,1.4-0.4,1.9-0.6c0.6-0.8,1.2-1.6,1.1-2.6c-1.4-2.7-2.6-5.5-3.8-8.2
		c-0.7-1.7-1.5-3.5-2.3-5.2c-1.4,1.3-3.2,2.8-5.5,2.8l0,0c-0.2,0-0.4,0-0.6,0C231.7,64.4,234.3,69.3,238.2,74.1z"/>
</g>
<g id="path205">
	<path inkscape:connector-curvature="0" d="M226.2,59.8c-0.8,0-1.8-0.7-2.6-1.2l0.2-0.5C224.9,58,225.7,59.1,226.2,59.8 M246,69.2
		c-1.5-3.6-3.1-7.3-4.1-10.9C243.5,61.9,244.5,65.6,246,69.2 M239.8,72.5c-1.3-0.4-1.8-2.1-2.5-3.2c-1.5-2.9-3.3-5.6-4-8.9
		C234.7,64.8,237.9,68.4,239.8,72.5"/>
</g>
<g id="path207">
	<path inkscape:connector-curvature="0" fill="#94693C" d="M237,75c0.4,1.7-0.1,3.2-0.9,4.5c-0.7,0.9-1.6,1.5-2.7,1.3
		c-2.6-3.2-5.1-6.4-6.7-10c-0.2-0.9,0.6-1.6,0.6-2.5c0.3-1.8-0.3-3.2-0.8-4.7c0.9-0.8,1.5-1.9,1.8-3.1C231.3,65.2,233.1,70.6,237,75
		L237,75z"/>
	<path d="M233.9,80.9c-0.2,0-0.3,0-0.5-0.1l0,0l0,0c-2.6-3.2-5.1-6.4-6.7-10c-0.1-0.5,0.1-1,0.3-1.5c0.1-0.3,0.3-0.6,0.3-1
		c0.2-1.4-0.1-2.7-0.5-3.8c-0.1-0.3-0.2-0.5-0.2-0.8l0,0l0,0c0.9-0.8,1.5-1.9,1.8-3.1l0-0.1l0,0.1c1.1,1.7,2,3.6,3,5.4
		c1.6,3.1,3.2,6.2,5.6,9l0,0l0,0c0.3,1.5,0,3.1-0.9,4.6C235.4,80.4,234.7,80.9,233.9,80.9z M233.4,80.7c0.2,0,0.3,0.1,0.5,0.1
		c0.7,0,1.5-0.4,2.2-1.3c0.9-1.5,1.2-3,0.9-4.5c-2.4-2.8-4-5.9-5.6-9c-0.9-1.8-1.8-3.6-2.9-5.3c-0.3,1.1-1,2.2-1.8,3
		c0.1,0.3,0.2,0.5,0.2,0.8c0.4,1.2,0.7,2.4,0.5,3.9c0,0.3-0.2,0.7-0.3,1c-0.2,0.5-0.4,0.9-0.3,1.4C228.3,74.3,230.8,77.5,233.4,80.7
		z"/>
</g>
<g id="path209">
	<path inkscape:connector-curvature="0" d="M224.7,66.2c0.3,0.4,0.5,0.8,0.6,1.3c-1-0.7-2.1-1.3-2.8-2.4
		C223.4,64.9,224,65.7,224.7,66.2 M235.2,79c-0.4,0.6-1.1-0.3-1.3-0.6c-2.3-4-4.8-7.9-6.2-12.3C230.2,70.3,232.3,74.8,235.2,79
		 M221.3,74c-1.3-0.9-2.2-2.3-2.8-3.6C220.2,70.7,221,72.5,221.3,74"/>
</g>
<g id="path211">
	<path inkscape:connector-curvature="0" fill="#94693C" d="M225.7,71.2c1.9,3.9,4.1,7.6,7.1,11c0.4,1.5-0.6,2.5-1.3,3.4
		c-0.8,0.6-1.8,0.9-2.9,0.8c-2.3-2.5-3.7-5.3-5.5-8.1c1.7-1.9,1.8-4.6,2.1-7.1L225.7,71.2"/>
</g>
<g id="path213">
	<path inkscape:connector-curvature="0" d="M229.7,83.1c0.5,0.6,1.7,0.1,1.5,1.2c-0.6,0.4-1.2-0.1-1.8-0.3c-1.5-2.4-3.1-4.8-4.2-7.4
		C226.6,78.8,228.1,80.8,229.7,83.1"/>
</g>
<g id="path215">
	<path inkscape:connector-curvature="0" fill="#94693C" d="M221.9,78.4c1.4,3.2,3.3,6.2,5.6,9c0.1,1.3-0.9,2.4-2,3.1
		c-1.1,0.4-2.3-0.3-2.5-1.3c-1-3.5-5.7-6.4-3.1-10.4C220.6,78.6,221.2,78.5,221.9,78.4"/>
</g>
<g id="path217">
	<path inkscape:connector-curvature="0" d="M224.4,87.7c0.4,0.8,1.9,0.6,1.3,1.8c-0.9,0.1-1.7-0.6-2.1-1.3l-2.8-7.1L224.4,87.7"/>
</g>
<g id="path219">
	<path inkscape:connector-curvature="0" fill="#94693C" d="M222.5,90.9c-0.6,1.6-2.4,2-3.9,2.2c-0.9-0.1-2.4-0.4-2.6-0.9
		c0.3-1.3,0.8-3.5,0.9-5.3c1.2,1.5,1.1,4.8,3.6,4.9c0.4-0.1,0.2-0.5,0.2-0.8c-2-0.9-2.7-3.6-3.8-5.4c0.1-0.9,0.1-1.8,0.2-2.7
		c0.2-0.2,0.6-0.4,1-0.5L222.5,90.9"/>
</g>
<g id="path221">
	<path inkscape:connector-curvature="0" fill="#94693C" d="M221.8,94.1c1-0.7,1.1-3.3,2.8-1.7l1.3-0.2l0.5,1.2
		c0.8,9.7,2.7,19.2,4.3,28.5c2.9,2.6,3.5,6.3,5,9.5c-4.3-2.7-6.6-7.5-8.2-12c-1.5-3.6-2.3-7.4-3.6-10.9
		C223.8,108.5,222.1,98.7,221.8,94.1L221.8,94.1z"/>
	<path d="M235.7,131.5l-0.1-0.1c-4.6-2.9-6.9-8.3-8.2-12c-0.8-2-1.5-4.1-2.1-6.1c-0.5-1.6-1-3.3-1.6-4.8c0-0.1-1.7-9.9-2-14.4l0,0
		l0,0c0.3-0.2,0.5-0.7,0.8-1.1c0.3-0.6,0.6-1.1,1.1-1.1c0.3,0,0.6,0.2,1,0.5l1.3-0.2l0,0l0.5,1.2c0.7,8.2,2.1,16.3,3.5,24.2
		c0.3,1.4,0.5,2.9,0.8,4.3c2.1,1.8,2.9,4.2,3.8,6.6c0.4,1,0.7,2,1.2,2.9L235.7,131.5z M221.8,94.1c0.3,4.6,2,14.3,2,14.4
		c0.6,1.6,1.1,3.2,1.6,4.8c0.6,2,1.2,4.1,2.1,6.1c1.3,3.7,3.6,8.9,8.1,11.9c-0.4-0.9-0.8-1.9-1.1-2.8c-0.9-2.3-1.7-4.7-3.8-6.6l0,0
		l0,0c-0.3-1.4-0.5-2.9-0.8-4.4c-1.4-7.8-2.8-15.9-3.5-24.2l-0.5-1.2l-1.3,0.2l0,0c-0.4-0.3-0.7-0.5-0.9-0.5c-0.5,0-0.7,0.5-1,1.1
		C222.3,93.4,222.1,93.8,221.8,94.1z"/>
</g>
<g id="path223">
	<path inkscape:connector-curvature="0" fill="#94693C" d="M218.5,94.6c0.3,3.2,1.1,6.2,1.9,9.2c0.3-1.4-0.5-2.6-0.6-4
		c-0.2-1.6-0.4-3.3-0.8-4.8c0.4-0.3,0.8-0.4,1.3-0.3c0.6,3.9,1.4,7.7,2.3,11.5c-0.4-0.8-1.4-0.2-2-0.6c-4.1-2.1-2-7.4-3.6-10.9
		l0.1-0.6L218.5,94.6"/>
</g>
<g id="path225">
	<path inkscape:connector-curvature="0" fill="#94693C" d="M244.7,140.1l-0.9-5.3c-2.6-2.9-3.8-6.5-5-10c-0.4,3.1,0.6,6,1,8.9h-0.1
		c-1.8-3.9-2-8.5-2.5-12.9c-0.8-1.3-1.5-2.9-3-3.5c-0.9-9.9-2.7-19.4-3.6-29.3h-2.4l-1,3.1c1.1,10,2.4,20,4.5,29.6
		c4.4,5.5,3.6,13.5,10,18L244.7,140.1L244.7,140.1z"/>
	<path d="M244.8,140.2L244.8,140.2l-2.8-1.4c-3.7-2.6-5-6.5-6.3-10.2c-0.9-2.7-1.9-5.5-3.7-7.8l0,0c-2.2-9.6-3.4-19.5-4.5-29.6l0,0
		l1-3.1h2.4l0,0c0.5,5,1.1,10,1.8,14.9c0.6,4.7,1.3,9.5,1.8,14.4c1.3,0.6,2,1.8,2.6,2.9c0.1,0.2,0.2,0.4,0.3,0.6l0,0
		c0.1,0.6,0.1,1.3,0.2,1.9c0.4,3.7,0.8,7.6,2.2,11h0.1c-0.1-0.8-0.3-1.6-0.4-2.4c-0.4-2.1-0.8-4.2-0.6-6.5l0.1,0c1.1,3.3,2.3,7,5,10
		l0,0l0,0L244.8,140.2z M232,120.8c1.8,2.3,2.8,5.1,3.7,7.8c1.3,3.7,2.6,7.5,6.2,10.2l2.7,1.3l-0.8-5.2c-2.7-2.9-3.9-6.6-4.9-9.8
		c-0.2,2.2,0.2,4.2,0.6,6.3c0.2,0.8,0.3,1.6,0.4,2.4l0,0h-0.2l0,0c-1.5-3.4-1.9-7.3-2.3-11c-0.1-0.6-0.1-1.3-0.2-1.9
		c-0.1-0.2-0.2-0.4-0.3-0.6c-0.6-1.1-1.4-2.4-2.6-2.9l0,0l0,0c-0.5-4.9-1.1-9.7-1.8-14.4c-0.7-4.8-1.3-9.8-1.8-14.8h-2.3l-1,3.1
		C228.6,101.3,229.9,111.2,232,120.8z"/>
</g>
<g id="path227">
	<path inkscape:connector-curvature="0" fill="#94693C" d="M214.2,105.7c0.1,0.2,0.3,0.4,0.6,0.5c0.5,0.3,1.3,0.3,1.9,0.4
		c0.8-0.1,1.4-1,1.5-1.6c-1.8-3-1.3-7.7-1.9-11.2c-0.2,0.1-0.4-0.3-0.5-0.2c-0.3,0.8-0.7,1.8-0.8,2.2c0.4,2.5,1.2,5.2,0.8,7.8
		c-0.8-2.3-0.1-5-1-7.2c-0.6,1.4-0.9,2.1-1.6,3.2l0.9,5.5C214,105.4,214.1,105.6,214.2,105.7 M212.4,101l0.8,3.8c0,0-0.5-0.9-1.4-1
		c-0.9-0.1-1.4-0.1-1.4-0.1L212.4,101"/>
</g>
<g id="path229">
	<path inkscape:connector-curvature="0" fill="#94693C" d="M211.7,137.9c-1.3,0.6-2.8,1-4.2,1.4l-0.3-6.4l-0.4-0.4l-0.8-8.3v-0.3
		l-0.4-0.4c0.9-5.7-2.9-11.6,0.7-16.5c1.3-0.9,2.8-1.6,4.5-1.1c1,0.3,1.8,1.1,2.5,1.8c-0.1-0.5-0.5-1.1-0.9-1.5
		c-0.9-1.2-2.4-1.2-3.6-1.4c0.9-0.4,1.8-0.4,2.8,0c1.3,0.6,2.3,1.8,3,3c1,3.4,1.2,7,2,10.4c1.2,6.7,3,13.2,4.3,19.9
		c-1.1-0.1-2,0.2-3.1,0.1L211.7,137.9L211.7,137.9z"/>
	<path d="M207.4,139.4L207.4,139.4l-0.3-6.5l-0.4-0.4l0,0l-0.8-8.3v-0.3l-0.4-0.4l0,0c0.4-2.2,0-4.5-0.4-6.7
		c-0.6-3.5-1.1-6.8,1.1-9.8l0,0c1.3-0.9,2.4-1.3,3.5-1.3c0.4,0,0.7,0,1.1,0.1c0.8,0.2,1.4,0.8,2.1,1.4c0.1,0.1,0.3,0.2,0.4,0.3
		c-0.1-0.5-0.5-1-0.9-1.4c-0.7-1-1.9-1.2-2.9-1.3c-0.2,0-0.4-0.1-0.6-0.1l-0.1,0l0.1,0c0.9-0.4,1.9-0.4,2.8,0c1.3,0.6,2.2,1.8,3,3
		l0,0c0.6,1.9,0.9,3.9,1.2,5.9c0.2,1.5,0.5,3.1,0.8,4.5c0.7,3.7,1.5,7.4,2.3,10.9c0.7,2.9,1.4,5.9,1.9,9l0,0l-0.1,0
		c-0.2,0-0.3,0-0.5,0c-0.4,0-0.7,0-1,0.1c-0.3,0-0.7,0.1-1,0.1c-0.2,0-0.4,0-0.5,0l-6.2-0.1c-1.1,0.5-2.2,0.8-3.4,1.2
		C208,139.2,207.7,139.3,207.4,139.4L207.4,139.4z M206.8,132.5l0.4,0.4l0,0l0.3,6.4c0.2-0.1,0.5-0.1,0.7-0.2
		c1.2-0.4,2.3-0.7,3.4-1.2l0,0l6.2,0.1c0.2,0,0.4,0,0.5,0c0.4,0,0.7,0,1-0.1c0.3,0,0.7-0.1,1-0.1c0.2,0,0.3,0,0.5,0
		c-0.6-3-1.3-6-1.9-8.9c-0.8-3.6-1.7-7.2-2.3-10.9c-0.4-1.5-0.6-3-0.8-4.6c-0.3-2-0.6-4-1.2-5.9c-0.8-1.1-1.7-2.4-3-2.9
		c-0.9-0.3-1.7-0.4-2.6,0c0.2,0,0.3,0,0.5,0.1c1,0.2,2.2,0.3,3,1.3c0.4,0.4,0.8,1,0.9,1.5l0,0.1l-0.1-0.1c-0.2-0.1-0.3-0.3-0.5-0.4
		c-0.6-0.5-1.3-1.1-2.1-1.4c-0.4-0.1-0.7-0.1-1.1-0.1c-1.1,0-2.2,0.4-3.4,1.2c-2.1,3-1.6,6.3-1.1,9.8c0.4,2.2,0.7,4.5,0.4,6.7
		l0.4,0.4v0.3L206.8,132.5z"/>
</g>
<g id="path231">
	<path inkscape:connector-curvature="0" d="M217.9,138c-6.4-4.3-5.1-12-7.3-18.2c-0.3-1.7-0.6-3.4-1.1-5c0.3,5.3,1.9,10.3,2.9,15.4
		c0.8,1.3,0.7,3,1,4.5c-0.4,1.1-0.8,2.2-1.7,3.1L217.9,138L217.9,138z M186.1,138.1l-1.9-4.8c0.3-2.1,0.7-4.3,0.6-6.5
		c-0.9,4-2.2,8.8-6.3,11.6L186.1,138.1L186.1,138.1z"/>
	<path d="M178.3,138.5l0.1-0.1c3.9-2.7,5.3-7.2,6.3-11.6l0.1,0c0.1,2.1-0.2,4.3-0.5,6.4l0,0.1l1.9,4.8l-0.1,0L178.3,138.5z
		 M184.7,127.1c-1,4.3-2.4,8.7-6.2,11.3l7.5-0.4l-1.9-4.7l0-0.1C184.5,131.2,184.8,129.1,184.7,127.1z M218,138l-0.1,0l-6.3-0.1
		l0.1-0.1c0.8-0.8,1.2-1.8,1.5-2.8c0-0.1,0.1-0.2,0.1-0.4c-0.1-0.5-0.2-1-0.2-1.5c-0.1-1-0.2-2.1-0.8-3l0,0
		c-0.3-1.8-0.7-3.6-1.1-5.3c-0.8-3.3-1.5-6.6-1.7-10.1l0.1,0c0.4,1.4,0.7,2.8,1,4.2c0.1,0.3,0.1,0.5,0.2,0.8c0.7,1.9,1,4,1.4,6.1
		c0.7,4.5,1.5,9.2,5.9,12.1L218,138z M211.8,137.9l6,0.1c-4.4-3-5.1-7.6-5.9-12.1c-0.3-2-0.7-4.1-1.4-6c-0.1-0.3-0.1-0.5-0.2-0.8
		c-0.3-1.3-0.5-2.6-0.9-3.9c0.2,3.3,1,6.6,1.7,9.8c0.4,1.7,0.8,3.5,1.1,5.3c0.6,0.9,0.7,2,0.8,3c0.1,0.5,0.1,1,0.2,1.5l0,0l0,0
		c0,0.1-0.1,0.3-0.1,0.4C212.9,136.1,212.6,137,211.8,137.9z"/>
</g>
<g id="path233">
	<path inkscape:connector-curvature="0" d="M190.9,111L190.9,111c-1.1-0.3-2.6-0.5-3.6-1.4c-1.3,0.8-3.1,0.8-4.7,0.8v-0.2
		c1.6-0.6,3.2-1.1,4.7-2C188.3,109.3,189.9,110.2,190.9,111 M186.7,115.5l0.6,0.1c1.2,2.4,2.7,4.7,3.6,7.2c-2.6-1.6-2.8-4.8-4.2-7.1
		l-1.9,10.9c0.5-5.6,1.7-10.9,2.4-16.4C187.4,112,186.9,113.7,186.7,115.5"/>
</g>
<g id="path235">
	<path inkscape:connector-curvature="0" d="M211.6,110.9c2.2,5,3.6,10.5,5.7,15.2c-2.5-4.8-4.5-10.1-6-15.2H211.6z"/>
	<path d="M217.3,126.1L217.3,126.1L217.3,126.1c-2.4-4.6-4.4-9.7-6-15.2l0,0h0.3l0,0c1,2.4,1.9,5,2.8,7.4
		C215.3,120.9,216.3,123.7,217.3,126.1L217.3,126.1L217.3,126.1z M211.4,110.9c1.5,5,3.3,9.7,5.4,14c-0.9-2.1-1.7-4.4-2.4-6.6
		c-0.9-2.5-1.7-5-2.8-7.4H211.4z"/>
</g>
<g id="path237">
	<path inkscape:connector-curvature="0" d="M186.2,112.9c-2,5.3-2.4,11.2-6.6,15.6l-0.2-0.2l4.4-9.3l2.3-7.4L186.2,112.9
		 M186.6,124.7c1.1,3.2,2.5,6.3,3.6,9.5c-2.3-2.6-3.8-6-3.9-9.5H186.6 M209.8,127.4c-0.5,1.3-0.9,2.6-2,3.6l2.2-6
		C210.5,125.6,210.2,126.8,209.8,127.4"/>
</g>
<g id="path239">
	<path inkscape:connector-curvature="0" fill="#FFFFFF" d="M217.1,83.3c0,0,0.4,11.5-6.5,20c-7.6,9.3-12.5,11-12.5,11
		s-4.9-1.7-12.5-11c-6.9-8.5-6.5-20-6.5-20H217.1L217.1,83.3L217.1,83.3z"/>
</g>
<g id="path241">
	<path inkscape:connector-curvature="0" fill="#B11E39" d="M196.7,113.6V83.3h-3.2v28C193.4,111.3,194.9,112.5,196.7,113.6z
		 M184.3,101.5V83.3h-3v12.2C181.3,95.5,182.7,99.4,184.3,101.5z M190.3,108.5V83.3h-3v22C187.3,105.3,188.6,106.7,190.3,108.5z
		 M199.6,113.6V83.3h3.2v28C202.9,111.3,201.4,112.5,199.6,113.6L199.6,113.6z M212,101.5V83.3h3v12.2
		C215,95.5,213.5,99.4,212,101.5z M206,108.5V83.3h3v22C209,105.3,207.7,106.7,206,108.5z"/>
</g>
<g id="path243">
	<path inkscape:connector-curvature="0" fill="#7BAFD4" d="M216.3,73c0,0,1.2,5.2,0.9,10.3c0,0-38,0-38,0c0-5.2,0.9-10.3,0.9-10.3
		H216.3L216.3,73z"/>
</g>
<g id="polygon245">
	<polygon points="116.2,121.3 116.2,121.3 118.9,125.1 118.1,127.5 	"/>
	<path d="M118.1,127.5L118.1,127.5C118.1,127.5,118.1,127.5,118.1,127.5l-2-6.3c0,0,0,0,0,0c0,0,0,0,0,0l2.7,3.9c0,0,0,0,0,0
		L118.1,127.5C118.1,127.5,118.1,127.5,118.1,127.5z M116.3,121.5l1.8,5.9l0.8-2.2L116.3,121.5z"/>
</g>
<g id="polygon247">
	<polygon fill="#FFFFFF" points="116.2,121.3 116.2,121.3 116.1,126 118.1,127.5 	"/>
	<path d="M118.1,127.5C118.1,127.5,118.1,127.5,118.1,127.5l-2-1.5c0,0,0,0,0,0l0.1-4.8c0,0,0,0,0,0c0,0,0,0,0,0c0,0,0,0,0,0
		L118.1,127.5C118.1,127.5,118.1,127.5,118.1,127.5C118.1,127.5,118.1,127.5,118.1,127.5z M116.2,126l1.9,1.4l-1.8-5.9L116.2,126z"
		/>
</g>
<g id="polygon249">
	<polygon points="111.6,127.4 111.6,127.4 116.1,126 118.1,127.5 	"/>
	<path d="M118.1,127.5L118.1,127.5l-6.5-0.1c0,0,0,0,0,0c0,0,0,0,0,0l4.5-1.4c0,0,0,0,0,0L118.1,127.5
		C118.1,127.5,118.1,127.5,118.1,127.5C118.1,127.5,118.1,127.5,118.1,127.5z M111.8,127.4l6.2,0.1l-1.9-1.4L111.8,127.4z"/>
</g>
<g id="polygon251">
	<polygon fill="#FFFFFF" points="111.6,127.4 111.6,127.4 116.1,129 118.1,127.5 	"/>
	<path d="M116.1,129C116.1,129,116.1,129,116.1,129l-4.5-1.5c0,0,0,0,0,0c0,0,0,0,0,0h0l6.5,0.1c0,0,0,0,0,0c0,0,0,0,0,0L116.1,129
		C116.1,129,116.1,129,116.1,129z M111.8,127.5l4.2,1.5l1.9-1.4L111.8,127.5z"/>
</g>
<g id="polygon253">
	<polygon points="116,133.7 116,133.7 116.1,129 118.1,127.5 	"/>
	<path d="M116,133.8C116,133.8,116,133.8,116,133.8C116,133.7,116,133.7,116,133.8l0-4.8c0,0,0,0,0,0l2-1.4c0,0,0,0,0,0c0,0,0,0,0,0
		L116,133.8C116,133.7,116,133.8,116,133.8z M116.1,129l-0.1,4.5l2-5.9L116.1,129z"/>
</g>
<g id="polygon255">
	<polygon fill="#FFFFFF" points="116,133.7 116,133.7 118.9,129.9 118.1,127.5 	"/>
	<path d="M116,133.8C116,133.8,116,133.7,116,133.8C116,133.7,116,133.7,116,133.8l2.1-6.3c0,0,0,0,0,0h0c0,0,0,0,0,0l0.8,2.4
		c0,0,0,0,0,0L116,133.8C116,133.7,116,133.8,116,133.8z M118.1,127.6l-2,5.9l2.7-3.6L118.1,127.6z"/>
</g>
<g id="polygon257">
	<polygon points="123.4,131.4 123.4,131.4 118.9,129.9 118.1,127.5 	"/>
	<path d="M123.4,131.5C123.4,131.5,123.4,131.5,123.4,131.5l-4.5-1.5c0,0,0,0,0,0l-0.8-2.4c0,0,0,0,0,0c0,0,0,0,0,0L123.4,131.5
		C123.4,131.4,123.4,131.4,123.4,131.5C123.4,131.5,123.4,131.5,123.4,131.5z M118.9,129.9l4.3,1.5l-5-3.7L118.9,129.9z"/>
</g>
<g id="polygon259">
	<polygon fill="#FFFFFF" points="123.4,131.4 123.4,131.4 120.6,127.5 118.1,127.5 	"/>
	<path d="M123.4,131.5C123.4,131.5,123.4,131.5,123.4,131.5l-5.3-3.9c0,0,0,0,0,0c0,0,0,0,0,0h0l2.5,0c0,0,0,0,0,0L123.4,131.5
		C123.4,131.4,123.4,131.4,123.4,131.5C123.4,131.5,123.4,131.5,123.4,131.5z M118.2,127.5l5,3.7l-2.6-3.7L118.2,127.5z"/>
</g>
<g id="polygon261">
	<polygon points="123.5,123.7 123.5,123.7 120.6,127.5 118.1,127.5 	"/>
	<path d="M120.6,127.6L120.6,127.6l-2.5,0c0,0,0,0,0,0c0,0,0,0,0,0l5.3-3.8c0,0,0,0,0,0c0,0,0,0,0,0L120.6,127.6
		C120.6,127.6,120.6,127.6,120.6,127.6z M118.2,127.5l2.4,0l2.7-3.6L118.2,127.5z"/>
</g>
<g id="polygon263">
	<polygon fill="#FFFFFF" points="123.5,123.7 123.5,123.7 118.9,125.1 118.1,127.5 	"/>
	<path d="M118.1,127.5C118.1,127.5,118.1,127.5,118.1,127.5C118.1,127.5,118.1,127.5,118.1,127.5l0.8-2.4c0,0,0,0,0,0l4.5-1.4
		c0,0,0,0,0,0s0,0,0,0L118.1,127.5C118.1,127.5,118.1,127.5,118.1,127.5z M118.9,125.2l-0.8,2.2l5.1-3.6L118.9,125.2z"/>
</g>
<g id="polygon265">
	<polygon points="284.6,118.9 284.6,118.9 284.9,123.7 282.9,125.2 	"/>
	<path d="M282.9,125.3C282.9,125.3,282.9,125.3,282.9,125.3C282.9,125.2,282.9,125.2,282.9,125.3l1.7-6.4c0,0,0,0,0,0c0,0,0,0,0,0
		c0,0,0,0,0,0l0.3,4.8c0,0,0,0,0,0L282.9,125.3C282.9,125.3,282.9,125.3,282.9,125.3z M284.6,119.1l-1.6,6l1.8-1.5L284.6,119.1z"/>
</g>
<g id="polygon267">
	<polygon fill="#FFFFFF" points="284.6,118.9 284.6,118.9 282,122.9 282.9,125.2 	"/>
	<path d="M282.9,125.3C282.9,125.3,282.9,125.2,282.9,125.3l-0.9-2.4c0,0,0,0,0,0l2.6-4c0,0,0,0,0,0s0,0,0,0L282.9,125.3
		C283,125.2,282.9,125.3,282.9,125.3C282.9,125.3,282.9,125.3,282.9,125.3z M282.1,122.9l0.8,2.2l1.6-6L282.1,122.9z"/>
</g>
<g id="polygon269">
	<polygon points="277.5,121.6 277.5,121.6 282,122.9 282.9,125.2 	"/>
	<path d="M282.9,125.3C282.9,125.3,282.9,125.3,282.9,125.3l-5.5-3.6c0,0,0,0,0,0c0,0,0,0,0,0l4.6,1.3c0,0,0,0,0,0L282.9,125.3
		C283,125.2,283,125.2,282.9,125.3C282.9,125.3,282.9,125.3,282.9,125.3z M277.7,121.7l5.2,3.4l-0.8-2.2L277.7,121.7z"/>
</g>
<g id="polygon271">
	<polygon fill="#FFFFFF" points="277.5,121.6 277.5,121.6 280.4,125.3 282.9,125.2 	"/>
	<path d="M280.4,125.4C280.4,125.4,280.4,125.4,280.4,125.4l-3-3.7c0,0,0,0,0,0c0,0,0,0,0,0l5.5,3.6c0,0,0,0,0,0c0,0,0,0,0,0
		L280.4,125.4C280.4,125.4,280.4,125.4,280.4,125.4z M277.6,121.8l2.8,3.5l2.4-0.1L277.6,121.8z"/>
</g>
<g id="polygon273">
	<polygon points="277.8,129.3 277.8,129.3 280.4,125.3 282.9,125.2 	"/>
	<path d="M277.8,129.4C277.8,129.4,277.8,129.3,277.8,129.4C277.8,129.3,277.8,129.3,277.8,129.4l2.6-4c0,0,0,0,0,0l2.5-0.1
		c0,0,0,0,0,0c0,0,0,0,0,0L277.8,129.4C277.8,129.3,277.8,129.4,277.8,129.4z M280.4,125.4l-2.5,3.8l4.8-3.9L280.4,125.4z"/>
</g>
<g id="polygon275">
	<polygon fill="#FFFFFF" points="277.8,129.3 277.8,129.3 282.3,127.6 282.9,125.2 	"/>
	<path d="M277.8,129.4C277.8,129.4,277.8,129.3,277.8,129.4C277.8,129.3,277.8,129.3,277.8,129.4l5.1-4.2c0,0,0,0,0,0c0,0,0,0,0,0
		l-0.7,2.4c0,0,0,0,0,0L277.8,129.4C277.8,129.3,277.8,129.4,277.8,129.4z M282.9,125.3l-4.8,3.9l4.2-1.6L282.9,125.3z"/>
</g>
<g id="polygon277">
	<polygon points="285.2,131.3 285.2,131.3 282.3,127.6 282.9,125.2 	"/>
	<path d="M285.2,131.4C285.2,131.4,285.2,131.4,285.2,131.4l-3-3.7c0,0,0,0,0,0l0.7-2.4c0,0,0,0,0,0c0,0,0,0,0,0L285.2,131.4
		C285.3,131.3,285.3,131.3,285.2,131.4C285.3,131.4,285.2,131.4,285.2,131.4z M282.3,127.6l2.8,3.5l-2.2-5.8L282.3,127.6z"/>
</g>
<g id="polygon279">
	<polygon fill="#FFFFFF" points="285.2,131.3 285.2,131.3 285,126.6 282.9,125.2 	"/>
	<path d="M285.2,131.4C285.2,131.4,285.2,131.3,285.2,131.4l-2.3-6.1c0,0,0,0,0,0c0,0,0,0,0,0l2.1,1.4c0,0,0,0,0,0L285.2,131.4
		C285.3,131.3,285.3,131.4,285.2,131.4C285.2,131.4,285.2,131.4,285.2,131.4z M283,125.3l2.2,5.8l-0.2-4.5L283,125.3z"/>
</g>
<g id="polygon281">
	<polygon points="289.4,124.9 289.4,124.9 285,126.6 282.9,125.2 	"/>
	<path d="M285,126.6C285,126.6,285,126.6,285,126.6l-2.1-1.4c0,0,0,0,0,0c0,0,0,0,0,0l6.5-0.3c0,0,0,0,0,0c0,0,0,0,0,0c0,0,0,0,0,0
		L285,126.6C285,126.6,285,126.6,285,126.6z M283,125.3l2,1.3l4.2-1.6L283,125.3z"/>
</g>
<g id="polygon283">
	<polygon fill="#FFFFFF" points="289.4,124.9 289.4,124.9 284.9,123.7 282.9,125.2 	"/>
	<path d="M282.9,125.3C282.9,125.3,282.9,125.2,282.9,125.3C282.9,125.2,282.9,125.2,282.9,125.3l1.9-1.6c0,0,0,0,0,0l4.6,1.3
		c0,0,0,0,0,0c0,0,0,0,0,0L282.9,125.3C282.9,125.3,282.9,125.3,282.9,125.3z M284.9,123.7l-1.8,1.5l6.2-0.3L284.9,123.7z"/>
</g>
<g id="path285">
	<path inkscape:connector-curvature="0" d="M206.1,124.2L206.1,124.2c1.9-1.8,3.1-4,3.2-6.4l-0.1-0.1c-0.7,2.2-2.2,4.1-3.1,6.2
		L206.1,124.2L206.1,124.2z"/>
	<path d="M206,124.3L206,124.3L206,124.3v-0.1l0-0.3c0.4-0.9,0.9-1.8,1.4-2.7c0.6-1.1,1.3-2.2,1.7-3.5l0-0.1l0.1,0.1l0,0
		C209.2,120.1,208.1,122.4,206,124.3L206,124.3L206,124.3L206,124.3z M206.1,123.9v0.2c1.9-1.8,3-4,3.1-6.3l0,0
		c-0.4,1.2-1,2.4-1.7,3.5C207,122.1,206.5,123,206.1,123.9z"/>
</g>
<g id="path287">
	<path inkscape:connector-curvature="0" d="M209.2,113.8L209.2,113.8L209,112l0.1-0.1l0.1,1.5V113.8 M212.7,109.6
		c-1.3,0.3-2.6-0.1-3.7-0.6c-1.1,0.7-2.2,1.3-3.5,1.4c0.7-1,2.3-1.6,3.3-2.8C209.9,108.8,211.2,109.4,212.7,109.6"/>
</g>
<g id="path289">
	<path inkscape:connector-curvature="0" fill="#E0AF35" d="M183.8,141.5c0,0,0.9-3.8,3.7-3.8c2.8,0,2.5,0.6,3.1,1.1
		c0.5,0.5,1.1,1.2,0.9,1.6c0,0-0.2,0.2-0.2,0.3c-0.1,0.1-1.3,0.8-1.5,0.8c-0.8,0.2-2.2,0.3-3,0.3c-1.1,0.1-2-0.5-2.3-0.5
		C184.1,141.4,183.8,141.5,183.8,141.5L183.8,141.5z"/>
	<path d="M186.5,141.9c-0.7,0-1.3-0.2-1.7-0.4c-0.2-0.1-0.3-0.1-0.4-0.1c0,0-0.1,0-0.1,0c-0.3,0-0.5,0.1-0.5,0.1l-0.1,0l0-0.1
		c0,0,1-3.8,3.8-3.8c2.2,0,2.5,0.4,2.9,0.8c0.1,0.1,0.2,0.2,0.3,0.3c0.6,0.5,1.1,1.2,0.9,1.7l0,0c0,0-0.1,0.1-0.1,0.1
		c-0.1,0.1-0.1,0.1-0.1,0.1c-0.1,0.1-1.3,0.8-1.5,0.8c-0.6,0.2-1.8,0.3-2.6,0.3c-0.1,0-0.3,0-0.4,0
		C186.7,141.9,186.6,141.9,186.5,141.9z M184.4,141.4c0.1,0,0.2,0.1,0.4,0.1c0.4,0.1,1,0.4,1.6,0.4c0.1,0,0.2,0,0.2,0
		c0.1,0,0.3,0,0.4,0c0.8,0,2-0.1,2.6-0.3c0.3-0.1,1.4-0.8,1.5-0.8c0,0,0.1-0.1,0.1-0.1c0,0,0.1-0.1,0.1-0.1c0.2-0.4-0.3-1.1-0.9-1.6
		c-0.1-0.1-0.2-0.2-0.3-0.3c-0.3-0.4-0.6-0.8-2.8-0.8c-2.5,0-3.5,3.2-3.7,3.7C183.9,141.4,184.2,141.4,184.4,141.4L184.4,141.4z"/>
</g>
<g id="path291">
	<path inkscape:connector-curvature="0" d="M184.8,141.3c0,0-0.5-0.6,0.1-1.3c0.1-0.1,0.5-0.1,0.6-0.5c0.3-0.7,1.6-1,2.2-0.9
		c0.9,0.1,3,1.8,3,1.8s0.4,0.8,0,0.4c-0.4-0.3-0.6-0.6-1.2-0.5c-0.6,0.1-1.6,0.9-2.3,0.7c-0.7-0.2-1.3-0.8-1.6-0.7
		C185.4,140.3,184.8,141.3,184.8,141.3"/>
</g>
<g id="path293">
	<path inkscape:connector-curvature="0" fill="#E0AF35" d="M191.5,140.4c0.6,0.3,1.1,0.8,1.5,1.5c0.5,0.7,0.4,2.2,0,3.2
		c-0.3,0.8-2.3,1.7-2.3,1.7s1-2.1,0.9-3c-0.1-0.7-0.6-1.1-0.9-1.5c-0.3-0.3-1-0.7-1-0.7s0.8-0.8,1.3-0.9
		C191.4,140.6,191.5,140.4,191.5,140.4z"/>
	<path d="M190.6,146.9L190.6,146.9c0.1-0.1,1.1-2.2,1-3c-0.1-0.6-0.4-1-0.8-1.3c-0.1-0.1-0.1-0.1-0.2-0.2c-0.3-0.3-1-0.7-1-0.7l0,0
		l0,0c0,0,0.8-0.8,1.3-0.9c0.4-0.1,0.6-0.3,0.6-0.3l0,0l0,0c0.6,0.3,1,0.8,1.5,1.5c0.5,0.7,0.4,2.3,0,3.2
		C192.7,145.8,190.8,146.8,190.6,146.9L190.6,146.9z M189.7,141.6c0.2,0.1,0.7,0.4,1,0.7c0.1,0.1,0.1,0.1,0.2,0.2
		c0.4,0.4,0.7,0.7,0.8,1.4c0.1,0.7-0.7,2.4-0.9,2.9c0.4-0.2,1.9-1,2.2-1.7c0.4-1,0.5-2.5,0-3.2c-0.5-0.7-0.9-1.2-1.5-1.4
		c-0.1,0.1-0.2,0.3-0.6,0.3C190.5,140.8,189.8,141.4,189.7,141.6z"/>
</g>
<g id="path295">
	<path inkscape:connector-curvature="0" d="M190.7,140.8l0.3-0.1c0,0,1.1,0.9,1.4,1.8c0.1,0.4,0.3,1.1-0.1,2.2
		c-0.3,0.7-0.8,1.2-0.8,1.2s0.4-0.8,0.7-1.9c0.1-0.5,0-1.3-0.7-2.1C191.3,141.5,190.7,140.8,190.7,140.8"/>
</g>
<g id="path297">
	<path inkscape:connector-curvature="0" fill="#E0AF35" d="M180.2,141.3c0,0-0.3,1.4-0.2,2.6c0.1,1.3,1,2.6,1.9,2.8
		c1.1,0.2,1.8,0.1,1.8,0.1c-0.4-0.3-1.5-1.2-1.6-2.1c-0.1-0.9,0.3-1.2,0.4-1.8c0.1-0.6,0.3-0.9,0.3-0.9s-0.8-0.4-1.3-0.6
		C181.1,141.4,180.2,141.3,180.2,141.3z"/>
	<path d="M183.2,147c-0.3,0-0.7,0-1.3-0.1c-0.9-0.2-1.9-1.5-2-2.8c-0.1-1.2,0.2-2.6,0.2-2.7l0,0l0,0c0,0,1,0.1,1.4,0.3
		c0.5,0.2,1.3,0.6,1.3,0.6l0,0l0,0c0,0-0.2,0.3-0.3,0.8c0,0.2-0.1,0.4-0.2,0.6c-0.1,0.3-0.2,0.6-0.2,1.2c0.1,0.7,0.9,1.5,1.4,1.9
		c0.1,0.1,0.1,0.1,0.2,0.2l0.1,0.1l-0.1,0C183.7,146.9,183.6,147,183.2,147z M180.2,141.4c0,0.2-0.3,1.5-0.2,2.6
		c0.1,1.3,1,2.6,1.9,2.8c0.6,0.1,1,0.1,1.3,0.1c0.2,0,0.3,0,0.4,0c0,0-0.1-0.1-0.1-0.1c-0.5-0.4-1.3-1.2-1.4-1.9
		c-0.1-0.6,0.1-0.9,0.2-1.2c0.1-0.2,0.1-0.3,0.2-0.5c0.1-0.5,0.2-0.8,0.3-0.8c-0.2-0.1-0.8-0.4-1.2-0.6
		C181.2,141.5,180.4,141.4,180.2,141.4z"/>
</g>
<g id="path299">
	<path inkscape:connector-curvature="0" d="M181.3,141.5c0,0-0.4,0.9-0.4,1.6c0,1.3,0.1,1.7,0.3,2.2c0.2,0.4,1.4,1.1,1.4,1.1
		s-0.9-0.7-1-1.7c-0.1-1,0.1-2.3,0.3-2.9L181.3,141.5"/>
</g>
<g id="path301">
	<path inkscape:connector-curvature="0" fill="#E0AF35" d="M181.2,138.3c0,0-3,0.1-3.7,0c-0.6-0.1-0.7-0.3-1.2-0.2
		c-0.5,0-2.9,0.6-3.4,1.5s-0.9,1.6-0.8,1.7c0,0.2,1,0.3,1.3,0.4c0.3,0.1,1.5,0.3,1.8,0.3c1.5,0.3,3.3-0.1,2.7,0
		c0.8-0.1,1.8-0.5,2-0.7c0.2-0.2,0.5-0.5,0.6-0.8C180.6,140.1,181.2,138.3,181.2,138.3L181.2,138.3z M185.6,138.4
		c0,0-1.3-2.8-2.2-3.9c0,0-1.4,1.8-1.8,2.6c-0.4,0.8-1.6,2.8-1.6,3.1s-0.2,0.9-0.1,1c0.1,0.1,0.2,0.1,0.9,0.3c0.7,0.1,1,0.3,1.3,0.6
		c0.3,0.2,0.9,0.3,1.1,0.3c0.2,0,0.5-0.8,0.5-0.8s0.5-1.3,0.8-1.8C184.9,139.2,185.6,138.4,185.6,138.4z"/>
	<path d="M183.2,142.3L183.2,142.3c-0.3,0-0.8-0.1-1-0.3c-0.3-0.3-0.6-0.4-1.3-0.5c-0.6-0.1-0.8-0.1-0.9-0.2l-0.1,0.1
		c-0.2,0.2-1.1,0.5-1.9,0.7c0,0-0.1,0.1-0.5,0.1c-0.2,0-0.6,0.1-1.1,0.1c-0.5,0-0.9,0-1.3-0.1c-0.1,0-0.3,0-0.5-0.1
		c-0.4-0.1-1.1-0.2-1.3-0.3c-0.1-0.1-0.4-0.1-0.6-0.2c-0.5-0.1-0.7-0.2-0.8-0.3c0-0.2,0.2-0.6,0.7-1.4l0.2-0.3c0.6-1,3-1.5,3.5-1.6
		c0.3,0,0.5,0,0.7,0.1c0.1,0,0.3,0.1,0.5,0.1c0.2,0,0.7,0.1,1.5,0.1c0.7,0,1.5,0,1.9,0c0.1-0.1,0.2-0.3,0.2-0.4
		c0.2-0.3,0.3-0.6,0.4-0.7c0.4-0.8,1.8-2.6,1.8-2.6l0,0l0,0c0.9,1,2.2,3.9,2.2,3.9l0,0l0,0c0,0-0.8,0.8-1.1,1.3
		c-0.3,0.4-0.8,1.8-0.8,1.8C183.8,141.6,183.5,142.2,183.2,142.3C183.3,142.3,183.3,142.3,183.2,142.3z M180,141.2
		c0.1,0.1,0.3,0.1,0.8,0.2c0.7,0.1,1,0.3,1.4,0.6c0.2,0.2,0.7,0.3,1,0.3h0c0,0,0.1,0,0.1,0c0.1,0,0.3-0.5,0.4-0.7
		c0-0.1,0.5-1.3,0.8-1.8c0.3-0.4,1-1.2,1.1-1.3c-0.1-0.3-1.3-2.8-2.2-3.8c-0.2,0.3-1.4,1.8-1.8,2.5c-0.1,0.2-0.2,0.5-0.4,0.8
		c-0.1,0.1-0.1,0.2-0.2,0.4c0.1,0,0.2,0,0.2,0l0.1,0l0,0.1c0,0-0.6,1.9-0.8,2.2C180.4,140.7,180.2,141,180,141.2z M176.5,138
		c0,0-0.1,0-0.1,0c-0.5,0-2.9,0.6-3.4,1.5l-0.2,0.3c-0.4,0.8-0.7,1.3-0.7,1.4c0,0.1,0.4,0.2,0.7,0.2c0.2,0.1,0.4,0.1,0.6,0.2
		c0.2,0.1,0.8,0.2,1.3,0.2c0.2,0,0.4,0.1,0.5,0.1c0.4,0.1,0.8,0.1,1.3,0.1c0.6,0,1.2-0.1,1.4-0.1l0,0c0.8-0.1,1.8-0.5,2-0.7l0.1-0.1
		c0,0,0,0,0,0c-0.1-0.1,0-0.2,0-0.5c0-0.2,0.1-0.4,0.1-0.5c0-0.1,0.2-0.7,0.9-1.9l0,0c-0.4,0-1.2,0-1.9,0c-0.8,0-1.3,0-1.5-0.1
		c-0.2,0-0.4-0.1-0.5-0.1C176.9,138.1,176.7,138,176.5,138z M181,138.3c-0.3,0.5-0.9,1.7-0.9,1.9c0,0.1,0,0.3-0.1,0.5
		c0,0.2-0.1,0.4-0.1,0.4c0.2-0.2,0.4-0.4,0.5-0.7c0.1-0.3,0.6-1.9,0.7-2.2C181.2,138.3,181.1,138.3,181,138.3z"/>
</g>
<g id="path303">
	<path inkscape:connector-curvature="0" d="M184.3,140c0,0-0.5-0.6-0.9-0.8c-0.4-0.2-1.1-0.2-1.1-0.2s-0.6,0.2-0.6,0.5
		c0,0.2,0,0.5,0.1,0.6c0.1,0.1,0.4,0.3,0.9,0.4c0.6,0.1,1.2,0.4,1.2,0.4L184.3,140"/>
</g>
<g id="path305">
	<path inkscape:connector-curvature="0" fill="#E0AF35" d="M172.3,141.4c0,0-0.3,1.4,0.1,3.1c0.3,1,1,2,1.8,2.3s2.9,0.1,2.9,0.1
		s-1.4-0.2-2.2-1.6c-0.4-0.7-0.3-1.7-0.3-2.2c0.1-0.5,0.3-0.9,0.3-0.9s-1.2-0.3-1.4-0.3C173.2,141.7,172.3,141.4,172.3,141.4z"/>
	<path d="M175.5,147c-0.6,0-1-0.1-1.3-0.2c-0.8-0.3-1.5-1.3-1.8-2.3c-0.4-1.6-0.1-3.1-0.1-3.1l0,0l0,0c0,0,0.9,0.3,1.2,0.3
		c0.2,0,1.4,0.3,1.4,0.3l0,0l0,0c0,0-0.2,0.4-0.2,0.9c0,0.4-0.2,1.5,0.2,2.2c0.8,1.4,2.2,1.6,2.2,1.6l0,0.1
		C177.1,146.9,176.3,147,175.5,147z M172.4,141.4c0,0.2-0.3,1.6,0.1,3c0.3,1,1,2,1.7,2.3c0.2,0.1,0.7,0.1,1.2,0.1
		c0.6,0,1.1,0,1.4-0.1c-0.4-0.1-1.4-0.5-2-1.6c-0.4-0.8-0.3-1.9-0.3-2.2c0-0.4,0.2-0.8,0.2-0.9c-0.2,0-1.2-0.2-1.4-0.3
		C173.2,141.7,172.5,141.5,172.4,141.4z"/>
</g>
<g id="path307">
	<path inkscape:connector-curvature="0" d="M173.2,141.7c0,0-0.1,1.2,0,1.8c0.1,0.7,0.6,1.3,0.6,1.3s-0.2-0.9-0.2-1.4
		c0-0.5,0.1-1.7,0.1-1.7L173.2,141.7 M180.2,139.6c0,0-1.7-0.1-2.5,0c-0.8,0.1-1.3,0.3-1.4,0.4c-0.2,0.1-1.3,0.3-1.3,0.3l-1.4,1.4
		l0.9,0.2c1-0.2,0.4-0.8,2.2-0.9c1-0.1,3-0.7,3.5-1L180.2,139.6"/>
</g>
<g id="path309">
	<path inkscape:connector-curvature="0" fill="#E0AF35" d="M213.3,137.7c0,0-0.6,0-1.6,0.2s-3.1,0-3.6,0.6c-0.5,0.5-2.1,1.2-2.6,2.3
		c-0.5,1.1-0.6,1.7-0.4,1.8s0.3,0.1,0.8,0.2c0.6,0.1,1.3,0.3,2,0.5c1.4,0.2,2-0.6,2.6-0.8c0.7-0.4,2.1-0.8,2.6-0.8
		c0.5-0.1,0.3-1.4,0.3-1.4L213.3,137.7L213.3,137.7z M207.8,143.2c0,0-0.1,1.4,0.4,2.2c0.5,0.9,0.8,0.9,1.4,1
		c0.6,0.1,1.3,0.1,1.3,0.1s-0.9,1-1.8,0.8c-0.9-0.2-2.4-1.4-2.8-1.9c-0.6-1-0.6-2.7-0.6-2.7s1.1,0.1,1.4,0.2
		C207.3,143.1,207.8,143.2,207.8,143.2z"/>
	<path d="M209.2,147.5c-0.1,0-0.2,0-0.2,0c-1-0.2-2.4-1.4-2.8-2c-0.6-0.9-0.6-2.6-0.6-2.7c-0.2,0-0.3,0-0.4-0.2
		c-0.2-0.2-0.1-0.9,0.4-1.9c0.3-0.7,1.2-1.3,1.8-1.7c0.3-0.2,0.6-0.4,0.8-0.6c0.4-0.4,1.5-0.4,2.5-0.5c0.4,0,0.8,0,1.1-0.1
		c1-0.1,1.6-0.2,1.6-0.2l0,0l0,0l0.1,2.4c0,0.1,0.2,1.4-0.3,1.5c-0.4,0.1-1.9,0.5-2.6,0.8c-0.1,0.1-0.3,0.1-0.4,0.2
		c-0.4,0.3-0.9,0.6-1.7,0.6c0,0,0,0,0,0c-0.2,0-0.3,0-0.5,0c-0.1,0-0.1,0-0.2,0l0,0c0,0-0.1,1.4,0.4,2.2c0.4,0.8,0.8,0.9,1.2,1
		c0,0,0.1,0,0.1,0c0.4,0.1,0.9,0.1,1.1,0.1c0.1,0,0.1,0,0.1,0l0.1,0l-0.1,0.1C210.8,146.7,210.1,147.5,209.2,147.5z M205.6,142.8
		c0,0.3,0,1.8,0.6,2.7c0.4,0.6,1.8,1.8,2.8,1.9c0.1,0,0.1,0,0.2,0c0.7,0,1.3-0.6,1.5-0.8c-0.2,0-0.7,0-1.2-0.1c0,0-0.1,0-0.1,0
		c-0.5-0.1-0.8-0.2-1.3-1c-0.4-0.8-0.4-2-0.4-2.2c-0.1,0-0.3-0.1-0.5-0.2c-0.1,0-0.2-0.1-0.3-0.1c-0.1,0-0.3-0.1-0.4-0.1
		C206.2,142.9,205.7,142.8,205.6,142.8z M213.3,137.8c-0.1,0-0.7,0-1.6,0.2c-0.3,0-0.7,0.1-1.1,0.1c-1,0-2.1,0.1-2.4,0.5
		c-0.2,0.2-0.5,0.4-0.8,0.6c-0.6,0.4-1.4,1-1.8,1.7c-0.6,1.1-0.6,1.7-0.4,1.8c0.1,0.1,0.2,0.1,0.4,0.1c0.1,0,0.2,0,0.4,0
		c0.2,0,0.3,0.1,0.6,0.1c0.2,0,0.3,0.1,0.4,0.1c0.1,0,0.2,0.1,0.3,0.1c0.3,0.1,0.5,0.1,0.7,0.2c0.2,0,0.3,0,0.5,0h0
		c0.8,0,1.3-0.3,1.7-0.6c0.2-0.1,0.3-0.2,0.4-0.3c0.7-0.4,2.2-0.8,2.6-0.8c0.4-0.1,0.3-1,0.2-1.4L213.3,137.8z"/>
</g>
<g id="path311">
	<path inkscape:connector-curvature="0" d="M212.7,139c0,0.1-0.6,0.6-0.6,0.6l-1.8,0.6l-1.4,0.6l-1.3,0.9c0,0-0.7,0.7-0.8,0.8
		c-0.1,0.1-0.1,0.4-0.1,0.4l0.9,0.3c0,0,0-0.3,0.3-0.5c0.2-0.2,0.5-0.4,0.6-0.5c0.4-0.3,1-0.6,1.4-0.7c0.3-0.1,1.3-0.6,1.4-0.7
		c0.1-0.1,0.5,0,0.9-0.2C212.7,140.2,212.7,139,212.7,139 M206.8,143c0,0-0.1,1.3,0.1,1.8c0.2,0.5,0.7,1,0.7,1s-0.4-1-0.4-1.5
		c0-0.3,0.1-1.1,0.1-1.1L206.8,143"/>
</g>
<g id="path313">
	<path inkscape:connector-curvature="0" fill="#E0AF35" d="M216.9,137.8c0.5-0.1,0.9,0,2.1-0.2c1.2-0.2,1.9,0,2.8,0.2
		c1.2,0.3,2.6,1.2,2.8,1.6c0.3,0.4,0.7,1.8,0,2.1c-0.7,0.3-1.5,0.8-2,0.6c-0.6-0.2-2.3-0.3-3.1-0.4c-0.8-0.1-1.4-0.1-1.4-0.1
		L216.9,137.8z M224.8,141.5c0,0,0.3,0.8,0.3,1.7c0,0.9-0.2,1.7-0.5,2.3c-0.3,0.8-1.9,1.4-1.9,1.4s0.6-1,0.9-1.7
		c0.2-0.7,0-1.7-0.1-2.1c-0.1-0.4-0.4-0.9-0.4-0.9s0.3-0.1,0.6-0.2C223.9,141.9,224.8,141.5,224.8,141.5L224.8,141.5z"/>
	<path d="M222.6,146.9L222.6,146.9c0.1-0.1,0.7-1.1,0.9-1.8c0.2-0.7,0-1.5-0.1-2l0-0.1c-0.1-0.4-0.4-0.8-0.4-0.8c-0.1,0-0.3,0-0.4,0
		c-0.3-0.1-1-0.2-1.7-0.3c-0.5-0.1-1.1-0.1-1.4-0.2c-0.5-0.1-0.8-0.1-1.1-0.1c-0.2,0-0.3,0-0.3,0l0,0l0,0l-1.2-3.8l0,0
		c0.2,0,0.3,0,0.5,0c0.4,0,0.8,0,1.6-0.2c0.3-0.1,0.6-0.1,0.9-0.1c0.6,0,1.2,0.1,1.7,0.3c0.1,0,0.1,0,0.2,0c1.3,0.3,2.6,1.2,2.8,1.6
		c0.2,0.3,0.5,1.1,0.3,1.7c0,0.2-0.1,0.3-0.2,0.4l0,0c0,0,0.3,0.8,0.3,1.7c0,1-0.2,1.7-0.5,2.3c-0.3,0.8-1.8,1.4-1.9,1.4
		L222.6,146.9z M223.1,142.2c0.1,0.1,0.3,0.5,0.4,0.8l0,0.1c0.1,0.4,0.3,1.3,0.1,2c-0.2,0.6-0.6,1.3-0.8,1.6
		c0.4-0.2,1.5-0.7,1.7-1.3c0.3-0.6,0.5-1.3,0.5-2.3c0-0.8-0.2-1.5-0.3-1.6c-0.2,0.1-0.8,0.4-1.1,0.5
		C223.4,142.1,223.2,142.2,223.1,142.2z M218.4,141.5c0.2,0,0.6,0,1.1,0.1c0.4,0.1,0.9,0.1,1.4,0.2c0.7,0.1,1.4,0.1,1.7,0.3
		c0.1,0,0.2,0,0.3,0c0.4,0,0.9-0.2,1.4-0.5c0.1-0.1,0.2-0.1,0.3-0.2c0.2-0.1,0.3-0.2,0.3-0.5c0.1-0.5-0.1-1.3-0.3-1.6
		c-0.2-0.3-1.6-1.2-2.8-1.5c-0.1,0-0.1,0-0.2,0c-0.5-0.1-1-0.2-1.7-0.2c-0.3,0-0.6,0-0.9,0.1c-0.8,0.2-1.3,0.2-1.7,0.2
		c-0.1,0-0.3,0-0.4,0l1.1,3.7C218.2,141.6,218.3,141.5,218.4,141.5z"/>
</g>
<g id="path315">
	<path inkscape:connector-curvature="0" d="M223.9,141.9c0,0,0.2,0.2,0.4,1c0.1,0.7,0.1,1.6,0.1,1.6s0.3-1,0.2-1.6
		c-0.1-0.6-0.4-1.1-0.4-1.1L223.9,141.9"/>
</g>
<g id="path317">
	<path inkscape:connector-curvature="0" fill="#E0AF35" d="M214.4,136c-0.8,0-1.6,0.5-2.1,1.1c-0.5,0.6-0.4,1.6-0.2,2.3
		c0.2,0.7,0.8,1.8,1.4,2.4c0.6,0.6,1.6,1.1,2.5,1c0.9-0.1,2.4-0.1,2.4-0.9c0-0.8-0.3-1.7-0.5-2.4c-0.2-0.7-0.5-1.5-1-2.1
		C216.1,136.4,215.8,136,214.4,136L214.4,136z"/>
	<path d="M215.8,142.8c-0.9,0-1.8-0.4-2.4-1c-0.6-0.7-1.2-1.8-1.4-2.4c-0.2-0.7-0.3-1.8,0.2-2.3c0.5-0.5,1.3-1.1,2.1-1.1
		c0,0,0.1,0,0.1,0c1.3,0,1.6,0.4,2.4,1.4c0.4,0.6,0.8,1.3,1,2.1c0.2,0.8,0.5,1.7,0.5,2.4c0,0.8-1.5,0.9-2.4,0.9
		C215.9,142.8,215.9,142.8,215.8,142.8z M214.5,136c0,0-0.1,0-0.1,0c-0.8,0-1.6,0.6-2.1,1.1c-0.5,0.5-0.4,1.5-0.2,2.2
		c0.2,0.7,0.8,1.8,1.4,2.4c0.6,0.6,1.5,1,2.3,1c0.1,0,0.1,0,0.2,0c0.9-0.1,2.3-0.1,2.4-0.9c0-0.7-0.2-1.6-0.5-2.4
		c-0.2-0.8-0.6-1.6-1-2.1C216.1,136.4,215.8,136,214.5,136z"/>
</g>
<g id="path319">
	<path inkscape:connector-curvature="0" d="M217.8,139.3c0,0,0.1,0.4,0.1,0.5c0,0.1,0,0.5,0,0.5s-0.9,0.7-1.3,0.6
		c-0.4-0.1-1.3-0.1-1.8-0.6c-0.5-0.5-0.9-1.3-0.9-1.3s1.8,0.7,2.6,0.7C216.9,139.7,217.8,139.3,217.8,139.3"/>
</g>
<g id="path321">
	<path inkscape:connector-curvature="0" fill="#E0AF35" d="M215,142.6c0,0,0.6,0.8,0.7,1.4c0,0.6-0.1,1.3-0.3,1.7
		c-0.3,0.4-0.9,1.5-0.9,1.5s0.6,0.1,1.3-0.3c0.7-0.4,1.5-1.1,1.7-1.9c0.2-0.8,0.1-2.3,0.1-2.3s-1,0.3-1.8,0.3
		C215.4,142.8,215,142.6,215,142.6z"/>
	<path d="M214.7,147.2c-0.1,0-0.2,0-0.2,0l-0.1,0l0,0c0,0,0.6-1.1,0.9-1.5c0.2-0.4,0.3-1,0.3-1.7c0-0.6-0.7-1.3-0.7-1.3l0-0.1
		c0,0,0.4,0.2,0.8,0.3c0.8,0,1.8-0.3,1.8-0.3l0,0l0,0c0,0,0.1,1.5-0.1,2.3c-0.3,1-1.2,1.7-1.7,2
		C215.3,147.1,214.9,147.2,214.7,147.2z M214.6,147.1c0.2,0,0.7,0,1.2-0.3c0.5-0.3,1.4-1,1.7-1.9c0.2-0.7,0.1-2,0.1-2.3
		c-0.2,0.1-1.1,0.3-1.8,0.3c-0.2,0-0.5-0.1-0.6-0.2c0.2,0.2,0.5,0.8,0.6,1.2c0,0.7-0.1,1.3-0.3,1.7
		C215.2,146,214.7,146.9,214.6,147.1z"/>
</g>
<g id="path323">
	<path inkscape:connector-curvature="0" d="M216.3,143.4c0,0,0,1.1-0.1,1.4c-0.1,0.3-0.3,1-0.3,1s0.6-0.9,0.7-1.4
		c0.1-0.5,0-1.2,0-1.2L216.3,143.4 M223.9,139.2c0.5,0.6,1.1,1.3,0.6,2c-0.1,0.1-0.2,0.1-0.3,0.1c-0.5-0.6-0.2-1.8-1.3-1.9
		c-1.4-0.8-3.5,0.4-4.8-0.6c1.4-0.3,3.3-0.3,5,0L223.9,139.2"/>
</g>
<g id="polygon325">
	<polygon fill="#B2B2B2" points="156.9,149.4 155,149.4 155,147 172.3,147 172.3,149.4 170.5,149.4 170.5,152 172.3,152 
		172.3,155.6 164.5,155.6 164.5,152 165.8,152 165.8,149.4 161.5,149.4 161.5,149.4 161.5,152 162.9,152 162.9,155.6 155,155.6 
		155,152 156.9,152 	"/>
	<path d="M172.4,155.7h-7.9v-3.7h1.4v-2.5h-4.2v2.5h1.4v3.7h-8v-3.7h1.9v-2.5H155v-2.5h17.4v2.5h-1.9v2.5h1.9V155.7z M164.5,155.6
		h7.8V152h-1.9v-2.7h1.9V147h-17.2v2.3h1.9v2.7h-1.9v3.6h7.8V152h-1.4v-2.7h4.4v2.7h-1.4V155.6z"/>
</g>
<g id="path327">
	<path d="M171.7,155.3h-7.3v-0.1L171.7,155.3l-0.1-3.3h0.1V155.3z M162.3,155.3h-7.3v-0.1L162.3,155.3l-0.1-3.3h0.1V155.3z
		 M169.9,152L169.9,152l-0.1-3h1.8v-2h0.1v2.1h-1.8V152z M160.9,152L160.9,152l-0.1-3h5v0.5h-0.1V149h-4.9V152z M156.9,149.4
		L156.9,149.4l-0.1-0.4h-1.7v-0.1h1.8V149.4z"/>
</g>
<g id="path329">
	<path inkscape:connector-curvature="0" d="M207.2,73l-1.5-3.8l0.5-0.1l-1.1-3.7l0.5,0.1l-1.4-3.1l0.6,0.1l-0.6-3.1h0.3l-0.6-2.3
		l0.6-0.1l-0.9-3l0.6,2.7l-0.7-0.1l0.8,2.4l-0.6-0.1l0.9,3.2l-0.8-0.1l1.4,3.1c0,0-0.9-0.4-0.7-0.1s1.4,3.8,1.4,3.8l-0.7,0.1l1.6,4
		L207.2,73"/>
</g>
<g id="path331">
	<path inkscape:connector-curvature="0" d="M107.4,113.7l-0.2-2c2.9-3.1,5.8-6.4,8.8-9.5l-9.5,0.7c0-0.3,0-0.6,0-0.8
		c0-0.3-0.1-0.6-0.1-0.8l13.9-1.1l0.1,1.7c-2.4,2.6-4.8,4.9-7,7.4l-2.1,2.4l9.8-0.8c0,0.3,0,0.6,0,0.8c0,0.3,0.1,0.6,0.1,0.8
		L107.4,113.7 M116.4,95.2c1.5,0.7,2.7,1.3,4.1,1.8c-0.1,0.3-0.1,0.6-0.2,0.9c0,0.3,0,0.6,0,1l-13.5-7.1c0.1-0.3,0.1-0.5,0.1-0.8
		c0-0.3,0-0.5,0-0.8l14.6-4.3c-0.1,0.6-0.2,1.1-0.3,1.7c-0.1,0.6-0.1,1.2-0.1,1.8c-1.5,0.3-3,0.6-4.4,1
		C116.9,90.5,116.4,95.2,116.4,95.2z M115.6,90.8l-4.9,1.3l4.5,2.4L115.6,90.8 M123.3,79.2c-0.2,0.5-0.3,1-0.5,1.4
		c-0.1,0.5-0.2,1-0.3,1.5l-12.1-3c-0.4,1.4-0.5,2.7-0.6,3.7c-0.3-0.1-0.5-0.2-0.8-0.3c-0.3-0.1-0.6-0.1-0.9-0.1l2.5-10.2
		c0.3,0.1,0.5,0.2,0.8,0.3c0.3,0.1,0.6,0.1,0.9,0.1c-0.4,1.1-0.9,2.3-1.2,3.5L123.3,79.2 M111.9,69.2c0.2-0.5,0.4-0.9,0.6-1.4
		s0.3-1,0.4-1.5l13.1,4.8c-0.2,0.5-0.4,0.9-0.6,1.4c-0.2,0.5-0.3,1-0.4,1.5L111.9,69.2 M130.3,62.6c-2.1,4-5.9,5.3-10,3.2
		c-3.6-1.9-5-6.1-2.6-10.5c2.8-5.1,7.2-4.7,9.9-3.2C131.1,53.9,132.6,58.2,130.3,62.6L130.3,62.6z M122.4,63.1
		c2.3,1.3,5.4,1.5,6.8-1.1c1.5-2.8-0.6-5.5-3.6-7.1c-2.3-1.3-5.5-1.6-7,1.1C117.4,58.4,118.4,60.9,122.4,63.1 M124.1,45.3l1.3-1.6
		c4.3-0.2,8.6-0.6,12.9-0.7L131,37c0.2-0.2,0.4-0.4,0.6-0.6c0.2-0.2,0.3-0.4,0.5-0.7l10.8,8.9l-1.1,1.3c-3.5,0.1-6.9,0.3-10.2,0.5
		l-3.2,0.2l7.6,6.3c-0.2,0.2-0.4,0.4-0.6,0.6c-0.2,0.2-0.3,0.4-0.5,0.7L124.1,45.3 M143.5,38.3c0.6,1.5,1,2.8,1.6,4.1
		c-0.3,0.2-0.5,0.4-0.8,0.6c-0.3,0.2-0.5,0.4-0.7,0.7L139,29.2c0.2-0.1,0.4-0.3,0.6-0.4c0.2-0.2,0.4-0.3,0.6-0.6l13.5,7.1
		c-0.5,0.4-0.9,0.7-1.4,1.1s-0.8,0.8-1.3,1.2c-1.3-0.8-2.6-1.6-3.8-2.3L143.5,38.3L143.5,38.3z M145.9,34.6l-4.5-2.4l1.6,4.8
		L145.9,34.6 M156.5,31.7c1.5-0.9,2.7-1.9,3.8-2.7c0.1,0.3,0.2,0.6,0.4,0.8c0.1,0.3,0.4,0.5,0.6,0.7l-6.5,4.1l-7.4-11.7
		c0.4-0.3,0.9-0.4,1.3-0.7c0.4-0.3,0.8-0.6,1.2-0.9L156.5,31.7 M169.6,14.4c-0.8-0.9-1.8-1.2-2.8-0.8c-1.5,0.6-1.8,1.6-1.4,2.7
		c1,2.6,6.6-0.2,8.3,4.1c0.9,2.4-0.4,5-3.4,6.1c-1,0.4-2.3,0.6-3.4,0.4c-0.1-0.9-0.2-1.8-0.4-2.6l0.4-0.1c0.8,1.2,2.1,1.6,3.4,1.1
		c1.2-0.5,1.9-1.5,1.4-2.8c-1.2-3-6.4,0.3-8.2-4.3c-0.9-2.2-0.1-4.6,2.8-5.7c1.4-0.5,2.8-0.5,3.3-0.3c0,0.7,0.1,1.4,0.1,2.1
		L169.6,14.4 M180.9,8.5c0,0.3,0.1,0.6,0.1,0.9c0.1,0.3,0.2,0.6,0.3,0.8c-1.3,0.1-2.6,0.3-4.6,0.9l1.1,4.2l2-0.5
		c0.9-0.2,1.7-0.5,2.4-0.8c0,0.3,0.1,0.6,0.1,0.9c0.1,0.3,0.2,0.6,0.3,0.8c-0.8,0.1-1.6,0.2-2.5,0.4l-2.1,0.5l1.3,5
		c2-0.5,3.3-1,4.5-1.4c0,0.3,0.1,0.6,0.1,0.9c0.1,0.3,0.2,0.6,0.3,0.8l-7.5,1.9l-3.5-13.4L180.9,8.5 M197,18l-0.3,1.8
		c-1.1,0.8-2.6,1.2-3.9,1.3c-4.3,0.5-7.9-1.8-8.4-6c-0.6-5.3,2.8-8.1,7.2-8.6c1.3-0.1,3,0,4.2,0.5c-0.1,0.7-0.1,1.4-0.2,2.1l-0.3,0
		c-0.9-1-2.3-1.6-3.6-1.5c-3.4,0.4-4.4,3.8-4,6.7c0.4,3.5,2.3,5.7,5.5,5.3c1.3-0.1,2.6-0.9,3.5-1.9L197,18 M200.2,6.4
		c0.5,0.1,1,0.2,1.5,0.2c0.5,0,1,0,1.5,0l-0.4,5.8c-0.1,1.1-0.2,2.8-0.1,3.8c0.1,1,0.3,1.6,0.9,2.4c0.6,0.6,1.4,1,2.3,1
		c1.9,0.1,3-0.5,3.8-2.2c0.4-0.9,0.6-3.2,0.6-4.2l0.4-6.2c0.3,0.1,0.5,0.1,0.8,0.1c0.3,0,0.6,0,0.8,0l-0.5,7.2
		c-0.2,2.3-0.3,4.4-2.5,5.7c-1.1,0.7-2.6,0.9-3.9,0.8c-2.5-0.2-5.1-1.1-5.7-3.8c-0.2-0.8-0.2-1.7-0.2-2.5L200.2,6.4 M217.3,8l4.2,1
		c0.9,0.2,2.4,0.5,3.1,1.2c1,0.9,1.4,1.9,1.1,3.2c-0.5,1.9-2,2.9-3.9,2.8c0.6,2.1,1.4,4.3,2.2,6.4l0.5,1.4c-0.6-0.2-1.2-0.4-1.8-0.5
		c-0.6-0.1-1.2-0.2-1.8-0.3l-1.4-4.7c-0.2-0.6-0.5-1.6-0.8-2.5l-0.1,0l-1.5,6.4c-0.5-0.2-1-0.3-1.4-0.4c-0.5-0.1-1-0.2-1.5-0.3
		L217.3,8L217.3,8z M218.8,15.1c2,0.7,3.3-0.1,3.8-2.1c0.1-0.3,0.1-0.6,0.1-1c0.1-1.7-1.4-1.9-2.6-2.2L218.8,15.1 M230.7,11.6
		c0.5,0.2,0.9,0.4,1.4,0.6c0.5,0.2,1,0.3,1.5,0.4l-4.8,13.1c-0.5-0.2-0.9-0.4-1.4-0.6c-0.5-0.2-1-0.3-1.5-0.4L230.7,11.6
		 M236.7,29.3c-0.4-0.3-0.9-0.5-1.3-0.8c-0.4-0.2-0.9-0.4-1.4-0.6l5.5-11.2c-1.3-0.6-2.5-1.1-3.5-1.4c0.2-0.3,0.3-0.5,0.5-0.8
		c0.1-0.3,0.2-0.5,0.3-0.8l9.4,4.6c-0.2,0.2-0.3,0.5-0.5,0.7c-0.1,0.3-0.2,0.6-0.3,0.8c-1-0.6-2-1.3-3.1-1.9L236.7,29.3 M247.1,28.6
		c0.2-3,0.6-6,0.9-9.1c0.5,0.4,0.9,0.8,1.4,1.1c0.5,0.3,1,0.6,1.6,0.9c-0.2,1.2-0.4,2.6-0.6,4c-0.2,1.3-0.3,2.3-0.3,2.7
		c1.2-0.4,4.3-2.3,5.9-3.3c0.3,0.2,0.5,0.4,0.8,0.6s0.6,0.4,0.8,0.5c-2.7,1.3-5.3,2.5-7.9,3.9l-3.5,5.2c-0.4-0.3-0.8-0.7-1.2-0.9
		c-0.4-0.3-0.9-0.5-1.3-0.8L247.1,28.6 M259.4,40.6c-1.5,0.7-2.8,1.2-4,1.8c-0.2-0.3-0.4-0.5-0.6-0.8s-0.5-0.4-0.7-0.7l14.3-5.3
		c0.1,0.2,0.3,0.4,0.5,0.6c0.2,0.2,0.4,0.4,0.6,0.5l-6.5,13.8c-0.4-0.5-0.7-0.9-1.1-1.3c-0.4-0.4-0.8-0.8-1.3-1.2
		c0.8-1.4,1.5-2.6,2.1-4L259.4,40.6L259.4,40.6z M263.2,42.9l2.2-4.5l-4.8,1.8L263.2,42.9 M271.1,61.9c-1.4-1.3-2.8-2.6-3.7-4.1
		c-2.3-3.6-2.6-8,1.4-10.6c4.3-2.8,8.4-1.1,11,2.9c0.9,1.5,1.5,3,1.6,4.8c-0.7,0.1-1.4,0.3-2,0.6l-0.2-0.3c0.6-1.5,0.4-3.1-0.4-4.5
		c-1.8-2.8-5.3-2.6-8.2-0.7c-3,1.9-3.8,4.6-2.1,7.2c0.6,0.9,1.2,1.3,1.7,1.6l4-2.6c0.3,0.4,0.5,0.9,0.8,1.3c0.3,0.4,0.6,0.8,0.9,1.2
		L271.1,61.9 M287.4,65.9c-0.3,0.1-0.6,0.1-0.8,0.3c-0.3,0.1-0.5,0.3-0.8,0.4c-0.4-1.2-0.8-2.5-1.7-4.4l-4,1.8l0.9,1.9
		c0.4,0.8,0.8,1.6,1.2,2.2c-0.3,0.1-0.6,0.1-0.8,0.3c-0.3,0.1-0.5,0.3-0.8,0.4c-0.2-0.7-0.5-1.5-0.9-2.4l-0.9-1.9l-4.7,2.1
		c0.9,1.9,1.5,3.1,2.2,4.2c-0.3,0.1-0.6,0.1-0.8,0.3c-0.3,0.1-0.5,0.3-0.8,0.4l-3.2-7.1l12.6-5.7L287.4,65.9 M289,69.7l0.5,1.9
		c-2.3,3.6-4.5,7.4-6.9,11l9.2-2.5c0,0.3,0.1,0.6,0.2,0.8c0.1,0.3,0.2,0.5,0.3,0.8l-13.5,3.6l-0.4-1.7c1.9-3,3.8-5.7,5.5-8.6
		l1.7-2.7l-9.5,2.6c-0.1-0.3-0.1-0.6-0.1-0.8c-0.1-0.3-0.2-0.5-0.3-0.8L289,69.7 M282.4,98.7l-1.8-0.3c-0.7-1.2-1.1-2.6-1.2-3.9
		c-0.4-4.3,2-7.9,6.2-8.2c5.3-0.5,8,3,8.4,7.4c0.1,1.3-0.1,3-0.6,4.2c-0.7-0.1-1.4-0.2-2.1-0.3l0-0.3c1-0.8,1.7-2.2,1.6-3.5
		c-0.3-3.4-3.6-4.4-6.6-4.2c-3.5,0.3-5.7,2.2-5.5,5.3c0.1,1.3,0.9,2.6,1.8,3.5L282.4,98.7 M285.7,104.3c2.7-1.4,5.5-2.5,8.4-3.8
		c-0.1,0.6-0.2,1.2-0.2,1.8c-0.1,0.6,0,1.2,0,1.8c-1.1,0.5-2.5,1-3.7,1.5c-1.2,0.5-2.2,0.9-2.5,1.1c0.9,0.8,4.2,2.6,5.8,3.4
		c-0.1,0.3-0.1,0.6-0.1,1c0,0.3,0,0.6,0,1c-2.5-1.6-4.8-3.3-7.4-4.8l-6.3-0.4c0.1-0.5,0.2-1,0.2-1.5c0-0.5,0-1,0-1.5L285.7,104.3"/>
</g>
<g>
	
		<g id="text3369" transform="matrix(-0.99998865,0.00476494,-0.00476494,-0.99998865,251.11125,248.99088)" inkscape:transform-center-y="239.98144" inkscape:transform-center-x="-0.79849202">
		<g id="path5266">
			<path d="M123.6,105.7c1.6-3,3.3-5.9,5-8.7c-0.1-0.1-0.2-0.2-0.3-0.3c-0.1-0.1-0.1-0.2-0.2-0.3c-3.4,0.6-6.8,1.1-10.2,1.6l0,0
				c2.4-2,5-4.2,7.2-5.9c-0.4-0.4-0.7-0.9-1-1.3c-0.3-0.4-0.6-0.9-0.8-1.4c-2.1,2-6.9,6.2-10.4,9.2c0.2,0.2,0.4,0.4,0.6,0.6
				s0.3,0.5,0.4,0.8c3.5-0.6,7.2-1.2,10.6-1.6c-1.5,2.8-3.5,6.2-5.3,9.2c0.2,0.2,0.4,0.4,0.5,0.6c0.2,0.2,0.3,0.5,0.4,0.7
				c4.1-2.1,8.3-4.2,12.6-6.1c-0.2-0.2-0.4-0.4-0.6-0.7c-0.2-0.3-0.3-0.5-0.4-0.8C129,102.9,126.4,104.4,123.6,105.7L123.6,105.7"/>
		</g>
		<g id="path5268">
			<path d="M117.3,92.9c3.5-3.5,2.6-7.5-0.3-10.5c-3.2-3.1-7.7-3.1-10.5-0.3c-3.4,3.4-2.7,7.4,0.3,10.4
				C110.1,95.8,114.5,95.7,117.3,92.9 M108.5,84.7c3.1-3.1,6-3,7.7-1.3c1.6,1.6,1.9,4-1.1,7c-2.4,2.5-5.5,3.3-7.5,1.3
				C105.8,89.9,106.1,87.2,108.5,84.7"/>
		</g>
		<g id="path5270">
			<path d="M103.3,83.4c2.3-3.3,5.6-7.4,6-7.8c-0.3-0.1-0.6-0.3-0.8-0.4c-0.3-0.2-0.5-0.4-0.7-0.6c-0.4,0.6-1,1.6-2.8,4.2
				c-0.9,1.2-1.8,2.6-2.7,3.8c-0.7-4.4-1.2-8.8-1.6-13c-0.2-0.1-0.5-0.2-0.7-0.4c-0.2-0.2-0.4-0.3-0.6-0.6
				c-3.1,4.4-4.6,6.5-8.2,11.1c0.3,0.1,0.6,0.3,0.8,0.4c0.3,0.2,0.5,0.4,0.7,0.6c0.4-0.8,3.5-5.3,5.4-7.9c0.6,4.3,1.1,8.6,1.6,12.8
				c0.3,0.1,0.6,0.3,0.8,0.4c0.3,0.2,0.5,0.4,0.7,0.6C101.7,85.9,102.3,84.9,103.3,83.4"/>
		</g>
		<g id="path5272">
			<path d="M93.2,71.6c1.1-2,1.8-3.3,2.8-4.8c-0.4-0.2-0.9-0.4-1.5-0.7c-0.6-0.3-1-0.6-1.4-0.9c-0.7,1.6-1.4,3-2.5,5l-1.3,2.4
				c-1.1,2-1.8,3.3-2.8,4.8c0.4,0.2,0.9,0.4,1.5,0.7c0.6,0.3,1,0.6,1.4,0.9c0.7-1.6,1.4-3,2.5-5L93.2,71.6"/>
		</g>
		<g id="path5274">
			<path d="M85.3,67.8c0.9-2.1,1.5-3.5,2.3-5.1c-0.4-0.1-0.9-0.3-1.6-0.5c-0.6-0.3-1.1-0.5-1.5-0.7c-0.6,1.7-1.1,3.1-2,5.2l-1.9,4.6
				c-0.3,0.7-0.6,1.4-0.7,1.6c-0.8-0.3-2.3-1.1-3.2-1.6c-0.1,0.3-0.1,0.6-0.3,0.9c-0.1,0.3-0.3,0.5-0.4,0.8c1.6,0.6,2.5,0.9,4.7,1.9
				c2.3,0.9,3.1,1.3,4.8,2.1c0.1-0.3,0.1-0.6,0.3-0.9c0.1-0.3,0.3-0.5,0.4-0.8c-1.2-0.3-2.8-0.9-3.5-1.2c0.1-0.3,0.3-0.9,0.6-1.6
				L85.3,67.8"/>
		</g>
		<g id="path5276">
			<path d="M78.9,66.4c1.2-4.9-1.6-7.8-5.7-8.8c-4.3-1.1-8.2,1.3-9.2,5.1c-1.2,4.7,1.5,7.8,5.6,8.8C74.2,72.6,77.9,70.2,78.9,66.4
				 M67.2,63.9c1.1-4.2,3.6-5.7,5.9-5.1c2.2,0.6,3.7,2.5,2.7,6.6c-0.8,3.3-3.1,5.6-5.7,5C67.5,69.7,66.3,67.2,67.2,63.9"/>
		</g>
		<g id="path5278">
			<path d="M56.3,55.1c-0.6,0-1.2,0-1.8-0.1c-0.6-0.1-1.2-0.2-1.8-0.3c1.3,2.4,2.6,4.8,3.6,7.2c-2,0.3-3.3,1.4-3.4,3.4
				c-0.1,1.2,0.3,2.1,1.1,2.8c0.6,0.6,1.4,0.8,3.4,1c1.4,0.1,2.2,0.1,3,0.2c0.7,0.1,1.2,0.2,1.6,0.3c0-1.8,0.1-3.3,0.3-5.5l0.3-2.7
				c0.2-2.2,0.4-3.8,0.7-5.5c-0.4,0-1,0-1.6-0.1s-1.2-0.2-1.6-0.3c0,1.8-0.1,3.3-0.3,5.5l-0.1,0.8l-0.2,0L56.3,55.1 M55.9,65.2
				c0.2-1.9,1.2-2.8,3-2.6c0.1,0,0.3,0.1,0.4,0.1c-0.2,1.8-0.3,3.6-0.6,5.4C56.6,67.9,55.7,67.5,55.9,65.2"/>
		</g>
		<g id="path5280">
			<path d="M50.8,60.4c-0.1-2.3-0.1-3.8,0-5.6c-0.4,0.1-1,0.1-4.2,0.2c-1.8,0.1-2.8,0-3.5,0c0.1,0.3,0.1,0.4,0.1,0.9
				c0,0.4,0,0.6-0.1,0.9c1.5-0.2,3.1-0.4,4.6-0.4c0.1,0.8,0.1,1.7,0.1,2.5c0,0.9,0,1.7,0.1,2.6c-1.5,0.1-3,0-4.6-0.1
				c0.1,0.4,0.1,0.6,0.1,0.8c0,0.3,0,0.4-0.1,0.9c1.5-0.1,2.8-0.2,4.5-0.3c0.1,1.5,0.1,2.9,0,4.4c-0.6,0-3-0.1-4.5-0.1
				c0.1,0.3,0.1,0.5,0.1,0.9c0,0.4,0,0.6-0.1,0.8c0.5-0.1,2.2-0.2,4.2-0.2c1.2,0,2.4,0,3.6,0c-0.2-1.8-0.3-3.3-0.3-5.5L50.8,60.4"/>
		</g>
		<g id="path5282">
			<path d="M41,60.7c-0.4-2.2-0.6-3.7-0.8-5.5c-0.4,0.1-0.9,0.3-1.6,0.4c-1,0.2-2.4,0.3-4.4,0.6c-3.7,0.6-6.4,4-5.6,8.4
				c0.8,5,4.2,5.9,8.7,5.2c1.7-0.3,2.7-0.6,3.6-0.7c0.6-0.1,1.2-0.1,1.6-0.2c-0.4-1.7-0.7-3.2-1.1-5.5L41,60.7 M38.6,64.3
				c0.2,1.1,0.6,3.5,0.6,3.9c-0.6,0.2-1.1,0.3-2,0.4c-2.7,0.4-4.9-1.3-5.4-4.5c-0.7-4.1,0.8-6.4,3.8-6.9c0.8-0.1,1.4-0.2,1.8-0.2
				c0.1,0.4,0.5,2.8,0.7,3.8L38.6,64.3"/>
		</g>
		<g id="path5284">
			<path d="M21,65.1c-0.9-2.1-1.4-3.5-2-5.2c-0.4,0.2-0.9,0.5-1.5,0.7c-1,0.4-2.3,0.8-4.1,1.6c-3.5,1.4-5.3,5.4-3.6,9.4
				c1.9,4.7,5.4,4.8,9.6,3c1.6-0.7,2.5-1.2,3.3-1.5c0.6-0.3,1.1-0.4,1.6-0.6c-0.8-1.6-1.4-3-2.3-5.1L21,65.1 M19.5,69.1
				c0.4,1,1.4,3.3,1.5,3.6c-0.6,0.3-1,0.5-1.9,0.9c-2.6,1.1-5-0.1-6.3-3.1c-1.6-3.8-0.6-6.5,2.1-7.6c0.8-0.3,1.3-0.5,1.6-0.6
				c0.2,0.3,1.1,2.6,1.5,3.6L19.5,69.1"/>
		</g>
		<g id="path5286">
			<path d="M7.5,71.2c-1.1-1.9-1.9-3.3-2.7-4.8C4.4,66.6,4,67,1.2,68.6c-1.6,0.9-2.4,1.4-3.1,1.7c0.2,0.2,0.3,0.3,0.5,0.7
				c0.2,0.4,0.3,0.6,0.4,0.8c1.2-0.9,2.5-1.8,3.8-2.6c0.4,0.7,0.9,1.4,1.3,2.1c0.4,0.8,0.9,1.5,1.3,2.2c-1.3,0.8-2.6,1.5-4,2.2
				c0.3,0.3,0.4,0.5,0.5,0.7c0.1,0.2,0.2,0.4,0.4,0.8c1.3-0.8,2.3-1.5,3.8-2.5c0.8,1.3,1.5,2.5,2.1,3.8c-0.5,0.3-2.6,1.4-4,2.1
				c0.2,0.3,0.3,0.4,0.5,0.7C5,81.8,5.1,82,5.1,82.2C5.6,81.9,7,81,8.7,80c1-0.6,2.1-1.1,3.1-1.7c-1-1.4-1.8-2.8-3-4.7L7.5,71.2"/>
		</g>
		<g id="path5288">
			<path d="M-6.6,78.5c3,1.9,6.5,3.9,9,5.7c0.4-0.4,0.9-0.8,1.3-1.2c0.4-0.4,0.9-0.7,1.5-1c-2.9-1.6-9.7-5.6-12.8-7.5
				c-0.2,0.2-0.4,0.4-0.6,0.6c-0.3,0.2-0.5,0.3-0.8,0.5c1.6,4.6,3.3,11,4.2,14.3c0.2-0.2,0.4-0.4,0.6-0.6c0.3-0.2,0.5-0.3,0.8-0.5
				C-4.5,85.6-5.6,82-6.6,78.5"/>
		</g>
		<g id="path5290">
			<path d="M-11.1,84.7c-1.6-1.6-2.6-2.7-3.8-4.1c-0.3,0.3-0.6,0.8-1.1,1.2c-0.5,0.5-0.9,0.8-1.3,1.1c1.3,1.2,2.4,2.3,4,3.9l1.9,1.9
				c1.6,1.6,2.6,2.7,3.8,4.1c0.3-0.3,0.6-0.8,1.1-1.2c0.5-0.5,0.9-0.8,1.3-1.1c-1.3-1.2-2.4-2.3-4-3.9L-11.1,84.7"/>
		</g>
		<g id="path5292">
			<path d="M-24.7,95.3c-0.1-1.2,0.3-2.8,1.1-3.8c1.5-1.8,4.3-2.6,7.5,0c3.3,2.7,3.2,5.8,1.8,7.4c-0.9,1.1-2,1.5-3.6,1.5l-0.2,0.2
				c0.5,0.5,0.9,1,1.3,1.7c1-0.4,2.5-1.4,3.4-2.5c2.7-3.3,3.4-7.5-0.8-11c-2.9-2.4-6.9-2.1-9.9,1.4c-1.1,1.3-1.7,2.5-1.9,3.7
				c0.4,0.4,0.8,0.9,1,1.4L-24.7,95.3"/>
		</g>
		<g id="path5294">
			<path d="M-23.5,99.2c-1.9-1.2-3.2-2.1-4.6-3.1c-0.2,0.4-0.4,0.9-2.2,3.6c-1,1.6-1.6,2.3-1.9,2.9c0.2,0.1,0.4,0.2,0.8,0.4
				c0.4,0.2,0.5,0.4,0.7,0.6c0.7-1.4,1.4-2.8,2.2-4c0.7,0.4,1.4,0.8,2.1,1.3c0.7,0.5,1.4,0.9,2.2,1.4c-0.8,1.3-1.7,2.5-2.6,3.8
				c0.4,0.2,0.6,0.2,0.8,0.4c0.2,0.1,0.4,0.3,0.7,0.6c0.8-1.3,1.4-2.5,2.3-3.9c1.2,0.8,2.5,1.6,3.6,2.4c-0.3,0.5-1.7,2.5-2.6,3.7
				c0.3,0.1,0.4,0.2,0.8,0.4c0.3,0.2,0.5,0.4,0.7,0.5c0.3-0.5,1.1-1.9,2.1-3.6c0.6-1,1.3-2,2-3c-1.6-0.8-2.9-1.6-4.8-2.8L-23.5,99.2
				"/>
		</g>
	</g>
</g>
</svg>
