<?xml version="1.0" encoding="utf-8"?>
<!-- Generator: Adobe Illustrator 17.1.0, SVG Export Plug-In . SVG Version: 6.00 Build 0)  -->
<!DOCTYPE svg PUBLIC "-//W3C//DTD SVG 1.1//EN" "http://www.w3.org/Graphics/SVG/1.1/DTD/svg11.dtd">
<svg version="1.1"
	 id="Layer_1" inkscape:version="0.48.4 r9939" sodipodi:version="0.32" sodipodi:docname="Flag_of_the_U.S._National_Security_Agency.svg" inkscape:output_extension="org.inkscape.output.svg.inkscape" xmlns:inkscape="http://www.inkscape.org/namespaces/inkscape" xmlns:dc="http://purl.org/dc/elements/1.1/" xmlns:svg="http://www.w3.org/2000/svg" xmlns:rdf="http://www.w3.org/1999/02/22-rdf-syntax-ns#" xmlns:cc="http://creativecommons.org/ns#" xmlns:sodipodi="http://sodipodi.sourceforge.net/DTD/sodipodi-0.dtd"
	 xmlns="http://www.w3.org/2000/svg" xmlns:xlink="http://www.w3.org/1999/xlink" x="0px" y="0px" viewBox="-20 -78.7 758 875.1"
	 enable-background="new -20 -78.7 758 875.1" xml:space="preserve">
<polygon fill="#E0AF35" points="359,-78.7 -20,140 -20,577.7 359,796.4 738,577.7 738,140 "/>
<sodipodi:namedview  width="720px" height="720px" id="base" inkscape:current-layer="g3" inkscape:window-maximized="1" fit-margin-bottom="0" inkscape:pageshadow="2" inkscape:window-width="1920" inkscape:window-x="-8" fit-margin-right="0" inkscape:showpageshadow="false" inkscape:window-y="-8" inkscape:pageopacity="0.0" inkscape:window-height="1096" inkscape:cy="196.95099" fit-margin-top="0" inkscape:cx="-36.276932" pagecolor="#ffffff" inkscape:zoom="0.95904189" fit-margin-left="0" bordercolor="#666666" showgrid="false" borderopacity="1.0" objecttolerance="10.0" gridtolerance="10.0" guidetolerance="10.0">
	</sodipodi:namedview>
<path id="path5" inkscape:connector-curvature="0" fill="#E0AF35" d="M359,718.1c198.3,0,359-160.7,359-359
	c0-198.3-160.8-359-359-359C160.7,0,0,160.8,0,359C0,557.3,160.7,718.1,359,718.1z"/>
<path id="path7" inkscape:connector-curvature="0" fill="#FFFFFF" d="M359,707.3c192.4,0,348.5-156,348.5-348.5
	c0-192.5-156-348.5-348.5-348.5c-192.5,0-348.5,156-348.5,348.5C10.6,551.3,166.6,707.3,359,707.3z"/>
<path id="path9" inkscape:connector-curvature="0" fill="#E0AF35" d="M359,634.8c152.4,0,275.9-123.5,275.9-275.9
	C635,206.4,511.4,82.9,359,82.9c-152.4,0-275.9,123.5-275.9,275.9C83.1,511.2,206.6,634.8,359,634.8L359,634.8z"/>
<path id="path11" inkscape:connector-curvature="0" fill="#124471" d="M359,628c148.6,0,269.1-120.5,269.1-269.1
	c0-148.6-120.5-269.1-269.1-269.1c-148.6,0-269.1,120.5-269.1,269.1C89.9,507.5,210.4,628,359,628L359,628z"/>
<polyline id="polyline13" fill="#FFFFFF" stroke="#000000" stroke-width="7.380000e-002" stroke-linejoin="round" points="
	378.1,396.8 352.4,396.6 378.1,394.1 "/>
<path id="path15" inkscape:connector-curvature="0" fill="#FFFFFF" stroke="#FFFFFF" stroke-width="0.2225" stroke-linejoin="round" d="
	M340.8,540.1l11.6,6.2l12-6.2l-12-129.9L340.8,540.1L340.8,540.1z M352.4,407.4l41.3,126.2l9.2,3.6l5.3-7.2L352.4,407.4z
	 M393.9,534.1l-6,7.7l-8.8-3.7l-26.7-129.9L393.9,534.1z M379,538.4l-6.4,5l-8.3-3.2l-11.9-130.4L379,538.4L379,538.4z M352.4,407.4
	l-41.3,126.2l-9.2,3.6l-5.3-7.2L352.4,407.4z M310.9,534.1l6,7.7l8.8-3.7l26.6-129.9L310.9,534.1L310.9,534.1z M325.8,538.4l6.3,5
	l8.4-3.2l12-130.4L325.8,538.4L325.8,538.4z"/>
<polygon id="polygon17" fill="#FFFFFF" stroke="#000000" stroke-width="7.380000e-002" stroke-linejoin="round" points="
	364.4,540.1 352.4,410.3 340.8,540.1 340.8,540.1 352.4,546.4 "/>
<path id="path19" inkscape:connector-curvature="0" fill="none" stroke="#000000" stroke-width="7.380000e-002" stroke-linejoin="round" d="
	M352.4,541V410.6 M377.7,395.5l-25.3,1.1"/>
<polyline id="polyline21" fill="#FFFFFF" stroke="#000000" stroke-width="7.380000e-002" stroke-linejoin="round" points="
	377.5,399.5 352.4,397.2 377.1,396.8 "/>
<line id="line23" fill="none" stroke="#000000" stroke-width="7.380000e-002" stroke-linejoin="round" x1="376.9" y1="398.1" x2="352.4" y2="397.2"/>
<polyline id="polyline25" fill="#FFFFFF" stroke="#000000" stroke-width="7.380000e-002" stroke-linejoin="round" points="
	377.5,402.2 352.4,397.9 377.5,399.5 "/>
<line id="line27" fill="none" stroke="#000000" stroke-width="7.380000e-002" stroke-linejoin="round" x1="377.5" y1="400.8" x2="352.4" y2="397.9"/>
<polyline id="polyline29" fill="#FFFFFF" stroke="#000000" stroke-width="7.380000e-002" stroke-linejoin="round" points="
	377.1,404.9 352.4,398.7 377.5,402.1 "/>
<line id="line31" fill="none" stroke="#000000" stroke-width="7.380000e-002" stroke-linejoin="round" x1="377.8" y1="403.7" x2="352.4" y2="398.7"/>
<polyline id="polyline33" fill="#FFFFFF" stroke="#000000" stroke-width="7.380000e-002" stroke-linejoin="round" points="
	377,407.9 352.4,399.4 377.5,405 "/>
<line id="line35" fill="none" stroke="#000000" stroke-width="7.380000e-002" stroke-linejoin="round" x1="378.3" y1="407" x2="352.4" y2="399.4"/>
<polyline id="polyline37" fill="#FFFFFF" stroke="#000000" stroke-width="7.380000e-002" stroke-linejoin="round" points="
	377.9,411.7 352.4,400.2 378.1,408.6 "/>
<line id="line39" fill="none" stroke="#000000" stroke-width="7.380000e-002" stroke-linejoin="round" x1="378.1" y1="409.9" x2="352.4" y2="400.2"/>
<polyline id="polyline41" fill="#FFFFFF" stroke="#000000" stroke-width="7.380000e-002" stroke-linejoin="round" points="
	379.2,416.6 352.4,400.9 377.9,411.7 "/>
<line id="line43" fill="none" stroke="#000000" stroke-width="7.380000e-002" stroke-linejoin="round" x1="379.4" y1="414.6" x2="352.4" y2="400.9"/>
<polyline id="polyline45" fill="#FFFFFF" stroke="#000000" stroke-width="7.380000e-002" stroke-linejoin="round" points="
	380.3,422.6 352.4,401.7 379,416.5 "/>
<line id="line47" fill="none" stroke="#000000" stroke-width="7.380000e-002" stroke-linejoin="round" x1="380.4" y1="420" x2="352.4" y2="401.7"/>
<polyline id="polyline49" fill="#FFFFFF" stroke="#000000" stroke-width="7.380000e-002" stroke-linejoin="round" points="
	381,429.4 352.4,402.6 380.7,422.7 "/>
<line id="line51" fill="none" stroke="#000000" stroke-width="7.380000e-002" stroke-linejoin="round" x1="380.2" y1="425.4" x2="352.4" y2="402.6"/>
<polyline id="polyline53" fill="#FFFFFF" stroke="#000000" stroke-width="7.380000e-002" stroke-linejoin="round" points="
	381.8,438.5 352.4,403.6 380.9,429.1 "/>
<line id="line55" fill="none" stroke="#000000" stroke-width="7.380000e-002" stroke-linejoin="round" x1="381.4" y1="433.8" x2="352.4" y2="403.6"/>
<polyline id="polyline57" fill="#FFFFFF" stroke="#000000" stroke-width="7.380000e-002" stroke-linejoin="round" points="
	382.6,451.4 352.4,404.7 382,438.6 "/>
<line id="line59" fill="none" stroke="#000000" stroke-width="7.380000e-002" stroke-linejoin="round" x1="380.6" y1="441.7" x2="352.4" y2="404.7"/>
<polyline id="polyline61" fill="#FFFFFF" stroke="#000000" stroke-width="7.380000e-002" stroke-linejoin="round" points="
	387,483.4 352.4,406.2 382.8,451.4 "/>
<line id="line63" fill="none" stroke="#000000" stroke-width="7.380000e-002" stroke-linejoin="round" x1="383.8" y1="462.9" x2="352.4" y2="406.2"/>
<polygon id="polygon65" fill="#FFFFFF" stroke="#000000" stroke-width="7.380000e-002" stroke-linejoin="round" points="
	402.9,537.2 408.2,530 352.4,407.4 352.4,407.4 393.7,533.5 "/>
<line id="line67" fill="none" stroke="#000000" stroke-width="7.380000e-002" stroke-linejoin="round" x1="352.4" y1="407.4" x2="401.6" y2="533.3"/>
<polygon id="polygon69" fill="#FFFFFF" stroke="#000000" stroke-width="7.380000e-002" stroke-linejoin="round" points="
	379.1,538.1 352.4,408.2 393.9,534.1 393.9,534.1 387.9,541.8 "/>
<line id="line71" fill="none" stroke="#000000" stroke-width="7.380000e-002" stroke-linejoin="round" x1="386.7" y1="538.2" x2="352.4" y2="408.2"/>
<polygon id="polygon73" fill="#FFFFFF" stroke="#000000" stroke-width="7.380000e-002" stroke-linejoin="round" points="
	364.3,540.2 352.4,409.9 379,538.4 379,538.4 372.7,543.4 "/>
<line id="line75" fill="none" stroke="#000000" stroke-width="7.380000e-002" stroke-linejoin="round" x1="371.9" y1="540.8" x2="352.4" y2="409.9"/>
<polyline id="polyline77" fill="#FFFFFF" stroke="#000000" stroke-width="7.380000e-002" stroke-linejoin="round" points="
	326.7,396.8 352.4,396.6 326.7,394.1 "/>
<line id="line79" fill="none" stroke="#000000" stroke-width="7.380000e-002" stroke-linejoin="round" x1="327.1" y1="395.5" x2="352.4" y2="396.6"/>
<polyline id="polyline81" fill="#FFFFFF" stroke="#000000" stroke-width="7.380000e-002" stroke-linejoin="round" points="
	327.3,399.5 352.4,397.2 327.7,396.8 "/>
<line id="line83" fill="none" stroke="#000000" stroke-width="7.380000e-002" stroke-linejoin="round" x1="327.9" y1="398.1" x2="352.4" y2="397.2"/>
<polyline id="polyline85" fill="#FFFFFF" stroke="#000000" stroke-width="7.380000e-002" stroke-linejoin="round" points="
	327.3,402.2 352.4,397.9 327.3,399.5 "/>
<line id="line87" fill="none" stroke="#000000" stroke-width="7.380000e-002" stroke-linejoin="round" x1="327.3" y1="400.8" x2="352.4" y2="397.9"/>
<polyline id="polyline89" fill="#FFFFFF" stroke="#000000" stroke-width="7.380000e-002" stroke-linejoin="round" points="
	327.7,404.9 352.4,398.7 327.3,402.1 "/>
<line id="line91" fill="none" stroke="#000000" stroke-width="7.380000e-002" stroke-linejoin="round" x1="327" y1="403.7" x2="352.4" y2="398.7"/>
<polyline id="polyline93" fill="#FFFFFF" stroke="#000000" stroke-width="7.380000e-002" stroke-linejoin="round" points="
	327.8,407.9 352.4,399.4 327.3,405 "/>
<line id="line95" fill="none" stroke="#000000" stroke-width="7.380000e-002" stroke-linejoin="round" x1="326.5" y1="407" x2="352.4" y2="399.4"/>
<polyline id="polyline97" fill="#FFFFFF" stroke="#000000" stroke-width="7.380000e-002" stroke-linejoin="round" points="
	326.9,411.7 352.4,400.2 326.7,408.6 "/>
<line id="line99" fill="none" stroke="#000000" stroke-width="7.380000e-002" stroke-linejoin="round" x1="326.7" y1="409.9" x2="352.4" y2="400.2"/>
<polyline id="polyline101" fill="#FFFFFF" stroke="#000000" stroke-width="7.380000e-002" stroke-linejoin="round" points="
	325.6,416.6 352.4,400.9 326.9,411.7 "/>
<line id="line103" fill="none" stroke="#000000" stroke-width="7.380000e-002" stroke-linejoin="round" x1="325.4" y1="414.6" x2="352.4" y2="400.9"/>
<polyline id="polyline105" fill="#FFFFFF" stroke="#000000" stroke-width="7.380000e-002" stroke-linejoin="round" points="
	324.5,422.6 352.4,401.7 325.8,416.5 "/>
<line id="line107" fill="none" stroke="#000000" stroke-width="7.380000e-002" stroke-linejoin="round" x1="324.4" y1="420" x2="352.4" y2="401.7"/>
<polyline id="polyline109" fill="#FFFFFF" stroke="#000000" stroke-width="7.380000e-002" stroke-linejoin="round" points="
	323.8,429.4 352.4,402.6 324.1,422.7 "/>
<line id="line111" fill="none" stroke="#000000" stroke-width="7.380000e-002" stroke-linejoin="round" x1="324.6" y1="425.4" x2="352.4" y2="402.6"/>
<polyline id="polyline113" fill="#FFFFFF" stroke="#000000" stroke-width="7.380000e-002" stroke-linejoin="round" points="
	323,438.5 352.4,403.6 323.9,429.1 "/>
<line id="line115" fill="none" stroke="#000000" stroke-width="7.380000e-002" stroke-linejoin="round" x1="323.4" y1="433.8" x2="352.4" y2="403.6"/>
<polyline id="polyline117" fill="#FFFFFF" stroke="#000000" stroke-width="7.380000e-002" stroke-linejoin="round" points="
	322.2,451.4 352.4,404.7 322.8,438.6 "/>
<line id="line119" fill="none" stroke="#000000" stroke-width="7.380000e-002" stroke-linejoin="round" x1="324.2" y1="441.7" x2="352.4" y2="404.7"/>
<polyline id="polyline121" fill="#FFFFFF" stroke="#000000" stroke-width="7.380000e-002" stroke-linejoin="round" points="
	317.8,483.4 352.4,406.2 322,451.4 "/>
<line id="line123" fill="none" stroke="#000000" stroke-width="7.380000e-002" stroke-linejoin="round" x1="321" y1="462.9" x2="352.4" y2="406.2"/>
<polygon id="polygon125" fill="#FFFFFF" stroke="#000000" stroke-width="7.380000e-002" stroke-linejoin="round" points="
	301.9,537.2 296.6,530 352.4,407.4 352.4,407.4 311.1,533.5 "/>
<line id="line127" fill="none" stroke="#000000" stroke-width="7.380000e-002" stroke-linejoin="round" x1="352.4" y1="407.4" x2="303.2" y2="533.3"/>
<polygon id="polygon129" fill="#FFFFFF" stroke="#000000" stroke-width="7.380000e-002" stroke-linejoin="round" points="
	325.8,538.1 352.4,408.2 310.9,534.1 310.9,534.1 316.9,541.8 "/>
<line id="line131" fill="none" stroke="#000000" stroke-width="7.380000e-002" stroke-linejoin="round" x1="318.1" y1="538.2" x2="352.4" y2="408.2"/>
<polygon id="polygon133" fill="#FFFFFF" stroke="#000000" stroke-width="7.380000e-002" stroke-linejoin="round" points="
	340.5,540.2 352.4,409.9 325.8,538.4 325.8,538.4 332.1,543.4 "/>
<line id="line135" fill="none" stroke="#000000" stroke-width="7.380000e-002" stroke-linejoin="round" x1="332.9" y1="540.8" x2="352.4" y2="409.9"/>
<path id="path137" inkscape:connector-curvature="0" fill="#B2B2B2" stroke="#000000" stroke-width="7.380000e-002" d="M555.5,516.5
	c0,0-6.2-0.8-9.9-4.6c-2.6-2.7-6.7-12-6.7-12c-5.6-12.5-13.4-24.3-26.9-24.3c-13.4,0-28.8,15.5-34.4,28.1c0,0-1,1.9-2.1,2.7
	c-1.1,0.8-3.3,0.6-3.3,0.6H195.8c-5.4,0-9.8,4.2-10.1,9.5v0c0.3,5.3,4.7,9.6,10.1,9.6h276.5c0,0,2.2-0.2,3.3,0.6
	c1.1,0.8,2.1,2.7,2.1,2.7c5.6,12.6,21,28.1,34.4,28.1c13.5,0,21.3-11.8,26.9-24.4c0,0,4-9.3,6.7-12
	C549.3,517.3,555.5,516.5,555.5,516.5L555.5,516.5z"/>
<path id="path139" inkscape:connector-curvature="0" fill="none" stroke="#000000" stroke-width="7.380000e-002" stroke-linecap="round" d="
	M190.9,509.5c1.8-1.7,4.2-1.6,5.4-1.6h277.9c0,0,2.6-0.3,3.2-0.8c1.2-1,1.6-1.9,1.6-1.9c4.9-11.1,20.9-27.7,33.2-27.7
	c12.3,0,19.9,11.2,24.8,22.3c0,0,1.5,3.8,3.3,7.5 M477.6,523.1l2.6,3.6c4.9,11.1,19.6,28.6,31.9,28.6c12.3,0,19.9-11.2,24.8-22.3
	c0,0,3.1-7.9,5.8-12c2.5-3.9,6-4.6,6-4.6c-0.3,0,2.2,0,2.2,0c-3.5,1.2-6.2,2.9-6.2,2.9"/>
<path id="path141" inkscape:connector-curvature="0" d="M545.7,516.5c0,0-2.7,1-3.7,3.5c-3.3,7.9-8.9,9.3-12,13.1
	c-3.1,3.7-5,7.5-8.1,10.4c-3.4,3.2-9.8,2.5-9.8,2.5s5.8-2.7,7.7-3.7c1.9-1,4.8-4.6,5-6.9c0.2-2.3,0-6.2,0-6.2s10.2-0.8,12-3.3
	c1.9-2.5,3.7-9.3,3.7-9.3L545.7,516.5 M483.3,516.5h-3.9c0,0,5.2-8.1,7.9-11.2c2.7-3.1,6.2-8.1,7.7-10.2c1.4-2.1,3.5-6.2,3.5-6.2
	l2.9,3.3l-3.1,11.8l-9.9,3.1L483.3,516.5"/>
<path id="path143" inkscape:connector-curvature="0" fill="#B2B2B2" stroke="#000000" stroke-width="7.380000e-002" d="M497.3,503
	c-0.2-0.7-0.1-0.3-0.1-1c-0.4-7.5,5.4-14,13-14.4c7.5-0.4,13.9,5.4,14.3,13c0,0.8,0.1,1.6,0,2.3c0.7-0.2,1.5-0.2,2.2-0.3
	c7.5-0.4,13.9,5.4,14.3,12.9c0.4,7.5-5.4,13.9-12.9,14.3c-0.8,0-2,0-2.7-0.1c0.1,0.7,0.4,1.7,0.4,2.5c0,7.5-6.1,13.6-13.7,13.6
	c-7.5,0-13.7-6.1-13.7-13.6c0-0.7,0.1-1.5,0.2-2.2c-0.8,0.1-1.5,0.1-2.3,0.1c-7.5,0-13.7-6.1-13.7-13.6c0-7.5,6.1-13.7,13.7-13.7
	C497.1,502.8,496.5,502.9,497.3,503L497.3,503z"/>
<path id="path145" inkscape:connector-curvature="0" fill="#124471" stroke="#000000" stroke-width="7.380000e-002" d="M521.8,526.2
	c1.8,1,3.9,1.6,6.1,1.4c6.3-0.3,11.2-5.7,10.8-12c-0.3-6.3-5.7-11.2-12-10.8c-2.2,0.1-4.3,0.9-6,2.1c1-1.8,1.5-3.9,1.4-6.2
	c-0.3-6.3-5.7-11.2-12-10.8c-6.3,0.3-11.2,5.7-10.8,12c0.1,1.4,0.4,2.7,0.9,3.9c-1.2-0.5-2.6-0.7-4-0.7c-6.3,0-11.4,5.1-11.4,11.4
	c0,6.3,5.1,11.4,11.4,11.4c2.3,0,4.3-0.6,6.1-1.7c-1.1,1.7-1.7,3.9-1.7,6.1c0,6.3,5.1,11.4,11.4,11.4c6.3,0,11.4-5.1,11.4-11.4
	C523.6,530,522.9,528,521.8,526.2L521.8,526.2z"/>
<path id="path147" inkscape:connector-curvature="0" fill="none" stroke="#000000" stroke-width="7.380000e-002" stroke-linecap="round" d="
	M190.9,523.4c1.8,1.7,4.2,1.6,5.4,1.6h277.9c0,0,2.6,0.3,3.2,0.8c1.2,1,1.6,1.9,1.6,1.9"/>
<path id="path149" inkscape:connector-curvature="0" d="M481.3,529.1c0,0-2.3-4.9-4.6-5.8c-2.3-0.9-6.8-0.6-6.8-0.6H193.5
	c-1.8,0-5.6-2.3-5.6-5.3c0,0,2.3,3.4,5.6,3.6h276.4c0,0,5.7-0.4,7.4,0.8C478.9,523.1,481.3,529.1,481.3,529.1"/>
<path id="path151" inkscape:connector-curvature="0" fill="#B2B2B2" stroke="#000000" stroke-width="7.380000e-002" d="M464.2,532.1
	c2.1,0,3.7-1.7,3.7-3.8v-28.5c0-2.1-1.7-3.7-3.7-3.7c-2.1,0-3.7,1.7-3.7,3.7v28.5C460.5,530.4,462.2,532.1,464.2,532.1z"/>
<path id="path153" inkscape:connector-curvature="0" fill="none" stroke="#000000" stroke-width="7.380000e-002" d="M460.5,527.2
	c0,2.1,1.7,3.7,3.7,3.7c2.1,0,3.7-1.7,3.7-3.7 M460.5,501.6c0-2.1,1.7-3.8,3.7-3.8c2.1,0,3.7,1.7,3.7,3.8"/>
<path id="path155" inkscape:connector-curvature="0" stroke="#000000" stroke-width="7.380000e-002" d="M467.9,524.4
	c0,2.1-1.7,3.7-3.7,3.7c-2.1,0-3.7-1.7-3.7-3.7v0.7c0,2.1,1.7,3.7,3.7,3.7c2.1,0,3.7-1.7,3.7-3.7V524.4z"/>
<path id="path157" inkscape:connector-curvature="0" fill="#94693C" d="M224.1,506.2c0.3-0.7,0.6-1.4,0.9-2.1"/>
<path id="path159" inkscape:connector-curvature="0" fill="#94693C" stroke="#000000" stroke-width="7.380000e-002" d="M186.8,494.6
	c6.3,2,13-2.5,18.3-6.3l0.8,1.2c-2.3,9.1-1.7,19.6-5.1,28.2l4.3,0.5l0.5-1.7c3.1-1.8,6.8-4.2,10-7c0,0,10.2-4.3,9.4-4.4l3.6-8
	c9.5-7,14.4-16.9,19.4-26.4c9.8-24.7,15.4-51.8,16.8-79.7c0,0,2.7-1.1,3.2-0.3c0.7,0.3,7.2-0.6,8.4-2.9l5.2,1.2l6.8-0.3
	c4.7-1.2,6.6-4.2,7.5-7.9l4-0.4l8.9-7.7c-2.3-2.9-3.6-4.7-6.1-8.3c0,0-13.7-17.6-17.8-51.2c-2.2-18.6,2.3-51,2.3-51h6
	c-7.1-3.3-15.6-7.4-20.4-14.5c-3.5-18.4,11.6-34.7,4-52.6c-13.5-21.9-43-23.4-64.5-15.4c-36.4,21.4-38,64.2-44.5,101.6l-6,84.8
	c-1.5,20.7,1.2,41.7-0.8,62.1c5-1.6,10-4.6,13.4-9.1c3,13.9,1.3,29.7,0,43.8c7-0.1,12.8-5.3,16.4-10.8l0.8,0.8
	c-0.5,13.9-2.3,27.2-5.6,39.8L186.8,494.6L186.8,494.6z M552.4,413.4c-15.3-47.6-8-101.6-17.6-151.4l0.8-3.6
	c-3-18.4-11.9-34.5-17.9-51.8c-7-14.4-13.8-31.2-29.9-39.8c-10.6-9.1-27.1-4.7-39.3-2.3c-12.1,5.1-29.5,14.1-29.2,30.2
	c-0.5,13.1,6.6,23.1,8,35.5c-0.3,15.1-18.3,26-28.6,31.9h18.8c0,0,3.9,16.1,3.2,37c-0.6,19.7-3.7,41.8-17.4,63.6
	c-0.4,0.7-6.2,9.4-15.9,20.1l19.7,6.9l1.6-5.3c0.5,0.8,1.2,0.8,2,1.3c1.9,1,4.8,0.5,7,0.7l4.2-0.4c2.5-0.8,4.8-2.8,5.5-5.6l2.5,0.8
	l1.1,0.8c2.3,0.3,6.1,1.3,7.6-0.8l3.2,5.1l2,8.8c10.6,27.6,11.6,60.9,39,79.7l2.3,1.2l4.8,2l12.8,18.7c3.6,4.7,8.3,7.1,12.8,10
	c1.9,0.3,4.6,5.7,6,4.2l2-5.3l-3.7-19.1c2.8,1.2,6,1,8.6,1.8l4.2-3.5c-3.7-11.6-5.6-24.2-7.6-36.7v-2.6c9.9,6.4,13.9,1.4,13.9,1.4
	c-3.1-12.5-5.1-27.9-6-42.7l1.8-0.5c1.2,2.8,2.7,5.4,4.7,7.8c2.2,2.2,5,3.8,8,3.2L552.4,413.4L552.4,413.4z"/>
<path id="path161" inkscape:connector-curvature="0" fill="#FFFFFF" stroke="#000000" stroke-width="7.380000e-002" stroke-linecap="square" stroke-miterlimit="2" d="
	M386.3,262.2c-0.5-3.4-2.4-9.4-3.6-13.4c1.3-5.8-4.1-11.3-2-16.6c-3.7-10-4.5-19.9-4.8-30.7c-1.5-6.6-1.8-13.8-4.5-19.9
	c-3.1-7.1-12.5-9.6-18.3-10.8c-5.7-1.2-14.8-1.7-14.8-1.7c-2.6-0.2-7.2,1.4-6.8,3.4c3.2,5,2.8,9.8,2,13.9l-7.9,2
	c6.6,1.7,13.2,6.7,12.5,10.1c-1,3-6,3.5-6.6,2.9c0,0-9.1-8.1-10.3-8.5c-1.2-0.3-4.5-2.8-4-2.1c0.3,0.3,3.3,4.2,5.6,6.5
	c2.2,2.1,3.3,5.3,3.3,5.3c2.1,2.1,3.1,3.9,2.8,8.2l-2.8,8l-2,7.6c0,4-4.5,7.6-4,11.9c-1.5,3.2-3.7,6.8-2.8,10l-5.6,13.7H386.3
	L386.3,262.2L386.3,262.2z"/>
<path id="path163" inkscape:connector-curvature="0" fill="#E0AF35" stroke="#E0AF35" stroke-width="7.380000e-002" stroke-linecap="square" stroke-miterlimit="2" d="
	M331.7,172.6c3.1,5,2.9,9.7,2,13.9l-7.9,2c6.6,1.7,13.2,6.7,12.5,10.1c-1,3-6,3.5-6.6,2.9c0,0-9.1-8.1-10.3-8.5
	c-1.2-0.3-4.5-2.8-4-2.1c0.3,0.3,3.3,4.2,5.6,6.5c2.2,2.1,3.3,5.3,3.3,5.3c-13.6-7.5-18.7-8.5-18.7-8.5l-1.9,2.3
	c-0.8-8-2.8-15.4,1.7-22C311.7,169.7,323.5,171.4,331.7,172.6L331.7,172.6z"/>
<path id="path165" inkscape:connector-curvature="0" fill="none" stroke="#000000" stroke-width="7.380000e-002" stroke-linecap="square" stroke-miterlimit="2" d="
	M326.2,202.7c-13.7-6.8-18.7-8.5-18.7-8.5l-1.9,2.3c-0.8-8-2.8-15.4,1.7-22c4.5-4.8,16.3-3.2,24.4-2"/>
<path id="path167" inkscape:connector-curvature="0" d="M326.5,219.4c2.8-3.6,5-7.1,6.5-12.8c-0.7-0.5-0.7-1.2-1.3-1.7
	c-1.2,0.5-1.3,4.6-1.8,6.8L326.5,219.4 M320.4,193c0,0,7.7,5.6,11.3,9c3.1,0.8,6.4-0.7,7.3-3.9c-0.1-1.7-2.4-4.7-5.6-6.9
	c-1.3-0.6-2.8-1.6-4.2-2.2c2.7,2.4,8.5,5.2,7.3,10.3c-2.5,2.4-3.9,1.5-5.3,0.2L320.4,193 M324.4,192.4l9.3,4.3c0,0,1.9,0,0-0.6
	c-7.5-3.3-13.8-12-22.6-8.3c-3,1.7-4.3,6.2-5.6,8.8l1.8-2.2c0,0,2.2-3.8,3.7-4.3c6.1-2,9.7,0.4,9.7,0.4L324.4,192.4 M331,186
	c-0.3,0.5,0.7,1.7,0.2,2c-1.5,0.7-5.5,0.5-7.4,0C324.9,187.7,328.9,184.5,331,186 M313.2,174.3c-4.7,3.3-5.1,6.9-6.9,12.1
	C305.8,180.3,307.7,173.6,313.2,174.3 M323.7,200.8c-6.8-5.2-7.7-5.4-15.3-8.2c0,0,0.5-0.7,0.8-1.2c7.8,3.1,10.9,6,10.9,6
	L323.7,200.8 M333.6,183.2l0.5,1.5c3.4-3.7,1.7-8-2.5-12.2l1.5,4.1C334.6,181.4,333.4,182,333.6,183.2"/>
<path id="path169" inkscape:connector-curvature="0" stroke="#000000" stroke-width="7.380000e-002" stroke-linecap="square" stroke-miterlimit="2" d="
	M334.5,186.6c3.5-0.5,3.7,5.6,8,5.2c3.5,0.2,6.6-2.1,8.4-5.7c2.8,0.3,5.2,0.7,7.7-0.6l0.4-0.5c-2.5,0.9-5.2,0.4-7.9-0.5
	c-3.4-1.1-6.9-3.6-9.8-3.6c-2.9-0.2-4.1,1.8-5.5,4.7L334.5,186.6L334.5,186.6z"/>
<path id="path171" inkscape:connector-curvature="0" fill="#FFFFFF" d="M340.3,183.7c-0.2,1.8-0.7,3.7,1.7,4.6
	c3,0.6,3.4-1.2,4.1-3.3c0.4-0.2,2.5,0.6,2.5,0.8c-0.3,1.3-1.3,3.6-3.4,4.5c-1.5,0.4-2.6,0.5-3.9-0.1c-2-0.8-3.7-3.5-3.7-5.1
	C337.3,184.2,339.3,183.4,340.3,183.7"/>
<path id="path173" inkscape:connector-curvature="0" d="M314.6,262.2c2-0.4,3.6-2.4,5.6-2.9c0.8,1-3.3,1.9-2.5,2.9H314.6
	 M330.7,262.2c2-0.7,4.6-4.1,6.9-4.1c1.3,1-2.1,2.6-1.6,4.1H330.7 M354.9,262.2c1.7-0.8,3.8-4.2,5.9-3.7c2,0.7,0.1,2.1-0.8,3.7
	H354.9 M378.2,262.2l-1.5-2.3c-0.2-0.8-1.9-2.1-1.2-2.6c1.8,1.2,1.8,2.6,5.1,4.9H378.2 M340.5,231.7c-1.7,1.8-4,2.6-6.3,2.8
	c-1.5,0.3-2.5-0.5-3.7-1.2v-0.8c2.8,0.7,5,1.5,7.6,0C339,232.2,339.5,231.4,340.5,231.7 M356.1,230.4c-3.7,6.3-5.9,5.2-10.2,1.7
	c-0.8-0.3,4.4,1.5,5.6,0.9L356.1,230.4 M365.2,252.8c-2.5,0.5-4.5,4.2-7.1,1.7c-1.7-1.3-2.8-3-2.5-5.1c2.5,1.7,5,2.2,7.6,0.8
	c2.5-3.8,6.8-5.1,6.8-10C371.1,244.6,367.8,249.3,365.2,252.8 M344.1,254.8c-1.8-0.5-4.3,1.2-6.5,0c-2.2-1.5-1.8-4.1-2.7-6.3
	c2.7,2.8,4.8,3.7,8,3.2c2.7-3,7-6.1,8.6-10C350.1,246.5,347.3,250.8,344.1,254.8 M325,254.8c-1.5-1.3-3,1-4.5-0.3
	c-0.8-2.6-1.7-5.8-0.8-8.8c1.2,2,0.3,5.1,3.3,6c4.5,0.5,4.8-5,8.3-6.3C330.8,249.1,326.7,251.5,325,254.8 M174,269.2
	c8.5-17.1,14.1-35.5,17.9-54.6C187.6,233.5,184.6,252.9,174,269.2"/>
<path id="path175" inkscape:connector-curvature="0" fill="#94693C" d="M282.7,299.1c-1.5-1.5-0.7-4.5,0.8-6L282.7,299.1"/>
<path id="path177" inkscape:connector-curvature="0" d="M171.6,358.6c-1.5,18.2-2.8,36.4-3.3,54.8c4.3-17.3,5.5-36.1,6.5-54.8
	L171.6,358.6 M190,358.6c0,2.1-0.1,4.3-0.1,6.5c-1.3,5.1-5.5,9.1-7.6,13.9c-7,14.9-4,34.4-19.4,45.5c1.5,2.2,2.8-0.5,4.3-0.8
	c11.3-6.3,9.5-20.3,15.1-29.9c0.7,14.9,0.2,31,2,45c4.6-16.6,1.5-35.8,1.3-53.3c1.7-6,5-11.3,8.6-16.4c0.1-3.5,0.2-7,0.4-10.5
	L190,358.6 M209.7,358.6c-0.7,12-1.5,24-3,35.6c-6.1,7-7.8,15.9-9.1,24.7c-6,13.9-4.7,32-20.7,40.7l-0.5,1.2
	c7-0.3,12.8-8.5,15.9-13.9c3.2-8.6,6.1-17.3,9.3-25.9c0.8,17.1-1.3,35-2.8,51.4c7-18.9,6.8-41.8,6-62.9c0.8-4.8,2.5-9.5,6.8-12.4
	c0,0,0.7-18,1.6-38.4L209.7,358.6 M230,358.6c-0.7,21.2-2.2,42.5-4.2,63.1c-10.6,16.4-15.1,35.3-19.1,54.6
	c-1.7,7.6-9.3,13.1-15.9,16.3H186l0.8,2c7.6,0.6,13.4-3.5,19.1-8c-1-6.3,4.8-10,6-15.4c2.7-7.6,3.5-16.1,7.6-23.2
	c-1.7,15.4-3,31.4-5.3,45.8c4.5-7.8,4.5-17.8,6.5-26.6c1.5-12,3.5-23.4,4.3-35.5l5.6-5.6c0,0,1.5-37.3,2.8-67.4L230,358.6
	 M246.1,358.6c-1.1,29.4-2.9,60-4.7,89.3c-13.6,14.1-9.3,35.5-19.3,51.1c-0.8,3.9-3.4,7.4-6.6,10.4l9.5-5.4
	c6.1-14.1,10.6-30.4,15-45.7l6.8-8c1.3-31.9,2.6-61.9,3-91.8L246.1,358.6 M265.1,358.6c-0.7,11-2,22.1-0.3,32.4l1.6-0.2
	c1.6-9.6,1.8-21.2,2.2-32.2H265.1 M273.2,358.6c-0.6,8.2-1.7,16.4-2.4,24.4c0,0,1.2,0.6,1.3,0.1c2.1-7.6,2.5-16.3,2.8-24.5H273.2
	 M281.3,358.6c-0.3,10.5-1.7,23.3-4.9,29.2l5.2,1.2c1.7-9.9,2.3-19.9,2.6-30.4L281.3,358.6 M290.2,358.6c-0.5,7.9-1.7,15.7-1.9,23.3
	c2.6-6.2,3.4-14.9,3.9-23.3H290.2 M298.8,358.6c0.1,0.2,0.1,0.3,0.1,0.3c-1.2,4.5-1.9,17-3.1,21.9l6.5,5.8c0-4,17-2.1,17-2.1
	c-8.7-8.8-15.2-17.4-20.1-25.9L298.8,358.6 M299.2,358.6c-11.4-19.6-14.1-37.9-14.9-53c-0.3-12.1,0.4-21.7,0.4-21.7l-3.6,9.5
	c-4.3,2.7-8,0.5-12-1.2c-2.2-3-5.6-6.1-3.7-10.3c1.3-2.2,3-3.3,4.3-4.8c-3.8,1.3-8.8,6.6-13.4,2.3c-2-4.8-6.3-9.1-4-15.1
	c1.3-1.8,1.8-4.2,4-5.6c-2.2-0.5-4.8,1.3-6.8-0.7c-3-4.6-2.5-9.6-2-15.3c1.8-2,2.8-4,5.1-5.2c-2.7-1.2-6.3-3.6-6-7.5
	c0.5-8.3,2.8-15.9,8.8-21.9l-0.3-0.5c-7,6.3-15.8,11.3-25.2,8c-3.2-1.3-3.5-4.8-4.3-7.5c-4.5,7.5-13.4,9.3-21.9,10
	c-4.6-0.3-7.3-5.7-11.6-6.8c2,3.3,5.5,7.6,9.3,10c-1.7,17.7-8.3,33.3-15.9,48.6c-3.8,4.6-10.4,4-15.9,5.1c2,2.8,6.6,2.2,8.6,5.1
	c-1.8,26.2-4.5,52.2-6.7,78.3h3.2c0.7-13.1,1.3-26.3,2.8-38.8l2-39.5l8-4.3l7.1,7.5c-2.6,25.1-4.2,49.4-4.7,75.1h4.6
	c0.8-23.9,1.2-47.5,2.5-72.3c2-1.5,5.7-0.5,7.6-0.8c2,5,4.2,10,8.3,13.6c-1.7,19.1-2.2,39.4-3.3,59.5h3.4
	c1.1-26.7,2.4-57.6,2.4-57.6c0.5-1,1.5-0.8,2.3-0.8c2.5,6.6,3.7,16.6,12.3,17.9c0.4,13.3,0.3,26.9-0.1,40.5h3.4
	c0.8-20.3,1.5-37.3,1.5-37.3c2.3,3.8,5.3,9.9,10.8,9.6h1.1c-0.2,9-0.4,18.3-0.8,27.7h3.8c0.1-7.9,0.2-15.8,0.1-23.7
	c4.5,2.3,8.1,8,14.4,6.3l0.8,1.2c0.4,5.3,0.2,10.8-0.2,16.2h3.4c0.2-5.3,0.4-10.6,0.7-15.4c1.2,0.5,3.5,1.8,4.3,3.7
	c0.1,3.9-0.1,7.8-0.4,11.8h1.6c0.1-3.7,0.2-7.3,0.4-10.6l6,1.2c0.1,2.6,0.2,5.9,0.1,9.4h2.9c0.1-2.6,0.1-5.1,0.2-7.8l6-4.5
	c0.3,4,0.2,8.1-0.1,12.3h2c0.3-4.4,0.4-8.8,0.7-12.6c0,0,5,10.7,5.9,12.6L299.2,358.6"/>
<path id="path179" inkscape:connector-curvature="0" fill="#94693C" stroke="#000000" stroke-width="7.380000e-002" d="M281.5,497.1
	c-2.3-0.5-4.5-0.8-6.8-1.3c9.1-34.7,10.6-73,20.4-107c3.5-3,2.5-9.5,16.9-11.3c0.9,2.1-9,1.7-10.9,6.8c9.8-6.3,15.3-4,21.1,0.5
	c17.8,13.4,6.3,39.2,6.8,57.8l-1.3,2.8l-1.2,39c-2.2,4-0.8,9.5-1.2,14.3c-4.3-1.3-9.5-6.5-14.8-2.8h-1.5L281.5,497.1L281.5,497.1z
	 M300.6,360.9l-3,20.5c0,0,6.6-3.9,8.5-4.6c1.9-0.6,5.7-0.5,5.7-0.5s-4.4-5.3-5.9-7.4C304.4,366.9,300.6,360.9,300.6,360.9
	L300.6,360.9z"/>
<path id="path181" inkscape:connector-curvature="0" d="M240.9,480.6c-2.7,3.2-4.3,7-8,9.1c2-7.1,8.6-14.1,11.6-21.9
	c10.6-23.9,15.3-50.5,17.4-78C263.3,422.6,255.7,453.6,240.9,480.6 M269.9,236.5c-1.2,6.3,0,12.6,3.7,17.6
	c-10.3-8.8-5.6-21.9-4-33.2c2-8,7.5-16.6,3.7-25.1C281.9,209,270.1,222.6,269.9,236.5"/>
<path id="path183" inkscape:connector-curvature="0" fill="#94693C" d="M230.1,221.7c-3.5,20.2-13.6,37.7-25.9,54.3
	c-2.3,2.2-6.1,2.3-9.1,1.2c-2.2-1-4.1-3.3-5.5-5.2c6-15.8,12.1-31.5,14.6-48.6c7.8,0.8,13.9-4.3,19.9-8.5
	C225.3,217.6,228.1,219.6,230.1,221.7 M247.3,239.3c-3,5.6-5.8,12.1-4,18.7c-8,11.6-13.9,25.2-25.9,34.2c-4.2,2-7.5-2.2-8.8-5.2
	c-5.3-11.1,8.6-18.1,11.1-27.9c5.8-11.8,10.8-23.7,13.6-36.7c5.5,0.5,9.9-1.8,13.9-5.2C245.5,223.9,240.1,233.9,247.3,239.3"/>
<path id="path185" inkscape:connector-curvature="0" d="M214.2,244.5c-1.7-1.3,0-3.8,0.5-5.6c2.3-4.7,3.7-9.8,4.8-15.1l0.3,1.2
	L214.2,244.5 M221.5,280c-3,2.2-4.8,6.8-9.3,5.1c-0.8-3.3,3.6-2.7,5.3-4.5c9.1-13.8,16.3-28.5,22.6-43.8
	C235.1,251.8,228.3,265.9,221.5,280 M252.5,250.5l6.3-4C258.1,249.5,255,250,252.5,250.5 M207.9,262.1c-3,3.5-3.5,10-8.8,12
	c5.8-7.6,9.3-17.8,12.8-27.2C213,252.8,208.4,255.9,207.9,262.1"/>
<path id="path187" inkscape:connector-curvature="0" fill="#94693C" d="M250.5,279.5c1.3,2.5,6.3,2.5,4.8,6
	c-6.7,9.5-11.5,20.7-21.2,27.9c-5,2-8.6-3.7-11.5-6.8c-1.5-2.7-2.2-5.5-2.5-8.6c11.8-10.1,16.9-23.7,24.7-35.8
	C252.2,265.1,245.7,274.4,250.5,279.5"/>
<path id="path189" inkscape:connector-curvature="0" d="M260.5,273.5l6.3-8.3C265.3,268.5,263.8,271.4,260.5,273.5 M276.7,286.6
	l2.5-5.5l-0.5,3.5L276.7,286.6"/>
<path id="path191" inkscape:connector-curvature="0" fill="#94693C" d="M268.8,296.3h1.2v2L252,326.1c-1.7,1.6-4.5,2-6.6,1.2
	c-3.5-2.5-8-5.8-8-10.3c10.6-7.8,14.1-20.1,20.6-30.4C260,290.6,263,296.8,268.8,296.3"/>
<path id="path193" inkscape:connector-curvature="0" d="M230.1,307.4h-3.5c-0.8-2.5,3.2-1.5,4.3-3.2c4.6-5,8.1-10.5,11.6-15.9
	C239.5,295.1,235.2,302.9,230.1,307.4"/>
<path id="path195" inkscape:connector-curvature="0" fill="#94693C" d="M278.7,299.9c-1,5.6,7.1,8,4.5,13.9
	c-6,7.1-8.1,16.6-14.8,23.9c-4.7,3.7-8.6-1.7-12.5-3.6c-1-1.3-1.7-2.8-2-4.3c8.8-9,13.1-19.6,18.4-29.9
	C274.2,301.6,276.6,299.9,278.7,299.9"/>
<path id="path197" inkscape:connector-curvature="0" d="M248.5,321.8c-1.5,1-2.8,2.2-4.8,2c6.1-4.8,10.6-12.8,14.8-19.6L248.5,321.8
	"/>
<path id="path199" inkscape:connector-curvature="0" fill="#94693C" d="M288,330.2c-0.5,2.7-3.3,5.9-6.1,7.6
	c-1.3-0.3-2.5,0.2-3.5,1.2c-0.3,0.7,0.3,1.2,0.8,1.5c2.7,0,5-1.2,7.1-2.7c0.7-1.2,1.9-2.6,2.6-3.7c0.2,2.1,1.3,4.3,2,6.7
	c-0.4,0.5-2.8,1.9-3.8,2.2c-4.8,3.8-10.3,0-14.4-2.5l-1.2-1.2l13.5-24.9C285.3,319.2,286.8,325.2,288,330.2"/>
<path id="path201" inkscape:connector-curvature="0" d="M258.8,332.9c7.1-2.8,9.8-10.8,13.6-16.8
	C268.8,322.1,268.3,333.3,258.8,332.9 M239.4,208.3c1.5-2.8,1.8-6.1,4.7-8.5C244.7,203.2,241.9,205.8,239.4,208.3 M252.8,224.2
	c-0.2-3,3.2-3.8,4.8-6.8C257.5,219.4,254.2,222.1,252.8,224.2 M420.6,299.2c-0.4,8.5,1.3,48.2-33.3,83.4l19.7,7l1.6-5.3
	c0.5,0.8,1.2,0.8,2,1.3c1.9,1,1.4,0.7,3.7,0.9l7.5-0.6c2.5-0.8,4.8-2.8,5.5-5.6l2.5,0.8l1.1,0.8c2.3,0.3,6.1,1.3,7.6-0.8l3.2,5.1
	l2,8.8c10.6,27.6,11.6,60.9,39,79.7l2.3,1.2l4.8,2l12.8,18.7c3.6,4.7,8.3,7.1,12.8,10c1.9,0.3,4.6,5.7,6,4.2l2-5.3l-3.7-19.1
	c2.8,1.2,6,1,8.6,1.8l4.2-3.5l-2,0.5c-4.1-2-9.5-2.7-13.1-6.5c-16.3-17.6-13.3-43.1-29.9-60.6c-6.3-34.2-8.5-70.2-13.6-105.1
	c5.3-5,3.5-14.8,12-16.8c5.5,30.1,5.5,62.4,9.1,93.3c3.3,1.3,6.6,3.5,8.8,6.6c1.8,25.1,4.8,49.6,14.4,71.4
	c-1.2-8.5-4.2-17.1-5.3-25.9l-3.2-30.7c4.1,12.8,6.3,28.6,15.1,34.4c9.5,6.3,13.9,1.4,13.9,1.4c-1.5-2-2.8-0.7-4.6-1.5
	c-27.2-10.1-13.5-45.1-34.4-61.4l-7.5-80.5l-1.7-11.4c3-5.5,4-11.8,5.1-17.9l8.5-2.5l0.7,5.1l4.5,86.5l4,2.8
	c2.5,20.1,2.5,41.7,10.3,59.4c-5-16.8-5.1-37-6-55.4c11.5,8.5,8.6,23.4,15.1,34.2l1.8-0.5c-6.2-14.8-3.1-33.6-20-43.3
	c-2-31-4-62.1-6-93.1c1-1.8,1.3-4,2.8-5.6c2.1,5.1,8.6,6.1,13.4,6c5.1,41.8,5.3,85.6,15.3,125.5c-5.5-41.5-8.6-85-12.8-127.4
	c2.5-1,5.2-2.7,6.8-5.1c-0.7-1.5,1.2-2.3,0-3.7c-4.2,3.7-9.5,6.8-14.8,4.8l-4.5-4.8c-8.8-15.8-15.9-32.4-23.1-49
	c2.2,0.8,6.3,0.5,8.8-1.2c3-2.7,5.6-6,7.1-9.6c-4.5,3.6-11.8,7-17.9,4.5l-0.8-0.8c-7.6,5.8-18.1,11.1-28.2,7.2
	c-1.8,4.8-3.3,11.1-9.1,12.8l-4.5,0.3c1.2,2.8,4.1,5.8,5.7,8.8c1,4.8,1.8,11.6-0.9,15.9c-1.6,4.6-10.6,2-7.1,8.8
	c0.5,4.8,1,10.4-2,14.3c-4.3,4.6-9.8,8.6-15.1,8c-0.8,4.5-7.1,12.8-7.1,12.8S420.9,294.7,420.6,299.2 M429.2,236.5
	c5.6-17.9-14.4-33-4-50.9C419.4,203.7,439.9,218.6,429.2,236.5 M470.7,196.3l-0.3,0.3c-1.3-0.8-2.6-3-2-4.3
	C469.2,193.2,470.7,194.5,470.7,196.3"/>
<path id="path203" inkscape:connector-curvature="0" fill="#94693C" stroke="#000000" stroke-width="7.380000e-002" d="M487.5,205.8
	c7.5,16.1,13.6,32.9,21.9,48.6c0.3,3.8-1.8,6.8-4,9.6c-2.7,1.8-6,3-9.1,2c-13.1-15.8-22.6-32.7-31.2-50.3
	C473.9,216.8,481.2,211.8,487.5,205.8L487.5,205.8z"/>
<path id="path205" inkscape:connector-curvature="0" d="M453.1,214.6c-2.8,0-6.5-2.5-9.5-4.3l0.8-1.7
	C448.3,208.1,451.2,212.3,453.1,214.6 M524.2,248.5c-5.5-12.8-11.1-26.1-14.8-39C515.2,222.1,519,235.5,524.2,248.5 M501.8,260.4
	c-4.7-1.3-6.5-7.5-9.1-11.6c-5.3-10.3-12-20.1-14.3-31.9C483.5,232.5,495,245.5,501.8,260.4"/>
<path id="path207" inkscape:connector-curvature="0" fill="#94693C" stroke="#000000" stroke-width="7.380000e-002" d="M491.8,269.2
	c1.3,6-0.3,11.6-3.2,16.3c-2.5,3.1-5.8,5.5-9.6,4.5c-9.3-11.5-18.3-23.1-24.2-35.9c-0.8-3.2,2-5.8,2.3-8.8c1-6.3-1.2-11.4-2.7-16.8
	c3.2-3,5.5-7,6.6-11.1C471.6,234.2,477.9,253.4,491.8,269.2L491.8,269.2z"/>
<path id="path209" inkscape:connector-curvature="0" d="M447.7,237.7c1,1.3,1.7,2.8,2,4.5c-3.5-2.5-7.6-4.8-10-8.5
	C443,233.2,445.2,235.9,447.7,237.7 M485.5,283.5c-1.5,2.3-3.8-1-4.8-2.3c-8.3-14.4-17.4-28.4-22.2-44.3
	C467.6,252.4,474.9,268.7,485.5,283.5 M435.7,265.6c-4.8-3.3-8-8.1-10-13.1C431.6,253.9,434.6,260.4,435.7,265.6"/>
<path id="path211" inkscape:connector-curvature="0" fill="#94693C" d="M451.2,255.6c6.8,13.9,14.9,27.2,25.5,39.5
	c1.3,5.3-2,8.8-4.8,12.3c-2.8,2.3-6.3,3.3-10.3,2.8c-8.3-9-13.4-19.2-19.6-29.1c6.1-7,6.3-16.6,7.6-25.5L451.2,255.6"/>
<path id="path213" inkscape:connector-curvature="0" d="M465.6,298.3c1.7,2,6.2,0.5,5.5,4.3c-2.3,1.3-4.3-0.5-6.3-1.2
	c-5.5-8.6-11.3-17.2-15.1-26.7C454.5,282.8,459.9,290.1,465.6,298.3"/>
<path id="path215" inkscape:connector-curvature="0" fill="#94693C" d="M437.7,281.5c5,11.4,11.8,22.2,20.2,32.4
	c0.5,4.8-3.3,8.6-7.1,11.1c-3.8,1.3-8.1-1-9.1-4.8c-3.5-12.6-20.4-22.9-11.1-37.5C432.9,282.3,435.2,282,437.7,281.5"/>
<path id="path217" inkscape:connector-curvature="0" d="M446.5,315c1.3,2.7,6.8,2.3,4.6,6.3c-3.3,0.5-6.1-2-7.5-4.8l-10-25.4
	L446.5,315"/>
<path id="path219" inkscape:connector-curvature="0" fill="#94693C" d="M440,326.5c-2.3,5.7-8.5,7.3-13.9,8
	c-3.2-0.2-8.6-1.5-9.4-3.3c1.1-4.7,2.7-12.6,3.3-19c4.3,5.5,4.1,17.1,12.9,17.6c1.3-0.5,0.7-1.8,0.8-2.8c-7.1-3.2-9.7-13-13.5-19.3
	c0.5-3.2,0.4-6.3,0.6-9.6c0.7-0.7,2.2-1.5,3.7-1.8L440,326.5"/>
<path id="path221" inkscape:connector-curvature="0" fill="#94693C" stroke="#000000" stroke-width="7.380000e-002" d="M437.2,337.7
	c3.5-2.6,4-11.8,10-6l4.8-0.8l1.7,4.3c3,35,9.6,69,15.4,102.4c10.5,9.3,12.4,22.6,17.9,34.2c-15.3-9.8-23.7-26.9-29.4-43
	c-5.3-12.8-8.3-26.4-13.1-39.3C444.5,389.5,438.4,354.3,437.2,337.7L437.2,337.7z"/>
<path id="path223" inkscape:connector-curvature="0" fill="#94693C" d="M425.3,339.8c1.2,11.4,3.8,22.2,6.8,33c1.2-5-1.8-9.3-2-14.4
	c-0.7-5.8-1.3-11.8-2.8-17.4c1.3-1,2.8-1.3,4.5-1.1c2.2,13.9,5,27.7,8.3,41.3c-1.3-3-5-0.7-7.1-2c-14.9-7.6-7.3-26.7-12.8-39.3
	l0.5-2L425.3,339.8"/>
<path id="path225" inkscape:connector-curvature="0" fill="#94693C" stroke="#000000" stroke-width="7.380000e-002" d="M519.6,503.2
	l-3.1-18.9c-9.5-10.4-13.8-23.2-17.9-35.8c-1.3,11.1,2.2,21.7,3.7,31.9h-0.5c-6.3-14.1-7.1-30.4-8.8-46.3
	c-2.7-4.5-5.3-10.3-10.6-12.6c-3.3-35.5-9.6-69.7-12.8-105.2h-8.5l-3.5,11.1c4.1,36,8.5,71.9,16.3,106.4
	c15.8,19.9,13,48.3,35.8,64.6L519.6,503.2L519.6,503.2z"/>
<path id="path227" inkscape:connector-curvature="0" fill="#94693C" d="M409.9,379.5c0.5,0.8,1.1,1.4,2,1.9c1.9,1,4.6,1.1,6.8,1.3
	c2.7-0.5,5-3.5,5.5-5.6c-6.3-10.8-4.8-27.7-6.9-40.3c-0.6,0.2-1.4-1.2-1.9-0.6c-0.9,2.7-2.6,6.3-2.7,8c1.5,8.8,4.4,18.6,2.7,28.1
	c-2.7-8.1-0.4-18-3.7-25.7c-2.3,5.1-3.4,7.4-5.6,11.6l3.4,19.8C409.4,378.5,409.6,379.1,409.9,379.5 M403.4,362.5l2.8,13.8
	c0,0-1.9-3.2-5-3.6c-3.1-0.4-5.1-0.3-5.1-0.3L403.4,362.5"/>
<path id="path229" inkscape:connector-curvature="0" fill="#94693C" stroke="#000000" stroke-width="7.380000e-002" d="M401,495.1
	c-4.8,2.1-9.9,3.5-15.1,5.1l-1.1-23.1l-1.3-1.3l-2.7-29.8v-1.2l-1.3-1.5c3.3-20.4-10.3-41.7,2.5-59.4c4.6-3.1,10.1-5.6,16.3-4
	c3.5,1.1,6.3,4,9.1,6.3c-0.2-1.7-1.7-3.8-3.2-5.5c-3.2-4.2-8.5-4.3-12.8-5.1c3.3-1.3,6.6-1.3,9.9,0c4.6,2,8.1,6.6,10.8,10.6
	c3.6,12.1,4.2,25.2,7.1,37.5c4.3,24.1,10.6,47.3,15.3,71.4c-4-0.5-7.3,0.8-11.3,0.3L401,495.1L401,495.1z"/>
<path id="path231" inkscape:connector-curvature="0" stroke="#000000" stroke-width="7.380000e-002" d="M423.3,495.4
	c-23.1-15.4-18.4-43.2-26.2-65.4c-1.2-6-2.3-12.1-4-17.9c1,19.1,7,37,10.3,55.4c3,4.6,2.5,10.9,3.7,16.3c-1.5,4-2.7,8-6,11.3
	L423.3,495.4L423.3,495.4z M309.1,495.7l-6.8-17.1c1.2-7.6,2.5-15.6,2-23.4c-3.1,14.3-7.9,31.7-22.7,41.8L309.1,495.7L309.1,495.7z"
	/>
<path id="path233" inkscape:connector-curvature="0" d="M326.2,398.7v0.3c-4-1.2-9.3-2-12.8-5.5c-4.8,2.7-11.1,3-16.8,2.7v-0.7
	c5.8-2.2,11.6-3.8,16.8-7.3C317.1,392.4,322.9,395.7,326.2,398.7 M311.4,414.6l2.3,0.3c4.3,8.6,9.8,16.8,12.8,25.9
	c-9.3-5.6-10-17.4-15.1-25.4l-6.8,39c1.7-20.2,6.1-39.2,8.5-58.9C313.7,402.3,311.9,408.1,311.4,414.6"/>
<path id="path235" inkscape:connector-curvature="0" stroke="#000000" stroke-width="7.380000e-002" stroke-linecap="square" stroke-miterlimit="2" d="
	M400.7,398.2c7.8,17.9,12.9,37.7,20.6,54.6c-9-17.4-16.1-36.2-21.4-54.6H400.7z"/>
<path id="path237" inkscape:connector-curvature="0" d="M309.4,405.5c-7.1,18.9-8.5,40.3-23.6,56.1l-0.7-0.8l15.9-33.4l8.3-26.4
	L309.4,405.5 M311.1,447.6c4,11.6,8.8,22.7,13.1,34.2c-8.1-9.4-13.6-21.6-13.9-34.2H311.1 M394.2,457.6c-1.8,4.6-3.1,9.4-7.1,13.1
	l8-21.4C396.6,450.9,395.7,455.2,394.2,457.6"/>
<path id="path239" inkscape:connector-curvature="0" fill="#FFFFFF" d="M420.6,299.2c0,0,1.6,41.3-23.3,71.8
	c-27.3,33.4-44.9,39.6-44.9,39.6s-17.6-6.2-44.9-39.6c-24.8-30.4-23.3-71.8-23.3-71.8L420.6,299.2L420.6,299.2L420.6,299.2z"/>
<path id="path241" inkscape:connector-curvature="0" fill="#B11E39" d="M347.1,408V299.1h-11.6v100.6
	C335.5,399.7,340.7,403.9,347.1,408z M302.7,364.4v-65.3h-10.7v43.7C291.9,342.8,297.1,356.9,302.7,364.4z M324.1,389.5v-90.4h-10.7
	V378C313.4,378,318,383.2,324.1,389.5z M357.7,408V299.1h11.6v100.6C369.3,399.7,364.1,403.9,357.7,408L357.7,408z M402.1,364.4
	v-65.3h10.7v43.7C412.9,342.8,407.7,356.9,402.1,364.4z M380.7,389.5v-90.4h10.7V378C391.4,378,386.8,383.2,380.7,389.5z"/>
<path id="path243" inkscape:connector-curvature="0" fill="#7BAFD4" d="M417.5,262.2c0,0,4.2,18.7,3.2,37c0-0.1-136.6-0.1-136.6,0
	c0.1-18.5,3.2-37,3.2-37L417.5,262.2L417.5,262.2z"/>
<polygon id="polygon245" stroke="#000000" stroke-width="7.380000e-002" stroke-linejoin="round" points="58.1,435.4 58.1,435.4 
	67.9,449.3 65,457.8 "/>
<polygon id="polygon247" fill="#FFFFFF" stroke="#000000" stroke-width="7.380000e-002" stroke-linejoin="round" points="
	58.1,435.4 58.1,435.4 57.9,452.5 65,457.8 "/>
<polygon id="polygon249" stroke="#000000" stroke-width="7.380000e-002" stroke-linejoin="round" points="41.6,457.5 41.6,457.5 
	57.9,452.5 65,457.8 "/>
<polygon id="polygon251" fill="#FFFFFF" stroke="#000000" stroke-width="7.380000e-002" stroke-linejoin="round" points="
	41.6,457.5 41.6,457.5 57.7,463 65,457.8 "/>
<polygon id="polygon253" stroke="#000000" stroke-width="7.380000e-002" stroke-linejoin="round" points="57.5,480.1 57.5,480.1 
	57.7,463 65,457.8 "/>
<polygon id="polygon255" fill="#FFFFFF" stroke="#000000" stroke-width="7.380000e-002" stroke-linejoin="round" points="
	57.5,480.1 57.5,480.1 67.7,466.4 65,457.8 "/>
<polygon id="polygon257" stroke="#000000" stroke-width="7.380000e-002" stroke-linejoin="round" points="83.9,471.9 83.9,471.9 
	67.7,466.4 65,457.8 "/>
<polygon id="polygon259" fill="#FFFFFF" stroke="#000000" stroke-width="7.380000e-002" stroke-linejoin="round" points="
	83.9,471.9 83.9,471.9 74,457.9 65,457.8 "/>
<polygon id="polygon261" stroke="#000000" stroke-width="7.380000e-002" stroke-linejoin="round" points="84.2,444.3 84.2,444.3 
	74,457.9 65,457.8 "/>
<polygon id="polygon263" fill="#FFFFFF" stroke="#000000" stroke-width="7.380000e-002" stroke-linejoin="round" points="
	84.2,444.3 84.2,444.3 67.9,449.3 65,457.8 "/>
<polygon id="polygon265" stroke="#000000" stroke-width="7.380000e-002" stroke-linejoin="round" points="662.9,426.9 662.9,426.9 
	663.8,444 656.8,449.6 "/>
<polygon id="polygon267" fill="#FFFFFF" stroke="#000000" stroke-width="7.380000e-002" stroke-linejoin="round" points="
	662.9,426.9 662.9,426.9 653.6,441.2 656.8,449.6 "/>
<polygon id="polygon269" stroke="#000000" stroke-width="7.380000e-002" stroke-linejoin="round" points="637.2,436.7 637.2,436.7 
	653.6,441.2 656.8,449.6 "/>
<polygon id="polygon271" fill="#FFFFFF" stroke="#000000" stroke-width="7.380000e-002" stroke-linejoin="round" points="
	637.2,436.7 637.2,436.7 647.8,450 656.8,449.6 "/>
<polygon id="polygon273" stroke="#000000" stroke-width="7.380000e-002" stroke-linejoin="round" points="638.5,464.3 638.5,464.3 
	647.8,450 656.8,449.6 "/>
<polygon id="polygon275" fill="#FFFFFF" stroke="#000000" stroke-width="7.380000e-002" stroke-linejoin="round" points="
	638.5,464.3 638.5,464.3 654.4,458.2 656.8,449.6 "/>
<polygon id="polygon277" stroke="#000000" stroke-width="7.380000e-002" stroke-linejoin="round" points="665.1,471.5 665.1,471.5 
	654.4,458.2 656.8,449.6 "/>
<polygon id="polygon279" fill="#FFFFFF" stroke="#000000" stroke-width="7.380000e-002" stroke-linejoin="round" points="
	665.1,471.5 665.1,471.5 664.3,454.5 656.8,449.6 "/>
<polygon id="polygon281" stroke="#000000" stroke-width="7.380000e-002" stroke-linejoin="round" points="680.2,448.5 680.2,448.5 
	664.3,454.5 656.8,449.6 "/>
<polygon id="polygon283" fill="#FFFFFF" stroke="#000000" stroke-width="7.380000e-002" stroke-linejoin="round" points="
	680.2,448.5 680.2,448.5 663.8,444 656.8,449.6 "/>
<path id="path285" inkscape:connector-curvature="0" stroke="#000000" stroke-width="7.380000e-002" d="M380.8,446L380.8,446
	c6.8-6.3,11.1-14.5,11.5-23.1l-0.3-0.3c-2.5,8-8,14.6-11.1,22.2V446z"/>
<path id="path287" inkscape:connector-curvature="0" d="M392.2,408.6h-0.3l-0.5-6.3l0.5-0.2l0.3,5.3V408.6 M404.7,393.5
	c-4.6,1-9.3-0.2-13.3-2c-3.8,2.5-8,4.7-12.6,5.1c2.6-3.5,8.3-5.8,11.9-9.9C394.6,390.7,399.4,392.7,404.7,393.5"/>
<path id="path289" inkscape:connector-curvature="0" fill="#E0AF35" stroke="#000000" stroke-width="7.380000e-002" d="M300.8,508
	c0,0,3.4-13.5,13.4-13.5c9.9,0,9.1,2.2,11.2,4.1c1.9,1.7,3.9,4.3,3.2,5.8c-0.1,0.1-0.7,0.8-0.8,0.9c-0.4,0.3-4.6,2.7-5.5,3
	c-2.7,0.8-7.9,1-10.9,1.2c-4,0.3-7.3-1.7-8.3-1.7C302,507.7,300.8,508,300.8,508L300.8,508z"/>
<path id="path291" inkscape:connector-curvature="0" d="M304.6,507.5c0,0-1.8-2,0.4-4.5c0.3-0.4,1.7-0.5,2.3-1.9
	c1.2-2.6,5.7-3.6,8-3.4c3.4,0.3,10.9,6.3,10.9,6.3s1.6,2.7-0.1,1.6c-1.3-0.9-2.3-2.3-4.4-1.9c-2.1,0.4-5.7,3.1-8.2,2.4
	c-2.5-0.7-4.8-2.9-5.8-2.6C306.8,503.8,304.6,507.5,304.6,507.5"/>
<path id="path293" inkscape:connector-curvature="0" fill="#E0AF35" stroke="#000000" stroke-width="7.380000e-002" d="M328.5,504
	c2.1,1.1,3.8,2.8,5.5,5.3c1.7,2.5,1.4,7.9-0.1,11.5c-1.2,2.7-8.4,6.2-8.4,6.2s3.7-7.6,3.3-10.6c-0.3-2.6-2-4-3.4-5.5
	c-1.2-1.2-3.6-2.6-3.6-2.6s2.9-2.7,4.6-3.1C328,504.9,328.5,504,328.5,504z"/>
<path id="path295" inkscape:connector-curvature="0" d="M325.8,505.7l1.2-0.4c0,0,4,3.1,5.1,6.4c0.5,1.4,1.2,3.8-0.4,7.8
	c-1,2.4-2.8,4.2-2.8,4.2s1.6-3,2.6-6.9c0.5-1.8-0.1-4.6-2.5-7.4C327.8,508,325.8,505.7,325.8,505.7"/>
<path id="path297" inkscape:connector-curvature="0" fill="#E0AF35" stroke="#000000" stroke-width="7.380000e-002" d="M287.8,507.5
	c0,0-1,5.2-0.7,9.5c0.3,4.6,3.7,9.4,7,10c4.1,0.8,6.5,0.4,6.5,0.4c-1.3-1.2-5.4-4.3-5.7-7.4c-0.3-3.1,1-4.3,1.3-6.3
	c0.3-2.1,1.1-3.1,1.1-3.1s-2.8-1.6-4.5-2.2C291.3,507.8,287.8,507.5,287.8,507.5z"/>
<path id="path299" inkscape:connector-curvature="0" d="M292,508.2c0,0-1.6,3.2-1.6,5.8c0,4.6,0.3,6.1,1.2,8
	c0.8,1.6,4.9,3.8,4.9,3.8s-3.1-2.4-3.6-6.1c-0.5-3.7,0.2-8.3,1.1-10.5L292,508.2"/>
<path id="path301" inkscape:connector-curvature="0" fill="#E0AF35" stroke="#000000" stroke-width="7.380000e-002" d="M291.7,496.4
	c0,0-10.9,0.4-13.2-0.1c-2.3-0.5-2.6-0.9-4.4-0.8c-1.9,0.1-10.4,2-12.3,5.5c-1.9,3.5-3.1,5.6-3,6.2c0.1,0.6,3.5,1,4.7,1.5
	c1.1,0.4,5.4,1,6.3,1.2c5.4,1.2,12-0.4,9.6-0.1c3-0.4,6.5-1.8,7.3-2.5c0.7-0.7,1.9-1.8,2.3-2.9C289.4,503.2,291.7,496.4,291.7,496.4
	L291.7,496.4z M307.5,496.9c0,0-4.6-10.2-7.9-14c0,0-5,6.5-6.4,9.3c-1.5,2.8-5.8,10.1-5.7,11.1c0.1,1-0.8,3.1-0.5,3.5
	c0.3,0.4,0.8,0.5,3.3,0.9c2.5,0.4,3.7,1.1,4.8,2c1,0.8,3.3,1.1,4,1c0.7-0.1,1.7-2.7,1.7-2.7s1.7-4.8,2.8-6.4
	C304.7,499.9,307.5,496.9,307.5,496.9z"/>
<path id="path303" inkscape:connector-curvature="0" d="M302.8,502.8c0,0-1.8-2.1-3.2-2.7c-1.4-0.6-4-0.7-4-0.7s-2.1,0.8-2.2,1.7
	c-0.1,0.8-0.1,1.8,0.3,2.1c0.4,0.3,1.3,0.9,3.4,1.5c2.1,0.5,4.4,1.3,4.4,1.3L302.8,502.8"/>
<path id="path305" inkscape:connector-curvature="0" fill="#E0AF35" stroke="#000000" stroke-width="7.380000e-002" d="M259.7,507.7
	c0,0-1.1,5.2,0.5,11.1c1,3.7,3.6,7.1,6.3,8.2c2.7,1.1,10.4,0.2,10.4,0.2s-5.1-0.8-7.9-5.9c-1.4-2.5-1.1-6.2-0.9-8
	c0.2-1.8,0.9-3.4,0.9-3.4s-4.3-0.9-5.1-1C262.9,508.6,259.7,507.7,259.7,507.7z"/>
<path id="path307" inkscape:connector-curvature="0" d="M263,508.7c0,0-0.3,4.3-0.1,6.6c0.2,2.4,2.2,4.8,2.2,4.8s-0.8-3.2-0.8-5
	c0-1.8,0.3-6.2,0.3-6.2L263,508.7 M288.1,501.4c0,0-6-0.3-9-0.1c-3,0.2-4.6,0.9-5.2,1.4c-0.6,0.4-4.8,1.1-4.8,1.1l-5.2,5l3.4,0.6
	c3.7-0.6,1.3-2.8,8-3.2c3.5-0.2,10.7-2.4,12.4-3.5L288.1,501.4"/>
<path id="path309" inkscape:connector-curvature="0" fill="#E0AF35" stroke="#000000" stroke-width="7.380000e-002" d="M406.9,494.5
	c0,0-2.1,0.1-5.9,0.6c-3.8,0.5-11,0.1-12.8,2c-1.9,1.9-7.4,4.4-9.2,8.2c-1.9,3.8-2.2,6-1.5,6.6c0.7,0.6,0.9,0.4,3,0.7
	c2.1,0.3,4.5,1.2,7.3,1.7c5,0.8,7.3-2.1,9.2-3c2.5-1.3,7.7-2.7,9.4-3c1.8-0.3,1-5.1,1-5.1L406.9,494.5L406.9,494.5z M387,514.3
	c0,0-0.3,4.9,1.3,8c1.7,3.1,3,3.2,5,3.7c2,0.5,4.5,0.4,4.5,0.4s-3.1,3.5-6.6,2.9c-3.4-0.6-8.5-4.9-10-7c-2.3-3.5-2.2-9.8-2.2-9.8
	s3.8,0.5,4.9,0.8C385.4,513.8,387,514.3,387,514.3z"/>
<path id="path311" inkscape:connector-curvature="0" d="M404.5,499.2c0,0.4-2.1,2.3-2.1,2.3l-6.5,2l-4.9,2.2l-4.6,3.1
	c0,0-2.5,2.6-2.7,3c-0.2,0.4-0.4,1.5-0.4,1.5l3.4,0.9c0,0,0-1,1-1.8c0.8-0.7,1.7-1.4,2.3-1.9c1.4-1,3.7-2.3,5-2.6
	c1.2-0.3,4.6-2.2,5.1-2.6c0.5-0.4,1.8,0.1,3.1-0.8C404.6,503.5,404.5,499.2,404.5,499.2 M383.3,513.3c0,0-0.3,4.8,0.3,6.5
	c0.6,1.8,2.5,3.5,2.5,3.5s-1.3-3.6-1.3-5.4c-0.1-1.1,0.4-4.1,0.4-4.1L383.3,513.3"/>
<path id="path313" inkscape:connector-curvature="0" fill="#E0AF35" stroke="#000000" stroke-width="7.380000e-002" d="M419.8,494.9
	c1.8-0.2,3.3,0,7.6-0.8c4.3-0.7,7,0.1,10,0.8c4.4,1.1,9.2,4.4,10.1,5.6c1.1,1.4,2.4,6.5,0,7.7c-2.4,1.1-5.3,2.8-7.3,2.1
	c-2-0.7-8.3-1-11.2-1.6c-2.9-0.5-5-0.3-5-0.3L419.8,494.9z M448,508c0,0,0.9,2.7,1,6.1c0.1,3.4-0.8,6-1.8,8.2
	c-1.1,2.7-6.7,4.9-6.7,4.9s2.3-3.5,3.1-6.1c0.8-2.6-0.1-6.1-0.4-7.5c-0.3-1.4-1.6-3.1-1.6-3.1s1.2-0.2,2.3-0.6
	C445,509.4,448,508,448,508L448,508z"/>
<path id="path315" inkscape:connector-curvature="0" d="M445,509.5c0,0,0.8,0.6,1.5,3.5c0.5,2.4,0.3,5.8,0.3,5.8s1.1-3.7,0.8-5.9
	c-0.3-2.2-1.4-4-1.4-4L445,509.5"/>
<path id="path317" inkscape:connector-curvature="0" fill="#E0AF35" stroke="#000000" stroke-width="7.380000e-002" d="M410.7,488.3
	c-2.7,0.1-5.7,1.9-7.5,3.9c-1.8,2.1-1.5,5.8-0.7,8.2c0.7,2.4,2.8,6.4,4.9,8.7c2.1,2.3,5.7,3.8,9.1,3.6c3.4-0.2,8.5-0.5,8.6-3.2
	c0.1-2.7-0.9-6.1-1.7-8.7c-0.7-2.6-1.9-5.4-3.6-7.6C417,489.7,415.7,488.2,410.7,488.3L410.7,488.3z"/>
<path id="path319" inkscape:connector-curvature="0" d="M423.1,500c0,0,0.5,1.5,0.5,1.9c0,0.4,0.1,1.8,0.1,1.8s-3.2,2.4-4.8,2.2
	c-1.6-0.2-4.5-0.4-6.3-2.3c-1.9-1.9-3.1-4.5-3.1-4.5s6.3,2.6,9.2,2.5C419.9,501.5,423.1,500,423.1,500"/>
<path id="path321" inkscape:connector-curvature="0" fill="#E0AF35" stroke="#000000" stroke-width="7.380000e-002" d="M413,511.9
	c0,0,2.3,2.7,2.4,4.9c0.1,2.2-0.2,4.6-1.1,6.1c-0.9,1.5-3.1,5.3-3.1,5.3s2.2,0.3,4.6-1.1s5.3-3.8,6.2-7c0.8-3,0.4-8.3,0.4-8.3
	s-3.6,1.1-6.6,1.1C414.5,512.8,413,511.9,413,511.9z"/>
<path id="path323" inkscape:connector-curvature="0" d="M417.6,514.9c0,0-0.1,3.9-0.3,5.2c-0.2,1.2-1.2,3.6-1.2,3.6s2.2-3.1,2.5-5
	c0.3-1.9,0-4.2,0-4.2L417.6,514.9 M444.8,499.7c1.8,2,3.8,4.5,2.3,7.3c-0.2,0.5-0.7,0.3-1.2,0.3c-1.8-2.2-0.8-6.5-4.8-6.8
	c-5-2.8-12.5,1.3-17.1-2.3c5.1-1.2,11.9-1.2,17.9,0L444.8,499.7"/>
<polygon id="polygon325" fill="#B2B2B2" stroke="#000000" stroke-width="7.380000e-002" points="204.3,536.4 197.6,536.4 
	197.6,527.7 259.7,527.7 259.7,536.4 253,536.4 253,545.7 259.7,545.7 259.7,558.8 231.5,558.8 231.5,545.7 236.4,545.7 
	236.4,536.4 220.9,536.4 220.9,536.4 220.9,545.7 225.9,545.7 225.9,558.8 197.6,558.8 197.6,545.7 204.3,545.7 "/>
<path id="path327" inkscape:connector-curvature="0" fill="none" stroke="#000000" stroke-width="7.380000e-002" d="M257.4,527.7
	v7.3h-6.6v10.8 M257.4,545.7v11.6h-25.9 M236.4,536.4v-1.5h-17.8v10.8 M223.6,545.7v11.6h-25.9 M204.3,536.4v-1.5h-6.4"/>
<path id="path329" inkscape:connector-curvature="0" d="M385,262.2l-5.4-13.7l1.7-0.2l-4.1-13.3l1.9,0.2l-5.2-11.2l2.1,0.4l-2.3-11
	h1.2l-2.1-8.3l2.1-0.2l-3.3-10.6l2.1,9.7l-2.5-0.4l2.7,8.5l-2.1-0.4l3.1,11.4l-2.7-0.2l5,11c0,0-3.3-1.5-2.5-0.2
	c0.8,1.3,5.2,13.7,5.2,13.7l-2.5,0.2l5.8,14.5H385"/>
<path id="path331" inkscape:connector-curvature="0" d="M26.5,408.1l-0.6-7.2c10.5-11.2,20.7-22.9,31.6-34.1l-34.1,2.6
	c0.1-1,0.1-2,0-2.9c-0.1-1-0.2-2-0.4-2.9l49.9-3.9l0.4,6.2c-8.7,9.2-17.1,17.7-25.1,26.6l-7.7,8.6l35.2-2.7c0,1-0.1,2,0,2.9
	c0.1,1,0.3,2,0.5,2.9L26.5,408.1 M59,341.7c5.3,2.4,9.7,4.7,14.6,6.5c-0.2,1.2-0.4,2.2-0.6,3.4c-0.1,1.2-0.1,2.3-0.1,3.5l-48.4-25.6
	c0.2-0.9,0.4-1.8,0.5-2.7c0.1-0.9,0.1-1.8,0.1-2.8l52.5-15.4c-0.3,2.1-0.7,4.1-1,6.2c-0.2,2.1-0.2,4.2-0.2,6.3
	c-5.5,1.2-10.6,2.2-15.7,3.7C60.6,324.8,59,341.7,59,341.7z M56,326l-17.6,4.8l16.3,8.5L56,326 M83.8,284.5
	c-0.6,1.7-1.2,3.5-1.7,5.2c-0.4,1.8-0.7,3.6-1,5.4l-43.6-10.9c-1.3,5-1.9,9.6-2.3,13.4c-1-0.4-1.9-0.8-3-1.1c-1-0.2-2-0.3-3.1-0.4
	l9.1-36.5c1,0.4,1.9,0.8,2.9,1.1c1.1,0.3,2.1,0.3,3.1,0.4c-1.5,4-3.1,8.1-4.2,12.4L83.8,284.5 M42.6,248.4c0.8-1.7,1.6-3.3,2.2-5
	s1.1-3.5,1.5-5.3l47,17.4c-0.8,1.7-1.6,3.3-2.2,5c-0.6,1.7-1.1,3.5-1.5,5.3L42.6,248.4 M108.7,224.9c-7.7,14.2-21.2,19.2-35.8,11.4
	c-12.8-6.9-18.1-21.8-9.4-37.8c9.9-18.3,25.7-16.7,35.7-11.4C111.8,193.7,117.2,209.1,108.7,224.9L108.7,224.9z M80.5,226.6
	c8.3,4.5,19.3,5.5,24.5-4.1c5.4-9.9-2.1-19.7-12.8-25.4c-8.3-4.5-19.9-5.8-25.1,3.9C62.3,209.8,66.1,218.8,80.5,226.6 M86.7,162.6
	l4.6-5.6c15.3-0.8,30.8-2.1,46.4-2.5l-26.3-21.8c0.7-0.6,1.4-1.4,2-2.1c0.6-0.7,1.2-1.6,1.7-2.4l38.6,32l-4,4.7
	c-12.7,0.5-24.6,0.9-36.6,1.7l-11.5,0.8l27.2,22.5c-0.7,0.7-1.4,1.4-2,2.1c-0.6,0.7-1.1,1.6-1.7,2.4L86.7,162.6 M156.1,137.5
	c2.2,5.4,3.7,10.1,5.9,14.8c-0.9,0.7-1.9,1.3-2.7,2.1c-0.9,0.8-1.7,1.6-2.5,2.4l-16.9-52.1c0.8-0.5,1.5-1,2.3-1.6
	c0.7-0.6,1.3-1.2,2-2l48.4,25.4c-1.7,1.3-3.4,2.4-5,3.8c-1.6,1.4-3,2.9-4.5,4.3c-4.8-3-9.2-5.8-13.8-8.3L156.1,137.5L156.1,137.5z
	 M164.9,124.2l-16-8.7l5.8,17.4L164.9,124.2 M203,113.8c5.4-3.4,9.7-6.7,13.6-9.8c0.4,0.9,0.8,2,1.4,2.9c0.5,0.9,1.3,1.7,2,2.4
	l-23.4,14.8l-26.6-42c1.6-0.9,3.3-1.6,4.8-2.6c1.5-1,3-2.1,4.4-3.2L203,113.8 M249.9,51.8c-2.8-3.1-6.3-4.4-10.1-2.8
	c-5.4,2.1-6.4,5.7-4.9,9.6c3.6,9.2,23.6-0.6,29.7,14.9c3.4,8.7-1.6,17.9-12.1,22c-3.7,1.5-8.1,2.2-12.1,1.4
	c-0.3-3.2-0.7-6.3-1.4-9.4l1.3-0.5c2.9,4.3,7.6,5.6,12.3,3.8c4.2-1.7,7-5.5,5.2-10.2c-4.3-10.9-23,1-29.4-15.4
	c-3.1-7.8-0.2-16.4,10.1-20.4c4.9-1.9,10-1.8,12-1c0,2.5,0.2,5,0.5,7.6L249.9,51.8 M290.6,30.4c0.1,1,0.2,2.1,0.4,3.1
	c0.3,1,0.7,2,1.1,3c-4.5,0.5-9.4,1.2-16.6,3.2l3.9,15.2l7.3-1.9c3.2-0.8,6-1.9,8.5-2.9c0.1,1,0.2,2.1,0.4,3.1c0.2,1,0.7,2,1.1,2.9
	c-2.7,0.3-5.7,0.8-8.9,1.6l-7.4,1.9l4.6,18c7.2-1.9,11.9-3.5,16.1-5.2c0.1,1,0.2,2.1,0.4,3.1c0.3,1,0.7,2,1.1,2.9l-26.9,7
	l-12.4-48.2L290.6,30.4 M348.2,64.7l-0.9,6.4c-4.1,2.7-9.2,4.2-14,4.7c-15.5,1.7-28.3-6.6-30-21.4c-2.1-18.9,10-29,25.8-30.8
	c4.8-0.5,10.7,0.1,15.2,1.9c-0.4,2.5-0.5,5-0.8,7.7l-1,0.1c-3.1-3.6-8.1-5.9-12.8-5.4C317.6,29.3,314,41.4,315.2,52
	c1.4,12.4,8.4,20.4,19.6,19.2c4.5-0.5,9.5-3.4,12.4-6.9L348.2,64.7 M359.7,22.9c1.8,0.3,3.6,0.6,5.4,0.7c1.8,0.1,3.7,0,5.5,0
	l-1.3,20.7c-0.3,4-0.8,10-0.4,13.8c0.4,3.6,0.9,5.9,3.3,8.6c2.2,2.3,4.9,3.5,8.1,3.7c6.8,0.4,10.6-1.8,13.5-8
	c1.5-3.1,2.1-11.4,2.3-15l1.4-22.1c0.9,0.2,1.9,0.3,2.9,0.4c0.9,0.1,2,0,2.9,0l-1.7,25.9c-0.7,8.3-1.2,15.9-9.1,20.6
	c-4.1,2.6-9.2,3.3-14,3c-8.8-0.6-18.2-3.9-20.3-13.6c-0.6-2.9-0.8-6.1-0.6-9L359.7,22.9 M421.2,28.7l15.1,3.6
	c3.3,0.8,8.6,1.9,11.2,4.2c3.5,3.1,4.9,6.8,3.8,11.6c-1.7,7-7.2,10.3-14.1,10.2c2.3,7.7,5.2,15.3,7.9,22.9l1.7,5.1
	c-2.1-0.6-4.2-1.4-6.4-1.9c-2.1-0.5-4.3-0.8-6.5-1.2L429,66.3c-0.6-2.2-1.8-5.9-2.8-9l-0.5-0.1L420.3,80c-1.7-0.6-3.5-1.2-5.2-1.6
	c-1.8-0.4-3.6-0.6-5.4-0.9L421.2,28.7L421.2,28.7z M426.4,54.2c7.3,2.5,11.8-0.2,13.6-7.5c0.2-1,0.4-2.1,0.5-3.6
	c0.3-6.2-5.2-6.9-9.5-7.9L426.4,54.2 M469.3,41.8c1.7,0.8,3.3,1.6,5,2.2c1.7,0.6,3.5,1,5.3,1.5l-17.1,47.1c-1.7-0.7-3.3-1.6-5-2.2
	c-1.7-0.6-3.5-1-5.3-1.5L469.3,41.8 M490.9,105.3c-1.6-0.9-3.1-1.9-4.8-2.8c-1.6-0.8-3.4-1.4-5.1-2.1l19.8-40.3
	c-4.7-2.3-9-3.9-12.6-5.1c0.6-0.9,1.2-1.7,1.7-2.7c0.4-0.9,0.7-1.9,1-2.9l33.8,16.6c-0.6,0.8-1.2,1.7-1.7,2.6c-0.5,1-0.7,2-1.1,3
	c-3.6-2.3-7.3-4.7-11.3-6.7L490.9,105.3 M528.3,102.8c0.8-10.9,2.3-21.7,3.4-32.8c1.7,1.4,3.4,2.8,5.2,4c1.8,1.2,3.7,2.3,5.6,3.4
	c-0.6,4.4-1.5,9.5-2.2,14.2c-0.7,4.5-1.2,8.4-1.1,9.8c4.2-1.3,15.5-8.2,21.3-11.8c0.9,0.8,1.8,1.5,2.8,2.2c1,0.7,2,1.3,3,1.8
	c-9.6,4.8-19.1,9-28.2,14.1l-12.7,18.6c-1.4-1.2-2.8-2.4-4.3-3.4c-1.5-1-3.1-1.9-4.7-2.8L528.3,102.8 M572.4,145.9
	c-5.3,2.4-9.9,4.2-14.5,6.6c-0.8-0.9-1.4-1.8-2.2-2.7c-0.8-0.9-1.7-1.6-2.5-2.4l51.2-19.2c0.5,0.8,1.1,1.5,1.7,2.2
	c0.7,0.7,1.3,1.3,2.1,1.9L585,181.7c-1.4-1.7-2.6-3.3-4-4.8c-1.5-1.6-3-2.9-4.5-4.3c2.8-4.9,5.4-9.4,7.6-14.2L572.4,145.9
	L572.4,145.9z M586.1,154.1l8-16.3l-17.1,6.6L586.1,154.1 M614.5,222.4c-5.1-4.5-9.9-9.2-13.4-14.6c-8.4-12.9-9.4-28.7,5-38
	c15.3-9.9,30.3-3.8,39.4,10.3c3.4,5.3,5.5,10.9,5.8,17.2c-2.5,0.4-5,1.2-7.3,2.3l-0.6-0.9c2.3-5.5,1.6-11.3-1.6-16.1
	c-6.6-10.2-19.1-9.3-29.4-2.6c-10.7,6.9-13.5,16.4-7.5,25.7c2,3.1,4.3,4.7,6.1,5.6l14.3-9.3c0.9,1.6,1.7,3.3,2.7,4.8
	c1,1.5,2.2,3,3.3,4.4L614.5,222.4 M673,236.5c-1,0.3-2.1,0.5-3,0.9c-1,0.4-1.8,1.1-2.7,1.6c-1.3-4.3-2.8-9.1-6-15.8l-14.3,6.4
	l3.1,6.9c1.3,3,2.8,5.6,4.3,7.9c-1,0.3-2.1,0.5-3,1c-0.9,0.4-1.8,1.1-2.7,1.6c-0.8-2.6-1.7-5.5-3.1-8.5l-3.1-6.9l-16.9,7.6
	c3.1,6.8,5.5,11.2,7.8,15c-1,0.3-2.1,0.5-3,1c-0.9,0.4-1.8,1.1-2.7,1.6l-11.4-25.4l45.4-20.3L673,236.5 M678.5,250.2l1.9,7
	c-8.2,13-16.1,26.4-24.7,39.4l33-8.9c0.1,1,0.3,2,0.6,2.9c0.2,0.9,0.6,1.9,1,2.8l-48.4,13.1l-1.6-6c6.9-10.6,13.5-20.6,19.7-30.8
	l6-9.8l-34.1,9.2c-0.2-0.9-0.3-2-0.5-2.9c-0.3-0.9-0.7-1.9-1-2.8L678.5,250.2 M655,354.3l-6.4-1c-2.6-4.2-4-9.2-4.4-14.1
	c-1.4-15.6,7.2-28.2,22.1-29.5c19-1.7,28.8,10.6,30.2,26.5c0.4,4.8-0.3,10.7-2.3,15.2c-2.5-0.4-5-0.7-7.6-1l-0.1-1
	c3.7-3,6-8,5.6-12.7c-1.1-12.1-13.1-15.9-23.8-15c-12.4,1.1-20.6,8-19.6,19.2c0.4,4.5,3.2,9.5,6.6,12.5L655,354.3 M666.6,374.6
	c9.8-4.9,19.9-9,30-13.8c-0.3,2.2-0.7,4.4-0.8,6.5c-0.2,2.2-0.1,4.4-0.1,6.6c-4.1,1.7-8.9,3.6-13.4,5.3c-4.2,1.7-7.9,3.2-9,4
	c3.2,3,15,9.2,21,12.3c-0.2,1.2-0.4,2.3-0.4,3.6c-0.1,1.2-0.1,2.3,0,3.5c-9-5.8-17.4-11.9-26.5-17.1l-22.5-1.4
	c0.3-1.8,0.6-3.6,0.7-5.5c0.1-1.8,0-3.7,0-5.5L666.6,374.6"/>
<g>
	
		<g id="text3369" transform="matrix(-0.99998865,0.00476494,-0.00476494,-0.99998865,251.11125,248.99088)" inkscape:transform-center-y="239.98144" inkscape:transform-center-x="-0.79849202">
		<path id="path5266" d="M155.4-266.8c5.9-10.6,12-21.1,18.1-31.4c-0.3-0.3-0.6-0.7-0.9-1c-0.2-0.4-0.5-0.8-0.7-1.2
			c-12.1,2-24.3,3.9-36.5,5.8l-0.1-0.1c8.6-7.3,17.9-15.2,25.9-21.3c-1.3-1.5-2.6-3.1-3.7-4.7s-2.1-3.3-3-5
			c-7.4,7.2-24.9,22.3-37.5,33.2c0.7,0.7,1.4,1.5,2,2.3c0.6,0.8,1.1,1.8,1.5,2.8c12.4-2.2,25.8-4.3,37.9-5.6
			c-5.4,10.1-12.5,22.4-19,33.2c0.7,0.6,1.4,1.4,1.9,2.2c0.6,0.8,1,1.7,1.4,2.6c14.8-7.7,29.8-15.1,45.2-22
			c-0.8-0.8-1.6-1.6-2.2-2.6c-0.6-0.9-1.1-1.9-1.6-3c-9.4,5.6-18.8,11.2-28.6,16.1L155.4-266.8"/>
		<path id="path5268" d="M132.9-312.9c12.7-12.7,9.5-26.9-1.2-37.6c-11.4-11.3-27.7-11.2-37.7-1.1c-12.3,12.3-9.6,26.7,1.2,37.5
			C106.9-302.4,122.9-302.9,132.9-312.9 M101.2-342.3c11.1-11.1,21.5-10.9,27.6-4.8c5.7,5.7,6.9,14.5-3.9,25.3
			c-8.7,8.8-19.8,11.7-26.8,4.8C91.6-323.5,92.4-333.4,101.2-342.3"/>
		<path id="path5270" d="M82.6-346.9c8.4-12,20-26.6,21.5-28.1c-1-0.4-2-1-2.9-1.6s-1.7-1.4-2.6-2.2c-1.4,2.3-3.5,5.7-10.1,15.2
			c-3.1,4.4-6.5,9.3-9.7,13.7c-2.4-15.9-4.3-31.5-5.7-46.7c-0.8-0.3-1.7-0.7-2.5-1.3c-0.8-0.6-1.5-1.2-2.2-2
			c-11,15.7-16.5,23.5-29.5,40c1,0.4,2,0.9,2.9,1.6c0.9,0.6,1.7,1.4,2.4,2.2c1.4-2.9,12.7-19,19.3-28.4c2.1,15.4,4,30.7,5.9,46
			c1,0.4,2,0.9,2.9,1.6c0.9,0.6,1.7,1.4,2.4,2.2C76.6-337.8,78.9-341.6,82.6-346.9"/>
		<path id="path5272" d="M46.1-389.2c3.8-7.1,6.5-11.9,9.9-17.3c-1.5-0.6-3.3-1.3-5.4-2.5s-3.7-2.2-5-3.1
			c-2.6,5.8-5.1,10.8-8.9,17.9l-4.6,8.6c-3.8,7.1-6.5,11.9-9.9,17.3c1.5,0.6,3.3,1.3,5.4,2.5c2.1,1.1,3.7,2.2,5,3.1
			c2.6-5.8,5.1-10.8,8.9-17.9L46.1-389.2"/>
		<path id="path5274" d="M17.9-403.1c3.1-7.4,5.4-12.5,8.2-18.2c-1.5-0.5-3.4-1-5.6-1.9c-2.2-0.9-3.9-1.9-5.3-2.6
			c-2,6-4,11.2-7.2,18.6l-6.9,16.6c-1.1,2.5-2.1,4.9-2.6,5.8c-2.7-1.1-8.1-3.8-11.5-5.8c-0.2,1.1-0.5,2.1-0.9,3.1
			c-0.4,1-0.9,1.9-1.6,2.8c5.7,2.2,8.8,3.3,17,6.7c8.2,3.4,11.2,4.8,17.1,7.5c0.2-1.1,0.5-2.1,0.9-3.1c0.4-1,0.9-1.9,1.6-2.8
			c-4.2-1.2-9.9-3.1-12.5-4.2c0.2-1,1.2-3.4,2.2-5.9L17.9-403.1"/>
		<path id="path5276" d="M-5-408c4.4-17.5-5.6-28-20.3-31.7c-15.6-3.9-29.5,4.5-33,18.3c-4.2,16.8,5.4,27.9,20.2,31.6
			C-21.9-385.7-8.5-394.3-5-408 M-47.2-417.1c3.8-15.2,12.9-20.4,21.3-18.2c7.8,2,13.4,8.9,9.6,23.7c-3,12-11,20.2-20.6,17.8
			C-45.9-396-50.2-405-47.2-417.1"/>
		<path id="path5278" d="M-86.4-448.5c-2.2-0.1-4.4,0-6.6-0.2c-2.2-0.2-4.3-0.6-6.4-0.9c4.5,8.6,9.2,17.2,13.1,25.8
			c-7.3,1.1-11.7,5.2-12.3,12.2c-0.4,4.2,1.1,7.5,3.8,9.9c2.3,2,4.9,2.9,12.2,3.6c4.9,0.4,8,0.4,10.6,0.6c2.4,0.2,4.3,0.6,5.8,0.9
			c0.1-6.3,0.5-11.9,1.2-19.9l0.9-9.8c0.7-8,1.4-13.5,2.4-19.8c-1.6,0-3.5,0-5.9-0.2c-2.4-0.2-4.3-0.6-5.8-0.9
			c-0.1,6.3-0.5,11.9-1.2,19.9l-0.3,2.9l-0.6-0.1L-86.4-448.5 M-87.5-412.3c0.6-6.7,4.4-9.9,10.7-9.4c0.5,0,1,0.2,1.6,0.3
			c-0.6,6.5-1.2,13-2,19.5C-85.1-402.6-88.3-403.9-87.5-412.3"/>
		<path id="path5280" d="M-106.1-429.4c-0.2-8.1-0.2-13.6,0-20c-1.6,0.2-3.5,0.5-15.2,0.8c-6.6,0.2-10,0-12.6,0
			c0.2,0.9,0.3,1.6,0.4,3.1c0,1.5-0.1,2.2-0.2,3.2c5.5-0.8,11.1-1.3,16.5-1.4c0.2,2.9,0.4,6,0.5,9c0.1,3.1,0.1,6.2,0.2,9.2
			c-5.5,0.2-10.9,0.1-16.4-0.2c0.3,1.5,0.4,2.1,0.4,2.9c0,0.9,0,1.6-0.3,3.2c5.5-0.4,10.1-0.7,16.3-1c0.2,5.3,0.3,10.4,0.1,15.7
			c-2.2,0.1-10.8-0.2-16.3-0.4c0.2,1.1,0.3,1.7,0.4,3.2c0,1.3-0.1,2.2-0.2,3c1.9-0.3,8-0.6,15-0.8c4.2-0.1,8.6,0,12.8,0
			c-0.6-6.3-0.9-11.9-1.2-19.9L-106.1-429.4"/>
		<path id="path5282" d="M-141.1-428.3c-1.3-8-2.1-13.4-2.7-19.8c-1.5,0.4-3.4,0.9-5.8,1.3c-3.7,0.6-8.6,1.1-15.7,2.3
			c-13.3,2.2-22.8,14.4-20.2,30.1c3,17.9,15,21.2,31.2,18.5c6.2-1.1,9.7-2,12.8-2.5c2.3-0.4,4.3-0.5,5.9-0.6
			c-1.5-6.2-2.5-11.6-3.9-19.6L-141.1-428.3 M-149.7-415.5c0.6,3.8,2.1,12.5,2.3,13.9c-2.2,0.6-3.9,1-7.3,1.6
			c-9.8,1.6-17.5-4.5-19.4-16.1c-2.5-14.8,3-23.1,13.7-24.9c2.9-0.5,4.9-0.7,6.3-0.8c0.3,1.3,1.8,10,2.4,13.8L-149.7-415.5"/>
		<path id="path5284" d="M-212.8-412.7c-3.1-7.4-5.1-12.6-7.2-18.6c-1.4,0.7-3.1,1.7-5.3,2.6c-3.5,1.5-8.1,3-14.7,5.8
			c-12.5,5.2-18.9,19.3-12.8,33.9c7,16.7,19.5,17.2,34.6,10.8c5.8-2.5,9-4.2,11.9-5.4c2.2-0.9,4.1-1.5,5.6-2
			c-2.9-5.7-5.1-10.7-8.3-18.2L-212.8-412.7 M-218.3-398.2c1.5,3.6,4.9,11.7,5.4,13c-2,1.1-3.6,1.9-6.8,3.2
			c-9.2,3.9-18-0.4-22.6-11.3c-5.8-13.8-2.3-23.2,7.6-27.4c2.7-1.1,4.6-1.8,5.9-2.3c0.6,1.2,4,9.3,5.5,12.9L-218.3-398.2"/>
		<path id="path5286" d="M-261.6-390.7c-4.1-6.9-6.8-11.8-9.7-17.4c-1.3,0.9-2.8,2.1-12.9,8.1c-5.7,3.4-8.7,4.9-11,6.1
			c0.6,0.7,1.1,1.2,1.8,2.5c0.8,1.3,1,2,1.4,2.9c4.4-3.4,9-6.5,13.7-9.2c1.6,2.4,3.2,5,4.8,7.6c1.6,2.7,3.1,5.4,4.7,8
			c-4.7,2.8-9.5,5.4-14.4,7.8c1,1.2,1.4,1.7,1.8,2.4c0.5,0.8,0.7,1.4,1.3,3c4.6-3,8.4-5.5,13.7-8.9c2.7,4.5,5.3,9,7.7,13.7
			c-1.9,1.1-9.5,5.1-14.4,7.6c0.7,0.9,1.1,1.3,1.9,2.6c0.7,1.1,1,1.9,1.3,2.7c1.6-1.2,6.7-4.4,12.7-8c3.6-2.2,7.5-4.1,11.2-6.2
			c-3.6-5.2-6.6-9.9-10.7-16.8L-261.6-390.7"/>
		<path id="path5288" d="M-312-364.6c10.9,6.8,23.2,14.1,32.4,20.6c1.5-1.5,3.1-2.9,4.8-4.2c1.6-1.3,3.4-2.5,5.3-3.7
			c-10.5-5.8-34.9-20.2-46-27.1c-0.7,0.7-1.4,1.6-2.3,2.2s-1.8,1.1-2.7,1.7c5.7,16.4,11.8,39.5,15.1,51.3c0.7-0.8,1.4-1.6,2.3-2.2
			s1.8-1.2,2.7-1.7C-304.4-338.9-308.5-352.1-312-364.6"/>
		<path id="path5290" d="M-328.1-342.2c-5.6-5.8-9.4-9.8-13.5-14.7c-1,1.2-2.3,2.7-4,4.4c-1.7,1.7-3.2,2.9-4.5,3.9
			c4.7,4.2,8.7,8.1,14.3,13.9l6.8,7c5.6,5.8,9.4,9.8,13.5,14.7c1-1.2,2.3-2.7,4-4.4c1.7-1.7,3.2-2.9,4.5-3.9
			c-4.7-4.2-8.7-8.1-14.3-13.9L-328.1-342.2"/>
		<path id="path5292" d="M-377-304.1c-0.5-4.4,1.2-9.9,4.1-13.5c5.3-6.4,15.4-9.5,26.8,0c11.8,9.7,11.4,20.7,6.5,26.6
			c-3.3,3.9-7.1,5.5-12.8,5.5l-0.6,0.8c1.8,1.7,3.4,3.7,4.6,6c3.7-1.3,8.9-5.2,12.1-9.1c9.6-11.7,12.3-26.9-3-39.6
			c-10.5-8.7-24.8-7.7-35.5,5.2c-3.8,4.6-6,9.1-6.9,13.3c1.4,1.4,2.7,3.2,3.7,5.1L-377-304.1"/>
		<path id="path5294" d="M-372.8-290.3c-6.8-4.3-11.4-7.4-16.6-11.1c-0.7,1.4-1.6,3.2-7.8,13.1c-3.5,5.6-5.6,8.3-7,10.5
			c0.8,0.3,1.5,0.6,2.8,1.4c1.3,0.8,1.8,1.3,2.6,2c2.4-5,5.1-9.9,8-14.4c2.5,1.4,5.2,3,7.7,4.6c2.6,1.7,5.2,3.4,7.8,5
			c-2.9,4.6-6,9.1-9.3,13.5c1.4,0.6,2,0.8,2.7,1.3c0.8,0.5,1.3,0.9,2.5,2c2.7-4.8,5-8.8,8.2-14.1c4.4,2.8,8.8,5.6,13.1,8.7
			c-1.2,1.8-6.2,8.9-9.4,13.3c1,0.5,1.6,0.7,2.9,1.5c1.1,0.7,1.7,1.3,2.4,1.9c0.9-1.8,4-6.9,7.7-12.9c2.3-3.6,4.8-7.1,7.1-10.6
			c-5.6-3-10.4-5.9-17.2-10.2L-372.8-290.3"/>
	</g>
</g>
</svg>
