<?xml version="1.0" encoding="utf-8"?>
<!-- Generator: Adobe Illustrator 17.1.0, SVG Export Plug-In . SVG Version: 6.00 Build 0)  -->
<!DOCTYPE svg PUBLIC "-//W3C//DTD SVG 1.1//EN" "http://www.w3.org/Graphics/SVG/1.1/DTD/svg11.dtd">
<svg version="1.1" xmlns="http://www.w3.org/2000/svg" xmlns:xlink="http://www.w3.org/1999/xlink" x="0px" y="0px"
	 viewBox="48.3 3.6 621.4 717.4" enable-background="new 48.3 3.6 621.4 717.4" xml:space="preserve">
<g id="Layer_1" inkscape:version="0.48.4 r9939" sodipodi:version="0.32" sodipodi:docname="Flag_of_the_U.S._National_Security_Agency.svg" inkscape:output_extension="org.inkscape.output.svg.inkscape" xmlns:inkscape="http://www.inkscape.org/namespaces/inkscape" xmlns:dc="http://purl.org/dc/elements/1.1/" xmlns:svg="http://www.w3.org/2000/svg" xmlns:rdf="http://www.w3.org/1999/02/22-rdf-syntax-ns#" xmlns:cc="http://creativecommons.org/ns#" xmlns:sodipodi="http://sodipodi.sourceforge.net/DTD/sodipodi-0.dtd">
	<polygon fill="#E0AF35" points="645,168.6 410.1,33 359,3.6 308,33 73.1,168.6 48.3,182.9 48.3,541.7 73.1,556 310.9,693.3 
		359,721 407.2,693.3 645,556 669.7,541.7 669.7,182.9 	"/>
</g>
<g id="Layer_2">
	<g>
		<g id="path5">
			<path inkscape:connector-curvature="0" fill="#E0AF35" d="M359,651.9c159.9,0,289.6-129.7,289.6-289.6
				C648.6,202.4,519,72.7,359,72.7c-159.9,0-289.6,129.7-289.6,289.6C69.4,522.2,199.1,651.9,359,651.9z"/>
		</g>
		<g id="path7">
			<path inkscape:connector-curvature="0" fill="#FFFFFF" d="M359,643.2c155.2,0,281.1-125.8,281.1-281.1
				C640.1,206.9,514.3,81,359,81C203.8,81,78,206.9,78,362.1C78,517.4,203.8,643.2,359,643.2z"/>
		</g>
		<g id="path9">
			<path inkscape:connector-curvature="0" fill="#E0AF35" d="M359,584.7c122.9,0,222.6-99.6,222.6-222.6
				c0-122.9-99.7-222.6-222.6-222.6c-122.9,0-222.6,99.6-222.6,222.6C136.5,485,236.1,584.7,359,584.7L359,584.7z"/>
		</g>
		<g id="path11">
			<path inkscape:connector-curvature="0" fill="#124471" d="M359,579.2c119.9,0,217.1-97.2,217.1-217.1
				C576.1,242.2,478.9,145,359,145C239.2,145,142,242.2,142,362.1C142,482,239.2,579.2,359,579.2L359,579.2z"/>
		</g>
		<g id="polyline13">
			<polyline fill="#FFFFFF" points="374.4,392.8 353.7,392.6 374.4,390.6 			"/>
			<path d="M374.4,392.8l-20.7-0.2c0,0,0,0,0,0s0,0,0,0l20.7-2l0,0.1l-20.2,1.9L374.4,392.8L374.4,392.8z"/>
		</g>
		<g id="path15">
			<path inkscape:connector-curvature="0" fill="#FFFFFF" d="M344.3,508.4l9.4,5l9.7-5l-9.7-104.7L344.3,508.4L344.3,508.4z
				 M353.7,401.3L387,503l7.4,2.9l4.3-5.8L353.7,401.3z M387.1,503.5l-4.8,6.2l-7.1-3l-21.5-104.8L387.1,503.5z M375.2,507l-5.1,4
				l-6.7-2.6l-9.6-105.2L375.2,507L375.2,507z M353.7,401.3L320.3,503l-7.4,2.9l-4.3-5.8L353.7,401.3z M320.2,503.5l4.9,6.2l7.1-3
				l21.5-104.8L320.2,503.5L320.2,503.5z M332.2,507l5.1,4l6.7-2.6l9.6-105.2L332.2,507L332.2,507z"/>
			<path fill="#FFFFFF" d="M353.7,513.5C353.7,513.5,353.7,513.5,353.7,513.5l-9.4-5c0,0,0,0,0-0.1l3.1-34.9l-3.2,35
				c0,0,0,0.1-0.1,0.1l-6.7,2.6c0,0-0.1,0-0.1,0l-5.1-4c0,0,0-0.1,0-0.1l0-0.1l-7,3c0,0-0.1,0-0.1,0l-4.9-6.2c0,0,0-0.1,0-0.1
				l0.1-0.3l-7.3,2.9c0,0-0.1,0-0.1,0l-4.3-5.8c0,0,0-0.1,0-0.1l45-98.9c0,0,0,0,0,0l0,0l0,0v0l0,0c0,0,0,0,0,0l0,0c0,0,0,0,0,0l0,0
				l0,0c0,0,0,0,0,0c0,0,0,0,0,0l0,0h0c0,0,0,0,0,0l0,0l0,0l0,0l0,0c0,0,0,0,0,0h0l0,0c0,0,0,0,0,0c0,0,0,0,0,0l0,0h0l0,0
				c0,0,0,0,0,0c0,0,0,0,0,0l0,0c0,0,0,0,0,0l0,0c0,0,0,0,0,0l0,0l0,0l0,0c0,0,0,0,0,0l0,0c0,0,0,0,0,0c0,0,0,0,0,0l0,0c0,0,0,0,0,0
				l0,0l0,0c0,0,0,0,0,0l0,0c0,0,0,0,0,0l45,98.9c0,0,0,0.1,0,0.1l-4.3,5.8c0,0-0.1,0-0.1,0l-7.3-2.9l0.1,0.3c0,0,0,0.1,0,0.1
				l-4.8,6.2c0,0-0.1,0-0.1,0l-7-3l0,0.1c0,0,0,0.1,0,0.1l-5.1,4c0,0-0.1,0-0.1,0l-6.7-2.6c0,0,0,0,0,0L353.7,513.5
				C353.7,513.5,353.7,513.5,353.7,513.5z M344.4,508.3l9.3,5l9.5-4.9l-6.9-75.8l-2.6-28L344.4,508.3z M363.5,508.4l6.6,2.5l5-4
				l-21.2-102.1l2.5,27.7L363.5,508.4C363.5,508.4,363.5,508.4,363.5,508.4z M332.3,507l5,4l6.6-2.6l9.5-103.5L332.3,507z
				 M320.3,503.5l4.8,6.1l7-3l21.2-103.2L320.3,503.5z M375.3,506.7l7,3l4.8-6.1l-33-100L375.3,506.7z M387.1,503l7.3,2.9l4.2-5.7
				l-44.3-97.4L387.1,503z M308.8,500.2l4.2,5.7l7.3-2.9l32.8-100.2L308.8,500.2z M353.8,403.3l9.2,44.6l-9.3-45.4l-9.2,44.6
				l9.1-43.7c0,0,0-0.1,0.1-0.1C353.7,403.2,353.7,403.2,353.8,403.3C353.8,403.2,353.8,403.3,353.8,403.3z M353.8,401.9
				L353.8,401.9l5.8,17.7l-5.9-18.1l-5.6,17.2l5.6-16.9c0,0,0,0,0,0c0,0,0,0,0,0l0,0c0,0,0,0,0,0l0,0c0,0,0,0,0,0c0,0,0,0,0,0l0,0
				l0,0C353.7,401.9,353.7,401.9,353.8,401.9L353.8,401.9L353.8,401.9C353.7,401.9,353.7,401.9,353.8,401.9
				C353.7,401.9,353.7,401.9,353.8,401.9L353.8,401.9C353.7,401.9,353.7,401.9,353.8,401.9C353.7,401.9,353.7,401.9,353.8,401.9
				C353.8,401.9,353.8,401.9,353.8,401.9L353.8,401.9C353.8,401.9,353.8,401.9,353.8,401.9L353.8,401.9
				C353.8,401.9,353.8,401.9,353.8,401.9L353.8,401.9z"/>
		</g>
		<g id="polygon17">
			<polygon fill="#FFFFFF" points="363.4,508.4 353.7,403.6 344.3,508.4 344.3,508.4 353.7,513.4 			"/>
			<path d="M353.7,513.4C353.7,513.4,353.7,513.4,353.7,513.4l-9.4-5c0,0,0,0,0,0l9.4-104.7c0,0,0,0,0,0c0,0,0,0,0,0l9.7,104.7
				c0,0,0,0,0,0L353.7,513.4C353.7,513.4,353.7,513.4,353.7,513.4z M344.3,508.3l9.3,5l9.7-5l-9.7-104.4L344.3,508.3z"/>
		</g>
		<g id="path19">
			<path d="M353.7,509L353.7,509l-0.1-105.2h0.1V509z M353.7,392.6L353.7,392.6l20.4-1l0,0.1L353.7,392.6z"/>
		</g>
		<g id="polyline21">
			<polyline fill="#FFFFFF" points="373.9,394.9 353.7,393.1 373.6,392.8 			"/>
			<path d="M373.9,394.9l-20.2-1.8c0,0,0,0,0,0s0,0,0,0l19.9-0.3l0,0.1l-19.4,0.3L373.9,394.9L373.9,394.9z"/>
		</g>
		<g id="line23">
			
				<rect x="353.7" y="393.4" transform="matrix(0.9994 3.564744e-002 -3.564744e-002 0.9994 14.2557 -12.71)" width="19.8" height="0.1"/>
		</g>
		<g id="polyline25">
			<polyline fill="#FFFFFF" points="374,397.1 353.7,393.6 373.9,394.9 			"/>
			<path d="M374,397.1l-20.3-3.5c0,0,0,0,0,0c0,0,0,0,0,0c0,0,0,0,0,0l20.2,1.3l0,0.1l-19.7-1.2L374,397.1L374,397.1z"/>
		</g>
		<g id="line27">
			<rect x="353.6" y="394.8" transform="matrix(0.9934 0.1145 -0.1145 0.9934 47.5908 -39.0532)" width="20.4" height="0.1"/>
		</g>
		<g id="polyline29">
			<polyline fill="#FFFFFF" points="373.6,399.3 353.7,394.2 373.9,397.1 			"/>
			<path d="M373.6,399.3l-19.9-5.1c0,0,0,0,0,0c0,0,0,0,0,0l20.2,2.8l0,0.1l-19.7-2.7L373.6,399.3L373.6,399.3z"/>
		</g>
		<g id="line31">
			<rect x="353.5" y="396.3" transform="matrix(0.9806 0.196 -0.196 0.9806 84.7457 -63.6545)" width="20.9" height="0.1"/>
		</g>
		<g id="polyline33">
			<polyline fill="#FFFFFF" points="373.5,401.7 353.7,394.8 373.9,399.4 			"/>
			<path d="M373.5,401.8l-19.9-6.9c0,0,0,0,0,0c0,0,0,0,0,0l20.2,4.5l0,0.1l-19.7-4.4L373.5,401.8L373.5,401.8z"/>
		</g>
		<g id="line35">
			<rect x="353.3" y="397.9" transform="matrix(0.9598 0.2807 -0.2807 0.9598 126.3367 -86.2218)" width="21.8" height="0.1"/>
		</g>
		<g id="polyline37">
			<polyline fill="#FFFFFF" points="374.3,404.8 353.7,395.5 374.4,402.2 			"/>
			<path d="M374.3,404.8l-20.6-9.3c0,0,0,0,0,0c0,0,0,0,0,0l20.7,6.7l0,0.1l-20.2-6.5L374.3,404.8L374.3,404.8z"/>
		</g>
		<g id="line39">
			<rect x="353" y="399.4" transform="matrix(0.9354 0.3535 -0.3535 0.9354 164.7192 -102.9096)" width="22.1" height="0.1"/>
		</g>
		<g id="polyline41">
			<polyline fill="#FFFFFF" points="375.3,408.7 353.7,396.1 374.3,404.8 			"/>
			<path d="M375.3,408.8l-21.6-12.7c0,0,0,0,0,0c0,0,0,0,0,0l20.6,8.7l0,0.1l-20.1-8.5L375.3,408.8L375.3,408.8z"/>
		</g>
		<g id="line43">
			<rect x="352.4" y="401.6" transform="matrix(0.8914 0.4531 -0.4531 0.8914 221.5562 -121.5982)" width="24.4" height="0.1"/>
		</g>
		<g id="polyline45">
			<polyline fill="#FFFFFF" points="376.2,413.5 353.7,396.7 375.1,408.6 			"/>
			<path d="M376.2,413.6l-22.5-16.9c0,0,0,0,0,0c0,0,0,0,0,0l21.4,11.9l0,0.1l-21-11.7L376.2,413.6L376.2,413.6z"/>
		</g>
		<g id="line47">
			<rect x="351.5" y="404" transform="matrix(0.8364 0.5481 -0.5481 0.8364 281.1551 -133.9443)" width="27" height="0.1"/>
		</g>
		<g id="polyline49">
			<polyline fill="#FFFFFF" points="376.7,419 353.7,397.4 376.5,413.6 			"/>
			<path d="M376.7,419l-23-21.6c0,0,0,0,0,0c0,0,0,0,0,0l22.8,16.2l0,0L354,397.7L376.7,419L376.7,419z"/>
		</g>
		<g id="line51">
			<rect x="350.4" y="406.6" transform="matrix(0.7734 0.6339 -0.6339 0.7734 340.4573 -139.1857)" width="29" height="0.1"/>
		</g>
		<g id="polyline53">
			<polyline fill="#FFFFFF" points="377.4,426.4 353.7,398.3 376.7,418.8 			"/>
			<path d="M377.4,426.4l-23.7-28.1c0,0,0,0,0,0c0,0,0,0,0,0l23,20.5l0,0L354,398.6L377.4,426.4L377.4,426.4z"/>
		</g>
		<g id="line55">
			<rect x="348.5" y="410.4" transform="matrix(0.6936 0.7203 -0.7203 0.6936 407.5833 -137.4601)" width="33.7" height="0.1"/>
		</g>
		<g id="polyline57">
			<polyline fill="#FFFFFF" points="378.1,436.8 353.7,399.1 377.5,426.4 			"/>
			<path d="M378,436.8l-24.4-37.7c0,0,0,0,0,0c0,0,0,0,0,0l23.9,27.3l0,0l-23.6-27L378,436.8L378,436.8z"/>
		</g>
		<g id="line59">
			<rect x="346.3" y="414" transform="matrix(0.6062 0.7953 -0.7953 0.6062 473.0573 -127.2949)" width="37.5" height="0.1"/>
		</g>
		<g id="polyline61">
			<polyline fill="#FFFFFF" points="381.6,462.6 353.7,400.3 378.2,436.8 			"/>
			<path d="M381.5,462.6l-27.9-62.3c0,0,0,0,0,0c0,0,0,0,0,0l24.5,36.4l0,0l-24.3-36.2L381.5,462.6L381.5,462.6z"/>
		</g>
		<g id="line63">
			<rect x="340.2" y="423.2" transform="matrix(0.4844 0.8748 -0.8748 0.4844 559.1129 -102.3049)" width="52.3" height="0.1"/>
		</g>
		<g id="polygon65">
			<polygon fill="#FFFFFF" points="394.4,506 398.7,500.2 353.7,401.3 353.7,401.3 387,503 			"/>
			<path d="M394.4,506C394.4,506,394.4,506,394.4,506l-7.4-2.9c0,0,0,0,0,0l-33.3-101.8c0,0,0,0,0,0c0,0,0,0,0,0l45,98.9
				c0,0,0,0,0,0L394.4,506C394.5,506,394.4,506,394.4,506z M387.1,503l7.4,2.9l4.2-5.8l-44.8-98.4L387.1,503z"/>
		</g>
		<g id="line67">
			<rect x="319" y="452" transform="matrix(0.3641 0.9314 -0.9314 0.3641 658.5657 -60.436)" width="109" height="0.1"/>
		</g>
		<g id="polygon69">
			<polygon fill="#FFFFFF" points="375.2,506.7 353.7,401.9 387.1,503.5 387.1,503.5 382.3,509.7 			"/>
			<path d="M382.3,509.8C382.3,509.8,382.3,509.8,382.3,509.8l-7.1-3c0,0,0,0,0,0l-21.5-104.8c0,0,0,0,0,0c0,0,0,0,0,0c0,0,0,0,0,0
				l33.5,101.6c0,0,0,0,0,0L382.3,509.8C382.3,509.8,382.3,509.8,382.3,509.8z M375.2,506.7l7.1,3l4.8-6.2l-33.3-101.1L375.2,506.7z
				"/>
		</g>
		<g id="line71">
			<rect x="313.3" y="454.3" transform="matrix(0.2551 0.9669 -0.9669 0.2551 713.1134 -16.8901)" width="108.4" height="0.1"/>
		</g>
		<g id="polygon73">
			<polygon fill="#FFFFFF" points="363.3,508.4 353.7,403.3 375.2,507 375.2,507 370.1,511 			"/>
			<path d="M370.1,511.1C370,511.1,370,511.1,370.1,511.1l-6.7-2.6c0,0,0,0,0,0l-9.6-105.2c0,0,0,0,0,0c0,0,0,0,0,0L375.2,507
				c0,0,0,0,0,0L370.1,511.1C370.1,511.1,370.1,511.1,370.1,511.1z M363.4,508.4l6.7,2.6l5.1-4l-21.4-103.2L363.4,508.4z"/>
		</g>
		<g id="line75">
			<rect x="308.2" y="456" transform="matrix(0.1472 0.9891 -0.9891 0.1472 759.4138 31.3053)" width="106.8" height="0.1"/>
		</g>
		<g id="polyline77">
			<polyline fill="#FFFFFF" points="332.9,392.8 353.7,392.6 332.9,390.6 			"/>
			<path d="M332.9,392.8L332.9,392.8l20.2-0.2l-20.2-1.9l0-0.1l20.7,2c0,0,0,0,0,0c0,0,0,0,0,0L332.9,392.8z"/>
		</g>
		<g id="line79">
			
				<rect x="333.3" y="392.1" transform="matrix(0.999 4.431686e-002 -4.431686e-002 0.999 17.7146 -14.8368)" width="20.4" height="0.1"/>
		</g>
		<g id="polyline81">
			<polyline fill="#FFFFFF" points="333.4,394.9 353.7,393.1 333.8,392.8 			"/>
			<path d="M333.4,394.9L333.4,394.9l19.7-1.8l-19.4-0.3l0-0.1l19.9,0.3c0,0,0,0,0,0c0,0,0,0,0,0L333.4,394.9z"/>
		</g>
		<g id="line83">
			<rect x="333.9" y="393.4" width="19.8" height="0.1"/>
		</g>
		<g id="polyline85">
			<polyline fill="#FFFFFF" points="333.4,397.1 353.7,393.6 333.4,394.9 			"/>
			<path d="M333.4,397.1L333.4,397.1l19.7-3.4l-19.7,1.2l0-0.1l20.3-1.3c0,0,0,0,0,0c0,0,0,0,0,0c0,0,0,0,0,0L333.4,397.1z"/>
		</g>
		<g id="line87">
			<rect x="343.5" y="384.6" transform="matrix(0.1047 0.9945 -0.9945 0.1047 700.248 11.8006)" width="0.1" height="20.4"/>
		</g>
		<g id="polyline89">
			<polyline fill="#FFFFFF" points="333.8,399.3 353.7,394.2 333.4,397.1 			"/>
			<path d="M333.8,399.3L333.8,399.3l19.4-5l-19.7,2.7l0-0.1l20.3-2.8c0,0,0,0,0,0c0,0,0,0,0,0L333.8,399.3z"/>
		</g>
		<g id="line91">
			<rect x="343.4" y="385.8" transform="matrix(0.1859 0.9826 -0.9826 0.1859 668.9764 -14.8249)" width="0.1" height="20.9"/>
		</g>
		<g id="polyline93">
			<polyline fill="#FFFFFF" points="333.8,401.7 353.7,394.8 333.5,399.4 			"/>
			<path d="M333.8,401.8L333.8,401.8l19.3-6.8l-19.7,4.4l0-0.1l20.2-4.5c0,0,0,0,0,0c0,0,0,0,0,0L333.8,401.8z"/>
		</g>
		<g id="line95">
			<rect x="343.2" y="387" transform="matrix(0.2922 0.9564 -0.9564 0.2922 623.463 -46.6326)" width="0.1" height="21.8"/>
		</g>
		<g id="polyline97">
			<polyline fill="#FFFFFF" points="333.1,404.8 353.7,395.5 333,402.2 			"/>
			<path d="M333.1,404.8L333.1,404.8l20.1-9.1l-20.2,6.5l0-0.1l20.7-6.7c0,0,0,0,0,0c0,0,0,0,0,0L333.1,404.8z"/>
		</g>
		<g id="line99">
			<rect x="343.3" y="388.3" transform="matrix(0.3482 0.9374 -0.9374 0.3482 598.2142 -61.4986)" width="0.1" height="22.2"/>
		</g>
		<g id="polyline101">
			<polyline fill="#FFFFFF" points="332.1,408.7 353.7,396.1 333.1,404.8 			"/>
			<path d="M332.1,408.8L332.1,408.8l21.2-12.5l-20.1,8.5l0-0.1l20.6-8.7c0,0,0,0,0,0c0,0,0,0,0,0L332.1,408.8z"/>
		</g>
		<g id="line103">
			<rect x="342.8" y="389.4" transform="matrix(0.4472 0.8944 -0.8944 0.4472 548.7108 -84.6246)" width="0.1" height="24.4"/>
		</g>
		<g id="polyline105">
			<polyline fill="#FFFFFF" points="331.2,413.5 353.7,396.7 332.3,408.6 			"/>
			<path d="M331.2,413.6L331.2,413.6l22.1-16.6l-21,11.7l0-0.1l21.4-11.9c0,0,0,0,0,0c0,0,0,0,0,0L331.2,413.6z"/>
		</g>
		<g id="line107">
			<rect x="342.4" y="390.6" transform="matrix(0.5487 0.836 -0.836 0.5487 492.3579 -103.8828)" width="0.1" height="27"/>
		</g>
		<g id="polyline109">
			<polyline fill="#FFFFFF" points="330.6,419 353.7,397.4 330.9,413.6 			"/>
			<path d="M330.6,419L330.6,419l22.7-21.3l-22.4,15.9l0,0l22.8-16.2c0,0,0,0,0,0c0,0,0,0,0,0L330.6,419z"/>
		</g>
		<g id="line111">
			<rect x="342.4" y="392.1" transform="matrix(0.6376 0.7704 -0.7704 0.6376 437.3771 -116.4635)" width="0.1" height="29"/>
		</g>
		<g id="polyline113">
			<polyline fill="#FFFFFF" points="330,426.4 353.7,398.3 330.7,418.8 			"/>
			<path d="M330,426.4L330,426.4l23.4-27.9l-22.7,20.2l0,0l23-20.5c0,0,0,0,0,0c0,0,0,0,0,0L330,426.4z"/>
		</g>
		<g id="line115">
			<rect x="342" y="393.5" transform="matrix(0.7203 0.6936 -0.6936 0.7203 380.3256 -122.4378)" width="0.1" height="33.7"/>
		</g>
		<g id="polyline117">
			<polyline fill="#FFFFFF" points="329.3,436.8 353.7,399.1 329.8,426.4 			"/>
			<path d="M329.3,436.8L329.3,436.8l24.1-37.4l-23.6,27l0,0l23.9-27.3c0,0,0,0,0,0c0,0,0,0,0,0L329.3,436.8z"/>
		</g>
		<g id="line119">
			<rect x="342.3" y="395.3" transform="matrix(0.7936 0.6084 -0.6084 0.7936 322.5531 -122.8226)" width="0.1" height="37.5"/>
		</g>
		<g id="polyline121">
			<polyline fill="#FFFFFF" points="325.8,462.6 353.7,400.3 329.2,436.8 			"/>
			<path d="M325.8,462.6L325.8,462.6l27.7-62l-24.3,36.2l0,0l24.5-36.4c0,0,0,0,0,0c0,0,0,0,0,0L325.8,462.6z"/>
		</g>
		<g id="line123">
			<rect x="341" y="397.1" transform="matrix(0.8779 0.4789 -0.4789 0.8779 244.2955 -111.6236)" width="0.1" height="52.3"/>
		</g>
		<g id="polygon125">
			<polygon fill="#FFFFFF" points="312.9,506 308.7,500.2 353.7,401.3 353.7,401.3 320.3,503 			"/>
			<path d="M312.9,506C312.9,506,312.9,506,312.9,506l-4.3-5.8c0,0,0,0,0,0l45-98.9c0,0,0,0,0,0c0,0,0,0,0,0L320.4,503c0,0,0,0,0,0
				L312.9,506C312.9,506,312.9,506,312.9,506z M308.7,500.2l4.2,5.8l7.4-2.9l33.2-101.2L308.7,500.2z"/>
		</g>
		<g id="line127">
			<rect x="333.8" y="397.5" transform="matrix(0.9285 0.3714 -0.3714 0.9285 191.7624 -91.654)" width="0.1" height="109"/>
		</g>
		<g id="polygon129">
			<polygon fill="#FFFFFF" points="332.2,506.7 353.7,401.9 320.2,503.5 320.2,503.5 325.1,509.7 			"/>
			<path d="M325.1,509.8C325.1,509.8,325.1,509.8,325.1,509.8l-4.9-6.2c0,0,0,0,0,0l33.5-101.6c0,0,0,0,0,0c0,0,0,0,0,0l-21.5,104.8
				c0,0,0,0,0,0L325.1,509.8C325.1,509.8,325.1,509.8,325.1,509.8z M320.3,503.5l4.8,6.2l7.1-3l21.4-104.3L320.3,503.5z"/>
		</g>
		<g id="line131">
			<rect x="339.8" y="400.1" transform="matrix(0.9654 0.2609 -0.2609 0.9654 130.318 -72.9347)" width="0.1" height="108.4"/>
		</g>
		<g id="polygon133">
			<polygon fill="#FFFFFF" points="344,508.4 353.7,403.3 332.2,507 332.2,507 337.3,511 			"/>
			<path d="M337.3,511.1C337.3,511.1,337.3,511.1,337.3,511.1l-5.1-4c0,0,0,0,0,0l21.5-103.7c0,0,0,0,0,0c0,0,0,0,0,0l-9.6,105.2
				c0,0,0,0,0,0L337.3,511.1C337.3,511.1,337.3,511.1,337.3,511.1z M332.2,507l5.1,4l6.7-2.6l9.6-104.6L332.2,507z"/>
		</g>
		<g id="line135">
			<rect x="345.8" y="402.7" transform="matrix(0.9871 0.1601 -0.1601 0.9871 77.4631 -49.476)" width="0.1" height="106.8"/>
		</g>
		<g id="path137">
			<path inkscape:connector-curvature="0" fill="#B2B2B2" d="M517.5,489.3c0,0-5-0.7-7.9-3.7c-2.1-2.2-5.4-9.7-5.4-9.7
				c-4.5-10.1-10.8-19.6-21.7-19.6c-10.8,0-23.3,12.5-27.8,22.7c0,0-0.8,1.5-1.7,2.2c-0.9,0.7-2.7,0.5-2.7,0.5h-223
				c-4.4,0-7.9,3.4-8.2,7.7v0c0.3,4.3,3.8,7.7,8.2,7.7h223c0,0,1.8-0.2,2.7,0.5c0.9,0.7,1.7,2.2,1.7,2.2
				c4.5,10.1,16.9,22.7,27.8,22.7c10.9,0,17.2-9.5,21.7-19.6c0,0,3.3-7.5,5.4-9.7C512.5,490,517.5,489.3,517.5,489.3L517.5,489.3z"
				/>
			<path d="M482.5,522.3c-4.9,0-10.7-2.7-16.3-7.5c-4.9-4.3-9.2-10-11.5-15.1c0,0-0.8-1.5-1.7-2.2c-0.6-0.4-1.6-0.5-2.1-0.5
				c-0.3,0-0.5,0-0.5,0h-223c-4.3,0-7.9-3.4-8.2-7.7h0l0,0c0.3-4.3,3.9-7.7,8.2-7.7h223c0,0,0.2,0,0.5,0c0.6,0,1.6-0.1,2.2-0.5
				c0.9-0.7,1.7-2.1,1.7-2.2c2.3-5.2,6.6-10.8,11.5-15.1c5.5-4.9,11.3-7.5,16.3-7.5c2.6,0,5.1,0.6,7.3,1.7c2.1,1,4.1,2.5,5.9,4.4
				c3,3.2,5.7,7.5,8.5,13.6c0,0.1,3.3,7.6,5.4,9.7c2.9,3,7.9,3.7,7.9,3.7v0.1c-0.1,0-5,0.7-7.9,3.7c-2.1,2.1-5.3,9.6-5.4,9.7
				c-2.7,6.1-5.4,10.5-8.5,13.6c-1.8,1.9-3.8,3.4-5.9,4.4C487.6,521.8,485.1,522.3,482.5,522.3z M450.9,496.9c0.5,0,1.6,0.1,2.2,0.5
				c0.9,0.7,1.7,2.2,1.7,2.2c4.8,10.7,17.3,22.6,27.7,22.6c11.4,0,17.6-10.5,21.6-19.6c0-0.1,3.3-7.6,5.4-9.7
				c2.6-2.7,6.8-3.5,7.8-3.7c-0.9-0.2-5.2-1-7.8-3.7c-2.1-2.1-5.3-9.6-5.4-9.7c-4.1-9.1-10.2-19.6-21.6-19.6
				c-10.4,0-23,11.9-27.7,22.6c0,0-0.8,1.5-1.7,2.2c-0.6,0.5-1.7,0.5-2.2,0.5c-0.3,0-0.5,0-0.5,0h-223c-4.3,0-7.9,3.4-8.2,7.7
				c0.3,4.3,3.8,7.7,8.2,7.7h223C450.4,497,450.6,496.9,450.9,496.9z"/>
		</g>
		<g id="path139">
			<path d="M482.5,520.7c-2.4,0-4.9-0.8-7.7-2.4c-2.4-1.4-5-3.4-7.5-5.8c-4.5-4.4-8.5-10.1-10.6-14.9l-2.1-2.9c0,0,0,0,0,0
				c0,0,0,0,0,0l2.1,2.9c2.1,4.8,6.2,10.5,10.6,14.9C472.7,517.7,478.1,520.6,482.5,520.7c8.1-0.1,14.7-5.9,20-18
				c0-0.1,2.5-6.4,4.7-9.7c1.9-3,4.6-3.6,4.9-3.7v0h1.8l0,0.1c-2.8,1-5,2.3-5,2.3c0,0,0,0,0,0c0,0,0,0,0,0c0,0,2.1-1.3,4.9-2.3h-1.6
				c-0.1,0-2.8,0.6-4.8,3.7c-2.1,3.3-4.7,9.6-4.7,9.7c-2.3,5.3-4.9,9.4-7.8,12.4C491.2,518.8,487,520.7,482.5,520.7z M223.4,483.7
				C223.4,483.7,223.4,483.7,223.4,483.7C223.4,483.7,223.4,483.7,223.4,483.7c1.2-1.3,3-1.3,4-1.3c0.1,0,0.1,0,0.2,0h224.3
				c0,0,2.1-0.2,2.6-0.7c0.9-0.8,1.2-1.5,1.2-1.5c2-4.6,6.3-10.2,11.1-14.5c5.6-5,11.2-7.8,15.7-7.8c4.5,0,8.6,1.9,12.3,5.6
				c2.9,3,5.4,7,7.8,12.4c0,0,1.2,3.1,2.7,6.1c0,0,0,0,0,0c0,0,0,0,0,0c-1.4-3-2.7-6-2.7-6.1c-5.3-12.1-11.8-18-20-18
				c-4.5,0-10,2.8-15.6,7.8c-4.9,4.4-9.1,9.9-11.1,14.5c0,0-0.3,0.7-1.3,1.5c-0.5,0.4-2.5,0.7-2.6,0.7l-224.3,0c-0.1,0-0.1,0-0.2,0
				C226.4,482.4,224.7,482.5,223.4,483.7C223.4,483.7,223.4,483.7,223.4,483.7z"/>
		</g>
		<g id="path141">
			<path inkscape:connector-curvature="0" d="M509.6,489.3c0,0-2.2,0.8-3,2.8c-2.7,6.3-7.2,7.5-9.7,10.5c-2.5,3-4,6-6.5,8.4
				c-2.7,2.6-7.9,2-7.9,2s4.7-2.2,6.2-3c1.5-0.8,3.8-3.7,4-5.5c0.2-1.8,0-5,0-5s8.2-0.7,9.7-2.7c1.5-2,3-7.5,3-7.5L509.6,489.3
				 M459.3,489.3h-3.2c0,0,4.2-6.5,6.4-9c2.2-2.5,5-6.5,6.2-8.2c1.2-1.7,2.8-5,2.8-5l2.3,2.7l-2.5,9.5l-8,2.5L459.3,489.3"/>
		</g>
		<g id="path143">
			<path inkscape:connector-curvature="0" fill="#B2B2B2" d="M470.6,478.4c-0.1-0.6-0.1-0.2-0.1-0.8c-0.3-6.1,4.4-11.3,10.4-11.6
				c6.1-0.3,11.2,4.4,11.5,10.4c0,0.6,0.1,1.3,0,1.9c0.6-0.1,1.2-0.2,1.8-0.2c6.1-0.3,11.2,4.4,11.5,10.4
				c0.3,6.1-4.4,11.3-10.4,11.6c-0.6,0-1.6,0-2.2-0.1c0.1,0.6,0.3,1.4,0.3,2c0,6.1-4.9,11-11,11c-6.1,0-11-4.9-11-11
				c0-0.6,0-1.2,0.1-1.8c-0.6,0.1-1.2,0.1-1.8,0.1c-6.1,0-11-4.9-11-11c0-6.1,4.9-11,11-11C470.4,478.3,470,478.3,470.6,478.4
				L470.6,478.4z"/>
			<path d="M482.5,513c-6.1,0-11.1-5-11.1-11c0-0.6,0-1.2,0.1-1.8c-0.6,0.1-1.2,0.1-1.8,0.1c-6.1,0-11-5-11-11c0-6.1,5-11.1,11-11.1
				c0.4,0,0.4,0,0.4,0c0,0,0.1,0.1,0.3,0.1c-0.1-0.3-0.1-0.3-0.1-0.4c0-0.1,0-0.1,0-0.4c-0.3-6.1,4.4-11.3,10.5-11.6
				c0.2,0,0.4,0,0.5,0c5.9,0,10.7,4.6,11,10.5c0,0.6,0.1,1.2,0,1.8c0.6-0.1,1.3-0.2,1.8-0.2c0.2,0,0.4,0,0.6,0
				c5.9,0,10.7,4.6,11,10.5c0.2,2.9-0.9,5.8-2.8,8c-2,2.2-4.7,3.5-7.6,3.6c-0.1,0-0.3,0-0.5,0c-0.5,0-1.2,0-1.6-0.1
				c0,0.2,0.1,0.4,0.1,0.6c0.1,0.5,0.2,1,0.2,1.4C493.6,508.1,488.6,513,482.5,513z M471.7,500.2L471.7,500.2
				c-0.1,0.6-0.2,1.2-0.2,1.8c0,6.1,4.9,11,11,11c6.1,0,11-4.9,11-11c0-0.4-0.1-0.9-0.2-1.4c0-0.2-0.1-0.4-0.1-0.6l0,0l0,0
				c0.4,0.1,1.1,0.1,1.7,0.1c0.2,0,0.3,0,0.5,0c2.9-0.1,5.6-1.4,7.6-3.6c2-2.2,3-5,2.8-7.9c-0.3-5.8-5.1-10.4-11-10.4
				c-0.2,0-0.4,0-0.6,0c-0.5,0-1.1,0.1-1.8,0.2l0,0l0,0c0.1-0.6,0-1.2,0-1.9c-0.3-5.9-5.1-10.4-11-10.4c-0.2,0-0.4,0-0.5,0
				c-6.1,0.3-10.7,5.5-10.4,11.6c0,0.2,0,0.3,0,0.4c0,0.1,0,0.1,0.1,0.4l0,0.1l0,0c-0.3-0.1-0.3-0.1-0.4-0.1c0,0,0,0-0.4,0
				c-6.1,0-11,4.9-11,11c0,6.1,4.9,11,11,11C470.4,500.3,471,500.3,471.7,500.2L471.7,500.2z"/>
		</g>
		<g id="path145">
			<path inkscape:connector-curvature="0" fill="#124471" d="M490.3,497.1c1.5,0.8,3.2,1.3,4.9,1.2c5.1-0.3,9-4.6,8.7-9.7
				c-0.3-5.1-4.6-9-9.7-8.7c-1.8,0.1-3.5,0.7-4.8,1.7c0.8-1.5,1.2-3.1,1.1-5c-0.3-5.1-4.6-9-9.7-8.7c-5.1,0.3-9,4.6-8.7,9.7
				c0.1,1.1,0.3,2.2,0.7,3.2c-1-0.4-2.1-0.6-3.2-0.6c-5.1,0-9.2,4.1-9.2,9.2c0,5.1,4.1,9.2,9.2,9.2c1.8,0,3.5-0.5,4.9-1.4
				c-0.9,1.4-1.4,3.1-1.4,4.9c0,5.1,4.1,9.2,9.2,9.2c5.1,0,9.2-4.1,9.2-9.2C491.7,500.2,491.2,498.5,490.3,497.1L490.3,497.1z"/>
			<path d="M482.5,511.2c-5.1,0-9.3-4.1-9.3-9.2c0-1.7,0.5-3.4,1.3-4.8c-1.4,0.9-3,1.3-4.8,1.3c-5.1,0-9.2-4.1-9.2-9.2
				c0-5.1,4.1-9.3,9.2-9.3c1.1,0,2.1,0.2,3.1,0.5c-0.4-1-0.6-2-0.7-3.1c-0.1-2.5,0.7-4.8,2.4-6.7c1.7-1.8,3.9-2.9,6.4-3
				c0.2,0,0.3,0,0.5,0c4.9,0,9,3.9,9.2,8.8c0.1,1.8-0.3,3.4-1.1,4.9c1.4-1,3.1-1.5,4.7-1.6c0.2,0,0.3,0,0.5,0c4.9,0,9,3.9,9.2,8.8
				c0.1,2.5-0.7,4.8-2.4,6.7c-1.7,1.8-3.9,2.9-6.4,3c-0.2,0-0.3,0-0.5,0c-1.5,0-3-0.4-4.3-1.1c0.9,1.5,1.4,3.1,1.3,4.8
				C491.8,507.1,487.6,511.2,482.5,511.2z M474.7,497.1L474.7,497.1c-0.9,1.5-1.4,3.2-1.4,4.9c0,5.1,4.1,9.2,9.2,9.2
				c5.1,0,9.2-4.1,9.2-9.2c0-1.7-0.5-3.4-1.4-4.9l0,0c1.4,0.8,2.9,1.2,4.4,1.2c0.2,0,0.3,0,0.5,0c2.5-0.1,4.7-1.2,6.4-3
				c1.6-1.8,2.5-4.2,2.3-6.6c-0.2-4.9-4.3-8.7-9.2-8.7c-0.2,0-0.3,0-0.5,0c-1.7,0.1-3.4,0.6-4.8,1.6l0,0c0.8-1.5,1.2-3.2,1.1-5
				c-0.2-4.9-4.3-8.7-9.2-8.7c-0.2,0-0.3,0-0.5,0c-2.5,0.1-4.7,1.2-6.4,3c-1.6,1.8-2.5,4.2-2.4,6.6c0.1,1.1,0.3,2.1,0.7,3.1l0,0.1
				l-0.1,0c-1-0.4-2.1-0.6-3.2-0.6c-5.1,0-9.2,4.1-9.2,9.2c0,5.1,4.1,9.2,9.2,9.2C471.6,498.5,473.3,498,474.7,497.1z"/>
		</g>
		<g id="path147">
			<path d="M455.8,498.3C455.7,498.3,455.7,498.3,455.8,498.3c0,0-0.3-0.7-1.3-1.5c-0.5-0.4-2.6-0.7-2.6-0.7H227.6
				c-0.1,0-0.1,0-0.2,0c-1,0-2.8-0.1-4-1.3c0,0,0,0,0,0c0,0,0,0,0,0c1.3,1.2,3,1.3,4,1.3c0.1,0,0.1,0,0.2,0l0.1,0h224.1
				c0.1,0,2.1,0.2,2.6,0.7C455.5,497.6,455.8,498.3,455.8,498.3C455.8,498.3,455.8,498.3,455.8,498.3
				C455.8,498.3,455.8,498.3,455.8,498.3z"/>
		</g>
		<g id="path149">
			<path inkscape:connector-curvature="0" d="M457.7,499.5c0,0-1.8-3.9-3.7-4.7c-1.8-0.8-5.5-0.5-5.5-0.5h-223
				c-1.4,0-4.5-1.8-4.5-4.3c0,0,1.8,2.8,4.5,2.9h223c0,0,4.6-0.3,5.9,0.7C455.8,494.6,457.7,499.5,457.7,499.5"/>
		</g>
		<g id="path151">
			<path inkscape:connector-curvature="0" fill="#B2B2B2" d="M443.9,501.8c1.7,0,3-1.4,3-3v-23c0-1.7-1.3-3-3-3c-1.7,0-3,1.4-3,3v23
				C440.9,500.5,442.2,501.8,443.9,501.8z"/>
			<path d="M443.9,501.9c-1.7,0-3-1.4-3-3.1v-23c0-1.7,1.4-3,3-3c1.7,0,3,1.4,3,3v23C446.9,500.5,445.6,501.9,443.9,501.9z
				 M443.9,472.8c-1.6,0-3,1.3-3,3v23c0,1.7,1.3,3,3,3c1.6,0,3-1.3,3-3v-23C446.9,474.2,445.5,472.8,443.9,472.8z"/>
		</g>
		<g id="path153">
			<path d="M443.9,500.9c-1.7,0-3-1.4-3-3h0.1C440.9,499.5,442.2,500.9,443.9,500.9c1.6-0.1,3-1.4,3-3h0.1
				C446.9,499.6,445.6,500.9,443.9,500.9z M446.9,477.2L446.9,477.2c-0.1-1.7-1.4-3-3-3c-1.6,0-3,1.3-3,3h-0.1c0-1.7,1.4-3.1,3-3.1
				C445.6,474.2,446.9,475.6,446.9,477.2z"/>
		</g>
		<g id="path155">
			<path inkscape:connector-curvature="0" d="M446.9,495.6c0,1.7-1.3,3-3,3c-1.7,0-3-1.3-3-3v0.6c0,1.7,1.3,3,3,3c1.7,0,3-1.4,3-3
				V495.6z"/>
			<path d="M443.9,499.3c-1.7,0-3-1.4-3-3v-0.6h0.1c0,1.6,1.3,3,3,3c1.6,0,3-1.3,3-3h0.1v0.6C446.9,497.9,445.5,499.3,443.9,499.3z
				 M440.9,496.2c0,1.6,1.3,3,3,3c1.6,0,3-1.3,3-3c-0.3,1.4-1.5,2.4-3,2.4C442.4,498.7,441.2,497.6,440.9,496.2z"/>
		</g>
		<g id="path157">
			<path inkscape:connector-curvature="0" fill="#94693C" d="M250.2,481c0.3-0.6,0.5-1.1,0.8-1.7"/>
		</g>
		<g id="path159">
			<path inkscape:connector-curvature="0" fill="#94693C" d="M220.1,471.6c5.1,1.6,10.4-2,14.7-5.1l0.7,0.9
				c-1.9,7.4-1.3,15.8-4.2,22.8l3.5,0.4l0.4-1.3c2.5-1.5,5.5-3.4,8.1-5.7c0,0,8.2-3.5,7.6-3.6l2.9-6.4c7.6-5.6,11.6-13.7,15.7-21.3
				c7.9-19.9,12.4-41.8,13.5-64.3c0,0,2.1-0.9,2.5-0.3c0.5,0.2,5.8-0.5,6.8-2.3l4.2,1l5.5-0.3c3.8-1,5.4-3.4,6.1-6.4l3.2-0.3
				l7.2-6.2c-1.9-2.3-2.9-3.8-4.9-6.7c0,0-11.1-14.2-14.4-41.3c-1.8-15,1.9-41.2,1.9-41.2h4.8c-5.8-2.7-12.6-6-16.5-11.7
				c-2.8-14.9,9.4-28,3.2-42.4c-10.9-17.7-34.7-18.9-52.1-12.5c-29.3,17.3-30.7,51.8-35.9,81.9l-4.8,68.4
				c-1.2,16.7,0.9,33.6-0.7,50.1c4-1.3,8-3.7,10.8-7.4c2.4,11.2,1.1,24,0,35.3c5.6-0.1,10.3-4.3,13.3-8.7l0.7,0.7
				c-0.4,11.2-1.9,22-4.5,32.1L220.1,471.6L220.1,471.6z M515,406.2c-12.3-38.4-6.4-81.9-14.2-122.1l0.7-2.9
				c-2.4-14.9-9.6-27.8-14.5-41.8c-5.6-11.6-11.1-25.2-24.1-32.1c-8.6-7.4-21.8-3.8-31.7-1.9c-9.8,4.1-23.8,11.4-23.6,24.4
				c-0.4,10.6,5.3,18.6,6.4,28.6c-0.3,12.2-14.8,20.9-23.1,25.8h15.2c0,0,3.1,13,2.6,29.8c-0.5,15.9-3,33.7-14,51.3
				c-0.4,0.6-5,7.6-12.8,16.2l15.9,5.5l1.3-4.3c0.4,0.7,0.9,0.7,1.6,1c1.5,0.8,3.8,0.4,5.6,0.6l3.4-0.3c2-0.7,3.9-2.3,4.4-4.5l2,0.7
				l0.9,0.7c1.9,0.3,5,1.1,6.2-0.7l2.5,4.2l1.6,7.1c8.6,22.2,9.4,49.1,31.4,64.2l1.9,0.9l3.9,1.6l10.3,15.1c2.9,3.8,6.7,5.8,10.3,8
				c1.5,0.2,3.7,4.6,4.8,3.4l1.6-4.3l-3-15.4c2.3,1,4.9,0.8,6.9,1.5l3.4-2.8c-2.9-9.4-4.6-19.5-6.2-29.6v-2.1
				c8,5.2,11.2,1.1,11.2,1.1c-2.5-10-4.1-22.5-4.8-34.4l1.4-0.4c1,2.3,2.2,4.4,3.8,6.3c1.7,1.7,4,3.1,6.4,2.5L515,406.2L515,406.2z"
				/>
			<path d="M234.8,490.7L234.8,490.7l-3.5-0.4l0,0c1.6-4,2.1-8.7,2.6-13.1c0.4-3.2,0.7-6.5,1.5-9.6l-0.6-0.9
				c-3.8,2.8-7.9,5.5-12.1,5.5l0,0c-0.9,0-1.8-0.1-2.6-0.4l0,0l-0.7-1.6l0,0c2.6-9.9,4.1-20.7,4.5-32.1l-0.6-0.6
				c-1.7,2.6-6.4,8.5-13.3,8.7l0,0l0.1-1.3c1-10.9,2.2-23.2-0.1-34c-2.6,3.3-6.4,5.9-10.8,7.3l0,0l0,0c0.8-8.7,0.6-17.6,0.5-26.3
				c-0.2-7.8-0.4-15.8,0.2-23.8l4.8-68.4c0.7-3.9,1.3-7.9,1.9-11.9c2.1-13.4,4.2-27.2,9-39.5c2.6-6.6,5.7-12.2,9.5-17.1
				c4.3-5.5,9.4-9.9,15.5-13.5c6.3-2.3,13.2-3.6,19.8-3.6c6.8,0,12.9,1.2,18.3,3.7c6,2.7,10.7,6.9,14,12.3c1.5,3.6,2,7.4,1.6,11.6
				c-0.4,3.8-1.5,7.7-2.5,11.4c-1.8,6.2-3.6,12.7-2.3,19.4c4,5.9,11.2,9.3,16.5,11.7l0,0.1h-4.8c-0.1,1-3.7,26.5-1.9,41.1
				c1.7,14,5.5,24.5,8.4,30.8c3.1,6.9,5.9,10.4,5.9,10.5c1.9,2.8,3,4.3,4.9,6.7l0,0l0,0l-7.2,6.2l0,0l-3.2,0.3
				c-0.9,3.5-2.8,5.5-6.1,6.4l-5.5,0.3l0,0l-4.2-1c-0.9,1.7-5.2,2.4-6.5,2.4c-0.2,0-0.3,0-0.4,0l0,0l0,0c-0.1-0.2-0.3-0.2-0.6-0.2
				c-0.7,0-1.8,0.4-1.9,0.5c-0.5,11.2-1.9,22.4-4.2,33.1c-2.3,10.8-5.4,21.3-9.3,31.2c-0.2,0.3-0.3,0.6-0.5,1
				c-3.9,7.3-7.8,14.9-15.2,20.3l-2.9,6.4c0,0,0,0,0,0c0,0.1,0,0.2-3.8,1.9c-1.8,0.8-3.7,1.6-3.8,1.7c-2.7,2.5-5.9,4.4-8,5.7
				L234.8,490.7z M231.4,490.2l3.4,0.4l0.4-1.3l0,0c2.1-1.2,5.3-3.2,8-5.7l0,0c3-1.3,7.4-3.2,7.6-3.5l0,0l0,0l2.9-6.4l0,0
				c7.3-5.4,11.3-13,15.1-20.3c0.2-0.3,0.3-0.6,0.5-1c7.9-19.9,12.4-41.5,13.5-64.3l0,0l0,0c0,0,1.2-0.5,1.9-0.5
				c0.3,0,0.5,0.1,0.6,0.2c0,0,0.1,0,0.3,0c1.2,0,5.5-0.7,6.4-2.4l0,0l0,0l4.2,1l5.5-0.3c3.3-0.8,5.2-2.9,6.1-6.3l0,0l0,0l3.2-0.3
				l7.1-6.2c-1.9-2.4-3-3.9-4.9-6.7c0,0-2.8-3.6-5.9-10.5c-1.8-4-3.5-8.4-4.8-12.9c-1.7-5.7-2.9-11.7-3.6-17.9
				c-0.9-7.7-0.4-18.5,0.3-26.2c0.7-8.3,1.6-14.9,1.6-15l0,0h4.7c-5.3-2.4-12.4-5.8-16.4-11.7l0,0c-1.3-6.7,0.5-13.2,2.3-19.4
				c2.2-7.8,4.3-15.1,0.9-23c-6.3-10.3-17.8-16-32.2-16c-6.6,0-13.5,1.2-19.8,3.6c-25.5,15-29.8,43-34,70c-0.6,3.9-1.2,8-1.9,11.9
				l-4.8,68.4c-0.6,7.9-0.4,16-0.2,23.7c0.2,8.6,0.4,17.6-0.5,26.3c4.4-1.5,8.2-4.1,10.8-7.3l0-0.1l0,0.1
				c2.3,10.8,1.2,23.2,0.1,34.1l-0.1,1.2c6.8-0.2,11.5-6.1,13.2-8.7l0,0l0,0l0.7,0.7v0c-0.4,11.4-1.9,22.2-4.5,32.1l0.7,1.6
				c0.8,0.3,1.7,0.4,2.6,0.4c4.2,0,8.3-2.7,12.1-5.5l0,0l0,0l0.7,0.9l0,0c-0.8,3.1-1.2,6.4-1.5,9.6
				C233.5,481.5,233,486.1,231.4,490.2z M489.5,484.9c-0.6,0-1.4-0.9-2.2-1.8c-0.8-0.9-1.5-1.7-2.2-1.8l0,0c-0.5-0.3-1-0.6-1.5-0.9
				c-3.1-1.9-6.3-3.9-8.8-7.1l-10.3-15.1l-3.9-1.6l-1.9-0.9c-3.9-2.7-7.2-5.7-10.2-9.4c-2.6-3.2-4.9-6.9-7-11.1
				c-3.8-7.9-6.2-16.6-8.6-25.1c-1.7-6.2-3.5-12.7-5.8-18.7l-1.6-7.1l-2.5-4.1c-0.5,0.7-1.4,1.1-2.7,1.1c-0.9,0-1.8-0.2-2.7-0.3
				c-0.3,0-0.5-0.1-0.8-0.1l0,0l-0.9-0.7l-2-0.7c-0.5,2.1-2.2,3.8-4.4,4.5l-3.4,0.3c-0.3,0-0.7,0-1.1,0c-0.2,0-0.5,0-0.7,0
				c-0.2,0-0.5,0-0.7,0c-1.1,0-2.2-0.1-3-0.5c-0.2-0.1-0.4-0.2-0.5-0.2c-0.4-0.2-0.8-0.3-1-0.7l-1.3,4.2l0,0l-15.9-5.6l0,0
				c8.2-9,12.8-16.1,12.8-16.2c11.5-18.4,13.5-37.1,14-51.3c0.5-16.3-2.4-29.2-2.5-29.8h-15.3l0.1-0.1c3.4-1.9,9.6-5.6,14.6-10.1
				c5.5-5.1,8.4-10.3,8.5-15.6c-0.5-4.3-1.8-8.4-3.1-12.3c-1.7-5.1-3.5-10.4-3.3-16.4c-0.1-3.1,0.7-6,2.2-8.7
				c1.3-2.4,3.3-4.7,5.8-6.8c4.9-4.1,11.2-7,15.6-8.9c0.9-0.2,1.9-0.4,2.9-0.6c4.7-0.9,9.9-2,15-2c5.9,0,10.4,1.5,13.9,4.4
				c5.3,2.8,9.8,7,13.8,12.8c3.5,5.1,6.2,10.7,8.8,16.2c0.5,1,1,2.1,1.5,3.1c1.6,4.6,3.5,9.2,5.3,13.7c3.7,8.9,7.5,18.2,9.1,28.1
				l0,0l0,0l-0.7,2.9c3.3,17.2,4.2,35.3,5,52.7c1.1,23.3,2.2,47.4,9.2,69.3l0,0l0,0l-4.1,0.9c-0.4,0.1-0.7,0.1-1.1,0.1c0,0,0,0,0,0
				c-2.2,0-4.1-1.5-5.4-2.7c-1.5-1.8-2.8-3.9-3.8-6.3l-1.4,0.4c0.7,12.7,2.4,24.9,4.8,34.4l0,0l0,0c0,0-1.2,1.5-4,1.5
				c-2.1,0-4.6-0.9-7.3-2.6v2l0.1,0.4c1.6,9.8,3.2,19.9,6.1,29.1l0,0l0,0l-3.4,2.8l0,0c-0.9-0.3-1.9-0.4-2.9-0.6
				c-1.3-0.2-2.7-0.4-4-0.9l2.9,15.4l0,0l-1.6,4.3C489.8,484.8,489.7,484.9,489.5,484.9z M485.1,481.2c0.7,0.1,1.5,1,2.2,1.9
				c0.8,0.9,1.5,1.7,2.1,1.7c0.2,0,0.3-0.1,0.4-0.2l1.6-4.3l-3-15.4l0.1,0c1.3,0.6,2.7,0.7,4,0.9c1,0.1,2,0.3,2.9,0.5l3.3-2.8
				c-2.9-9.2-4.5-19.4-6.1-29.1l-0.1-0.4l0-2.1l0,0c2.7,1.7,5.2,2.6,7.3,2.6c2.6,0,3.8-1.3,3.9-1.5c-2.4-9.5-4.1-21.7-4.8-34.4l0,0
				l0,0l1.5-0.4l0,0c1,2.4,2.3,4.5,3.8,6.3c1.2,1.2,3.1,2.7,5.3,2.7c0,0,0,0,0,0c0.4,0,0.7,0,1.1-0.1l4.1-0.9
				c-3.2-9.9-5.4-21-6.8-34c-1.3-11.6-1.8-23.7-2.4-35.3c-0.8-17.5-1.6-35.6-5-52.7l0,0l0,0l0.7-2.9c-1.6-9.9-5.4-19.1-9.1-28.1
				c-1.8-4.5-3.7-9.1-5.3-13.7c-0.5-1-1-2.1-1.5-3.1c-5-10.6-10.8-22.7-22.6-29c-3.5-3-8-4.4-13.9-4.4c-5,0-10.3,1.1-15,2
				c-1,0.2-1.9,0.4-2.9,0.6c-4.3,1.8-10.6,4.7-15.5,8.9c-5.4,4.6-8.1,9.8-8,15.5c-0.2,6,1.6,11.3,3.3,16.4c1.3,3.9,2.7,7.9,3.1,12.3
				c-0.1,2.9-0.9,5.7-2.6,8.5c-1.4,2.4-3.4,4.8-6,7.2c-4.9,4.5-11.1,8.1-14.5,10.1h15.1l0,0c0,0.1,3.1,13.2,2.6,29.8
				c-0.5,14.2-2.5,32.9-14,51.3c0,0.1-4.6,7.2-12.8,16.1l15.8,5.5l1.3-4.3l0,0.1c0.3,0.5,0.6,0.6,1,0.8c0.2,0.1,0.4,0.1,0.6,0.2
				c0.9,0.5,1.9,0.5,3,0.5c0.2,0,0.5,0,0.7,0c0.2,0,0.5,0,0.7,0c0.5,0,0.8,0,1.1,0l3.4-0.3c2.2-0.7,3.9-2.5,4.4-4.5l0,0l0,0l2,0.7
				l0.9,0.7c0.2,0,0.5,0.1,0.8,0.1c0.8,0.1,1.8,0.3,2.7,0.3c1.3,0,2.2-0.4,2.7-1.1l0,0l2.6,4.2l1.6,7.1c2.3,6,4.1,12.4,5.8,18.7
				c4.7,17,9.5,34.5,25.6,45.6l1.9,0.9l3.9,1.6l0,0l10.3,15.1c2.5,3.2,5.7,5.2,8.8,7.1C484.2,480.6,484.7,480.9,485.1,481.2z"/>
		</g>
		<g id="path161">
			<path inkscape:connector-curvature="0" fill="#FFFFFF" d="M381.1,284.1c-0.4-2.8-1.9-7.6-2.9-10.8c1.1-4.7-3.3-9.1-1.6-13.4
				c-2.9-8-3.6-16.1-3.9-24.8c-1.2-5.4-1.5-11.1-3.6-16.1c-2.5-5.7-10.1-7.7-14.7-8.7c-4.6-1-11.9-1.3-11.9-1.3
				c-2.1-0.2-5.8,1.2-5.5,2.8c2.6,4,2.3,7.9,1.6,11.2l-6.4,1.6c5.3,1.3,10.6,5.4,10.1,8.2c-0.8,2.4-4.8,2.8-5.3,2.4
				c0,0-7.4-6.5-8.3-6.8c-1-0.3-3.6-2.2-3.2-1.7c0.2,0.2,2.7,3.4,4.5,5.2c1.7,1.7,2.6,4.3,2.6,4.3c1.7,1.7,2.5,3.2,2.3,6.6l-2.3,6.4
				l-1.6,6.2c0,3.2-3.6,6.1-3.2,9.6c-1.2,2.5-2.9,5.5-2.3,8l-4.6,11H381.1L381.1,284.1L381.1,284.1z"/>
			<path d="M381.1,284.2h-60.2l0,0l4.5-11c-0.6-2.2,0.7-4.8,1.8-7c0.2-0.3,0.3-0.7,0.5-1c-0.2-1.9,0.7-3.6,1.6-5.2
				c0.8-1.5,1.6-2.9,1.6-4.4l0,0l1.6-6.2l2.3-6.4c0.2-3.4-0.6-4.9-2.2-6.6l0,0c0,0-0.9-2.6-2.6-4.3c-1.5-1.5-3.5-4-4.3-4.9
				c-0.1-0.2-0.2-0.3-0.3-0.3c0-0.1-0.1-0.1,0-0.1c0,0,0,0,0,0c0.1,0,0.4,0.2,1,0.6c0.7,0.5,1.7,1.1,2.3,1.2c1,0.3,8,6.6,8.3,6.8
				c0.1,0.1,0.4,0.2,0.8,0.2c1.4,0,3.8-0.7,4.4-2.5c0.2-1.3-0.8-3-2.8-4.6c-2-1.6-4.7-2.9-7.2-3.5v-0.1l6.4-1.6
				c0.7-3.3,1-7.2-1.6-11.1l0,0c-0.1-0.3,0-0.7,0.3-1c0.9-1.1,3.2-1.8,4.8-1.8c0.1,0,0.3,0,0.4,0c0.1,0,7.4,0.4,11.9,1.3
				c2.3,0.5,5.4,1.2,8.1,2.6c3.3,1.6,5.5,3.6,6.6,6.2c1.4,3.3,2,7,2.6,10.6c0.3,1.8,0.6,3.7,1,5.5c0.3,9.3,1.1,17.1,3.9,24.8l0,0
				l0,0c-0.9,2.2-0.1,4.5,0.7,6.8c0.7,2.1,1.5,4.3,0.9,6.6c0.2,0.6,0.4,1.3,0.6,1.9C379.7,278.2,380.8,281.9,381.1,284.2
				L381.1,284.2z M320.9,284.1H381c-0.3-2.3-1.4-5.9-2.3-8.8c-0.2-0.7-0.4-1.3-0.6-2l0,0l0,0c0.5-2.2-0.2-4.4-0.9-6.5
				c-0.8-2.4-1.6-4.6-0.7-6.8c-2.8-7.7-3.6-15.5-3.9-24.8c-0.4-1.8-0.7-3.7-1-5.5c-0.6-3.6-1.2-7.3-2.6-10.5
				c-2.4-5.4-9.1-7.5-14.7-8.7c-4.5-1-11.8-1.3-11.9-1.3c-0.1,0-0.3,0-0.4,0c-1.6,0-3.8,0.7-4.7,1.7c-0.3,0.3-0.4,0.7-0.3,1
				c2.6,4,2.3,7.9,1.6,11.2l0,0l0,0l-6.3,1.6c2.5,0.7,5.2,2,7.1,3.5c2.1,1.6,3.1,3.3,2.9,4.7c-0.6,1.9-3.1,2.6-4.5,2.6
				c-0.4,0-0.7-0.1-0.9-0.2c-0.1-0.1-7.4-6.5-8.3-6.8c-0.5-0.1-1.5-0.7-2.3-1.2c-0.4-0.3-0.8-0.5-1-0.6c0,0,0,0,0,0
				c0,0,0.1,0.2,0.3,0.3c0.7,0.9,2.7,3.4,4.3,4.9c1.7,1.7,2.6,4.2,2.6,4.3c1.7,1.8,2.5,3.2,2.3,6.6l0,0l-2.3,6.4l-1.6,6.2
				c0,1.5-0.8,2.9-1.6,4.4c-0.9,1.7-1.8,3.4-1.6,5.2l0,0l0,0c-0.2,0.3-0.3,0.7-0.5,1c-1.1,2.2-2.4,4.8-1.8,7l0,0l0,0L320.9,284.1z"
				/>
		</g>
		<g id="path163">
			<path inkscape:connector-curvature="0" fill="#E0AF35" d="M337,211.9c2.5,4,2.4,7.8,1.6,11.2l-6.4,1.6c5.3,1.3,10.6,5.4,10.1,8.2
				c-0.8,2.4-4.8,2.8-5.3,2.4c0,0-7.4-6.5-8.3-6.8c-1-0.3-3.6-2.2-3.2-1.7c0.2,0.2,2.7,3.4,4.5,5.2c1.7,1.7,2.6,4.3,2.6,4.3
				c-11-6-15.1-6.8-15.1-6.8l-1.6,1.8c-0.6-6.4-2.3-12.4,1.3-17.7C320.9,209.6,330.4,211,337,211.9L337,211.9z"/>
			<path fill="#E0AF35" d="M332.5,236.2c-10.5-5.8-14.8-6.7-15.1-6.8l-1.5,1.8l-0.1,0c-0.1-1.1-0.2-2.3-0.4-3.4
				c-0.7-5.2-1.3-10,1.7-14.4c1.7-1.8,4.6-2.6,9.1-2.6c3.5,0,7.5,0.6,10.6,1l0.1,0l0,0c2.7,4.4,2.2,8.5,1.6,11.2l0,0l0,0l-6.3,1.6
				c2.5,0.7,5.2,2,7.1,3.5c2.1,1.6,3.1,3.3,2.9,4.7c-0.6,1.9-3.1,2.6-4.5,2.6c-0.4,0-0.7-0.1-0.9-0.2c-0.1-0.1-7.4-6.5-8.3-6.8
				c-0.5-0.1-1.5-0.7-2.3-1.2c-0.4-0.3-0.8-0.5-1-0.6c0,0,0,0,0,0c0,0,0.1,0.2,0.3,0.3c0.7,0.9,2.7,3.4,4.2,4.9
				C331.7,233.6,332.6,236.2,332.5,236.2L332.5,236.2z M317.4,229.4L317.4,229.4c0.1,0,4.2,0.8,15.1,6.8c-0.2-0.4-1-2.7-2.6-4.2
				c-1.5-1.5-3.5-4-4.2-4.9c-0.1-0.2-0.2-0.3-0.3-0.3c0-0.1-0.1-0.1,0-0.1c0,0,0,0,0,0c0.1,0,0.4,0.2,1,0.6c0.7,0.5,1.7,1.1,2.3,1.2
				c0.9,0.3,8,6.6,8.3,6.8c0.1,0.1,0.4,0.2,0.8,0.2c1.4,0,3.8-0.7,4.4-2.5c0.2-1.3-0.8-3-2.8-4.6c-2-1.6-4.7-2.9-7.2-3.5v-0.1
				l6.4-1.6c0.6-2.7,1.1-6.8-1.6-11.1l0,0c-3.1-0.4-7-1-10.6-1c-4.4,0-7.4,0.9-9,2.6c-3,4.4-2.4,9.2-1.7,14.4
				c0.1,1.1,0.3,2.2,0.4,3.3L317.4,229.4z"/>
		</g>
		<g id="path165">
			<path d="M332.6,236.3L332.6,236.3c-10.6-5.2-14.8-6.7-15.1-6.8l-1.5,1.8l-0.1,0c-0.1-1.1-0.2-2.3-0.4-3.4
				c-0.7-5.2-1.3-10,1.7-14.4c1.6-1.7,4.5-2.6,8.8-2.6c0.1,0,0.2,0,0.3,0c3.6,0,7.5,0.6,10.6,1l0.1,0l0,0.1l-0.1,0
				c-3.2-0.4-7.1-1-10.6-1c-0.1,0-0.2,0-0.3,0c-4.3,0-7.1,0.9-8.7,2.6c-3,4.4-2.4,9.2-1.7,14.4c0.1,1.1,0.3,2.2,0.4,3.3l1.5-1.8l0,0
				C317.5,229.4,321.6,230.8,332.6,236.3L332.6,236.3L332.6,236.3z"/>
		</g>
		<g id="path167">
			<path inkscape:connector-curvature="0" d="M332.8,249.7c2.3-2.9,4.1-5.8,5.2-10.3c-0.5-0.4-0.5-0.9-1.1-1.3
				c-1,0.4-1.1,3.7-1.5,5.5L332.8,249.7 M327.9,228.4c0,0,6.2,4.5,9.1,7.3c2.5,0.6,5.2-0.5,5.9-3.1c0-1.4-2-3.8-4.6-5.6
				c-1-0.4-2.3-1.3-3.4-1.7c2.2,1.9,6.9,4.2,5.9,8.3c-2.1,2-3.1,1.2-4.3,0.2L327.9,228.4 M331.1,227.9l7.5,3.4c0,0,1.6,0,0-0.5
				c-6-2.7-11.1-9.6-18.2-6.7c-2.4,1.3-3.5,5-4.5,7.1l1.5-1.8c0,0,1.8-3.1,3-3.4c4.9-1.6,7.8,0.3,7.8,0.3L331.1,227.9 M336.4,222.7
				c-0.3,0.4,0.6,1.4,0.2,1.6c-1.2,0.6-4.4,0.4-6,0C331.5,224.1,334.7,221.5,336.4,222.7 M322.1,213.3c-3.8,2.7-4.1,5.6-5.6,9.7
				C316.1,218.1,317.6,212.7,322.1,213.3 M330.6,234.7c-5.5-4.2-6.2-4.3-12.3-6.6c0,0,0.4-0.5,0.7-1c6.3,2.5,8.8,4.8,8.8,4.8
				L330.6,234.7 M338.5,220.5l0.4,1.2c2.8-3,1.4-6.4-2-9.8l1.2,3.3C339.3,219,338.3,219.5,338.5,220.5"/>
		</g>
		<g id="path169">
			<path inkscape:connector-curvature="0" d="M339.2,223.2c2.8-0.4,3,4.5,6.4,4.2c2.8,0.1,5.4-1.7,6.7-4.6c2.3,0.3,4.2,0.5,6.2-0.5
				l0.3-0.4c-2,0.7-4.2,0.3-6.4-0.4c-2.8-0.9-5.5-2.9-7.9-2.9c-2.3-0.2-3.3,1.4-4.4,3.8L339.2,223.2L339.2,223.2z"/>
			<path d="M345.4,227.5c-1.6,0-2.5-1.2-3.3-2.3c-0.7-1-1.4-1.9-2.5-1.9c-0.1,0-0.2,0-0.3,0l0-0.1l1-0.7c1-2.2,1.9-3.8,4.1-3.8
				c0.1,0,0.2,0,0.3,0c1.4,0,3,0.8,4.7,1.6c1,0.5,2.1,1,3.2,1.3c1.6,0.5,2.9,0.8,4.1,0.8c0.8,0,1.6-0.1,2.3-0.4l0,0l-0.4,0.4
				c-1,0.5-2,0.8-3.3,0.8c-0.9,0-1.7-0.1-2.7-0.2l-0.2,0c-1.4,2.8-3.9,4.6-6.5,4.6c-0.1,0-0.2,0-0.3,0
				C345.6,227.5,345.5,227.5,345.4,227.5z M339.5,223.2c1.2,0,1.8,0.9,2.6,2c0.8,1.1,1.7,2.3,3.3,2.3c0.1,0,0.2,0,0.3,0
				c0.1,0,0.2,0,0.3,0c2.6,0,5-1.7,6.4-4.6l0,0l0.2,0c0.9,0.1,1.8,0.2,2.7,0.2c1.3,0,2.3-0.2,3.3-0.7l0.3-0.3
				c-0.7,0.2-1.4,0.4-2.2,0.4c-1.2,0-2.5-0.2-4.1-0.8c-1.1-0.3-2.1-0.8-3.2-1.3c-1.7-0.8-3.3-1.5-4.7-1.6c-0.1,0-0.2,0-0.3,0
				c-2.2,0-3.1,1.7-4.1,3.8l0,0l0,0l-0.9,0.6C339.4,223.2,339.5,223.2,339.5,223.2z"/>
		</g>
		<g id="path171">
			<path inkscape:connector-curvature="0" fill="#FFFFFF" d="M344,220.9c-0.1,1.5-0.6,3,1.4,3.7c2.4,0.5,2.8-1,3.3-2.7
				c0.3-0.2,2,0.4,2,0.7c-0.2,1.1-1.1,2.9-2.7,3.6c-1.2,0.3-2.1,0.4-3.1,0c-1.6-0.6-3-2.8-3-4.1C341.5,221.2,343.1,220.6,344,220.9"
				/>
		</g>
		<g id="path173">
			<path inkscape:connector-curvature="0" d="M323.2,284.1c1.6-0.3,2.9-1.9,4.5-2.3c0.7,0.8-2.7,1.5-2,2.3H323.2 M336.2,284.1
				c1.6-0.5,3.7-3.3,5.6-3.3c1.1,0.8-1.7,2.1-1.3,3.3H336.2 M355.7,284.1c1.3-0.7,3-3.4,4.8-3c1.6,0.5,0,1.7-0.6,3H355.7
				 M374.5,284.1l-1.2-1.8c-0.1-0.7-1.5-1.7-1-2.1c1.5,0.9,1.5,2.1,4.1,4H374.5 M344,259.6c-1.3,1.5-3.2,2.1-5.1,2.3
				c-1.2,0.3-2-0.4-2.9-0.9v-0.7c2.3,0.5,4,1.2,6.2,0C342.8,260,343.2,259.3,344,259.6 M356.6,258.5c-2.9,5.1-4.8,4.2-8.2,1.3
				c-0.7-0.3,3.5,1.2,4.5,0.8L356.6,258.5 M364,276.6c-2,0.4-3.6,3.3-5.7,1.3c-1.3-1.1-2.3-2.4-2-4.1c2,1.3,4,1.7,6.2,0.7
				c2-3.1,5.5-4.2,5.5-8C368.8,270,366.1,273.8,364,276.6 M347,278.2c-1.5-0.4-3.5,0.9-5.2,0c-1.7-1.2-1.5-3.3-2.1-5.1
				c2.1,2.3,3.9,2.9,6.4,2.5c2.1-2.4,5.6-5,7-8C351.8,271.5,349.5,275,347,278.2 M331.6,278.2c-1.2-1.1-2.4,0.8-3.6-0.3
				c-0.7-2.1-1.3-4.7-0.7-7.1c0.9,1.6,0.3,4.1,2.7,4.8c3.6,0.4,3.9-4,6.7-5.1C336.3,273.6,332.9,275.5,331.6,278.2 M209.8,289.8
				c6.8-13.8,11.4-28.6,14.5-44C220.8,261.1,218.4,276.7,209.8,289.8"/>
		</g>
		<g id="path175">
			<path inkscape:connector-curvature="0" fill="#94693C" d="M297.5,313.9c-1.2-1.2-0.5-3.6,0.7-4.8L297.5,313.9"/>
		</g>
		<g id="path177">
			<path inkscape:connector-curvature="0" d="M207.9,362c-1.2,14.7-2.2,29.4-2.6,44.2c3.5-14,4.4-29.1,5.2-44.2H207.9 M222.7,362
				c0,1.7-0.1,3.5-0.1,5.3c-1.1,4.1-4.4,7.4-6.2,11.2c-5.6,12-3.2,27.7-15.7,36.7c1.2,1.7,2.3-0.4,3.5-0.7
				c9.1-5.1,7.6-16.3,12.2-24.1c0.5,12,0.1,25,1.6,36.3c3.7-13.4,1.2-28.9,1.1-43c1.3-4.8,4-9.1,7-13.3c0.1-2.8,0.2-5.6,0.3-8.5
				L222.7,362 M238.6,362c-0.5,9.7-1.2,19.3-2.4,28.7c-5,5.6-6.3,12.8-7.4,19.9c-4.8,11.2-3.8,25.8-16.7,32.8l-0.4,0.9
				c5.6-0.3,10.3-6.8,12.9-11.2c2.5-7,4.9-13.9,7.5-20.9c0.7,13.8-1.1,28.2-2.3,41.5c5.6-15.3,5.5-33.7,4.8-50.7
				c0.7-3.9,2-7.6,5.5-10c0,0,0.6-14.5,1.3-30.9L238.6,362 M255,362c-0.5,17.1-1.8,34.3-3.4,50.9c-8.6,13.3-12.2,28.5-15.4,44.1
				c-1.3,6.1-7.5,10.6-12.9,13.1h-3.9l0.7,1.6c6.2,0.5,10.8-2.8,15.4-6.4c-0.8-5.1,3.9-8,4.8-12.4c2.1-6.2,2.8-13,6.1-18.7
				c-1.3,12.5-2.4,25.3-4.3,37c3.6-6.3,3.6-14.3,5.2-21.4c1.2-9.6,2.8-18.9,3.5-28.6l4.6-4.5c0,0,1.2-30.1,2.2-54.4L255,362
				 M267.9,362c-0.9,23.7-2.4,48.4-3.8,72c-11,11.4-7.5,28.6-15.5,41.2c-0.6,3.2-2.7,6-5.3,8.4l7.7-4.3c5-11.4,8.5-24.5,12.1-36.9
				l5.5-6.4c1.1-25.7,2.1-49.9,2.5-74L267.9,362 M283.3,362c-0.6,8.9-1.6,17.8-0.3,26.1l1.3-0.1c1.3-7.7,1.5-17.1,1.8-26L283.3,362
				 M289.8,362c-0.5,6.6-1.3,13.2-2,19.7c0,0,0.9,0.5,1.1,0c1.7-6.1,2-13.2,2.2-19.7H289.8 M296.3,362c-0.2,8.4-1.4,18.8-4,23.5
				l4.2,1c1.4-8,1.9-16,2.1-24.5L296.3,362 M303.5,362c-0.4,6.3-1.4,12.7-1.5,18.8c2.1-5,2.8-12,3.2-18.8H303.5 M310.5,362
				c0.1,0.1,0.1,0.2,0.1,0.2c-1,3.7-1.5,13.7-2.5,17.6l5.2,4.7c0-3.2,13.7-1.7,13.7-1.7c-7-7.1-12.3-14.1-16.2-20.9L310.5,362
				 M310.8,362c-9.2-15.8-11.4-30.6-12-42.7c-0.2-9.8,0.4-17.5,0.4-17.5l-2.9,7.7c-3.5,2.1-6.4,0.4-9.6-0.9c-1.7-2.4-4.6-5-2.9-8.3
				c1.1-1.7,2.4-2.7,3.5-3.9c-3.1,1.1-7.1,5.3-10.8,1.9c-1.6-3.9-5.1-7.4-3.2-12.2c1.1-1.5,1.5-3.4,3.2-4.6
				c-1.7-0.4-3.9,1.1-5.5-0.5c-2.4-3.7-2-7.8-1.6-12.3c1.5-1.6,2.3-3.2,4.1-4.2c-2.1-0.9-5.1-2.9-4.8-6c0.4-6.7,2.3-12.9,7.1-17.7
				l-0.3-0.4c-5.6,5.1-12.7,9.1-20.4,6.4c-2.5-1.1-2.8-3.9-3.5-6c-3.6,6-10.8,7.5-17.7,8c-3.7-0.3-5.9-4.6-9.4-5.5
				c1.6,2.7,4.4,6.2,7.5,8c-1.3,14.3-6.7,26.9-12.8,39.2c-3.1,3.7-8.4,3.2-12.9,4.1c1.6,2.3,5.4,1.7,7,4.1
				c-1.4,21.1-3.6,42.1-5.4,63.2h2.6c0.6-10.6,1.1-21.2,2.3-31.3l1.6-31.9l6.4-3.5l5.8,6c-2.1,20.2-3.4,39.8-3.8,60.6h3.7
				c0.6-19.3,0.9-38.3,2-58.3c1.6-1.2,4.6-0.4,6.2-0.7c1.6,4,3.4,8,6.7,11c-1.3,15.4-1.8,31.8-2.7,48h2.8
				c0.9-21.5,1.9-46.4,1.9-46.4c0.4-0.8,1.2-0.7,1.9-0.7c2,5.3,3,13.4,9.9,14.5c0.3,10.7,0.3,21.7-0.1,32.6h2.7
				c0.7-16.4,1.2-30.1,1.2-30.1c1.9,3.1,4.3,8,8.7,7.8h0.9c-0.1,7.3-0.3,14.8-0.6,22.3h3.1c0.1-6.4,0.1-12.7,0.1-19.1
				c3.6,1.9,6.6,6.4,11.6,5.1l0.7,0.9c0.3,4.3,0.2,8.7-0.1,13.1h2.8c0.1-4.3,0.3-8.5,0.6-12.4c0.9,0.4,2.8,1.5,3.5,2.9
				c0,3.1-0.1,6.3-0.3,9.5h1.3c0.1-3,0.2-5.9,0.3-8.5l4.8,0.9c0.1,2.1,0.1,4.8,0.1,7.6h2.3c0.1-2.1,0.1-4.1,0.2-6.3l4.8-3.6
				c0.2,3.3,0.1,6.6-0.1,9.9h1.6c0.2-3.6,0.3-7.1,0.6-10.1c0,0,4,8.6,4.7,10.1L310.8,362"/>
		</g>
		<g id="path179">
			<path inkscape:connector-curvature="0" fill="#94693C" d="M296.5,473.6c-1.9-0.4-3.6-0.7-5.5-1.1c7.4-28,8.6-58.9,16.5-86.3
				c2.8-2.4,2-7.7,13.7-9.1c0.7,1.7-7.3,1.4-8.8,5.5c7.9-5.1,12.3-3.2,17,0.4c14.3,10.8,5.1,31.6,5.5,46.6l-1.1,2.3l-0.9,31.5
				c-1.7,3.2-0.7,7.6-0.9,11.5c-3.5-1.1-7.6-5.2-11.9-2.3h-1.2L296.5,473.6L296.5,473.6z M311.9,363.8l-2.4,16.6
				c0,0,5.4-3.2,6.9-3.7c1.5-0.5,4.6-0.4,4.6-0.4s-3.5-4.3-4.8-5.9C315,368.6,311.9,363.8,311.9,363.8L311.9,363.8z"/>
			<path d="M331.9,474.9L331.9,474.9c-1-0.3-2-0.8-3.1-1.4c-1.8-0.9-3.7-1.9-5.7-1.9c-1.1,0-2.2,0.3-3.2,1l0,0h-1.2l-22.2,1.1l0,0
				c-1-0.2-1.9-0.4-2.8-0.6c-0.9-0.2-1.8-0.3-2.7-0.5l0,0l0,0c3.5-13.4,5.7-27.6,7.7-41.4c2.3-15,4.6-30.6,8.7-44.9l0,0l0,0
				c0.7-0.6,1.2-1.5,1.8-2.4c1.5-2.5,3.3-5.7,11.9-6.7l0,0l0,0c0.1,0.2,0.1,0.3,0,0.4c-0.2,0.5-1.3,0.8-2.6,1.2
				c-2.2,0.6-5.2,1.5-6.2,3.8c3.2-2.1,6-3.1,8.6-3.1c3.3,0,6,1.7,8.3,3.5c2.5,1.9,4.3,4,5.6,6.7c1.2,2.3,1.9,5,2.2,8
				c0.6,5.7-0.3,12-1.1,18c-0.7,4.9-1.4,9.6-1.2,13.8l0,0l-1.1,2.3l-0.9,31.5c-1.2,2.2-1.1,4.9-0.9,7.6
				C331.9,472.2,332,473.6,331.9,474.9L331.9,474.9z M323.2,471.5c2,0,3.9,1,5.7,1.9c1,0.5,2,1.1,3,1.4c0.1-1.2,0-2.6,0-3.8
				c-0.1-2.7-0.2-5.5,1-7.6l0.9-31.5l1.1-2.3c-0.1-4.3,0.5-8.9,1.2-13.9c1.7-12.3,3.5-25-6.7-32.7c-2.4-1.8-5-3.5-8.3-3.5
				c-2.6,0-5.4,1-8.7,3.1l-0.1,0l0-0.1c0.9-2.4,4-3.3,6.2-3.9c1.3-0.4,2.4-0.7,2.6-1.2c0.1-0.1,0.1-0.2,0-0.4
				c-8.5,1-10.4,4.2-11.8,6.7c-0.5,0.9-1,1.8-1.8,2.4c-4.1,14.3-6.5,29.9-8.7,44.9c-2.1,13.8-4.2,28-7.7,41.4
				c0.9,0.2,1.8,0.4,2.6,0.5c0.9,0.2,1.8,0.3,2.8,0.6l22.2-1.1h1.2C321,471.8,322,471.5,323.2,471.5z M309.5,380.4L309.5,380.4
				l2.4-16.7l0,0.1c0,0,3,4.9,4.3,6.5c1.2,1.6,4.7,5.9,4.8,5.9l0,0.1l-0.1,0c0,0-0.2,0-0.5,0c-0.8,0-2.9,0-4.1,0.4
				C314.9,377.2,309.6,380.3,309.5,380.4L309.5,380.4z M312,363.9l-2.4,16.4c0.6-0.3,5.4-3.2,6.8-3.7c1.1-0.4,3-0.4,4.1-0.4
				c0.2,0,0.4,0,0.5,0c-0.4-0.5-3.6-4.3-4.7-5.9C315,368.8,312.3,364.5,312,363.9z"/>
		</g>
		<g id="path181">
			<path inkscape:connector-curvature="0" d="M263.7,460.4c-2.2,2.6-3.5,5.6-6.4,7.4c1.6-5.7,7-11.4,9.4-17.7
				c8.6-19.3,12.3-40.7,14.1-62.9C281.8,413.5,275.6,438.5,263.7,460.4 M287.2,263.5c-0.9,5.1,0,10.2,2.9,14.2
				c-8.3-7.1-4.6-17.7-3.2-26.8c1.6-6.4,6-13.4,2.9-20.2C296.8,241.2,287.3,252.2,287.2,263.5"/>
		</g>
		<g id="path183">
			<path inkscape:connector-curvature="0" fill="#94693C" d="M255,251.5c-2.8,16.3-11,30.4-20.9,43.8c-1.9,1.7-4.9,1.9-7.4,0.9
				c-1.7-0.8-3.3-2.7-4.4-4.2c4.8-12.7,9.8-25.4,11.8-39.2c6.3,0.7,11.2-3.5,16.1-6.8C251.2,248.2,253.4,249.8,255,251.5 M269,265.7
				c-2.4,4.6-4.7,9.8-3.2,15.1c-6.4,9.4-11.2,20.4-20.9,27.6c-3.4,1.6-6-1.7-7.1-4.2c-4.3-9,7-14.6,9-22.5c4.7-9.5,8.7-19.1,11-29.6
				c4.4,0.4,8-1.5,11.2-4.2C267.5,253.3,263.1,261.3,269,265.7"/>
		</g>
		<g id="path185">
			<path inkscape:connector-curvature="0" d="M242.2,269.9c-1.3-1.1,0-3.1,0.4-4.6c1.9-3.8,2.9-7.9,3.9-12.2l0.3,0.9L242.2,269.9
				 M248.1,298.5c-2.4,1.7-3.9,5.5-7.5,4.1c-0.7-2.7,2.9-2.1,4.3-3.6c7.4-11.1,13.1-23,18.2-35.3C259,275.8,253.6,287.2,248.1,298.5
				 M273.1,274.7l5.1-3.2C277.7,273.9,275.1,274.3,273.1,274.7 M237.1,284.1c-2.4,2.8-2.8,8-7.1,9.6c4.7-6.2,7.5-14.3,10.3-22
				C241.2,276.6,237.5,279.1,237.1,284.1"/>
		</g>
		<g id="path187">
			<path inkscape:connector-curvature="0" fill="#94693C" d="M271.5,298.1c1.1,2,5.1,2,3.9,4.8c-5.4,7.6-9.2,16.7-17.1,22.5
				c-4,1.6-7-2.9-9.2-5.5c-1.2-2.2-1.7-4.4-2-7c9.5-8.2,13.7-19.1,19.9-28.9C272.8,286.5,267.6,294,271.5,298.1"/>
		</g>
		<g id="path189">
			<path inkscape:connector-curvature="0" d="M279.5,293.3l5.1-6.7C283.4,289.3,282.2,291.6,279.5,293.3 M292.7,303.9l2-4.4
				l-0.4,2.8L292.7,303.9"/>
		</g>
		<g id="path191">
			<path inkscape:connector-curvature="0" fill="#94693C" d="M286.2,311.6h0.9v1.6l-14.5,22.5c-1.3,1.3-3.6,1.6-5.3,0.9
				c-2.8-2-6.4-4.7-6.4-8.3c8.6-6.3,11.4-16.2,16.6-24.5C279.1,307.1,281.5,312.1,286.2,311.6"/>
		</g>
		<g id="path193">
			<path inkscape:connector-curvature="0" d="M255,320.6h-2.8c-0.7-2,2.5-1.2,3.5-2.5c3.7-4,6.6-8.4,9.4-12.8
				C262.7,310.7,259.2,317,255,320.6"/>
		</g>
		<g id="path195">
			<path inkscape:connector-curvature="0" fill="#94693C" d="M294.3,314.6c-0.8,4.5,5.8,6.4,3.6,11.2c-4.8,5.7-6.6,13.4-11.9,19.3
				c-3.8,2.9-7-1.3-10-2.9c-0.8-1.1-1.3-2.3-1.6-3.5c7.1-7.2,10.6-15.8,14.8-24.1C290.6,315.9,292.5,314.6,294.3,314.6"/>
		</g>
		<g id="path197">
			<path inkscape:connector-curvature="0" d="M269.9,332.3c-1.2,0.8-2.3,1.7-3.9,1.6c4.9-3.9,8.6-10.3,11.9-15.8L269.9,332.3"/>
		</g>
		<g id="path199">
			<path inkscape:connector-curvature="0" fill="#94693C" d="M301.7,339c-0.4,2.2-2.6,4.8-4.9,6.1c-1.1-0.3-2,0.1-2.8,0.9
				c-0.3,0.5,0.3,0.9,0.7,1.2c2.1,0,4-0.9,5.8-2.1c0.5-0.9,1.6-2.1,2.1-3c0.2,1.7,1.1,3.4,1.6,5.4c-0.3,0.4-2.3,1.5-3,1.8
				c-3.9,3.1-8.3,0-11.6-2l-0.9-0.9l10.9-20.1C299.6,330.2,300.8,335,301.7,339"/>
		</g>
		<g id="path201">
			<path inkscape:connector-curvature="0" d="M278.2,341.2c5.8-2.3,7.9-8.7,11-13.5C286.2,332.5,285.8,341.5,278.2,341.2
				 M262.5,240.7c1.2-2.3,1.5-5,3.8-6.8C266.8,236.6,264.5,238.7,262.5,240.7 M273.4,253.6c-0.1-2.4,2.5-3.1,3.9-5.5
				C277.1,249.7,274.4,251.8,273.4,253.6 M408.7,314.1c-0.3,6.9,1,38.9-26.9,67.3l15.9,5.6l1.3-4.3c0.4,0.7,0.9,0.7,1.6,1
				c1.5,0.8,1.2,0.6,2.9,0.7l6.1-0.5c2-0.7,3.9-2.3,4.4-4.5l2,0.7l0.9,0.7c1.9,0.3,5,1.1,6.2-0.7l2.5,4.2l1.6,7.1
				c8.6,22.2,9.4,49.1,31.4,64.2l1.9,0.9l3.9,1.6l10.3,15.1c2.9,3.8,6.7,5.8,10.3,8c1.5,0.2,3.7,4.6,4.8,3.4l1.6-4.3l-3-15.4
				c2.3,1,4.9,0.8,6.9,1.5l3.4-2.8l-1.6,0.4c-3.3-1.6-7.6-2.2-10.6-5.2c-13.1-14.2-10.7-34.8-24.1-48.9c-5.1-27.6-6.8-56.6-11-84.7
				c4.3-4,2.8-11.9,9.6-13.5c4.4,24.2,4.4,50.3,7.4,75.2c2.7,1.1,5.4,2.8,7.1,5.4c1.5,20.2,3.9,40,11.7,57.6
				c-0.9-6.8-3.3-13.8-4.3-20.9l-2.5-24.8c3.3,10.3,5.1,23.1,12.2,27.8c7.7,5.1,11.2,1.1,11.2,1.1c-1.2-1.6-2.3-0.5-3.7-1.2
				c-22-8.2-10.9-36.4-27.7-49.5l-6-64.9l-1.3-9.2c2.4-4.4,3.2-9.5,4.1-14.5l6.8-2l0.5,4.1l3.6,69.7l3.2,2.3c2,16.2,2,33.6,8.3,47.9
				c-4-13.5-4.1-29.8-4.8-44.7c9.2,6.8,7,18.9,12.2,27.6l1.4-0.4c-5-12-2.5-27.1-16.2-34.9c-1.6-25-3.2-50.1-4.8-75.1
				c0.8-1.5,1.1-3.2,2.3-4.5c1.7,4.2,7,5,10.8,4.8c4.2,33.7,4.3,69.1,12.3,101.2c-4.4-33.5-7-68.5-10.3-102.8c2-0.8,4.2-2.1,5.5-4.1
				c-0.5-1.2,0.9-1.9,0-2.9c-3.3,2.9-7.6,5.5-11.9,3.9l-3.6-3.9c-7.1-12.7-12.9-26.1-18.6-39.5c1.7,0.7,5.1,0.4,7.1-0.9
				c2.4-2.2,4.5-4.8,5.8-7.8c-3.6,2.9-9.5,5.6-14.5,3.6l-0.7-0.7c-6.2,4.7-14.6,9-22.8,5.8c-1.5,3.9-2.7,9-7.4,10.3l-3.6,0.3
				c0.9,2.3,3.3,4.7,4.6,7.1c0.8,3.9,1.5,9.4-0.7,12.9c-1.3,3.7-8.6,1.6-5.8,7.1c0.4,3.9,0.8,8.4-1.6,11.5c-3.5,3.7-7.9,7-12.2,6.4
				c-0.7,3.6-5.7,10.3-5.7,10.3S408.9,310.4,408.7,314.1 M415.7,263.5c4.6-14.4-11.6-26.6-3.2-41.1C407.8,237,424.2,249,415.7,263.5
				 M449.1,231.1l-0.3,0.3c-1.1-0.7-2.1-2.4-1.6-3.5C447.9,228.5,449.1,229.6,449.1,231.1"/>
		</g>
		<g id="path203">
			<path inkscape:connector-curvature="0" fill="#94693C" d="M462.7,238.7c6,13,11,26.5,17.7,39.2c0.3,3.1-1.5,5.5-3.2,7.8
				c-2.1,1.5-4.8,2.4-7.4,1.6c-10.6-12.7-18.2-26.4-25.2-40.5C451.7,247.5,457.6,243.5,462.7,238.7L462.7,238.7z"/>
			<path d="M471.7,287.6c-0.7,0-1.3-0.1-2-0.3l0,0l0,0c-11.3-13.6-19.1-28.1-25.2-40.6l0,0l0.1,0c0.6,0.1,1.2,0.1,1.8,0.1
				c6.8,0,12.3-4.3,16.3-8.1l0,0l0,0c2.3,5,4.5,10.1,6.6,15.1c3.4,8,6.9,16.3,11.1,24.1l0,0c0.3,3.2-1.7,5.7-3.2,7.8l0,0
				C475.9,286.6,473.9,287.6,471.7,287.6z M469.8,287.3c0.6,0.2,1.3,0.3,1.9,0.3c2.2,0,4.1-1,5.4-1.9c1.5-2,3.5-4.6,3.2-7.7
				c-4.1-7.8-7.6-16.1-11.1-24.1c-2.1-5-4.3-10.1-6.6-15c-2.7,2.5-5.1,4.4-7.5,5.7c-3,1.6-5.8,2.4-8.8,2.4c0,0,0,0,0,0
				c-0.6,0-1.2,0-1.7-0.1C450.7,259.2,458.4,273.7,469.8,287.3z"/>
		</g>
		<g id="path205">
			<path inkscape:connector-curvature="0" d="M434.9,245.8c-2.3,0-5.2-2-7.6-3.5l0.7-1.3C431.1,240.6,433.3,243.9,434.9,245.8
				 M492.2,273.1c-4.4-10.3-9-21-11.9-31.5C485,251.8,488.1,262.7,492.2,273.1 M474.2,282.7c-3.8-1.1-5.2-6-7.4-9.4
				c-4.3-8.3-9.6-16.2-11.5-25.7C459.4,260.3,468.7,270.7,474.2,282.7"/>
		</g>
		<g id="path207">
			<path inkscape:connector-curvature="0" fill="#94693C" d="M466.1,289.8c1.1,4.8-0.3,9.4-2.6,13.1c-2,2.5-4.7,4.4-7.8,3.6
				c-7.5-9.2-14.7-18.6-19.5-28.9c-0.7-2.5,1.6-4.7,1.9-7.1c0.8-5.1-0.9-9.2-2.1-13.5c2.5-2.4,4.4-5.6,5.4-9
				C449.8,261.6,454.9,277.1,466.1,289.8L466.1,289.8z"/>
			<path d="M457.3,306.8c-0.5,0-1-0.1-1.4-0.2l0,0l0,0c-7.2-8.9-14.7-18.4-19.6-28.9c-0.4-1.5,0.3-2.9,0.9-4.3
				c0.4-0.9,0.9-1.9,1-2.8c0.7-4.2-0.4-7.8-1.5-11.3c-0.2-0.7-0.4-1.4-0.6-2.2l0,0l0,0c2.5-2.3,4.4-5.5,5.4-9l0-0.1l0,0.1
				c3.1,4.9,5.8,10.2,8.4,15.4c4.6,9,9.3,18.3,16.4,26.4l0,0l0,0c1.2,5.4-0.7,10.1-2.6,13.1C461.6,305.5,459.4,306.8,457.3,306.8z
				 M455.8,306.5c0.5,0.1,0.9,0.2,1.4,0.2c2.7,0,4.9-2.1,6.3-3.8c1.8-3,3.7-7.7,2.5-13.1c-7.1-8.1-11.8-17.4-16.4-26.4
				c-2.6-5.1-5.3-10.4-8.3-15.3c-1,3.4-2.9,6.6-5.3,8.9c0.2,0.7,0.4,1.4,0.6,2.1c1.1,3.5,2.2,7.1,1.5,11.4c-0.1,1-0.6,1.9-1,2.8
				c-0.6,1.3-1.3,2.7-0.9,4.2C441.2,288.1,448.6,297.7,455.8,306.5z"/>
		</g>
		<g id="path209">
			<path inkscape:connector-curvature="0" d="M430.5,264.4c0.8,1.1,1.3,2.3,1.6,3.6c-2.8-2-6.2-3.9-8-6.8
				C426.8,260.8,428.5,262.9,430.5,264.4 M461,301.4c-1.2,1.9-3.1-0.8-3.9-1.9c-6.7-11.6-14-22.9-17.9-35.7
				C446.6,276.3,452.5,289.4,461,301.4 M420.9,286.9c-3.9-2.7-6.4-6.6-8-10.6C417.5,277.5,419.9,282.7,420.9,286.9"/>
		</g>
		<g id="path211">
			<path inkscape:connector-curvature="0" fill="#94693C" d="M433.3,278.9c5.5,11.2,12,22,20.6,31.9c1.1,4.3-1.6,7.1-3.9,9.9
				c-2.3,1.9-5.1,2.7-8.3,2.3c-6.7-7.2-10.8-15.5-15.8-23.4c5-5.6,5.1-13.4,6.2-20.6L433.3,278.9"/>
		</g>
		<g id="path213">
			<path inkscape:connector-curvature="0" d="M445,313.3c1.3,1.6,5,0.4,4.4,3.5c-1.9,1.1-3.5-0.4-5.1-0.9c-4.4-7-9.1-13.9-12.2-21.5
				C436,300.8,440.4,306.7,445,313.3"/>
		</g>
		<g id="path215">
			<path inkscape:connector-curvature="0" fill="#94693C" d="M422.5,299.7c4,9.2,9.5,17.9,16.3,26.1c0.4,3.9-2.7,7-5.8,9
				c-3.1,1.1-6.5-0.8-7.4-3.9c-2.8-10.2-16.5-18.5-9-30.3C418.6,300.4,420.5,300.1,422.5,299.7"/>
		</g>
		<g id="path217">
			<path inkscape:connector-curvature="0" d="M429.6,326.8c1.1,2.1,5.5,1.9,3.7,5.1c-2.7,0.4-5-1.6-6-3.9l-8-20.5L429.6,326.8"/>
		</g>
		<g id="path219">
			<path inkscape:connector-curvature="0" fill="#94693C" d="M424.4,336c-1.9,4.6-6.8,5.9-11.2,6.4c-2.6-0.2-7-1.2-7.6-2.6
				c0.9-3.8,2.2-10.1,2.7-15.3c3.5,4.4,3.3,13.8,10.4,14.2c1.1-0.4,0.5-1.5,0.7-2.3c-5.8-2.5-7.8-10.4-10.9-15.5
				c0.4-2.6,0.3-5.1,0.5-7.8c0.6-0.6,1.7-1.2,3-1.5L424.4,336"/>
		</g>
		<g id="path221">
			<path inkscape:connector-curvature="0" fill="#94693C" d="M422.1,345.1c2.8-2.1,3.2-9.5,8-4.8l3.9-0.7l1.3,3.5
				c2.4,28.2,7.8,55.7,12.5,82.6c8.4,7.5,10,18.2,14.5,27.6c-12.3-7.9-19.1-21.7-23.7-34.7c-4.3-10.3-6.7-21.3-10.6-31.7
				C428,386.9,423,358.5,422.1,345.1L422.1,345.1z"/>
			<path d="M462.3,453.3L462.3,453.3c-3-1.9-5.8-4.3-8.3-7c-2.3-2.5-4.5-5.3-6.5-8.5c-3.3-5.3-6.2-11.6-8.9-19.2
				c-2.4-5.8-4.2-11.8-6-17.7c-1.4-4.6-2.9-9.5-4.6-14.1c-0.1-0.3-5-28.5-5.9-41.8l0,0l0,0c0.9-0.7,1.6-1.9,2.2-3.1
				c0.9-1.7,1.7-3.2,3.1-3.2c0.8,0,1.7,0.5,2.8,1.5l3.9-0.7l0,0l1.3,3.5c2,23.7,6.2,47.1,10.2,69.7c0.7,4.2,1.5,8.6,2.3,12.9
				c6,5.3,8.6,12.3,11.1,19.1C459.9,447.6,461,450.5,462.3,453.3L462.3,453.3z M422.1,345.1c0.9,13.2,5.8,41.5,5.9,41.7
				c1.7,4.6,3.2,9.4,4.6,14.1c1.8,5.8,3.6,11.9,6,17.6c3.8,10.8,10.3,26,23.6,34.6c-1.3-2.7-2.3-5.6-3.4-8.4
				c-2.5-6.8-5.1-13.8-11-19.1l0,0l0,0c-0.7-4.3-1.5-8.6-2.3-12.9c-4-22.6-8.2-46-10.2-69.7l-1.3-3.4l-3.9,0.7l0,0
				c-1.1-1-1.9-1.5-2.7-1.5c-1.4,0-2.2,1.6-3.1,3.2C423.7,343.2,423,344.4,422.1,345.1z"/>
		</g>
		<g id="path223">
			<path inkscape:connector-curvature="0" fill="#94693C" d="M412.4,346.7c0.9,9.2,3.1,17.9,5.5,26.6c0.9-4-1.5-7.5-1.6-11.7
				c-0.5-4.7-1.1-9.5-2.3-14c1.1-0.8,2.3-1.1,3.6-0.9c1.7,11.2,4,22.3,6.7,33.3c-1.1-2.4-4-0.5-5.8-1.6c-12-6.2-5.9-21.5-10.3-31.7
				l0.4-1.6L412.4,346.7"/>
		</g>
		<g id="path225">
			<path inkscape:connector-curvature="0" fill="#94693C" d="M488.5,478.6l-2.5-15.3c-7.6-8.4-11.1-18.8-14.5-28.9
				c-1.1,9,1.7,17.5,2.9,25.7h-0.4c-5.1-11.4-5.8-24.5-7.1-37.3c-2.1-3.6-4.3-8.3-8.6-10.2c-2.7-28.6-7.8-56.2-10.3-84.9h-6.8
				l-2.8,9c3.3,29,6.8,58,13.1,85.8c12.7,16.1,10.4,39,28.9,52.1L488.5,478.6L488.5,478.6z"/>
			<path d="M488.6,478.6L488.6,478.6l-8-4c-4.8-3.4-8.7-7.9-11.7-13.5c-2.7-5.1-4.6-10.6-6.5-16c-2.6-7.8-5.4-15.8-10.7-22.5l0,0
				c-6.1-27.1-9.6-54.9-13.1-85.8l0,0l2.8-9h6.9l0,0c1.3,14.7,3.3,29.3,5.2,43.5c1.8,13.5,3.8,27.4,5.1,41.4
				c3.7,1.6,5.8,5.3,7.6,8.6c0.3,0.6,0.6,1.1,0.9,1.6l0,0c0.2,1.6,0.3,3.3,0.5,4.9c1.1,11,2.2,22.5,6.6,32.4h0.3
				c-0.3-2.3-0.8-4.5-1.3-6.9c-1.2-6.1-2.5-12.3-1.7-18.8l0.1,0c3.1,9.5,6.7,20.3,14.4,28.9l0,0l0,0L488.6,478.6z M451.7,422.5
				c5.3,6.7,8.1,14.8,10.7,22.5c3.7,10.8,7.5,21.9,18.2,29.5l7.9,4l-2.5-15.2c-3.4-3.8-6.3-8.3-8.8-13.8c-2.3-5-4-10.3-5.6-15
				c-0.7,6.4,0.5,12.6,1.7,18.6c0.5,2.4,0.9,4.6,1.3,6.9l0,0h-0.5l0,0c-4.4-9.9-5.5-21.4-6.6-32.4c-0.2-1.6-0.3-3.3-0.5-4.9
				c-0.3-0.5-0.6-1-0.9-1.6c-1.9-3.3-4-6.9-7.6-8.6l0,0l0,0c-1.3-14-3.2-27.9-5.1-41.4c-1.9-14.2-3.9-28.8-5.2-43.5h-6.8l-2.8,8.9
				C442.1,367.6,445.6,395.4,451.7,422.5z"/>
		</g>
		<g id="path227">
			<path inkscape:connector-curvature="0" fill="#94693C" d="M400.1,378.8c0.4,0.7,0.9,1.2,1.6,1.5c1.5,0.8,3.7,0.9,5.5,1
				c2.1-0.4,4-2.8,4.4-4.5c-5.1-8.7-3.8-22.3-5.6-32.5c-0.5,0.1-1.1-1-1.6-0.5c-0.7,2.2-2.1,5.1-2.2,6.4c1.2,7.1,3.5,15,2.2,22.6
				c-2.1-6.6-0.3-14.6-3-20.7c-1.8,4.1-2.7,5.9-4.6,9.3l2.7,15.9C399.7,378,399.9,378.5,400.1,378.8 M394.8,365.1l2.3,11.2
				c0,0-1.6-2.6-4.1-2.9c-2.5-0.3-4.1-0.3-4.1-0.3L394.8,365.1"/>
		</g>
		<g id="path229">
			<path inkscape:connector-curvature="0" fill="#94693C" d="M392.9,472c-3.9,1.7-8,2.8-12.2,4.1l-0.9-18.6l-1.1-1.1l-2.1-24.1v-1
				l-1.1-1.2c2.7-16.5-8.3-33.6,2-47.9c3.7-2.5,8.2-4.6,13.1-3.2c2.8,0.9,5.1,3.2,7.4,5.1c-0.1-1.3-1.3-3.1-2.6-4.4
				c-2.5-3.4-6.8-3.5-10.3-4.2c2.7-1.1,5.3-1.1,8,0c3.7,1.6,6.6,5.4,8.7,8.6c2.9,9.8,3.3,20.3,5.8,30.3c3.5,19.4,8.6,38.1,12.3,57.6
				c-3.2-0.4-5.9,0.7-9.1,0.3L392.9,472L392.9,472z"/>
			<path d="M380.7,476.2L380.7,476.2l-0.9-18.6l-1.1-1.1l0,0l-2.1-24.1v-1l-1.1-1.2l0,0c1.1-6.5,0-13.1-1.1-19.5
				c-0.8-5.1-1.6-9.9-1.4-14.7c0.2-5.4,1.6-9.8,4.5-13.7l0,0c3.7-2.5,6.8-3.6,9.9-3.6c1.1,0,2.2,0.1,3.2,0.4c2.3,0.8,4.3,2.4,6.1,4
				c0.4,0.3,0.8,0.7,1.2,1c-0.2-1.1-1.1-2.7-2.5-4.3c-2.1-2.8-5.5-3.4-8.5-3.8c-0.6-0.1-1.2-0.2-1.7-0.3l-0.1,0l0.1,0
				c1.3-0.5,2.7-0.8,4-0.8c1.3,0,2.7,0.3,4,0.8c3.7,1.6,6.5,5.2,8.7,8.6l0,0c1.6,5.4,2.5,11.2,3.3,16.8c0.7,4.4,1.4,9,2.4,13.4
				c1.9,10.5,4.3,21,6.6,31.2c2,8.6,4,17.5,5.7,26.3l0,0l0,0c-0.5-0.1-1-0.1-1.5-0.1c-1,0-2,0.1-3,0.2c-1,0.1-2,0.2-3,0.2
				c-0.5,0-1.1,0-1.6-0.1l-17.9-0.3c-2.9,1.3-5.8,2.2-9,3.1C382.9,475.5,381.8,475.8,380.7,476.2L380.7,476.2z M378.7,456.5l1.1,1.1
				l0,0l0.9,18.6c1.1-0.3,2.1-0.7,3.2-1c3.1-1,6.1-1.9,9-3.1l0,0l17.9,0.3c0.5,0.1,1,0.1,1.6,0.1c1,0,2-0.1,3-0.2c1-0.1,2-0.2,3-0.2
				c0.5,0,1,0,1.5,0.1c-1.7-8.9-3.7-17.7-5.7-26.3c-2.3-10.2-4.7-20.7-6.6-31.2c-1.1-4.4-1.8-9-2.4-13.4c-0.8-5.6-1.7-11.4-3.3-16.8
				c-2.2-3.3-5-7-8.7-8.5c-1.3-0.5-2.7-0.8-4-0.8c-1.3,0-2.6,0.3-3.9,0.8c0.5,0.1,1.1,0.2,1.6,0.3c3,0.5,6.4,1,8.6,3.9
				c1.5,1.6,2.4,3.3,2.6,4.4l0,0.1l-0.1,0c-0.4-0.3-0.8-0.7-1.2-1c-1.9-1.6-3.8-3.3-6.1-4c-1-0.3-2.1-0.4-3.2-0.4
				c-3.1,0-6.2,1.2-9.9,3.6c-6.2,8.7-4.7,18.2-3.1,28.4c1,6.4,2.1,13.1,1.1,19.5l1.1,1.2v1L378.7,456.5z"/>
		</g>
		<g id="path231">
			<path inkscape:connector-curvature="0" d="M410.8,472.3c-18.6-12.4-14.9-34.8-21.1-52.7c-0.9-4.8-1.9-9.8-3.2-14.4
				c0.8,15.4,5.6,29.8,8.3,44.7c2.4,3.7,2,8.8,2.9,13.1c-1.2,3.2-2.1,6.4-4.8,9.1L410.8,472.3L410.8,472.3z M318.7,472.5l-5.5-13.8
				c0.9-6.2,2-12.6,1.6-18.9c-2.5,11.5-6.4,25.6-18.3,33.7L318.7,472.5L318.7,472.5z"/>
			<path d="M296.4,473.7L296.4,473.7c11.5-7.9,15.7-20.9,18.4-33.8l0.1,0c0.4,5.9-0.5,11.9-1.4,17.7c-0.1,0.4-0.1,0.8-0.2,1.2
				l5.5,13.8l0,0l0,0L296.4,473.7z M314.9,440.1c-1.2,5.5-2.8,11.9-5.6,17.9c-3.2,6.8-7.3,11.9-12.7,15.5l22.1-1.1l-5.5-13.7l0,0
				c0.1-0.4,0.1-0.8,0.2-1.2C314.3,451.8,315.2,445.9,314.9,440.1z M410.9,472.3l-0.1,0l-18-0.3l0,0c2.3-2.4,3.3-5.1,4.4-7.9
				c0.1-0.4,0.3-0.8,0.4-1.2c-0.3-1.4-0.5-2.9-0.6-4.4c-0.3-3.1-0.7-6.2-2.3-8.8l0,0c-0.9-5.1-2.1-10.3-3.3-15.3
				c-2.2-9.5-4.5-19.3-5-29.4l0.1,0c1.3,4.4,2.2,9.1,3.1,13.7l0.2,0.8c1.9,5.6,3,11.6,3.9,17.5C395.8,450.1,398,463.7,410.9,472.3
				L410.9,472.3z M393,472l17.8,0.3c-3.1-2.1-5.6-4.4-7.7-7.2c-1.9-2.5-3.5-5.3-4.8-8.6c-2.4-6.1-3.5-12.8-4.6-19.4
				c-1-5.9-2-12-3.9-17.5l-0.2-0.8c-0.9-4.5-1.8-9.1-3-13.4c0.5,10,2.8,19.7,5,29.1c1.2,5,2.4,10.2,3.3,15.3c1.6,2.5,2,5.7,2.3,8.8
				c0.2,1.5,0.3,3,0.6,4.4l0,0l0,0c-0.1,0.4-0.3,0.8-0.4,1.2C396.3,466.9,395.3,469.6,393,472z"/>
		</g>
		<g id="path233">
			<path inkscape:connector-curvature="0" d="M332.5,394.2v0.3c-3.2-0.9-7.5-1.6-10.3-4.4c-3.9,2.1-9,2.4-13.5,2.1v-0.5
				c4.7-1.7,9.4-3.1,13.5-5.9C325.2,389.2,329.9,391.8,332.5,394.2 M320.6,407.1l1.9,0.3c3.5,7,7.9,13.5,10.3,20.9
				c-7.5-4.6-8-14.1-12.2-20.5l-5.5,31.5c1.3-16.3,5-31.6,6.8-47.5C322.5,397.2,321,401.9,320.6,407.1"/>
		</g>
		<g id="path235">
			<path inkscape:connector-curvature="0" d="M392.6,393.8c6.3,14.5,10.4,30.4,16.6,44c-7.2-14.1-13-29.2-17.3-44H392.6z"/>
			<path d="M409.2,437.9L409.2,437.9L409.2,437.9c-6.9-13.4-12.7-28.3-17.3-44.1l0,0h0.7l0,0c3.1,7,5.6,14.5,8.1,21.7
				C403.5,423.4,406.1,430.9,409.2,437.9L409.2,437.9L409.2,437.9z M392,393.9c4.4,15.4,10.1,29.9,16.7,43c-3-6.7-5.4-13.8-8-21.3
				c-2.5-7.2-5.1-14.7-8.1-21.7H392z"/>
		</g>
		<g id="path237">
			<path inkscape:connector-curvature="0" d="M319,399.7c-5.8,15.3-6.8,32.5-19,45.2l-0.5-0.7l12.9-26.9l6.7-21.3L319,399.7
				 M320.4,433.7c3.2,9.4,7.1,18.3,10.6,27.6c-6.6-7.6-11-17.4-11.2-27.6H320.4 M387.4,441.8c-1.5,3.7-2.5,7.6-5.8,10.6l6.4-17.3
				C389.3,436.4,388.6,439.9,387.4,441.8"/>
		</g>
		<g id="path239">
			<path inkscape:connector-curvature="0" fill="#FFFFFF" d="M408.7,314.1c0,0,1.3,33.3-18.8,57.9c-22,27-36.2,32-36.2,32
				s-14.2-5-36.2-32c-20-24.5-18.8-57.9-18.8-57.9L408.7,314.1L408.7,314.1L408.7,314.1z"/>
		</g>
		<g id="path241">
			<path inkscape:connector-curvature="0" fill="#B11E39" d="M349.4,401.7V314h-9.4v81.2C340.1,395.1,344.3,398.5,349.4,401.7z
				 M313.6,366.6V314h-8.7v35.3C304.9,349.2,309,360.6,313.6,366.6z M330.9,386.8V314h-8.7v63.6
				C322.2,377.5,325.9,381.8,330.9,386.8z M358,401.7V314h9.4v81.2C367.3,395.1,363.1,398.5,358,401.7L358,401.7z M393.8,366.6V314
				h8.7v35.3C402.5,349.2,398.3,360.6,393.8,366.6z M376.5,386.8V314h8.7v63.6C385.2,377.5,381.5,381.8,376.5,386.8z"/>
		</g>
		<g id="path243">
			<path inkscape:connector-curvature="0" fill="#7BAFD4" d="M406.2,284.1c0,0,3.4,15.1,2.6,29.8c0-0.1-110.2-0.1-110.2,0
				c0.1-15,2.6-29.8,2.6-29.8H406.2L406.2,284.1z"/>
		</g>
		<g id="polygon245">
			<polygon points="116.3,423.9 116.3,423.9 124.2,435.1 121.9,442 			"/>
			<path d="M121.9,442L121.9,442C121.9,442,121.9,442,121.9,442l-5.6-18.1c0,0,0,0,0,0c0,0,0,0,0,0l7.9,11.2c0,0,0,0,0,0L121.9,442
				C121.9,442,121.9,442,121.9,442z M116.4,424l5.5,17.8l2.3-6.7L116.4,424z"/>
		</g>
		<g id="polygon247">
			<polygon fill="#FFFFFF" points="116.3,423.9 116.3,423.9 116.1,437.6 121.9,442 			"/>
			<path d="M121.9,442C121.9,442,121.9,442,121.9,442l-5.8-4.3c0,0,0,0,0,0l0.2-13.8c0,0,0,0,0,0c0,0,0,0,0,0c0,0,0,0,0,0L121.9,442
				C121.9,442,121.9,442,121.9,442C121.9,442,121.9,442,121.9,442z M116.2,437.6l5.7,4.3l-5.5-17.8L116.2,437.6z"/>
		</g>
		<g id="polygon249">
			<polygon points="103,441.7 103,441.7 116.1,437.6 121.9,442 			"/>
			<path d="M121.9,442L121.9,442l-18.9-0.3c0,0,0,0,0,0c0,0,0,0,0,0l13.1-4.1c0,0,0,0,0,0L121.9,442
				C121.9,441.9,121.9,442,121.9,442C121.9,442,121.9,442,121.9,442z M103.2,441.7l18.7,0.3l-5.7-4.3L103.2,441.7z"/>
		</g>
		<g id="polygon251">
			<polygon fill="#FFFFFF" points="103,441.7 103,441.7 116,446.1 121.9,442 			"/>
			<path d="M116,446.2C116,446.2,116,446.2,116,446.2l-13-4.4c0,0,0,0,0,0c0,0,0,0,0,0h0l18.9,0.3c0,0,0,0,0,0c0,0,0,0,0,0
				L116,446.2C116,446.2,116,446.2,116,446.2z M103.2,441.7l12.8,4.4l5.8-4.1L103.2,441.7z"/>
		</g>
		<g id="polygon253">
			<polygon points="115.8,459.9 115.8,459.9 116,446.1 121.9,442 			"/>
			<path d="M115.8,459.9C115.8,459.9,115.8,459.9,115.8,459.9C115.8,459.9,115.8,459.9,115.8,459.9l0.2-13.8c0,0,0,0,0,0l5.9-4.2
				c0,0,0,0,0,0c0,0,0,0,0,0L115.8,459.9C115.8,459.9,115.8,459.9,115.8,459.9z M116,446.2l-0.2,13.6l6-17.7L116,446.2z"/>
		</g>
		<g id="polygon255">
			<polygon fill="#FFFFFF" points="115.8,459.9 115.8,459.9 124.1,448.9 121.9,442 			"/>
			<path d="M115.8,459.9C115.8,459.9,115.8,459.9,115.8,459.9C115.8,459.9,115.8,459.9,115.8,459.9l6.1-18c0,0,0,0,0,0h0
				c0,0,0,0,0,0l2.2,6.9c0,0,0,0,0,0L115.8,459.9C115.8,459.9,115.8,459.9,115.8,459.9z M121.9,442.1l-6,17.7l8.1-10.9L121.9,442.1z
				"/>
		</g>
		<g id="polygon257">
			<polygon points="137.1,453.3 137.1,453.3 124.1,448.9 121.9,442 			"/>
			<path d="M137.1,453.3C137.1,453.3,137.1,453.3,137.1,453.3l-13-4.4c0,0,0,0,0,0l-2.2-6.9c0,0,0,0,0,0c0,0,0,0,0,0L137.1,453.3
				C137.1,453.3,137.1,453.3,137.1,453.3C137.1,453.3,137.1,453.3,137.1,453.3z M124.1,448.9l12.8,4.4L122,442L124.1,448.9z"/>
		</g>
		<g id="polygon259">
			<polygon fill="#FFFFFF" points="137.1,453.3 137.1,453.3 129.1,442.1 121.9,442 			"/>
			<path d="M137.1,453.3C137.1,453.3,137.1,453.3,137.1,453.3L121.9,442c0,0,0,0,0,0c0,0,0,0,0,0h0l7.2,0.1c0,0,0,0,0,0L137.1,453.3
				C137.1,453.3,137.1,453.3,137.1,453.3C137.1,453.3,137.1,453.3,137.1,453.3z M122,442l15,11.2l-7.8-11.1L122,442z"/>
		</g>
		<g id="polygon261">
			<polygon points="137.4,431 137.4,431 129.1,442.1 121.9,442 			"/>
			<path d="M129.1,442.1C129.1,442.1,129.1,442.1,129.1,442.1l-7.2-0.1c0,0,0,0,0,0c0,0,0,0,0,0l15.5-10.9c0,0,0,0,0,0c0,0,0,0,0,0
				L129.1,442.1C129.2,442.1,129.2,442.1,129.1,442.1z M122,441.9l7.1,0.1l8.1-10.9L122,441.9z"/>
		</g>
		<g id="polygon263">
			<polygon fill="#FFFFFF" points="137.4,431 137.4,431 124.2,435.1 121.9,442 			"/>
			<path d="M121.9,442C121.9,442,121.9,442,121.9,442C121.9,442,121.9,442,121.9,442l2.3-6.9c0,0,0,0,0,0l13.2-4.1c0,0,0,0,0,0
				c0,0,0,0,0,0L121.9,442C121.9,442,121.9,442,121.9,442z M124.3,435.1l-2.3,6.7l15.3-10.8L124.3,435.1z"/>
		</g>
		<g id="polygon265">
			<polygon points="604.2,417 604.2,417 604.9,430.8 599.2,435.3 			"/>
			<path d="M599.2,435.3C599.2,435.3,599.2,435.3,599.2,435.3C599.2,435.3,599.2,435.3,599.2,435.3l4.9-18.3c0,0,0,0,0,0
				c0,0,0,0,0,0c0,0,0,0,0,0l0.7,13.7c0,0,0,0,0,0L599.2,435.3C599.2,435.3,599.2,435.3,599.2,435.3z M604.1,417.2l-4.9,18l5.6-4.5
				L604.1,417.2z"/>
		</g>
		<g id="polygon267">
			<polygon fill="#FFFFFF" points="604.2,417 604.2,417 596.6,428.5 599.2,435.3 			"/>
			<path d="M599.2,435.3C599.2,435.3,599.2,435.3,599.2,435.3l-2.6-6.8c0,0,0,0,0,0l7.5-11.5c0,0,0,0,0,0c0,0,0,0,0,0L599.2,435.3
				C599.2,435.3,599.2,435.3,599.2,435.3z M596.7,428.6l2.5,6.7l4.9-18L596.7,428.6z"/>
		</g>
		<g id="polygon269">
			<polygon points="583.4,424.9 583.4,424.9 596.7,428.5 599.2,435.3 			"/>
			<path d="M599.2,435.3C599.2,435.3,599.2,435.3,599.2,435.3L583.4,425c0,0,0,0,0,0c0,0,0,0,0,0l13.3,3.6c0,0,0,0,0,0L599.2,435.3
				C599.2,435.3,599.2,435.3,599.2,435.3C599.2,435.3,599.2,435.3,599.2,435.3z M583.5,425l15.6,10.2l-2.5-6.7L583.5,425z"/>
		</g>
		<g id="polygon271">
			<polygon fill="#FFFFFF" points="583.4,424.9 583.4,424.9 592,435.7 599.2,435.3 			"/>
			<path d="M592,435.7C592,435.7,592,435.7,592,435.7l-8.6-10.7c0,0,0,0,0,0c0,0,0,0,0,0l15.8,10.4c0,0,0,0,0,0c0,0,0,0,0,0
				L592,435.7C592,435.7,592,435.7,592,435.7z M583.5,425.1l8.5,10.6l7.1-0.4L583.5,425.1z"/>
		</g>
		<g id="polygon273">
			<polygon points="584.4,447.2 584.4,447.2 592,435.7 599.2,435.3 			"/>
			<path d="M584.4,447.2C584.4,447.2,584.4,447.2,584.4,447.2C584.4,447.2,584.4,447.2,584.4,447.2l7.5-11.6c0,0,0,0,0,0l7.2-0.4
				c0,0,0,0,0,0c0,0,0,0,0,0c0,0,0,0,0,0L584.4,447.2C584.5,447.2,584.4,447.2,584.4,447.2z M592,435.7l-7.4,11.3l14.6-11.7
				L592,435.7z"/>
		</g>
		<g id="polygon275">
			<polygon fill="#FFFFFF" points="584.4,447.2 584.4,447.2 597.3,442.3 599.2,435.3 			"/>
			<path d="M584.4,447.2C584.4,447.2,584.4,447.2,584.4,447.2C584.4,447.2,584.4,447.2,584.4,447.2l14.8-11.9c0,0,0,0,0,0
				c0,0,0,0,0,0l-1.9,7c0,0,0,0,0,0L584.4,447.2C584.4,447.2,584.4,447.2,584.4,447.2z M599.2,435.4l-14.6,11.7l12.7-4.8
				L599.2,435.4z"/>
		</g>
		<g id="polygon277">
			<polygon points="605.9,453 605.9,453 597.3,442.3 599.2,435.3 			"/>
			<path d="M605.9,453C605.9,453,605.9,453,605.9,453l-8.6-10.7c0,0,0,0,0,0l1.9-7c0,0,0,0,0,0c0,0,0,0,0,0c0,0,0,0,0,0L605.9,453
				C606,453,605.9,453,605.9,453C605.9,453,605.9,453,605.9,453z M597.3,442.3l8.5,10.6l-6.6-17.4L597.3,442.3z"/>
		</g>
		<g id="polygon279">
			<polygon fill="#FFFFFF" points="605.9,453 605.9,453 605.3,439.3 599.2,435.3 			"/>
			<path d="M605.9,453C605.9,453,605.9,453,605.9,453l-6.7-17.7c0,0,0,0,0,0c0,0,0,0,0,0l6,4c0,0,0,0,0,0L605.9,453
				C605.9,453,605.9,453,605.9,453C605.9,453,605.9,453,605.9,453z M599.3,435.4l6.6,17.4l-0.7-13.5L599.3,435.4z"/>
		</g>
		<g id="polygon281">
			<polygon points="618.1,434.4 618.1,434.4 605.3,439.3 599.2,435.3 			"/>
			<path d="M605.3,439.3C605.3,439.3,605.2,439.3,605.3,439.3l-6.1-4c0,0,0,0,0,0c0,0,0,0,0,0l18.9-0.9c0,0,0,0,0,0c0,0,0,0,0,0
				c0,0,0,0,0,0L605.3,439.3C605.3,439.3,605.3,439.3,605.3,439.3z M599.3,435.3l6,3.9l12.7-4.8L599.3,435.3z"/>
		</g>
		<g id="polygon283">
			<polygon fill="#FFFFFF" points="618.1,434.4 618.1,434.4 604.9,430.8 599.2,435.3 			"/>
			<path d="M599.2,435.3C599.2,435.3,599.2,435.3,599.2,435.3C599.2,435.3,599.2,435.3,599.2,435.3l5.6-4.6c0,0,0,0,0,0l13.3,3.6
				c0,0,0,0,0,0c0,0,0,0,0,0L599.2,435.3C599.2,435.3,599.2,435.3,599.2,435.3z M604.9,430.8l-5.6,4.5l18.6-0.9L604.9,430.8z"/>
		</g>
		<g id="path285">
			<path inkscape:connector-curvature="0" d="M376.6,432.4L376.6,432.4c5.5-5.1,9-11.7,9.2-18.6l-0.3-0.3c-2,6.4-6.4,11.8-9,17.9
				V432.4z"/>
			<path d="M376.5,432.5l0-1c1.1-2.7,2.6-5.3,4-7.7c1.9-3.2,3.8-6.6,4.9-10.2l0,0l0.3,0.3v0C385.6,420.5,382.3,427.1,376.5,432.5
				L376.5,432.5L376.5,432.5L376.5,432.5z M376.6,431.5v0.9c5.7-5.3,8.9-11.8,9.2-18.5l-0.2-0.2c-1.1,3.6-3.1,6.9-4.9,10.2
				C379.2,426.2,377.7,428.8,376.6,431.5z"/>
		</g>
		<g id="path287">
			<path inkscape:connector-curvature="0" d="M385.8,402.3h-0.3l-0.4-5.1l0.4-0.1l0.3,4.3V402.3 M395.9,390.1
				c-3.7,0.8-7.5-0.1-10.7-1.6c-3.1,2-6.4,3.8-10.2,4.2c2.1-2.8,6.7-4.7,9.6-8C387.7,387.8,391.6,389.4,395.9,390.1"/>
		</g>
		<g id="path289">
			<path inkscape:connector-curvature="0" fill="#E0AF35" d="M312,482.4c0,0,2.8-10.9,10.8-10.9c8,0,7.3,1.8,9,3.3
				c1.6,1.4,3.2,3.5,2.6,4.7c-0.1,0.1-0.6,0.7-0.7,0.7c-0.3,0.3-3.7,2.2-4.5,2.4c-2.1,0.6-6.3,0.8-8.8,1c-3.3,0.2-5.9-1.4-6.7-1.4
				C313,482.2,312,482.4,312,482.4L312,482.4z"/>
			<path d="M319.9,483.6c-1.9,0-3.6-0.6-4.8-1.1c-0.6-0.2-1-0.4-1.3-0.4h0c-0.8,0-1.8,0.2-1.8,0.2l0,0l0,0c0,0,0.7-2.8,2.4-5.4
				c1-1.6,2.1-2.8,3.3-3.7c1.5-1.1,3.3-1.7,5.1-1.7c6.4,0,7.3,1.1,8.2,2.3c0.2,0.3,0.5,0.6,0.9,1c1.7,1.4,3.2,3.5,2.6,4.7
				c-0.1,0.1-0.6,0.7-0.7,0.8c-0.3,0.3-3.7,2.2-4.5,2.4c-1.7,0.5-4.7,0.7-7.2,0.9c-0.6,0-1.1,0.1-1.6,0.1
				C320.3,483.6,320.1,483.6,319.9,483.6z M313.8,482.1L313.8,482.1c0.3,0,0.7,0.2,1.3,0.4c1.1,0.4,2.8,1,4.7,1c0.2,0,0.4,0,0.7,0
				c0.5,0,1-0.1,1.6-0.1c2.4-0.2,5.4-0.3,7.1-0.8c0.7-0.2,4.1-2.1,4.4-2.4c0.1-0.1,0.6-0.6,0.7-0.7c0.6-1.2-0.9-3.2-2.6-4.6
				c-0.4-0.3-0.6-0.6-0.9-1c-0.9-1.2-1.8-2.3-8.2-2.3c-4.1,0-6.8,2.9-8.4,5.4c-1.6,2.5-2.3,5-2.4,5.4
				C312.3,482.3,313.1,482.1,313.8,482.1z"/>
		</g>
		<g id="path291">
			<path inkscape:connector-curvature="0" d="M315.1,482c0,0-1.4-1.6,0.3-3.6c0.3-0.3,1.3-0.4,1.9-1.6c1-2.1,4.6-2.9,6.5-2.7
				c2.8,0.2,8.8,5.1,8.8,5.1s1.3,2.2-0.1,1.3c-1.1-0.7-1.8-1.8-3.5-1.5c-1.7,0.3-4.6,2.5-6.6,1.9c-2-0.6-3.8-2.3-4.7-2.1
				C316.9,479.1,315.1,482,315.1,482"/>
		</g>
		<g id="path293">
			<path inkscape:connector-curvature="0" fill="#E0AF35" d="M334.4,479.2c1.7,0.9,3.1,2.3,4.4,4.3c1.3,2,1.2,6.4-0.1,9.3
				c-0.9,2.2-6.8,5-6.8,5s3-6.1,2.7-8.5c-0.3-2.1-1.6-3.3-2.8-4.4c-1-1-2.9-2.1-2.9-2.1s2.3-2.2,3.7-2.5
				C334,479.9,334.4,479.2,334.4,479.2z"/>
			<path d="M331.9,497.9L331.9,497.9c0.1-0.1,3-6.2,2.7-8.6c-0.2-1.9-1.4-3-2.4-4.1c-0.1-0.1-0.2-0.2-0.3-0.3c-1-1-2.9-2.1-2.9-2.1
				l0,0l0,0c0,0,2.4-2.2,3.7-2.5c1.3-0.3,1.7-1,1.7-1l0,0l0,0c1.7,0.9,3.1,2.3,4.5,4.3c0.6,1,1,2.5,0.9,4.3c0,1.8-0.4,3.6-1,5
				C337.9,495,332.1,497.8,331.9,497.9L331.9,497.9z M329.1,482.7c0.3,0.2,2,1.2,2.9,2.1c0.1,0.1,0.2,0.2,0.3,0.3
				c1.1,1.1,2.2,2.2,2.5,4.1c0.3,2.3-2.3,7.8-2.6,8.5c0.7-0.3,5.8-2.9,6.7-5c1.3-3,1.4-7.4,0.1-9.3c-1.3-2-2.7-3.3-4.4-4.2
				c-0.1,0.1-0.5,0.7-1.8,1C331.5,480.6,329.3,482.5,329.1,482.7z"/>
		</g>
		<g id="path295">
			<path inkscape:connector-curvature="0" d="M332.2,480.6l1-0.3c0,0,3.2,2.5,4.1,5.2c0.4,1.2,1,3.1-0.3,6.3
				c-0.8,1.9-2.3,3.4-2.3,3.4s1.3-2.4,2.1-5.6c0.4-1.5-0.1-3.7-2-5.9C333.8,482.4,332.2,480.6,332.2,480.6"/>
		</g>
		<g id="path297">
			<path inkscape:connector-curvature="0" fill="#E0AF35" d="M301.6,482c0,0-0.8,4.2-0.6,7.7c0.2,3.7,3,7.5,5.7,8
				c3.3,0.6,5.3,0.3,5.3,0.3c-1.1-1-4.3-3.4-4.6-5.9c-0.3-2.5,0.8-3.4,1.1-5.1c0.3-1.7,0.9-2.5,0.9-2.5s-2.3-1.3-3.6-1.8
				C304.4,482.3,301.6,482,301.6,482z"/>
			<path d="M310.7,498.2c-0.8,0-2.2-0.1-4-0.4c-1.3-0.2-2.7-1.3-3.8-2.8c-1.1-1.6-1.8-3.5-1.9-5.2c-0.2-3.4,0.6-7.7,0.6-7.7l0,0l0,0
				c0,0,2.9,0.3,4.2,0.7c1.3,0.5,3.6,1.7,3.6,1.8l0,0l0,0c0,0-0.7,0.9-0.9,2.5c-0.1,0.6-0.3,1.1-0.5,1.6c-0.4,0.9-0.7,1.9-0.6,3.5
				c0.2,2.1,2.6,4.2,4,5.4c0.2,0.2,0.4,0.4,0.6,0.5l0,0l-0.1,0C311.9,498.1,311.5,498.2,310.7,498.2z M301.6,482
				c-0.1,0.4-0.8,4.4-0.6,7.7c0.2,3.6,3,7.5,5.7,8c1.8,0.3,3.1,0.4,4,0.4c0.6,0,1.1,0,1.2-0.1c-0.2-0.1-0.3-0.3-0.6-0.5
				c-1.4-1.2-3.8-3.3-4-5.4c-0.2-1.6,0.2-2.6,0.6-3.5c0.2-0.5,0.4-1,0.5-1.6c0.2-1.5,0.8-2.3,0.9-2.5c-0.3-0.1-2.3-1.3-3.6-1.7
				C304.5,482.3,301.9,482.1,301.6,482z"/>
		</g>
		<g id="path299">
			<path inkscape:connector-curvature="0" d="M305,482.6c0,0-1.3,2.6-1.3,4.7c0,3.7,0.3,4.9,1,6.4c0.6,1.3,3.9,3.1,3.9,3.1
				s-2.5-1.9-2.9-4.9c-0.4-3,0.2-6.7,0.9-8.4L305,482.6"/>
		</g>
		<g id="path301">
			<path inkscape:connector-curvature="0" fill="#E0AF35" d="M304.7,473.1c0,0-8.8,0.3-10.6-0.1c-1.8-0.4-2.1-0.8-3.6-0.7
				c-1.5,0.1-8.4,1.6-9.9,4.4c-1.5,2.8-2.5,4.5-2.4,5c0.1,0.5,2.8,0.8,3.8,1.2c0.9,0.3,4.4,0.8,5.1,1c4.4,1,9.7-0.3,7.8-0.1
				c2.4-0.3,5.3-1.4,5.9-2c0.6-0.6,1.5-1.4,1.8-2.3C302.9,478.6,304.7,473.1,304.7,473.1L304.7,473.1z M317.5,473.5
				c0,0-3.7-8.2-6.4-11.3c0,0-4,5.3-5.2,7.5c-1.2,2.3-4.7,8.1-4.6,9c0.1,0.8-0.7,2.5-0.4,2.8c0.2,0.3,0.7,0.4,2.7,0.8
				c2,0.3,3,0.9,3.8,1.6c0.8,0.7,2.7,0.8,3.3,0.8c0.6-0.1,1.3-2.2,1.3-2.2s1.3-3.8,2.3-5.2C315.2,475.9,317.5,473.5,317.5,473.5z"/>
			<path d="M310.3,484.6c-0.8,0-2.2-0.2-2.9-0.8c-0.9-0.7-1.9-1.2-3.8-1.6c-1.8-0.3-2.3-0.4-2.6-0.7c-0.1,0.1-0.2,0.2-0.2,0.2
				c-0.6,0.6-3.2,1.6-5.5,1.9c0,0,0,0,0,0c0,0.1-1.1,0.3-1.3,0.3c-0.7,0.1-1.8,0.2-3.2,0.2c-1.4,0-2.6-0.1-3.7-0.4
				c-0.2-0.1-0.8-0.2-1.5-0.3c-1.3-0.2-3-0.5-3.6-0.7c-0.3-0.1-0.8-0.2-1.4-0.3c-1.1-0.2-2.3-0.5-2.4-0.9c-0.1-0.4,0.5-1.5,1.5-3.3
				c0.3-0.5,0.6-1.1,0.9-1.7c1.5-2.9,8.6-4.4,9.9-4.4c0.2,0,0.3,0,0.4,0c0.7,0,1.1,0.1,1.8,0.3c0.4,0.1,0.8,0.2,1.4,0.4
				c0.6,0.1,2.1,0.2,4.3,0.2c2.1,0,4.4-0.1,5.6-0.1l0.4-0.7c0.6-1,1.1-2,1.5-2.7c1.2-2.2,5.1-7.5,5.2-7.5l0,0l0,0
				c2.7,3.1,6.3,11.2,6.4,11.3l0,0l0,0c0,0-2.3,2.4-3.2,3.8c-0.9,1.3-2.3,5.1-2.3,5.2c0,0.1-0.8,2.1-1.4,2.2
				C310.6,484.6,310.5,484.6,310.3,484.6z M301,481.6c0.3,0.2,0.9,0.4,2.6,0.6c1.9,0.3,2.9,0.9,3.9,1.6c0.7,0.6,2.1,0.8,2.9,0.8
				c0.1,0,0.2,0,0.3,0c0.6-0.1,1.3-2.1,1.3-2.2c0,0,1.4-3.9,2.3-5.2c0.9-1.3,3-3.6,3.2-3.8c-0.2-0.4-3.7-8.2-6.3-11.2
				c-0.3,0.4-4,5.3-5.1,7.5c-0.3,0.7-0.9,1.6-1.5,2.7l-0.4,0.7c0.4,0,0.6,0,0.6,0l0,0l0,0c0,0.1-1.8,5.5-2.2,6.4
				C302.3,480.3,301.6,481,301,481.6z M291,472.3c-0.1,0-0.3,0-0.4,0c-1.3,0.1-8.3,1.5-9.9,4.4c-0.3,0.6-0.7,1.2-0.9,1.7
				c-1,1.8-1.6,2.9-1.5,3.3c0,0.3,1.3,0.6,2.3,0.8c0.6,0.1,1.1,0.2,1.4,0.3c0.6,0.2,2.3,0.5,3.6,0.7c0.7,0.1,1.2,0.2,1.5,0.3
				c1.1,0.2,2.3,0.4,3.7,0.4c2.1,0,3.9-0.3,4.4-0.4c-0.1,0-0.1,0-0.3,0l0-0.1l0,0c2.4-0.3,5.2-1.4,5.8-2c0.1-0.1,0.1-0.1,0.2-0.2v0
				c0,0,0,0-0.1-0.1c-0.1-0.2,0-0.7,0.2-1.3c0.1-0.5,0.3-1.2,0.3-1.6c-0.1-0.6,1.4-3.2,2.7-5.6l0,0c-1.2,0-3.5,0.1-5.6,0.1
				c-2.3,0-3.7-0.1-4.3-0.2c-0.6-0.1-1-0.3-1.4-0.4C292.1,472.4,291.7,472.3,291,472.3z M304.1,473.1c-1.3,2.4-2.8,5-2.7,5.6
				c0,0.4-0.1,1-0.3,1.6c-0.1,0.6-0.3,1.1-0.2,1.2c0,0,0,0,0.1,0.1c0.6-0.6,1.3-1.3,1.6-2.1c0.3-0.9,2-5.9,2.2-6.4
				C304.6,473.1,304.4,473.1,304.1,473.1z"/>
		</g>
		<g id="path303">
			<path inkscape:connector-curvature="0" d="M313.7,478.2c0,0-1.4-1.7-2.6-2.2c-1.2-0.5-3.3-0.6-3.3-0.6s-1.7,0.7-1.7,1.3
				c-0.1,0.7-0.1,1.4,0.3,1.7c0.3,0.3,1.1,0.8,2.8,1.2c1.7,0.4,3.5,1.1,3.5,1.1L313.7,478.2"/>
		</g>
		<g id="path305">
			<path inkscape:connector-curvature="0" fill="#E0AF35" d="M278.9,482.2c0,0-0.9,4.2,0.4,8.9c0.8,3,2.9,5.7,5.1,6.6
				c2.2,0.9,8.4,0.2,8.4,0.2s-4.1-0.7-6.4-4.8c-1.1-2-0.9-5-0.7-6.4c0.2-1.4,0.7-2.8,0.7-2.8s-3.4-0.7-4.1-0.8
				C281.5,482.9,278.9,482.2,278.9,482.2z"/>
			<path d="M288.1,498.2C288.1,498.2,288.1,498.2,288.1,498.2c-1.7,0-2.9-0.2-3.7-0.5c-2.2-0.9-4.3-3.6-5.1-6.6
				c-1.3-4.7-0.4-8.9-0.4-9l0,0l0,0c0,0,2.6,0.7,3.4,0.9c0.7,0.1,4.1,0.8,4.1,0.8l0,0l0,0c0,0-0.6,1.3-0.7,2.7
				c-0.2,1.6-0.3,4.5,0.7,6.4c2.2,4.1,6.3,4.7,6.3,4.8l0,0.1C292.8,497.9,290.4,498.2,288.1,498.2z M278.9,482.2
				c-0.1,0.4-0.8,4.4,0.4,8.9c0.8,3,2.9,5.7,5.1,6.6c0.7,0.3,1.9,0.5,3.6,0.5c0,0,0,0,0,0c1.9,0,3.9-0.2,4.5-0.3
				c-0.8-0.2-4.2-1.2-6.2-4.7c-1.1-2-0.9-4.9-0.8-6.5c0.1-1.3,0.6-2.5,0.7-2.7c-0.4-0.1-3.4-0.7-4.1-0.8
				C281.5,483,279.2,482.3,278.9,482.2z"/>
		</g>
		<g id="path307">
			<path inkscape:connector-curvature="0" d="M281.6,483c0,0-0.2,3.4-0.1,5.4c0.2,1.9,1.8,3.8,1.8,3.8s-0.7-2.6-0.7-4
				c0-1.4,0.3-5,0.3-5L281.6,483 M301.8,477.1c0,0-4.9-0.2-7.3-0.1c-2.4,0.2-3.7,0.8-4.2,1.1c-0.5,0.3-3.9,0.9-3.9,0.9l-4.2,4
				l2.8,0.5c3-0.5,1.1-2.3,6.4-2.6c2.9-0.2,8.6-1.9,10-2.8L301.8,477.1"/>
		</g>
		<g id="path309">
			<path inkscape:connector-curvature="0" fill="#E0AF35" d="M397.7,471.5c0,0-1.7,0.1-4.8,0.5c-3.1,0.4-8.8,0.1-10.4,1.6
				c-1.5,1.5-5.9,3.5-7.4,6.6c-1.5,3.1-1.8,4.9-1.2,5.4c0.6,0.5,0.8,0.3,2.4,0.6c1.7,0.3,3.6,1,5.8,1.3c4,0.7,5.9-1.7,7.4-2.4
				c2-1,6.2-2.2,7.6-2.4c1.4-0.2,0.8-4.1,0.8-4.1L397.7,471.5L397.7,471.5z M381.6,487.5c0,0-0.2,3.9,1.1,6.4c1.3,2.5,2.4,2.6,4,3
				c1.6,0.4,3.6,0.3,3.6,0.3s-2.5,2.9-5.3,2.3c-2.8-0.5-6.9-3.9-8-5.7c-1.8-2.8-1.8-7.9-1.8-7.9s3.1,0.4,3.9,0.7
				C380.3,487.1,381.6,487.5,381.6,487.5z"/>
			<path d="M385.7,499.7c-0.2,0-0.5,0-0.7-0.1c-2.7-0.5-6.8-3.8-8.1-5.7c-1.8-2.8-1.8-7.8-1.8-7.9l0,0c0,0,0,0,0,0
				c-0.7-0.1-0.9-0.1-1.3-0.5c-0.6-0.6-0.2-2.5,1.2-5.4c1-2.1,3.4-3.7,5.2-5c0.9-0.6,1.7-1.2,2.2-1.7c1.1-1.1,4.4-1.3,7.4-1.4
				c1.1-0.1,2.2-0.1,3-0.2c3.1-0.4,4.8-0.5,4.8-0.5l0,0l0,0l0.4,7c0,0.2,0.6,3.9-0.9,4.1c-1.5,0.3-5.6,1.4-7.6,2.4
				c-0.3,0.2-0.7,0.4-1.1,0.7c-1.2,0.8-2.7,1.8-5,1.8l0,0c-0.4,0-0.9,0-1.4-0.1c-0.3-0.1-0.7-0.1-1-0.2c0.3,0.1,0.4,0.1,0.4,0.1l0,0
				l0,0c0,0-0.2,3.9,1.1,6.4c1.2,2.3,2.2,2.5,3.6,2.9c0.1,0,0.3,0.1,0.4,0.1c1.1,0.3,2.5,0.3,3.2,0.3c0.3,0,0.5,0,0.5,0l0.1,0l0,0.1
				C390.4,497.4,388.2,499.7,385.7,499.7z M375.3,486.1c0,0.4,0,5.1,1.8,7.8c1.2,1.8,5.4,5.2,8,5.7c0.2,0,0.4,0.1,0.7,0.1
				c2.2,0,4.2-2,4.5-2.3c-0.1,0-0.2,0-0.4,0c-0.7,0-2.1,0-3.2-0.3c-0.1,0-0.3-0.1-0.4-0.1c-1.4-0.4-2.4-0.6-3.6-2.9
				c-1.3-2.4-1.1-6.1-1.1-6.4c-0.1,0-0.6-0.2-1.1-0.4c-0.5-0.1-1-0.3-1.5-0.4c-0.4-0.1-0.8-0.2-1.2-0.3
				C376.7,486.3,375.5,486.2,375.3,486.1z M397.7,471.6c-0.2,0-1.9,0.1-4.7,0.5c-0.8,0.1-1.9,0.2-3,0.2c-2.9,0.1-6.2,0.3-7.3,1.4
				c-0.5,0.5-1.3,1-2.2,1.7c-1.9,1.3-4.2,2.9-5.2,4.9c-1.4,2.8-1.8,4.8-1.2,5.3c0.4,0.3,0.6,0.4,1.3,0.4c0.3,0,0.6,0.1,1.1,0.1
				c0.4,0.1,0.8,0.2,1.4,0.3c0.7,0.1,1.2,0.2,1.5,0.3c0.4,0.1,0.9,0.3,1.3,0.4c0.6,0.2,1.2,0.3,1.7,0.4c0.5,0.1,0.9,0.1,1.4,0.1l0,0
				c2.3,0,3.7-1,4.9-1.8c0.4-0.3,0.8-0.5,1.1-0.7c2-1,6.1-2.2,7.6-2.4c1.4-0.2,0.8-4,0.8-4.1L397.7,471.6z M378.6,486.7
				c0.1,0,0.2,0.1,0.3,0.1c0.2,0,0.3,0.1,0.5,0.1c-0.1,0-0.2,0-0.2-0.1C379.1,486.8,378.9,486.7,378.6,486.7z M375.6,486.1
				c0.3,0,0.7,0.1,1.1,0.2c-0.1,0-0.3,0-0.4-0.1C376.1,486.2,375.8,486.1,375.6,486.1z"/>
		</g>
		<g id="path311">
			<path inkscape:connector-curvature="0" d="M395.7,475.3c0,0.3-1.7,1.8-1.7,1.8l-5.3,1.6l-3.9,1.8l-3.7,2.5c0,0-2,2.1-2.2,2.4
				c-0.2,0.3-0.3,1.2-0.3,1.2l2.8,0.8c0,0,0-0.8,0.8-1.5c0.7-0.6,1.4-1.2,1.9-1.5c1.1-0.8,3-1.8,4-2.1c1-0.3,3.7-1.8,4.1-2.1
				c0.4-0.3,1.4,0.1,2.5-0.7C395.8,478.8,395.7,475.3,395.7,475.3 M378.6,486.7c0,0-0.3,3.9,0.3,5.3c0.5,1.4,2,2.8,2,2.8
				s-1-2.9-1.1-4.4c-0.1-0.9,0.3-3.3,0.3-3.3L378.6,486.7"/>
		</g>
		<g id="path313">
			<path inkscape:connector-curvature="0" fill="#E0AF35" d="M408,471.9c1.4-0.2,2.7,0,6.1-0.6c3.4-0.6,5.7,0.1,8,0.7
				c3.5,0.9,7.4,3.6,8.1,4.5c0.9,1.1,1.9,5.3,0,6.2c-1.9,0.9-4.3,2.3-5.8,1.7c-1.6-0.6-6.7-0.8-9-1.3c-2.3-0.4-4-0.2-4-0.2
				L408,471.9z M430.8,482.4c0,0,0.8,2.2,0.8,4.9c0.1,2.8-0.7,4.9-1.4,6.6c-0.9,2.1-5.4,3.9-5.4,3.9s1.8-2.8,2.5-4.9
				c0.7-2.1-0.1-4.9-0.3-6c-0.2-1.1-1.3-2.5-1.3-2.5s1-0.2,1.8-0.5C428.4,483.6,430.8,482.4,430.8,482.4L430.8,482.4z"/>
			<path d="M424.7,498L424.7,498c0.1-0.1,1.9-2.9,2.6-5c0.6-2,0-4.7-0.3-5.8l0-0.2c-0.2-1-1-2.2-1.2-2.5c-0.5,0.1-0.9,0-1.3-0.1
				c-1-0.4-3.2-0.6-5.4-0.8c-1.4-0.1-2.7-0.3-3.6-0.4c-1.3-0.2-2.4-0.3-3.1-0.3c-0.6,0-0.9,0-0.9,0l0,0l0,0l-3.4-11l0,0
				c0.5-0.1,1-0.1,1.5-0.1c1-0.1,2.3-0.1,4.6-0.5c0.9-0.2,1.8-0.2,2.6-0.2c2,0,3.5,0.4,5.2,0.8l0.2,0.1c3.6,0.9,7.4,3.6,8.1,4.5
				c0.6,0.8,1.3,3.2,1,4.7c-0.1,0.5-0.3,1-0.6,1.2c0.1,0,0.1,0,0.1,0l0,0l0,0c0,0,0.8,2.2,0.8,4.9c0.1,2.7-0.6,4.8-1.4,6.6
				C429.4,496.1,424.9,497.9,424.7,498L424.7,498z M425.8,484.5c0.2,0.3,1,1.5,1.2,2.4l0,0.2c0.3,1.2,0.9,3.9,0.3,5.9
				c-0.6,1.9-2.2,4.4-2.5,4.9c0.6-0.3,4.5-1.9,5.3-3.9c0.8-1.8,1.5-3.9,1.4-6.6c-0.1-2.5-0.7-4.6-0.8-4.9c-0.1,0-0.2,0.1-0.4,0.2
				c0,0-0.1,0-0.1,0c-0.2,0.1-0.5,0.2-0.7,0.3C428.4,483.6,427,484.3,425.8,484.5L425.8,484.5z M412.4,482.8c0.7,0,1.8,0,3.1,0.3
				c0.9,0.2,2.2,0.3,3.6,0.4c2.2,0.2,4.5,0.5,5.4,0.8c0.3,0.1,0.7,0.2,1.2,0.1l0,0l0,0c0,0,1-0.2,1.8-0.5c0.6-0.2,2-0.9,2.8-1.3
				c0.4-0.3,0.7-0.7,0.9-1.4c0.3-1.6-0.4-3.9-1-4.7c-0.7-0.9-4.6-3.6-8.1-4.5l-0.2-0.1c-1.7-0.4-3.2-0.8-5.2-0.8
				c-0.9,0-1.7,0.1-2.6,0.2c-2.2,0.4-3.5,0.4-4.6,0.5c-0.5,0-1,0.1-1.5,0.1l3.3,10.9C411.5,482.8,411.9,482.8,412.4,482.8z"/>
		</g>
		<g id="path315">
			<path inkscape:connector-curvature="0" d="M428.4,483.7c0,0,0.7,0.5,1.2,2.8c0.4,1.9,0.2,4.7,0.2,4.7s0.9-3,0.7-4.8
				c-0.2-1.8-1.2-3.2-1.2-3.2L428.4,483.7"/>
		</g>
		<g id="path317">
			<path inkscape:connector-curvature="0" fill="#E0AF35" d="M400.7,466.5c-2.2,0-4.6,1.5-6,3.2c-1.4,1.7-1.2,4.7-0.6,6.6
				c0.6,1.9,2.3,5.2,3.9,7c1.7,1.8,4.6,3.1,7.4,2.9c2.8-0.2,6.9-0.4,6.9-2.6c0.1-2.2-0.7-4.9-1.3-7c-0.6-2.1-1.5-4.4-2.9-6.1
				C405.8,467.7,404.7,466.4,400.7,466.5L400.7,466.5z"/>
			<path d="M404.9,486.3L404.9,486.3c-2.5,0-5.2-1.2-6.9-3c-1.7-1.8-3.3-5.1-3.9-7c-0.6-2-0.8-5,0.6-6.6c1.6-1.8,4-3.1,6-3.2
				c0.1,0,0.2,0,0.3,0c3.7,0,4.8,1.2,7,4c1.5,1.9,2.4,4.4,2.9,6.1c0,0.2,0.1,0.3,0.1,0.5c0.6,2,1.3,4.5,1.2,6.5
				c-0.1,2.2-4.2,2.4-6.9,2.6l0,0C405.2,486.3,405.1,486.3,404.9,486.3z M401.1,466.6c-0.1,0-0.2,0-0.3,0c-2,0-4.5,1.3-6,3.2
				c-1.4,1.7-1.2,4.6-0.6,6.6c0.6,2,2.3,5.2,3.9,7c1.6,1.8,4.3,2.9,6.8,2.9h0c0.2,0,0.3,0,0.5,0l0,0c2.7-0.2,6.8-0.4,6.9-2.6
				c0.1-2-0.6-4.5-1.2-6.5c0-0.2-0.1-0.3-0.1-0.5c-0.5-1.7-1.4-4.2-2.9-6.1C405.8,467.7,404.7,466.6,401.1,466.6z"/>
		</g>
		<g id="path319">
			<path inkscape:connector-curvature="0" d="M410.7,476c0,0,0.4,1.2,0.4,1.5c0,0.3,0.1,1.4,0.1,1.4s-2.6,1.9-3.8,1.8
				c-1.3-0.2-3.6-0.3-5.1-1.8c-1.5-1.5-2.5-3.6-2.5-3.6s5.1,2.1,7.5,2C408.1,477.2,410.7,476,410.7,476"/>
		</g>
		<g id="path321">
			<path inkscape:connector-curvature="0" fill="#E0AF35" d="M402.5,485.6c0,0,1.8,2.2,1.9,3.9c0.1,1.8-0.2,3.7-0.9,4.9
				c-0.8,1.2-2.5,4.3-2.5,4.3s1.8,0.2,3.7-0.9c1.9-1.2,4.3-3.1,5-5.7c0.7-2.4,0.3-6.7,0.3-6.7s-2.9,0.9-5.3,0.9
				C403.8,486.3,402.5,485.6,402.5,485.6z"/>
			<path d="M401.5,498.8c-0.3,0-0.4,0-0.4,0l0,0l0,0c0,0,1.8-3,2.5-4.3c0.7-1.1,1-2.9,0.9-4.9c-0.1-1.7-1.9-3.9-1.9-3.9l0,0
				c0,0,1.3,0.7,2.2,0.7c2.4,0,5.3-0.9,5.3-0.9l0,0l0,0c0,0,0.4,4.3-0.3,6.7c-0.8,2.8-3.5,4.8-5,5.7
				C403.4,498.7,402.1,498.8,401.5,498.8z M401.1,498.7c0.3,0,1.9,0.1,3.6-0.9c1.5-0.9,4.2-2.9,5-5.7c0.6-2.3,0.3-6.2,0.3-6.6
				c-0.3,0.1-3.1,0.9-5.3,0.9c-0.7,0-1.7-0.5-2.1-0.7c0.4,0.5,1.8,2.3,1.8,3.8c0.1,2-0.2,3.8-0.9,5
				C402.9,495.6,401.3,498.4,401.1,498.7z"/>
		</g>
		<g id="path323">
			<path inkscape:connector-curvature="0" d="M406.3,488c0,0-0.1,3.2-0.2,4.2c-0.2,1-1,2.9-1,2.9s1.8-2.5,2-4c0.2-1.5,0-3.4,0-3.4
				L406.3,488 M428.2,475.8c1.5,1.6,3.1,3.6,1.9,5.9c-0.1,0.4-0.5,0.3-0.9,0.3c-1.5-1.7-0.7-5.2-3.9-5.5c-4-2.3-10.1,1.1-13.8-1.9
				c4.1-0.9,9.6-0.9,14.5,0L428.2,475.8"/>
		</g>
		<g id="polygon325">
			<polygon fill="#B2B2B2" points="234.2,505.3 228.9,505.3 228.9,498.3 278.9,498.3 278.9,505.3 273.5,505.3 273.5,512.9 
				278.9,512.9 278.9,523.4 256.1,523.4 256.1,512.9 260.2,512.9 260.2,505.3 247.6,505.3 247.6,505.3 247.6,512.9 251.6,512.9 
				251.6,523.4 228.9,523.4 228.9,512.9 234.2,512.9 			"/>
			<path d="M278.9,523.4h-22.8v-10.6h4v-7.5h-12.5v7.5h4v10.6h-22.8v-10.6h5.4v-7.5h-5.4v-7.1h50.1v7.1h-5.4v7.5h5.4V523.4z
				 M256.2,523.4h22.7v-10.5h-5.4v-7.6h5.4v-7h-50v7h5.4v7.6h-5.4v10.5h22.7v-10.5h-4v-7.6h12.6v7.6h-4V523.4z"/>
		</g>
		<g id="path327">
			<path d="M277.1,522.3h-20.9v-0.1L277.1,522.3l-0.1-9.4h0.1V522.3z M249.8,522.3h-20.9v-0.1L249.8,522.3l-0.1-9.4h0.1V522.3z
				 M271.7,512.9L271.7,512.9l-0.1-8.7h5.4v-5.8h0.1v5.9h-5.4V512.9z M245.8,512.9L245.8,512.9l-0.1-8.7h14.5v1.2h-0.1v-1.1h-14.3
				V512.9z M234.3,505.3L234.3,505.3l-0.1-1.1H229v-0.1h5.2V505.3z"/>
		</g>
		<g id="path329">
			<path inkscape:connector-curvature="0" d="M380,284.1l-4.4-11l1.3-0.2l-3.3-10.7l1.5,0.2l-4.2-9l1.7,0.3l-1.8-8.9h1l-1.7-6.7
				l1.7-0.2l-2.7-8.5l1.7,7.9l-2-0.3l2.2,6.9l-1.7-0.3l2.5,9.2l-2.2-0.2l4,8.9c0,0-2.7-1.2-2-0.2c0.7,1,4.2,11,4.2,11l-2,0.2
				l4.7,11.7H380"/>
		</g>
		
			<g id="text3369" transform="matrix(-0.99998865,0.00476494,-0.00476494,-0.99998865,251.11125,248.99088)" inkscape:transform-center-y="239.98144" inkscape:transform-center-x="-0.79849202">
			<g id="path5266">
				<path d="M105.9-239.8c4.8-8.6,9.7-17,14.6-25.4c-0.2-0.3-0.5-0.6-0.7-0.8c-0.2-0.3-0.4-0.7-0.5-1c-9.8,1.6-19.6,3.2-29.5,4.7
					l-0.1-0.1c6.9-5.9,14.5-12.3,20.9-17.2c-1.1-1.2-2.1-2.5-3-3.8c-0.9-1.3-1.7-2.7-2.4-4c-5.9,5.8-20.1,18-30.2,26.8
					c0.6,0.6,1.2,1.2,1.6,1.8s0.9,1.5,1.2,2.2c10-1.8,20.8-3.4,30.5-4.5c-4.4,8.1-10.1,18-15.3,26.8c0.6,0.5,1.1,1.1,1.6,1.8
					c0.5,0.7,0.8,1.4,1.1,2.1c11.9-6.2,24-12.2,36.4-17.7c-0.7-0.7-1.3-1.3-1.8-2.1c-0.5-0.7-0.9-1.6-1.3-2.4
					C121.4-248.2,113.8-243.7,105.9-239.8L105.9-239.8"/>
			</g>
			<g id="path5268">
				<path d="M87.7-277c10.3-10.3,7.7-21.7-1-30.3c-9.2-9.1-22.3-9.1-30.4-0.9c-9.9,9.9-7.8,21.5,0.9,30.2
					C66.7-268.5,79.6-268.9,87.7-277 M62.1-300.7c8.9-9,17.4-8.8,22.3-3.8c4.6,4.6,5.6,11.7-3.1,20.4c-7.1,7.1-16,9.5-21.6,3.8
					C54.4-285.6,55-293.6,62.1-300.7"/>
			</g>
			<g id="path5270">
				<path d="M47.1-304.4c6.8-9.7,16.1-21.5,17.3-22.7c-0.8-0.4-1.6-0.8-2.4-1.3c-0.7-0.5-1.4-1.1-2.1-1.8c-1.1,1.9-2.8,4.6-8.1,12.2
					c-2.5,3.6-5.3,7.5-7.9,11c-1.9-12.8-3.5-25.4-4.6-37.7c-0.7-0.3-1.4-0.6-2-1.1c-0.7-0.5-1.2-1-1.8-1.6
					c-8.9,12.6-13.3,19-23.8,32.3c0.8,0.4,1.6,0.8,2.3,1.3c0.7,0.5,1.4,1.1,2,1.7c1.2-2.4,10.2-15.3,15.5-22.9
					c1.7,12.5,3.2,24.7,4.8,37.1c0.8,0.4,1.6,0.8,2.3,1.3c0.7,0.5,1.4,1.1,2,1.7C42.3-297.1,44.1-300.1,47.1-304.4"/>
			</g>
			<g id="path5272">
				<path d="M17.7-338.6c3.1-5.7,5.3-9.6,8-14c-1.2-0.5-2.6-1.1-4.3-2c-1.7-0.9-3-1.8-4.1-2.5c-2.1,4.7-4.1,8.7-7.2,14.4l-3.7,7
					c-3.1,5.7-5.3,9.6-8,14c1.2,0.5,2.6,1.1,4.3,2c1.7,0.9,3,1.8,4.1,2.5c2.1-4.7,4.1-8.7,7.2-14.4L17.7-338.6"/>
			</g>
			<g id="path5274">
				<path d="M-5-349.7c2.5-6,4.3-10.1,6.6-14.7c-1.2-0.4-2.7-0.8-4.5-1.6s-3.1-1.5-4.3-2.1c-1.6,4.8-3.3,9-5.8,15l-5.6,13.4
					c-0.9,2-1.7,4-2.1,4.7c-2.1-0.9-6.5-3.1-9.2-4.7c-0.2,0.9-0.4,1.7-0.7,2.5s-0.8,1.5-1.3,2.2c4.6,1.7,7.1,2.6,13.7,5.4
					c6.6,2.8,9,3.9,13.8,6.1c0.2-0.9,0.4-1.7,0.7-2.5s0.8-1.5,1.3-2.2c-3.4-1-8-2.5-10.1-3.4c0.2-0.8,1-2.7,1.8-4.8L-5-349.7"/>
			</g>
			<g id="path5276">
				<path d="M-23.5-353.7c3.6-14.1-4.5-22.6-16.4-25.6c-12.6-3.2-23.8,3.6-26.6,14.8c-3.4,13.6,4.3,22.5,16.3,25.5
					C-37.2-335.7-26.3-342.6-23.5-353.7 M-57.6-361c3.1-12.3,10.4-16.4,17.2-14.7c6.3,1.6,10.8,7.2,7.7,19.1
					c-2.4,9.7-8.9,16.3-16.6,14.4C-56.5-344-60-351.3-57.6-361"/>
			</g>
			<g id="path5278">
				<path d="M-89.2-386.4c-1.7,0-3.6,0-5.3-0.2c-1.7-0.2-3.5-0.5-5.2-0.8c3.6,6.9,7.4,13.9,10.5,20.8c-5.9,0.9-9.4,4.2-9.9,9.8
					c-0.3,3.4,0.9,6.1,3.1,8c1.9,1.6,4,2.3,9.8,2.9c3.9,0.4,6.4,0.3,8.5,0.5c1.9,0.2,3.5,0.5,4.7,0.7c0.1-5.1,0.4-9.6,1-16.1
					l0.7-7.9c0.6-6.5,1.1-10.9,1.9-16c-1.3,0-2.9,0-4.8-0.1c-1.9-0.2-3.5-0.5-4.7-0.7c-0.1,5.1-0.4,9.6-1,16.1L-80-367l-0.5,0
					L-89.2-386.4 M-90.1-357.2c0.5-5.4,3.5-8,8.6-7.6c0.4,0,0.8,0.1,1.3,0.2c-0.5,5.3-1,10.5-1.6,15.7
					C-88.1-349.4-90.7-350.4-90.1-357.2"/>
			</g>
			<g id="path5280">
				<path d="M-105.1-371c-0.2-6.5-0.2-11,0-16.1c-1.3,0.2-2.8,0.4-12.3,0.6c-5.3,0.2-8.1,0-10.2,0c0.1,0.7,0.3,1.3,0.3,2.5
					c0,1.2-0.1,1.8-0.2,2.6c4.5-0.7,8.9-1,13.3-1.1c0.2,2.3,0.3,4.8,0.4,7.3c0.1,2.5,0.1,5,0.2,7.4c-4.4,0.1-8.8,0.1-13.2-0.1
					c0.2,1.2,0.3,1.7,0.4,2.4c0,0.8,0,1.3-0.2,2.6c4.4-0.4,8.1-0.6,13.2-0.8c0.1,4.2,0.2,8.4,0.1,12.7c-1.7,0.1-8.7-0.2-13.1-0.3
					c0.1,0.9,0.3,1.4,0.3,2.6c0,1-0.1,1.7-0.2,2.4c1.6-0.2,6.4-0.5,12.1-0.6c3.4-0.1,6.9,0,10.3,0c-0.5-5.1-0.7-9.6-0.9-16.1
					L-105.1-371"/>
			</g>
			<g id="path5282">
				<path d="M-133.3-370.1c-1.1-6.4-1.7-10.8-2.2-15.9c-1.2,0.3-2.8,0.8-4.6,1.1c-3,0.5-6.9,0.9-12.6,1.8
					c-10.8,1.8-18.4,11.6-16.3,24.2c2.4,14.4,12.1,17.1,25.2,14.9c5-0.8,7.8-1.6,10.3-2c1.9-0.3,3.5-0.4,4.7-0.5
					c-1.2-5-2-9.4-3.1-15.8L-133.3-370.1 M-140.3-359.8c0.5,3.1,1.7,10.1,1.8,11.2c-1.7,0.5-3.2,0.8-5.9,1.3
					c-7.9,1.3-14.1-3.6-15.7-13c-2-11.9,2.5-18.7,11-20.1c2.3-0.4,3.9-0.5,5.1-0.7c0.2,1.1,1.4,8.1,1.9,11.2L-140.3-359.8"/>
			</g>
			<g id="path5284">
				<path d="M-191.1-357.5c-2.5-6-4.1-10.2-5.8-15c-1.1,0.6-2.5,1.4-4.3,2.1c-2.8,1.2-6.5,2.4-11.9,4.7
					c-10.1,4.2-15.3,15.6-10.3,27.3c5.7,13.5,15.7,13.9,27.9,8.7c4.7-2,7.2-3.4,9.6-4.3c1.8-0.7,3.3-1.2,4.5-1.6
					c-2.3-4.6-4.1-8.7-6.7-14.6L-191.1-357.5 M-195.6-345.8c1.2,2.9,4,9.4,4.3,10.5c-1.6,0.9-2.9,1.5-5.5,2.6
					c-7.4,3.1-14.6-0.3-18.2-9.1c-4.7-11.1-1.9-18.7,6.1-22.1c2.2-0.9,3.7-1.4,4.8-1.8c0.5,1,3.2,7.5,4.4,10.4L-195.6-345.8"/>
			</g>
			<g id="path5286">
				<path d="M-230.5-339.7c-3.3-5.6-5.5-9.5-7.8-14.1c-1,0.8-2.3,1.7-10.4,6.5c-4.6,2.7-7.1,3.9-8.9,5c0.5,0.5,0.9,1,1.5,2
					c0.6,1,0.8,1.6,1.1,2.4c3.6-2.7,7.3-5.2,11-7.5c1.3,1.9,2.6,4.1,3.9,6.1c1.3,2.1,2.5,4.3,3.8,6.4c-3.8,2.3-7.6,4.3-11.6,6.3
					c0.8,1,1.1,1.3,1.5,1.9c0.4,0.6,0.6,1.1,1.1,2.4c3.7-2.5,6.8-4.5,11.1-7.1c2.2,3.6,4.3,7.2,6.2,11c-1.5,0.9-7.7,4.1-11.6,6.1
					c0.5,0.7,0.9,1.1,1.5,2.1c0.5,0.9,0.8,1.6,1,2.2c1.3-1,5.4-3.5,10.3-6.5c2.9-1.8,6.1-3.3,9-5c-2.9-4.2-5.3-8-8.6-13.6
					L-230.5-339.7"/>
			</g>
			<g id="path5288">
				<path d="M-271.2-318.7c8.8,5.5,18.7,11.4,26.1,16.6c1.2-1.2,2.5-2.3,3.8-3.4c1.3-1,2.8-2,4.3-3c-8.4-4.7-28.1-16.3-37.1-21.9
					c-0.6,0.6-1.1,1.3-1.8,1.8c-0.7,0.5-1.4,0.9-2.2,1.3c4.6,13.3,9.6,31.8,12.2,41.4c0.5-0.6,1.1-1.3,1.8-1.8
					c0.7-0.5,1.4-1,2.2-1.3C-265-298-268.3-308.6-271.2-318.7"/>
			</g>
			<g id="path5290">
				<path d="M-284.1-300.7c-4.5-4.7-7.6-7.9-10.9-11.8c-0.8,1-1.8,2.2-3.2,3.5s-2.6,2.3-3.6,3.1c3.8,3.4,7,6.5,11.6,11.2l5.5,5.7
					c4.5,4.7,7.6,7.9,10.9,11.8c0.8-1,1.8-2.2,3.2-3.5c1.4-1.3,2.6-2.3,3.6-3.1c-3.8-3.4-7-6.5-11.6-11.2L-284.1-300.7"/>
			</g>
			<g id="path5292">
				<path d="M-323.6-269.9c-0.4-3.6,1-8,3.3-10.9c4.2-5.2,12.4-7.6,21.6,0c9.5,7.8,9.2,16.7,5.2,21.5c-2.6,3.2-5.7,4.5-10.3,4.4
					l-0.5,0.6c1.4,1.4,2.7,3,3.7,4.8c3-1,7.1-4.2,9.7-7.3c7.8-9.4,9.9-21.7-2.4-31.9c-8.5-7-20-6.2-28.6,4.2
					c-3,3.7-4.9,7.4-5.6,10.8c1.1,1.2,2.1,2.6,3,4.1L-323.6-269.9"/>
			</g>
			<g id="path5294">
				<path d="M-320.2-258.8c-5.5-3.5-9.2-6-13.4-9c-0.6,1.1-1.3,2.6-6.3,10.6c-2.9,4.5-4.5,6.7-5.7,8.4c0.7,0.3,1.2,0.5,2.2,1.1
					c1,0.7,1.5,1.1,2.1,1.6c1.9-4.1,4.1-8,6.5-11.6c2,1.1,4.2,2.4,6.2,3.7c2.1,1.3,4.2,2.7,6.3,4c-2.4,3.7-4.8,7.3-7.5,10.9
					c1.1,0.5,1.6,0.7,2.2,1c0.6,0.4,1,0.7,2.1,1.6c2.2-3.9,4-7.1,6.6-11.4c3.6,2.3,7.1,4.5,10.6,7c-0.9,1.5-5,7.1-7.6,10.7
					c0.8,0.4,1.3,0.5,2.3,1.2c0.9,0.6,1.4,1,1.9,1.5c0.7-1.4,3.2-5.6,6.2-10.4c1.8-2.9,3.9-5.7,5.8-8.6c-4.5-2.4-8.4-4.7-13.9-8.2
					L-320.2-258.8"/>
			</g>
		</g>
		<g id="path331_2_">
			<path inkscape:connector-curvature="0" d="M90.9,401.9l-0.4-5.8c8.5-9,16.7-18.5,25.5-27.5l-27.5,2.1c0.1-0.8,0-1.6,0-2.4
				c-0.1-0.8-0.2-1.6-0.4-2.3l40.3-3.1l0.3,5c-7,7.4-13.8,14.3-20.3,21.5l-6.2,6.9l28.4-2.2c0,0.8-0.1,1.6,0,2.4
				c0.1,0.8,0.2,1.6,0.4,2.3L90.9,401.9 M117,348.3c4.3,2,7.8,3.8,11.7,5.3c-0.2,0.9-0.4,1.8-0.4,2.7c-0.1,0.9-0.1,1.9-0.1,2.8
				l-39-20.7c0.2-0.8,0.3-1.5,0.4-2.2c0.1-0.8,0.1-1.5,0-2.2l42.3-12.4c-0.3,1.7-0.6,3.3-0.8,5c-0.2,1.7-0.1,3.4-0.2,5.1
				c-4.5,0.9-8.6,1.8-12.7,3C118.3,334.7,117,348.3,117,348.3z M114.6,335.7l-14.2,3.9l13.1,6.8L114.6,335.7 M137.1,302.2
				c-0.5,1.4-1,2.8-1.4,4.2c-0.4,1.4-0.6,2.9-0.8,4.4L99.8,302c-1,4.1-1.5,7.8-1.9,10.8c-0.8-0.3-1.5-0.7-2.4-0.9
				c-0.8-0.2-1.6-0.2-2.5-0.3l7.4-29.4c0.8,0.3,1.5,0.7,2.3,0.9c0.9,0.2,1.7,0.2,2.5,0.3c-1.2,3.3-2.5,6.5-3.4,10L137.1,302.2
				 M103.8,273.1c0.6-1.4,1.3-2.7,1.8-4s0.9-2.8,1.2-4.3l37.9,14c-0.6,1.3-1.3,2.7-1.8,4c-0.5,1.4-0.8,2.8-1.2,4.2L103.8,273.1
				 M157.1,254.1c-6.2,11.5-17.1,15.5-28.9,9.2c-10.3-5.6-14.6-17.6-7.6-30.5c8-14.8,20.8-13.5,28.8-9.2
				C159.6,228.9,164,241.4,157.1,254.1L157.1,254.1z M134.4,255.4c6.7,3.6,15.5,4.5,19.7-3.3c4.3-8-1.7-15.9-10.3-20.5
				c-6.7-3.6-16-4.7-20.2,3.1C119.7,241.9,122.8,249.1,134.4,255.4 M139.4,203.9l3.7-4.5c12.4-0.6,24.9-1.7,37.5-2l-21.2-17.6
				c0.6-0.5,1.2-1.1,1.6-1.7c0.5-0.6,1-1.3,1.4-1.9l31.1,25.8l-3.2,3.8c-10.2,0.4-19.8,0.7-29.5,1.4l-9.3,0.7l22,18.2
				c-0.5,0.6-1.2,1.1-1.6,1.7c-0.5,0.6-0.9,1.3-1.4,1.9L139.4,203.9 M195.4,183.6c1.7,4.4,3,8.1,4.8,11.9c-0.8,0.6-1.5,1.1-2.2,1.7
				c-0.7,0.6-1.4,1.3-2,2l-13.6-42c0.7-0.4,1.2-0.8,1.8-1.3c0.6-0.5,1.1-1,1.6-1.6l39,20.5c-1.4,1-2.7,2-4,3.1
				c-1.3,1.1-2.4,2.3-3.7,3.5c-3.9-2.4-7.4-4.7-11.2-6.7L195.4,183.6L195.4,183.6z M202.5,172.8l-12.9-7l4.7,14L202.5,172.8
				 M233.2,164.5c4.3-2.7,7.8-5.4,11-7.9c0.3,0.8,0.7,1.6,1.1,2.3c0.4,0.7,1.1,1.4,1.6,2L228,172.8l-21.4-33.9
				c1.3-0.7,2.6-1.3,3.9-2.1c1.2-0.8,2.4-1.7,3.6-2.6L233.2,164.5 M271,114.5c-2.2-2.5-5.1-3.5-8.2-2.3c-4.3,1.7-5.2,4.6-3.9,7.7
				c2.9,7.4,19-0.5,24,12c2.8,7-1.3,14.4-9.8,17.8c-3,1.2-6.5,1.7-9.7,1.1c-0.2-2.6-0.6-5.1-1.2-7.6l1-0.4c2.3,3.5,6.2,4.5,9.9,3.1
				c3.4-1.3,5.7-4.4,4.2-8.2c-3.4-8.8-18.5,0.8-23.7-12.4c-2.5-6.3-0.2-13.2,8.1-16.5c3.9-1.6,8-1.4,9.7-0.8c0,2,0.2,4,0.4,6.1
				L271,114.5 M303.8,97.2c0.1,0.8,0.1,1.7,0.3,2.5c0.2,0.8,0.6,1.6,0.9,2.4c-3.6,0.4-7.6,1-13.4,2.6l3.2,12.3l5.9-1.5
				c2.6-0.7,4.8-1.5,6.9-2.3c0.1,0.8,0.1,1.7,0.3,2.5c0.2,0.8,0.6,1.6,0.9,2.4c-2.2,0.3-4.6,0.6-7.1,1.3l-5.9,1.5l3.7,14.5
				c5.8-1.6,9.6-2.8,13-4.2c0.1,0.8,0.1,1.7,0.3,2.5c0.2,0.8,0.6,1.6,0.9,2.4l-21.7,5.6l-10-38.8L303.8,97.2 M350.3,124.9l-0.7,5.2
				c-3.3,2.2-7.4,3.4-11.3,3.8c-12.5,1.4-22.9-5.3-24.2-17.3c-1.7-15.3,8.1-23.4,20.8-24.8c3.9-0.4,8.7,0.1,12.3,1.6
				c-0.3,2.1-0.4,4.1-0.7,6.2l-0.8,0.1c-2.5-2.9-6.5-4.7-10.3-4.3c-9.7,1.1-12.6,10.8-11.7,19.4c1.1,10,6.8,16.5,15.8,15.5
				c3.6-0.4,7.6-2.7,10-5.5L350.3,124.9 M359.6,91.1c1.5,0.2,2.9,0.5,4.4,0.6c1.5,0.1,3,0,4.4,0l-1.1,16.7c-0.2,3.2-0.6,8-0.3,11.1
				c0.3,2.9,0.7,4.8,2.7,7c1.8,1.9,3.9,2.8,6.5,2.9c5.5,0.4,8.5-1.4,10.9-6.4c1.2-2.5,1.7-9.2,1.8-12.1l1.1-17.8
				c0.8,0.2,1.6,0.3,2.3,0.3c0.8,0,1.6,0,2.4,0l-1.3,20.9c-0.6,6.7-0.9,12.8-7.3,16.7c-3.3,2.1-7.4,2.7-11.3,2.4
				c-7.1-0.5-14.7-3.2-16.4-11c-0.5-2.3-0.6-4.9-0.5-7.3L359.6,91.1 M409.2,95.9l12.2,2.9c2.7,0.6,6.9,1.5,9,3.4
				c2.9,2.5,4,5.5,3.1,9.4c-1.3,5.6-5.8,8.3-11.4,8.2c1.9,6.3,4.2,12.4,6.3,18.5l1.4,4.1c-1.7-0.5-3.4-1.1-5.1-1.5
				c-1.7-0.4-3.5-0.7-5.2-0.9l-4-13.6c-0.5-1.7-1.5-4.8-2.2-7.2l-0.4-0.1l-4.4,18.4c-1.4-0.5-2.8-1-4.2-1.3
				c-1.4-0.3-2.9-0.5-4.4-0.7L409.2,95.9L409.2,95.9z M413.4,116.4c5.9,2,9.5-0.2,10.9-6.1c0.2-0.8,0.3-1.7,0.4-2.9
				c0.2-5-4.2-5.5-7.7-6.4L413.4,116.4 M447.9,106.4c1.3,0.6,2.7,1.3,4,1.8c1.4,0.5,2.8,0.8,4.3,1.2l-13.8,38
				c-1.4-0.6-2.7-1.3-4.1-1.8c-1.4-0.5-2.8-0.8-4.3-1.2L447.9,106.4 M465.4,157.7c-1.3-0.8-2.5-1.6-3.8-2.2
				c-1.3-0.6-2.7-1.1-4.1-1.7l16-32.5c-3.8-1.8-7.3-3.1-10.2-4.1c0.5-0.7,1-1.3,1.4-2.2c0.4-0.7,0.6-1.6,0.8-2.3l27.2,13.4
				c-0.5,0.7-1,1.3-1.4,2.1c-0.4,0.8-0.6,1.6-0.9,2.4c-2.9-1.9-5.9-3.8-9.1-5.4L465.4,157.7 M495.5,155.6c0.6-8.8,1.9-17.5,2.7-26.4
				c1.4,1.1,2.8,2.2,4.2,3.2c1.5,1,3,1.8,4.6,2.7c-0.5,3.6-1.2,7.7-1.8,11.5c-0.5,3.6-1,6.8-0.9,7.9c3.4-1,12.5-6.6,17.2-9.5
				c0.7,0.6,1.5,1.2,2.3,1.8c0.8,0.5,1.6,1,2.4,1.4c-7.8,3.8-15.4,7.2-22.7,11.4l-10.3,15c-1.1-0.9-2.3-1.9-3.5-2.7
				c-1.2-0.8-2.5-1.5-3.8-2.3L495.5,155.6 M531.1,190.4c-4.3,1.9-8,3.4-11.7,5.3c-0.6-0.7-1.1-1.5-1.8-2.1c-0.6-0.7-1.4-1.3-2.1-1.9
				l41.3-15.5c0.4,0.6,0.9,1.2,1.4,1.7c0.5,0.6,1.1,1,1.7,1.5l-18.7,39.9c-1.1-1.3-2.1-2.7-3.2-3.9c-1.2-1.3-2.4-2.3-3.7-3.5
				c2.3-4,4.3-7.6,6.1-11.5L531.1,190.4L531.1,190.4z M542.2,197l6.5-13.2l-13.8,5.3L542.2,197 M565.1,252.1
				c-4.1-3.6-8-7.4-10.8-11.7c-6.8-10.4-7.6-23.1,4-30.6c12.3-8,24.4-3.1,31.8,8.3c2.8,4.2,4.4,8.8,4.7,13.9c-2,0.3-4.1,1-5.9,1.8
				l-0.4-0.7c1.8-4.4,1.3-9.1-1.3-13c-5.4-8.3-15.4-7.5-23.7-2.1c-8.6,5.6-10.9,13.3-6,20.8c1.6,2.5,3.4,3.8,4.9,4.5l11.5-7.5
				c0.7,1.3,1.4,2.6,2.2,3.9c0.8,1.2,1.8,2.4,2.6,3.6L565.1,252.1 M612.3,263.4c-0.8,0.2-1.7,0.4-2.4,0.8c-0.8,0.3-1.5,0.9-2.2,1.3
				c-1-3.5-2.2-7.3-4.8-12.8l-11.6,5.2l2.5,5.6c1.1,2.4,2.3,4.5,3.4,6.4c-0.8,0.2-1.7,0.4-2.4,0.8c-0.7,0.3-1.5,0.9-2.2,1.3
				c-0.6-2.1-1.4-4.4-2.5-6.8l-2.5-5.6l-13.7,6.1c2.5,5.5,4.4,9,6.3,12.1c-0.8,0.2-1.7,0.4-2.4,0.8c-0.7,0.3-1.5,0.9-2.2,1.3
				l-9.2-20.5l36.6-16.4L612.3,263.4 M616.7,274.5l1.5,5.6c-6.6,10.5-13,21.3-20,31.8l26.6-7.2c0.1,0.8,0.2,1.6,0.4,2.3
				c0.2,0.7,0.5,1.5,0.8,2.2l-39,10.5l-1.3-4.8c5.6-8.6,10.9-16.6,15.9-24.9l4.8-7.9l-27.5,7.4c-0.1-0.8-0.2-1.6-0.4-2.3
				c-0.2-0.7-0.5-1.5-0.8-2.2L616.7,274.5 M597.8,358.5l-5.2-0.8c-2.1-3.4-3.2-7.5-3.5-11.4c-1.1-12.5,5.8-22.7,17.8-23.8
				c15.3-1.3,23.2,8.6,24.4,21.4c0.3,3.9-0.2,8.7-1.8,12.2c-2-0.4-4.1-0.5-6.2-0.8l-0.1-0.8c3-2.5,4.9-6.4,4.5-10.2
				c-0.9-9.7-10.5-12.8-19.2-12.1c-10,0.9-16.6,6.4-15.8,15.5c0.3,3.6,2.6,7.7,5.3,10.1L597.8,358.5 M607.1,374.8
				c7.9-3.9,16.1-7.3,24.2-11.1c-0.2,1.8-0.5,3.5-0.6,5.3c-0.1,1.8-0.1,3.5-0.1,5.3c-3.3,1.4-7.2,2.9-10.8,4.3
				c-3.4,1.4-6.4,2.6-7.3,3.3c2.6,2.4,12.1,7.4,16.9,10c-0.2,0.9-0.3,1.9-0.4,2.9c-0.1,0.9-0.1,1.9,0,2.8
				c-7.2-4.7-14.1-9.6-21.4-13.8l-18.2-1.2c0.2-1.5,0.5-2.9,0.6-4.4c0.1-1.5,0-2.9,0-4.4L607.1,374.8"/>
		</g>
	</g>
</g>
</svg>
